M48
METRIC,LZ,000.000
;FILE_FORMAT=3:3
;TYPE=PLATED
;Layer: PTH_Through_Via
;EasyEDA v6.5.22, 2023-04-21 15:38:10
;6d2149ed1d2646eb8880a206008ce751,0d2cea57a9a8422ebbcee2df73fbc454,10
;Gerber Generator version 0.2
;Holesize 1 = 0.306 mm
T01C0.306
;Holesize 2 = 0.390 mm
T02C0.390
;Holesize 3 = 0.800 mm
T03C0.800
%
G05
G90
T01
X081568Y031773
X114654Y031461
X110562Y022357
X087261Y027195
X050161Y047272
X069037Y038366
X084949Y015335
X070646Y042581
X059386Y052032
X090042Y030225
X078970Y038551
X076962Y042545
X070646Y043747
X073914Y046736
X025550Y055342
X087623Y010884
X114892Y035485
X058812Y020262
X049784Y033528
X042796Y035595
X043307Y034544
X085954Y046704
X108077Y024003
X082417Y038518
X085050Y050829
X084131Y050148
X071995Y045763
X072835Y041479
X072688Y038573
X048385Y028405
X070826Y044649
X059817Y032639
X077851Y031496
X070967Y038472
X121456Y017008
X064523Y046651
X063109Y039068
X061969Y041571
X062078Y043897
X100988Y016464
X122494Y040623
X069977Y021209
X064516Y048133
X058725Y029273
X113157Y008636
X089027Y013869
X069232Y034242
X067012Y038511
X111677Y034421
X072771Y033401
X064263Y039039
X086970Y015206
X065370Y056763
X068981Y055303
X069824Y055669
X069985Y056487
X071374Y063500
X071780Y055311
X073914Y057912
X076962Y047244
X049784Y059309
X047691Y055762
X059055Y055499
X060576Y055499
X061976Y055499
X063943Y055499
X065343Y055499
X074295Y055499
X076008Y055753
X077408Y055753
X079437Y055753
X080837Y055753
X086106Y052959
X089408Y050038
X089706Y055582
X089851Y057785
X091251Y057785
X086868Y059690
X071628Y050292
X118745Y014478
X056896Y047244
X056134Y005198
X058928Y047752
X060198Y047752
X058928Y046482
X060198Y046482
X058928Y045212
X060198Y045212
X062738Y047879
X064135Y049911
X077216Y049022
X078613Y049022
X080010Y049022
X089789Y059436
X091186Y059436
X133350Y001270
X124079Y008636
X113665Y005715
X113919Y019050
X133096Y018669
X137287Y010541
X098679Y012192
X095123Y011176
X080391Y008255
X065659Y014732
X060452Y014351
X064516Y021717
X069342Y023114
X054229Y020574
X044069Y003556
X030480Y018796
X016637Y002921
X003810Y009906
X008890Y017399
X020701Y024765
X012319Y024130
X015875Y038862
X003683Y036195
X020447Y042672
X020447Y045085
X020320Y047625
X020193Y050419
X019939Y053975
X003302Y053086
X023114Y073279
X020193Y081407
X063119Y079883
X049022Y054483
X042418Y060325
X059055Y057531
X057912Y055499
X056261Y050800
X065786Y048080
X069088Y050292
X066802Y060325
X049149Y048387
X047752Y048387
X046228Y048387
X075311Y054229
X072771Y046990
X061595Y064135
X069977Y064643
X087376Y080518
X086233Y070866
X099187Y069596
X108585Y060579
X115189Y064389
X119126Y065278
X123317Y065024
X113665Y072390
X127762Y070739
X136144Y065786
X127762Y065024
X114554Y050673
X119126Y045339
X107950Y039116
X131953Y040386
X137160Y051435
X113792Y013843
X136398Y028067
X092837Y038862
X089281Y042799
X083947Y002286
T02
X019685Y075438
T03
X104775Y063881
X099060Y058674
X115316Y069088
X115824Y071882
M30
