M48
METRIC,LZ,000.000
;FILE_FORMAT=3:3
;TYPE=PLATED
;Layer: PTH_Through
;EasyEDA v6.5.22, 2023-04-21 15:38:10
;6d2149ed1d2646eb8880a206008ce751,0d2cea57a9a8422ebbcee2df73fbc454,10
;Gerber Generator version 0.2
;Holesize 1 = 0.650 mm
T01C0.650
;Holesize 2 = 0.720 mm
T02C0.720
;Holesize 3 = 0.889 mm
T03C0.889
;Holesize 4 = 0.915 mm
T04C0.915
;Holesize 5 = 1.000 mm
T05C1.000
;Holesize 6 = 1.021 mm
T06C1.021
;Holesize 7 = 1.194 mm
T07C1.194
;Holesize 8 = 1.200 mm
T08C1.200
;Holesize 9 = 1.221 mm
T09C1.221
;Holesize 10 = 3.201 mm
T10C3.201
%
G05
G90
T01
X027434Y079533G85X027434Y078983
X018794Y079533G85X018794Y078983
X027434Y083333G85X027434Y082783
X018794Y083333G85X018794Y082783
T02
X017488Y011176
X015488Y011176
X013488Y011176
X019488Y011176
X021488Y011176
X023488Y011176
X011488Y011176
X042164Y011176
X040164Y011176
X038164Y011176
X044164Y011176
X046164Y011176
X048164Y011176
X036164Y011176
T03
X109347Y003810
X106807Y003810
X104267Y003810
X101727Y003810
X099187Y003810
X096647Y003810
X094107Y003810
X091567Y003810
X089027Y003810
X086487Y003810
X081407Y003810
X078867Y003810
X076327Y003810
X073787Y003810
X071247Y003810
X068707Y003810
X066167Y003810
X063627Y003810
X061087Y003810
X083947Y003810
X061087Y019050
X063627Y019050
X066167Y019050
X109347Y019050
X106807Y019050
X104267Y019050
X068707Y019050
X071247Y019050
X101727Y019050
X099187Y019050
X096647Y019050
X073787Y019050
X094107Y019050
X076327Y019050
X091567Y019050
X078867Y019050
X081407Y019050
X089027Y019050
X086487Y019050
X083947Y019050
T04
X048949Y061925
X051489Y061925
X054029Y061925
X056569Y061925
X059109Y061925
X061649Y061925
X064189Y061925
X066729Y061925
X069269Y061925
X071809Y061925
X074349Y061925
X076889Y061925
X079429Y061925
X081969Y061925
X084509Y061925
X087049Y061925
X089589Y061925
X092129Y061925
X048949Y078181
X051489Y078181
X054029Y078181
X056569Y078181
X059109Y078181
X061649Y078181
X064189Y078181
X066729Y078181
X069269Y078181
X071809Y078181
X074349Y078181
X076889Y078181
X079429Y078181
X081969Y078181
X084509Y078181
X087049Y078181
X089589Y078181
X092129Y078181
X128981Y008763
X131521Y008763
X116628Y008763
X119168Y008763
T05
X040767Y025270G85X040767Y025275
X043307Y025270G85X043307Y025275
X045847Y025270G85X045847Y025275
X048387Y025270G85X048387Y025275
X050927Y025270G85X050927Y025275
X053467Y025270G85X053467Y025275
X056007Y025270G85X056007Y025275
X058547Y025270G85X058547Y025275
X061087Y025270G85X061087Y025275
X063627Y025270G85X063627Y025275
X066167Y025270G85X066167Y025275
X068707Y025270G85X068707Y025275
X071247Y025270G85X071247Y025275
X073787Y025270G85X073787Y025275
X076327Y025270G85X076327Y025275
X078867Y025270G85X078867Y025275
X081407Y025270G85X081407Y025275
X083947Y025270G85X083947Y025275
X086487Y025270G85X086487Y025275
X089027Y025270G85X089027Y025275
X091567Y025270G85X091567Y025275
X094107Y025270G85X094107Y025275
X096647Y025270G85X096647Y025275
X099187Y025270G85X099187Y025275
X099187Y040515G85X099187Y040510
X096647Y040515G85X096647Y040510
X094107Y040515G85X094107Y040510
X091567Y040515G85X091567Y040510
X089027Y040515G85X089027Y040510
X086487Y040515G85X086487Y040510
X083947Y040515G85X083947Y040510
X081407Y040515G85X081407Y040510
X078867Y040515G85X078867Y040510
X076327Y040515G85X076327Y040510
X073787Y040515G85X073787Y040510
X071247Y040515G85X071247Y040510
X068707Y040515G85X068707Y040510
X066167Y040515G85X066167Y040510
X063627Y040515G85X063627Y040510
X061087Y040515G85X061087Y040510
X058547Y040515G85X058547Y040510
X056007Y040515G85X056007Y040510
X053467Y040515G85X053467Y040510
X050927Y040515G85X050927Y040510
X048387Y040515G85X048387Y040510
X045847Y040515G85X045847Y040510
X043307Y040515G85X043307Y040510
X040767Y040515G85X040767Y040510
T06
X125476Y052197
X125476Y049657
X125476Y047117
X125476Y044577
X125476Y042037
X125476Y039497
X125476Y036957
X125476Y034417
X125476Y031877
X125476Y029337
X125476Y026797
X125476Y024257
X125476Y021717
X125476Y019177
X128016Y019177
X128016Y021717
X128016Y024257
X128016Y026797
X128016Y029337
X128016Y031877
X128016Y034417
X128016Y036957
X128016Y039497
X128016Y042037
X128016Y044577
X128016Y047117
X128016Y049657
X128016Y052197
T07
X125531Y074803
X123281Y074803
X121031Y074803
X118781Y074803
X116531Y074803
X124406Y077343
X122156Y077343
X119906Y077343
X117656Y077343
X115406Y077343
X125531Y079883
X123281Y079883
X121031Y079883
X118781Y079883
X116531Y079883
T08
X023548Y057785
X023548Y055245
X023548Y052705
X023548Y050165
X023548Y047625
X023548Y045085
X023548Y042545
X023548Y040005
X023548Y037465
X023548Y034925
X023548Y032385
X023548Y029845
X023548Y027305
X023548Y024765
X007948Y024765
X007948Y027305
X007948Y029845
X007948Y032385
X007948Y034925
X007948Y037465
X007948Y040005
X007948Y045085
X007948Y047625
X007948Y050165
X007948Y052705
X007948Y055245
X007948Y042545
X007948Y057785
T09
X007239Y068707G85X007239Y068707
X009779Y068707G85X009779Y068707
X012319Y068707G85X012319Y068707
T10
X133531Y077343
X108531Y077343
M30
