G04 Layer: BottomSolderMaskLayer*
G04 EasyEDA v6.5.22, 2023-04-21 15:38:10*
G04 6d2149ed1d2646eb8880a206008ce751,0d2cea57a9a8422ebbcee2df73fbc454,10*
G04 Gerber Generator version 0.2*
G04 Scale: 100 percent, Rotated: No, Reflected: No *
G04 Dimensions in millimeters *
G04 leading zeros omitted , absolute positions ,4 integer and 5 decimal *
%FSLAX45Y45*%
%MOMM*%

%AMMACRO1*1,1,$1,$2,$3*1,1,$1,$4,$5*1,1,$1,0-$2,0-$3*1,1,$1,0-$4,0-$5*20,1,$1,$2,$3,$4,$5,0*20,1,$1,$4,$5,0-$2,0-$3,0*20,1,$1,0-$2,0-$3,0-$4,0-$5,0*20,1,$1,0-$4,0-$5,$2,$3,0*4,1,4,$2,$3,$4,$5,0-$2,0-$3,0-$4,0-$5,$2,$3,0*%
%ADD10C,1.8034*%
%ADD11MACRO1,0.2032X-0.8001X0.8001X0.8001X0.8001*%
%ADD12MACRO1,0.1016X-0.85X-0.8499X-0.85X0.8499*%
%ADD13C,1.8016*%
%ADD14MACRO1,0.1016X-0.762X-0.762X-0.762X0.762*%
%ADD15C,1.6256*%
%ADD16R,1.7272X1.7272*%
%ADD17C,1.7272*%
%ADD18C,1.2032*%
%ADD19MACRO1,0.2032X-0.5X0.5X0.5X0.5*%
%ADD20C,3.7008*%
%ADD21C,1.6942*%
%ADD22MACRO1,0.1016X-0.915X0.915X0.915X0.915*%
%ADD23C,1.9317*%
%ADD24MACRO1,0.2032X-0.762X-0.762X-0.762X0.762*%
%ADD25C,1.9016*%
%ADD26MACRO1,0.1016X0.8992X0.8992X0.8992X-0.8992*%
%ADD27O,1.3031978X1.9031966*%
%ADD28O,0.0187X1.9031966*%

%LPD*%
D10*
G01*
X10934700Y381000D03*
G01*
X10680700Y381000D03*
G01*
X10426700Y381000D03*
G01*
X10172700Y381000D03*
G01*
X9918700Y381000D03*
G01*
X9664700Y381000D03*
G01*
X9410700Y381000D03*
G01*
X9156700Y381000D03*
G01*
X8902700Y381000D03*
G01*
X8648700Y381000D03*
G01*
X8140700Y381000D03*
G01*
X7886700Y381000D03*
G01*
X7632700Y381000D03*
G01*
X7378700Y381000D03*
G01*
X7124700Y381000D03*
G01*
X6870700Y381000D03*
G01*
X6616700Y381000D03*
G01*
X6362700Y381000D03*
D11*
G01*
X6108689Y381000D03*
D10*
G01*
X8394700Y381000D03*
G01*
X6108700Y1905000D03*
G01*
X6362700Y1905000D03*
G01*
X6616700Y1905000D03*
G01*
X10934700Y1905000D03*
G01*
X10680700Y1905000D03*
G01*
X10426700Y1905000D03*
G01*
X6870700Y1905000D03*
G01*
X7124700Y1905000D03*
G01*
X10172700Y1905000D03*
G01*
X9918700Y1905000D03*
G01*
X9664700Y1905000D03*
G01*
X7378700Y1905000D03*
G01*
X9410700Y1905000D03*
G01*
X7632700Y1905000D03*
G01*
X9156700Y1905000D03*
G01*
X7886700Y1905000D03*
G01*
X8140700Y1905000D03*
G01*
X8902700Y1905000D03*
G01*
X8648700Y1905000D03*
G01*
X8394700Y1905000D03*
D12*
G01*
X4076674Y2527292D03*
D13*
G01*
X4330700Y2527300D03*
G01*
X4584700Y2527300D03*
G01*
X4838700Y2527300D03*
G01*
X5092700Y2527300D03*
G01*
X5346700Y2527300D03*
G01*
X5600700Y2527300D03*
G01*
X5854700Y2527300D03*
G01*
X6108700Y2527300D03*
G01*
X6362700Y2527300D03*
G01*
X6616700Y2527300D03*
G01*
X6870700Y2527300D03*
G01*
X7124700Y2527300D03*
G01*
X7378700Y2527300D03*
G01*
X7632700Y2527300D03*
G01*
X7886700Y2527300D03*
G01*
X8140700Y2527300D03*
G01*
X8394700Y2527300D03*
G01*
X8648700Y2527300D03*
G01*
X8902700Y2527300D03*
G01*
X9156700Y2527300D03*
G01*
X9410700Y2527300D03*
G01*
X9664700Y2527300D03*
G01*
X9918700Y2527300D03*
G01*
X9918700Y4051300D03*
G01*
X9664700Y4051300D03*
G01*
X9410700Y4051300D03*
G01*
X9156700Y4051300D03*
G01*
X8902700Y4051300D03*
G01*
X8648700Y4051300D03*
G01*
X8394700Y4051300D03*
G01*
X8140700Y4051300D03*
G01*
X7886700Y4051300D03*
G01*
X7632700Y4051300D03*
G01*
X7378700Y4051300D03*
G01*
X7124700Y4051300D03*
G01*
X6870700Y4051300D03*
G01*
X6616700Y4051300D03*
G01*
X6362700Y4051300D03*
G01*
X6108700Y4051300D03*
G01*
X5854700Y4051300D03*
G01*
X5600700Y4051300D03*
G01*
X5346700Y4051300D03*
G01*
X5092700Y4051300D03*
G01*
X4838700Y4051300D03*
G01*
X4584700Y4051300D03*
G01*
X4330700Y4051300D03*
G01*
X4076700Y4051300D03*
D14*
G01*
X4894889Y6192486D03*
D15*
G01*
X5148884Y6192494D03*
G01*
X5402884Y6192494D03*
G01*
X5656884Y6192494D03*
G01*
X5910884Y6192494D03*
G01*
X6164884Y6192494D03*
G01*
X6418884Y6192494D03*
G01*
X6672884Y6192494D03*
G01*
X6926884Y6192494D03*
G01*
X7180884Y6192494D03*
G01*
X7434884Y6192494D03*
G01*
X7688884Y6192494D03*
G01*
X7942884Y6192494D03*
G01*
X8196884Y6192494D03*
G01*
X8450884Y6192494D03*
G01*
X8704884Y6192494D03*
G01*
X8958884Y6192494D03*
G01*
X9212884Y6192494D03*
D14*
G01*
X4894889Y7818084D03*
D15*
G01*
X5148884Y7818094D03*
G01*
X5402884Y7818094D03*
G01*
X5656884Y7818094D03*
G01*
X5910884Y7818094D03*
G01*
X6164884Y7818094D03*
G01*
X6418884Y7818094D03*
G01*
X6672884Y7818094D03*
G01*
X6926884Y7818094D03*
G01*
X7180884Y7818094D03*
G01*
X7434884Y7818094D03*
G01*
X7688884Y7818094D03*
G01*
X7942884Y7818094D03*
G01*
X8196884Y7818094D03*
G01*
X8450884Y7818094D03*
G01*
X8704884Y7818094D03*
G01*
X8958884Y7818094D03*
G01*
X9212884Y7818094D03*
D16*
G01*
X12898120Y876300D03*
D17*
G01*
X13152120Y876300D03*
D15*
G01*
X12547574Y5219700D03*
G01*
X12547574Y4965700D03*
G01*
X12547574Y4711700D03*
G01*
X12547574Y4457700D03*
G01*
X12547574Y4203700D03*
G01*
X12547574Y3949700D03*
G01*
X12547574Y3695700D03*
G01*
X12547574Y3441700D03*
G01*
X12547574Y3187700D03*
G01*
X12547574Y2933700D03*
G01*
X12547574Y2679700D03*
G01*
X12547574Y2425700D03*
G01*
X12547574Y2171700D03*
G01*
X12547574Y1917700D03*
G01*
X12801574Y1917700D03*
G01*
X12801574Y2171700D03*
G01*
X12801574Y2425700D03*
G01*
X12801574Y2679700D03*
G01*
X12801574Y2933700D03*
G01*
X12801574Y3187700D03*
G01*
X12801574Y3441700D03*
G01*
X12801574Y3695700D03*
G01*
X12801574Y3949700D03*
G01*
X12801574Y4203700D03*
G01*
X12801574Y4457700D03*
G01*
X12801574Y4711700D03*
G01*
X12801574Y4965700D03*
G01*
X12801574Y5219700D03*
D18*
G01*
X1748815Y1117600D03*
G01*
X1548815Y1117600D03*
G01*
X1348816Y1117600D03*
G01*
X1948815Y1117600D03*
G01*
X2148814Y1117600D03*
G01*
X2348814Y1117600D03*
D19*
G01*
X1148811Y1117600D03*
D18*
G01*
X4216400Y1117600D03*
G01*
X4016400Y1117600D03*
G01*
X3816400Y1117600D03*
G01*
X4416374Y1117600D03*
G01*
X4616399Y1117600D03*
G01*
X4816398Y1117600D03*
D19*
G01*
X3616393Y1117597D03*
D20*
G01*
X13353084Y7734300D03*
G01*
X10853064Y7734300D03*
D21*
G01*
X12553061Y7480300D03*
G01*
X12328067Y7480300D03*
G01*
X12103074Y7480300D03*
G01*
X11878081Y7480300D03*
G01*
X11653062Y7480300D03*
G01*
X12440564Y7734300D03*
G01*
X12215571Y7734300D03*
G01*
X11990577Y7734300D03*
G01*
X11765584Y7734300D03*
G01*
X11540566Y7734300D03*
G01*
X12553061Y7988300D03*
G01*
X12328067Y7988300D03*
G01*
X12103074Y7988300D03*
G01*
X11878081Y7988300D03*
G01*
X11653062Y7988300D03*
D22*
G01*
X723897Y6870687D03*
D23*
G01*
X977900Y6870700D03*
G01*
X1231900Y6870700D03*
D24*
G01*
X11662793Y876300D03*
D17*
G01*
X11916790Y876300D03*
D25*
G01*
X2354808Y5778500D03*
G01*
X2354808Y5524500D03*
G01*
X2354808Y5270500D03*
G01*
X2354808Y5016500D03*
G01*
X2354808Y4762500D03*
G01*
X2354808Y4508500D03*
G01*
X2354808Y4254500D03*
G01*
X2354808Y4000500D03*
G01*
X2354808Y3746500D03*
G01*
X2354808Y3492500D03*
G01*
X2354808Y3238500D03*
G01*
X2354808Y2984500D03*
G01*
X2354808Y2730500D03*
G01*
X2354808Y2476500D03*
G01*
X794791Y2476500D03*
G01*
X794791Y2730500D03*
G01*
X794791Y2984500D03*
G01*
X794791Y3238500D03*
G01*
X794791Y3492500D03*
G01*
X794791Y3746500D03*
G01*
X794791Y4000500D03*
G01*
X794791Y4508500D03*
G01*
X794791Y4762500D03*
G01*
X794791Y5016500D03*
G01*
X794791Y5270500D03*
G01*
X794791Y5524500D03*
G01*
X794791Y4254500D03*
D26*
G01*
X794809Y5778492D03*
D27*
G01*
X2743403Y7925790D03*
G01*
X1879396Y7925790D03*
G01*
X2743403Y8305800D03*
G01*
X1879396Y8305800D03*
M02*
