G04 Layer: TopSilkscreenLayer*
G04 EasyEDA v6.5.22, 2023-04-21 15:38:10*
G04 6d2149ed1d2646eb8880a206008ce751,0d2cea57a9a8422ebbcee2df73fbc454,10*
G04 Gerber Generator version 0.2*
G04 Scale: 100 percent, Rotated: No, Reflected: No *
G04 Dimensions in millimeters *
G04 leading zeros omitted , absolute positions ,4 integer and 5 decimal *
%FSLAX45Y45*%
%MOMM*%

%ADD10C,0.2032*%
%ADD11C,0.1524*%
%ADD12C,0.0500*%
%ADD13C,0.1000*%
%ADD14C,0.2540*%
%ADD15C,0.2000*%
%ADD16C,0.1999*%
%ADD17C,0.1500*%
%ADD18C,0.0169*%

%LPD*%
G36*
X2319883Y6651752D02*
G01*
X2312873Y6648856D01*
X2298700Y6642100D01*
X2293213Y6638950D01*
X2286508Y6634480D01*
X2278837Y6628739D01*
X2261006Y6614210D01*
X2251202Y6605727D01*
X2230628Y6586981D01*
X2209749Y6566916D01*
X2189835Y6546697D01*
X2172208Y6527495D01*
X2164638Y6518706D01*
X2158136Y6510578D01*
X2149297Y6498590D01*
X2142439Y6487972D01*
X2139696Y6482994D01*
X2137511Y6478270D01*
X2135784Y6473698D01*
X2134514Y6469227D01*
X2133752Y6464858D01*
X2133503Y6460439D01*
X2144776Y6460439D01*
X2145030Y6462623D01*
X2145690Y6465214D01*
X2146757Y6468110D01*
X2150110Y6474815D01*
X2154885Y6482638D01*
X2160981Y6491427D01*
X2168194Y6501028D01*
X2176424Y6511239D01*
X2185517Y6522008D01*
X2195322Y6533083D01*
X2205685Y6544360D01*
X2216404Y6555638D01*
X2227427Y6566865D01*
X2238552Y6577787D01*
X2260498Y6598310D01*
X2271064Y6607556D01*
X2281123Y6615938D01*
X2290521Y6623303D01*
X2299157Y6629501D01*
X2306878Y6634378D01*
X2310282Y6636258D01*
X2316327Y6638848D01*
X2318867Y6639509D01*
X2321001Y6639763D01*
X2324811Y6638239D01*
X2331923Y6634073D01*
X2341372Y6627926D01*
X2355646Y6617817D01*
X2363571Y6611518D01*
X2372360Y6604000D01*
X2391918Y6586220D01*
X2412847Y6565900D01*
X2428646Y6549847D01*
X2448661Y6528562D01*
X2466187Y6508800D01*
X2473604Y6499961D01*
X2479852Y6491986D01*
X2484780Y6485128D01*
X2488184Y6479540D01*
X2499614Y6458356D01*
X2480513Y6429603D01*
X2474417Y6421729D01*
X2466492Y6412331D01*
X2457094Y6401612D01*
X2435148Y6377889D01*
X2411171Y6353302D01*
X2387854Y6330391D01*
X2377236Y6320434D01*
X2367737Y6311950D01*
X2359761Y6305245D01*
X2353564Y6300622D01*
X2351278Y6299200D01*
X2346401Y6297015D01*
X2344521Y6296863D01*
X2343048Y6297574D01*
X2341880Y6299301D01*
X2340965Y6302197D01*
X2340305Y6306413D01*
X2339848Y6312204D01*
X2339390Y6328968D01*
X2339340Y6414820D01*
X2297176Y6414820D01*
X2293721Y6291072D01*
X2233574Y6348120D01*
X2220112Y6361328D01*
X2207514Y6374180D01*
X2195830Y6386576D01*
X2185162Y6398361D01*
X2175611Y6409537D01*
X2167229Y6420002D01*
X2160016Y6429603D01*
X2154174Y6438341D01*
X2149652Y6446062D01*
X2146554Y6452666D01*
X2145588Y6455562D01*
X2144979Y6458153D01*
X2144776Y6460439D01*
X2133503Y6460439D01*
X2133701Y6456222D01*
X2134412Y6451854D01*
X2135632Y6447434D01*
X2137308Y6442913D01*
X2139492Y6438188D01*
X2142134Y6433312D01*
X2145233Y6428181D01*
X2153005Y6417056D01*
X2160930Y6406743D01*
X2168398Y6397701D01*
X2176881Y6388049D01*
X2186127Y6377940D01*
X2206447Y6356959D01*
X2228037Y6335979D01*
X2249525Y6316319D01*
X2259787Y6307378D01*
X2269591Y6299200D01*
X2278684Y6292037D01*
X2286965Y6285941D01*
X2298242Y6278524D01*
X2304440Y6274866D01*
X2309622Y6272428D01*
X2314194Y6271107D01*
X2318613Y6270802D01*
X2323236Y6271514D01*
X2328468Y6273088D01*
X2336850Y6276543D01*
X2342235Y6279794D01*
X2348890Y6284518D01*
X2356764Y6290564D01*
X2375154Y6305956D01*
X2396083Y6324701D01*
X2418130Y6345428D01*
X2439924Y6366814D01*
X2460040Y6387592D01*
X2477109Y6406337D01*
X2484018Y6414566D01*
X2489708Y6421831D01*
X2497023Y6432499D01*
X2501087Y6439103D01*
X2504287Y6444996D01*
X2506573Y6450431D01*
X2507945Y6455511D01*
X2508402Y6460439D01*
X2507894Y6465366D01*
X2506522Y6470446D01*
X2504236Y6475831D01*
X2501036Y6481775D01*
X2496921Y6488379D01*
X2488844Y6500063D01*
X2481681Y6509257D01*
X2473198Y6519316D01*
X2463647Y6530035D01*
X2453182Y6541211D01*
X2442006Y6552742D01*
X2418283Y6575907D01*
X2394000Y6598310D01*
X2382113Y6608724D01*
X2370632Y6618427D01*
X2359812Y6627215D01*
X2349804Y6634937D01*
X2340762Y6641439D01*
X2332939Y6646468D01*
X2326538Y6649923D01*
X2323896Y6651040D01*
X2321661Y6651650D01*
G37*
G36*
X2296769Y6560718D02*
G01*
X2296769Y6533388D01*
X2304034Y6533388D01*
X2304186Y6539839D01*
X2304745Y6544056D01*
X2305659Y6545580D01*
X2306828Y6544106D01*
X2307793Y6540347D01*
X2308148Y6535674D01*
X2308033Y6533388D01*
X2316175Y6533388D01*
X2316327Y6539839D01*
X2316937Y6544056D01*
X2317851Y6545580D01*
X2318969Y6544106D01*
X2319934Y6540347D01*
X2320290Y6535674D01*
X2320197Y6533388D01*
X2328367Y6533388D01*
X2328519Y6539839D01*
X2329078Y6544056D01*
X2329992Y6545580D01*
X2331161Y6544106D01*
X2332126Y6540347D01*
X2332482Y6535674D01*
X2332228Y6530644D01*
X2331364Y6525869D01*
X2330246Y6523126D01*
X2329332Y6523634D01*
X2328672Y6527139D01*
X2328367Y6533388D01*
X2320197Y6533388D01*
X2320086Y6530644D01*
X2319223Y6525869D01*
X2318105Y6523126D01*
X2317191Y6523634D01*
X2316480Y6527139D01*
X2316175Y6533388D01*
X2308033Y6533388D01*
X2307894Y6530644D01*
X2307082Y6525869D01*
X2305964Y6523126D01*
X2304999Y6523634D01*
X2304338Y6527139D01*
X2304034Y6533388D01*
X2296769Y6533388D01*
X2296769Y6439154D01*
X2339340Y6439154D01*
X2339340Y6560718D01*
G37*
G36*
X3266338Y6554622D02*
G01*
X3248355Y6554317D01*
X3236010Y6553657D01*
X3231743Y6553149D01*
X3228644Y6552539D01*
X3226663Y6551777D01*
X3225647Y6550863D01*
X3225596Y6549745D01*
X3226409Y6548475D01*
X3230473Y6544767D01*
X3232658Y6542074D01*
X3234690Y6538976D01*
X3236417Y6535318D01*
X3237941Y6531152D01*
X3239262Y6526428D01*
X3240328Y6521094D01*
X3241192Y6515150D01*
X3241852Y6508496D01*
X3242564Y6493052D01*
X3242274Y6467957D01*
X3269386Y6467957D01*
X3269538Y6513169D01*
X3269894Y6520637D01*
X3270503Y6527190D01*
X3271367Y6532778D01*
X3272434Y6537299D01*
X3273755Y6540804D01*
X3275279Y6543243D01*
X3277006Y6544564D01*
X3283305Y6546596D01*
X3289757Y6547713D01*
X3296158Y6547967D01*
X3302457Y6547307D01*
X3308502Y6545834D01*
X3314242Y6543497D01*
X3319475Y6540347D01*
X3324148Y6536385D01*
X3327654Y6532524D01*
X3330549Y6528562D01*
X3332835Y6524548D01*
X3334512Y6520535D01*
X3335629Y6516471D01*
X3336188Y6512458D01*
X3336188Y6508445D01*
X3335629Y6504533D01*
X3334562Y6500672D01*
X3332987Y6496964D01*
X3330905Y6493357D01*
X3328314Y6489954D01*
X3325266Y6486702D01*
X3321710Y6483705D01*
X3317748Y6480911D01*
X3313328Y6478422D01*
X3308451Y6476187D01*
X3303168Y6474307D01*
X3297529Y6472732D01*
X3291433Y6471513D01*
X3269386Y6467957D01*
X3242274Y6467957D01*
X3241649Y6452463D01*
X3240446Y6432499D01*
X3270097Y6432499D01*
X3270453Y6444437D01*
X3271316Y6452768D01*
X3271926Y6455156D01*
X3273653Y6458000D01*
X3276346Y6460185D01*
X3279901Y6461760D01*
X3284118Y6462776D01*
X3288944Y6463182D01*
X3294126Y6463030D01*
X3299612Y6462318D01*
X3305251Y6461099D01*
X3310839Y6459321D01*
X3316325Y6456984D01*
X3321558Y6454190D01*
X3326333Y6450838D01*
X3330346Y6447332D01*
X3333750Y6443624D01*
X3336594Y6439662D01*
X3338931Y6435496D01*
X3340709Y6431229D01*
X3342030Y6426860D01*
X3342792Y6422440D01*
X3343097Y6418021D01*
X3342944Y6413550D01*
X3342335Y6409182D01*
X3341268Y6404864D01*
X3339795Y6400698D01*
X3337915Y6396685D01*
X3335629Y6392824D01*
X3332987Y6389217D01*
X3329990Y6385915D01*
X3326637Y6382918D01*
X3322929Y6380226D01*
X3318916Y6377940D01*
X3314649Y6376060D01*
X3310026Y6374638D01*
X3305149Y6373723D01*
X3300069Y6373317D01*
X3294684Y6373469D01*
X3272434Y6375298D01*
X3270300Y6418478D01*
X3270097Y6432499D01*
X3240446Y6432499D01*
X3239363Y6416852D01*
X3237738Y6400088D01*
X3236772Y6393789D01*
X3235706Y6388557D01*
X3234486Y6384391D01*
X3233013Y6381038D01*
X3231337Y6378448D01*
X3229356Y6376365D01*
X3227070Y6374638D01*
X3222498Y6372098D01*
X3221431Y6371132D01*
X3221329Y6370269D01*
X3222294Y6369507D01*
X3224276Y6368846D01*
X3231540Y6367780D01*
X3243580Y6367119D01*
X3260648Y6366713D01*
X3281070Y6366611D01*
X3298901Y6366967D01*
X3314446Y6367932D01*
X3327755Y6369558D01*
X3333648Y6370675D01*
X3339033Y6371945D01*
X3343960Y6373418D01*
X3348431Y6375146D01*
X3352444Y6377076D01*
X3356051Y6379210D01*
X3359251Y6381597D01*
X3362045Y6384239D01*
X3364484Y6387185D01*
X3366566Y6390335D01*
X3368294Y6393789D01*
X3369767Y6397548D01*
X3370884Y6401612D01*
X3371748Y6405981D01*
X3372662Y6415633D01*
X3372764Y6420967D01*
X3372256Y6425590D01*
X3370935Y6430416D01*
X3368801Y6435242D01*
X3365957Y6440017D01*
X3362604Y6444640D01*
X3358743Y6449009D01*
X3354527Y6452971D01*
X3350056Y6456476D01*
X3345383Y6459372D01*
X3340709Y6461556D01*
X3336036Y6462979D01*
X3331514Y6463436D01*
X3329584Y6464554D01*
X3331108Y6467551D01*
X3335680Y6471970D01*
X3349193Y6481927D01*
X3354425Y6486702D01*
X3358692Y6491681D01*
X3361994Y6496761D01*
X3364229Y6501942D01*
X3365550Y6507175D01*
X3365804Y6512509D01*
X3365093Y6517894D01*
X3363366Y6523278D01*
X3360623Y6528663D01*
X3356914Y6534048D01*
X3352139Y6539331D01*
X3348736Y6542633D01*
X3345484Y6545427D01*
X3342233Y6547764D01*
X3338728Y6549644D01*
X3334816Y6551168D01*
X3330244Y6552336D01*
X3324809Y6553200D01*
X3318306Y6553860D01*
X3301339Y6554520D01*
G37*
G36*
X3549040Y6554622D02*
G01*
X3501288Y6554317D01*
X3493515Y6554063D01*
X3487623Y6553606D01*
X3483559Y6552996D01*
X3481222Y6552133D01*
X3480511Y6551015D01*
X3481374Y6549694D01*
X3485337Y6547002D01*
X3486810Y6545681D01*
X3488131Y6544056D01*
X3489299Y6542125D01*
X3490264Y6539687D01*
X3491890Y6533184D01*
X3493008Y6523888D01*
X3493719Y6511188D01*
X3494176Y6494475D01*
X3494278Y6436461D01*
X3493973Y6417462D01*
X3493414Y6402832D01*
X3492500Y6391910D01*
X3491890Y6387693D01*
X3491128Y6384086D01*
X3490264Y6381140D01*
X3489299Y6378752D01*
X3488131Y6376771D01*
X3486810Y6375146D01*
X3481425Y6371132D01*
X3480612Y6369812D01*
X3481374Y6368745D01*
X3483864Y6367881D01*
X3488080Y6367221D01*
X3494176Y6366764D01*
X3512210Y6366357D01*
X3532886Y6366560D01*
X3539185Y6366916D01*
X3543096Y6367627D01*
X3544874Y6368694D01*
X3544722Y6370218D01*
X3542893Y6372199D01*
X3537153Y6376771D01*
X3535070Y6379057D01*
X3533292Y6381750D01*
X3531768Y6385102D01*
X3530498Y6389319D01*
X3529431Y6394500D01*
X3527806Y6408521D01*
X3526688Y6428689D01*
X3525215Y6478879D01*
X3525012Y6496507D01*
X3525215Y6509969D01*
X3525977Y6520027D01*
X3527399Y6527495D01*
X3528364Y6530492D01*
X3529533Y6533134D01*
X3530904Y6535521D01*
X3534308Y6539839D01*
G37*
G36*
X3629812Y6554622D02*
G01*
X3611575Y6554419D01*
X3593998Y6553657D01*
X3587851Y6552590D01*
X3586226Y6551879D01*
X3585413Y6551015D01*
X3585362Y6549999D01*
X3586022Y6548780D01*
X3588969Y6545834D01*
X3593337Y6542176D01*
X3596894Y6538417D01*
X3598316Y6536283D01*
X3599535Y6533896D01*
X3600551Y6531051D01*
X3601415Y6527698D01*
X3602532Y6519113D01*
X3603040Y6507175D01*
X3603091Y6491173D01*
X3602177Y6444488D01*
X3601516Y6422999D01*
X3600754Y6406896D01*
X3599637Y6395262D01*
X3598926Y6390843D01*
X3598011Y6387236D01*
X3596944Y6384239D01*
X3595674Y6381851D01*
X3594201Y6379870D01*
X3592423Y6378194D01*
X3588156Y6375400D01*
X3583381Y6372910D01*
X3581857Y6371844D01*
X3580993Y6370929D01*
X3580841Y6370066D01*
X3581501Y6369354D01*
X3582974Y6368745D01*
X3585362Y6368186D01*
X3593084Y6367373D01*
X3605072Y6366814D01*
X3621836Y6366459D01*
X3679393Y6366357D01*
X3698036Y6366611D01*
X3713022Y6367119D01*
X3724757Y6367881D01*
X3733393Y6368897D01*
X3739235Y6370218D01*
X3741216Y6370980D01*
X3742588Y6371844D01*
X3743401Y6372758D01*
X3743655Y6373774D01*
X3744010Y6377940D01*
X3744874Y6383629D01*
X3747668Y6396583D01*
X3751579Y6411772D01*
X3734866Y6395364D01*
X3730955Y6391859D01*
X3726535Y6388658D01*
X3721658Y6385661D01*
X3716426Y6383020D01*
X3710889Y6380581D01*
X3705098Y6378498D01*
X3699154Y6376720D01*
X3693109Y6375298D01*
X3687013Y6374231D01*
X3680968Y6373469D01*
X3675024Y6373114D01*
X3669182Y6373164D01*
X3663594Y6373622D01*
X3658311Y6374434D01*
X3653383Y6375755D01*
X3648862Y6377482D01*
X3644392Y6379718D01*
X3640937Y6382207D01*
X3638296Y6385356D01*
X3636467Y6389471D01*
X3635248Y6395110D01*
X3634587Y6402527D01*
X3634232Y6412230D01*
X3634130Y6464960D01*
X3653891Y6461048D01*
X3662426Y6458458D01*
X3670960Y6454292D01*
X3678529Y6449161D01*
X3684168Y6443573D01*
X3687572Y6439255D01*
X3690162Y6436512D01*
X3692042Y6435547D01*
X3693312Y6436563D01*
X3694125Y6439865D01*
X3694531Y6445707D01*
X3694937Y6501688D01*
X3680053Y6485636D01*
X3672840Y6479133D01*
X3664864Y6474053D01*
X3656837Y6470700D01*
X3649370Y6469532D01*
X3644239Y6469634D01*
X3640378Y6470243D01*
X3637635Y6471716D01*
X3635908Y6474561D01*
X3634943Y6479133D01*
X3634638Y6485839D01*
X3635400Y6507530D01*
X3637178Y6545529D01*
X3660749Y6547459D01*
X3667810Y6547764D01*
X3674719Y6547612D01*
X3681526Y6546900D01*
X3688181Y6545783D01*
X3694582Y6544157D01*
X3700678Y6542176D01*
X3706469Y6539738D01*
X3711854Y6536893D01*
X3716832Y6533692D01*
X3721303Y6530136D01*
X3725265Y6526276D01*
X3728618Y6522059D01*
X3737508Y6509410D01*
X3737457Y6526885D01*
X3737101Y6534556D01*
X3736594Y6537807D01*
X3735882Y6540703D01*
X3734815Y6543192D01*
X3733393Y6545427D01*
X3731514Y6547307D01*
X3729177Y6548932D01*
X3726230Y6550304D01*
X3722725Y6551422D01*
X3718509Y6552336D01*
X3707892Y6553606D01*
X3693922Y6554317D01*
X3676142Y6554571D01*
G37*
G36*
X3859529Y6554368D02*
G01*
X3814267Y6554063D01*
X3798824Y6553708D01*
X3788206Y6553047D01*
X3784549Y6552641D01*
X3781856Y6552082D01*
X3780129Y6551422D01*
X3779164Y6550609D01*
X3779012Y6549694D01*
X3779570Y6548628D01*
X3782415Y6546037D01*
X3787597Y6542278D01*
X3790086Y6540042D01*
X3792169Y6537502D01*
X3793896Y6534404D01*
X3795217Y6530644D01*
X3796284Y6525869D01*
X3797046Y6519875D01*
X3797604Y6512458D01*
X3798163Y6492443D01*
X3798265Y6451092D01*
X3797808Y6429298D01*
X3796792Y6411976D01*
X3796029Y6404762D01*
X3795014Y6398514D01*
X3793845Y6393078D01*
X3792372Y6388354D01*
X3790696Y6384340D01*
X3788714Y6380937D01*
X3786428Y6378041D01*
X3783837Y6375654D01*
X3780891Y6373622D01*
X3777640Y6371894D01*
X3773982Y6370421D01*
X3773525Y6369964D01*
X3774541Y6369558D01*
X3780790Y6368694D01*
X3791965Y6367983D01*
X3807409Y6367373D01*
X3848100Y6366662D01*
X3870248Y6366713D01*
X3890365Y6367068D01*
X3907586Y6367678D01*
X3921150Y6368542D01*
X3930192Y6369558D01*
X3932732Y6370167D01*
X3933850Y6370777D01*
X3935222Y6373977D01*
X3938879Y6386118D01*
X3945128Y6411772D01*
X3927652Y6395110D01*
X3923588Y6391605D01*
X3918965Y6388354D01*
X3913987Y6385356D01*
X3908602Y6382664D01*
X3902913Y6380276D01*
X3897020Y6378194D01*
X3890975Y6376466D01*
X3884879Y6375044D01*
X3878783Y6374028D01*
X3872687Y6373317D01*
X3866794Y6373012D01*
X3861104Y6373164D01*
X3855669Y6373672D01*
X3850589Y6374638D01*
X3845915Y6376009D01*
X3841750Y6377889D01*
X3837940Y6380175D01*
X3834942Y6382867D01*
X3832656Y6386220D01*
X3830980Y6390538D01*
X3829812Y6396177D01*
X3829151Y6403441D01*
X3828796Y6412636D01*
X3828745Y6433921D01*
X3828999Y6442151D01*
X3829558Y6448856D01*
X3830472Y6454190D01*
X3831844Y6458254D01*
X3833774Y6461048D01*
X3836365Y6462776D01*
X3839616Y6463436D01*
X3843731Y6463131D01*
X3848709Y6462014D01*
X3854653Y6460134D01*
X3861714Y6457543D01*
X3867759Y6454495D01*
X3872737Y6450634D01*
X3876090Y6446418D01*
X3877310Y6442354D01*
X3877716Y6438747D01*
X3878732Y6435801D01*
X3880307Y6433769D01*
X3882186Y6433058D01*
X3884066Y6435699D01*
X3885539Y6442862D01*
X3886504Y6453530D01*
X3886758Y6466484D01*
X3886250Y6479489D01*
X3885184Y6490106D01*
X3883660Y6497269D01*
X3881882Y6499910D01*
X3880104Y6499504D01*
X3878630Y6498285D01*
X3877665Y6496456D01*
X3876446Y6490157D01*
X3874109Y6485890D01*
X3870451Y6481724D01*
X3865879Y6477863D01*
X3860647Y6474510D01*
X3854958Y6471869D01*
X3849115Y6470142D01*
X3843426Y6469532D01*
X3838752Y6469684D01*
X3835196Y6470396D01*
X3832555Y6472072D01*
X3830777Y6475120D01*
X3829608Y6479946D01*
X3828999Y6486956D01*
X3828694Y6509054D01*
X3828694Y6548577D01*
X3857701Y6548577D01*
X3864711Y6548374D01*
X3871468Y6547713D01*
X3877919Y6546697D01*
X3884117Y6545224D01*
X3890060Y6543344D01*
X3895750Y6541058D01*
X3901135Y6538315D01*
X3906316Y6535166D01*
X3911193Y6531609D01*
X3915816Y6527647D01*
X3920134Y6523278D01*
X3928110Y6513982D01*
X3930396Y6512966D01*
X3931462Y6515658D01*
X3931869Y6526733D01*
X3931615Y6534454D01*
X3931158Y6537706D01*
X3930446Y6540601D01*
X3929430Y6543141D01*
X3928008Y6545376D01*
X3926128Y6547256D01*
X3923741Y6548881D01*
X3920794Y6550253D01*
X3917238Y6551371D01*
X3913022Y6552285D01*
X3908044Y6552996D01*
X3895699Y6553911D01*
X3879646Y6554317D01*
G37*
G36*
X4065066Y6554317D02*
G01*
X4018686Y6554063D01*
X4001617Y6553708D01*
X3988511Y6553200D01*
X3979062Y6552539D01*
X3973068Y6551625D01*
X3971290Y6551066D01*
X3970223Y6550456D01*
X3969918Y6549745D01*
X3970324Y6548983D01*
X3971391Y6548120D01*
X3977436Y6544818D01*
X3979214Y6543446D01*
X3980738Y6541820D01*
X3982059Y6539839D01*
X3983177Y6537299D01*
X3984091Y6534200D01*
X3984853Y6530390D01*
X3985869Y6520129D01*
X3986428Y6505651D01*
X3986682Y6486042D01*
X3986580Y6424269D01*
X3986225Y6407353D01*
X3985412Y6395110D01*
X3984853Y6390436D01*
X3984091Y6386626D01*
X3983177Y6383528D01*
X3982059Y6381038D01*
X3980738Y6379006D01*
X3979214Y6377381D01*
X3977436Y6376009D01*
X3971391Y6372707D01*
X3970375Y6371844D01*
X3970020Y6371082D01*
X3970375Y6370421D01*
X3971493Y6369812D01*
X3976115Y6368745D01*
X3984040Y6367932D01*
X3995674Y6367322D01*
X4030827Y6366662D01*
X4085844Y6366713D01*
X4101033Y6367322D01*
X4112564Y6368491D01*
X4117086Y6369405D01*
X4120896Y6370523D01*
X4123994Y6371844D01*
X4126484Y6373469D01*
X4128465Y6375349D01*
X4129989Y6377584D01*
X4131056Y6380124D01*
X4131767Y6383020D01*
X4132224Y6386271D01*
X4132478Y6394043D01*
X4132173Y6405575D01*
X4131310Y6408115D01*
X4129328Y6406438D01*
X4125722Y6400596D01*
X4123182Y6396939D01*
X4119930Y6393484D01*
X4116070Y6390233D01*
X4111650Y6387236D01*
X4106773Y6384442D01*
X4101490Y6381953D01*
X4095851Y6379718D01*
X4090009Y6377787D01*
X4083913Y6376111D01*
X4077766Y6374790D01*
X4071620Y6373774D01*
X4065473Y6373114D01*
X4059428Y6372809D01*
X4053586Y6372910D01*
X4047998Y6373317D01*
X4042765Y6374180D01*
X4037939Y6375450D01*
X4033621Y6377127D01*
X4029811Y6379260D01*
X4026662Y6381851D01*
X4024376Y6384645D01*
X4022445Y6388252D01*
X4020769Y6392621D01*
X4019448Y6397802D01*
X4018432Y6403898D01*
X4017721Y6410807D01*
X4017264Y6418630D01*
X4017111Y6427419D01*
X4017467Y6447637D01*
X4018127Y6453987D01*
X4019296Y6458407D01*
X4021175Y6461150D01*
X4023918Y6462674D01*
X4027678Y6463334D01*
X4032605Y6463436D01*
X4039768Y6462268D01*
X4047896Y6459067D01*
X4055973Y6454343D01*
X4062984Y6448552D01*
X4077919Y6433616D01*
X4077512Y6502958D01*
X4065066Y6486245D01*
X4058412Y6478727D01*
X4051249Y6473494D01*
X4043426Y6470497D01*
X4034586Y6469532D01*
X4016552Y6469532D01*
X4020159Y6545529D01*
X4065117Y6545224D01*
X4073601Y6544665D01*
X4080764Y6543700D01*
X4086910Y6542074D01*
X4092397Y6539738D01*
X4097680Y6536588D01*
X4103065Y6532422D01*
X4117594Y6519570D01*
X4122928Y6515963D01*
X4125163Y6516166D01*
X4124451Y6520180D01*
X4122928Y6525412D01*
X4121658Y6531457D01*
X4120794Y6537553D01*
X4120387Y6544919D01*
X4120134Y6546596D01*
X4119524Y6548120D01*
X4118508Y6549390D01*
X4116984Y6550507D01*
X4114901Y6551422D01*
X4112107Y6552234D01*
X4104030Y6553352D01*
X4092041Y6554012D01*
G37*
G36*
X2813761Y6554216D02*
G01*
X2804820Y6554114D01*
X2798622Y6553758D01*
X2794914Y6553200D01*
X2793542Y6552234D01*
X2794304Y6550914D01*
X2796946Y6549085D01*
X2804769Y6544919D01*
X2807614Y6543141D01*
X2809951Y6541058D01*
X2811881Y6538518D01*
X2813354Y6535216D01*
X2814472Y6530949D01*
X2815336Y6525463D01*
X2815894Y6518503D01*
X2816453Y6499199D01*
X2816504Y6459321D01*
X2816098Y6438950D01*
X2815691Y6430264D01*
X2815082Y6422491D01*
X2814269Y6415532D01*
X2813202Y6409436D01*
X2811881Y6404102D01*
X2810256Y6399479D01*
X2808274Y6395516D01*
X2805938Y6392164D01*
X2803245Y6389370D01*
X2800096Y6387084D01*
X2796540Y6385255D01*
X2792476Y6383883D01*
X2787954Y6382867D01*
X2782874Y6382156D01*
X2770987Y6381445D01*
X2758440Y6381445D01*
X2748330Y6382054D01*
X2743860Y6382664D01*
X2739745Y6383477D01*
X2735935Y6384544D01*
X2732481Y6385864D01*
X2729331Y6387490D01*
X2726486Y6389420D01*
X2723896Y6391706D01*
X2721610Y6394348D01*
X2719578Y6397396D01*
X2717800Y6400850D01*
X2716225Y6404711D01*
X2714904Y6409080D01*
X2713736Y6413906D01*
X2712770Y6419240D01*
X2711348Y6431584D01*
X2710535Y6446215D01*
X2710180Y6463334D01*
X2710180Y6486347D01*
X2710484Y6507429D01*
X2711450Y6522110D01*
X2712212Y6527546D01*
X2713278Y6531914D01*
X2714599Y6535470D01*
X2716276Y6538366D01*
X2718308Y6540804D01*
X2720746Y6543040D01*
X2727706Y6548120D01*
X2730042Y6550406D01*
X2730398Y6552031D01*
X2728518Y6553149D01*
X2723997Y6553809D01*
X2716530Y6554114D01*
X2691739Y6553962D01*
X2674975Y6553454D01*
X2662885Y6552590D01*
X2658973Y6552082D01*
X2656636Y6551523D01*
X2656027Y6550964D01*
X2660294Y6549339D01*
X2663037Y6547866D01*
X2665577Y6545834D01*
X2667863Y6543294D01*
X2669895Y6540195D01*
X2671724Y6536537D01*
X2673350Y6532219D01*
X2674772Y6527241D01*
X2675991Y6521602D01*
X2677058Y6515252D01*
X2677922Y6508140D01*
X2679090Y6491579D01*
X2679700Y6471666D01*
X2679801Y6448501D01*
X2680157Y6429451D01*
X2681224Y6415532D01*
X2682087Y6410045D01*
X2683205Y6405321D01*
X2684627Y6401155D01*
X2686354Y6397396D01*
X2688488Y6393891D01*
X2690977Y6390436D01*
X2693924Y6386880D01*
X2698140Y6382308D01*
X2702407Y6378549D01*
X2706979Y6375501D01*
X2712059Y6373063D01*
X2717901Y6371183D01*
X2724759Y6369659D01*
X2732887Y6368491D01*
X2742539Y6367526D01*
X2756052Y6366814D01*
X2762300Y6366764D01*
X2768244Y6366967D01*
X2779268Y6368084D01*
X2784348Y6369050D01*
X2789123Y6370218D01*
X2793593Y6371691D01*
X2797759Y6373368D01*
X2801721Y6375349D01*
X2805379Y6377635D01*
X2808782Y6380124D01*
X2811881Y6382969D01*
X2814777Y6386068D01*
X2817418Y6389471D01*
X2819806Y6393180D01*
X2821990Y6397244D01*
X2823921Y6401562D01*
X2825597Y6406235D01*
X2827070Y6411163D01*
X2828340Y6416497D01*
X2829407Y6422136D01*
X2830931Y6434429D01*
X2831693Y6448145D01*
X2831896Y6466738D01*
X2832455Y6486652D01*
X2833573Y6503416D01*
X2835351Y6517233D01*
X2836519Y6523126D01*
X2837840Y6528358D01*
X2839313Y6532930D01*
X2840990Y6536944D01*
X2842869Y6540347D01*
X2844901Y6543192D01*
X2847187Y6545529D01*
X2849676Y6547357D01*
X2854960Y6549999D01*
X2855925Y6551066D01*
X2855264Y6551980D01*
X2852877Y6552742D01*
X2848762Y6553301D01*
X2842869Y6553758D01*
X2825648Y6554165D01*
G37*
G36*
X2972511Y6554114D02*
G01*
X2965246Y6553708D01*
X2958033Y6552946D01*
X2950870Y6551777D01*
X2944012Y6550202D01*
X2937510Y6548323D01*
X2931515Y6545986D01*
X2926842Y6543751D01*
X2922270Y6541211D01*
X2917952Y6538315D01*
X2913735Y6535166D01*
X2909773Y6531762D01*
X2905963Y6528054D01*
X2902407Y6524142D01*
X2899003Y6519976D01*
X2895854Y6515658D01*
X2892907Y6511086D01*
X2890215Y6506413D01*
X2887776Y6501536D01*
X2883611Y6491427D01*
X2881934Y6486194D01*
X2879394Y6475476D01*
X2878023Y6464503D01*
X2877820Y6459016D01*
X2877870Y6453479D01*
X2878277Y6447942D01*
X2879039Y6442456D01*
X2880106Y6437020D01*
X2881477Y6431737D01*
X2883103Y6426657D01*
X2885033Y6421780D01*
X2887218Y6417005D01*
X2889656Y6412484D01*
X2892298Y6408166D01*
X2895193Y6404000D01*
X2901645Y6396278D01*
X2908808Y6389420D01*
X2912668Y6386271D01*
X2920796Y6380683D01*
X2925064Y6378194D01*
X2934004Y6373926D01*
X2938576Y6372098D01*
X2948025Y6369202D01*
X2952851Y6368084D01*
X2962656Y6366560D01*
X2972562Y6366103D01*
X2977540Y6366205D01*
X2982468Y6366560D01*
X2987446Y6367221D01*
X2997200Y6369253D01*
X3001975Y6370675D01*
X3006750Y6372402D01*
X3011424Y6374384D01*
X3015996Y6376619D01*
X3020466Y6379108D01*
X3024835Y6381902D01*
X3029051Y6385001D01*
X3033166Y6388404D01*
X3037128Y6392062D01*
X3040938Y6396024D01*
X3045104Y6401308D01*
X3047898Y6406286D01*
X3049066Y6410350D01*
X3048355Y6412992D01*
X3046018Y6413550D01*
X3042716Y6412077D01*
X3038906Y6408775D01*
X3032709Y6401206D01*
X3029610Y6398361D01*
X3025902Y6395466D01*
X3021685Y6392672D01*
X3017113Y6390030D01*
X3012338Y6387642D01*
X3007461Y6385560D01*
X3002584Y6383934D01*
X2997606Y6382613D01*
X2992678Y6381699D01*
X2987852Y6381140D01*
X2983128Y6380988D01*
X2978505Y6381191D01*
X2973984Y6381699D01*
X2969615Y6382562D01*
X2965297Y6383731D01*
X2961132Y6385204D01*
X2957118Y6386982D01*
X2953207Y6389014D01*
X2945841Y6393891D01*
X2942386Y6396685D01*
X2935986Y6402984D01*
X2930245Y6410045D01*
X2927604Y6413855D01*
X2922981Y6421932D01*
X2919120Y6430568D01*
X2917494Y6435039D01*
X2914904Y6444335D01*
X2913227Y6453886D01*
X2912516Y6463588D01*
X2912821Y6473444D01*
X2913329Y6478320D01*
X2914142Y6483248D01*
X2915208Y6488125D01*
X2916529Y6492951D01*
X2920085Y6502400D01*
X2922320Y6507022D01*
X2924860Y6511544D01*
X2927654Y6515963D01*
X2930804Y6520230D01*
X2934258Y6524396D01*
X2938068Y6528460D01*
X2942386Y6532473D01*
X2946908Y6536232D01*
X2951581Y6539687D01*
X2956255Y6542633D01*
X2960725Y6545122D01*
X2964891Y6546951D01*
X2968599Y6548170D01*
X2971749Y6548577D01*
X2976829Y6548120D01*
X2982315Y6546900D01*
X2988056Y6544970D01*
X2993948Y6542328D01*
X2999892Y6539179D01*
X3005734Y6535521D01*
X3011424Y6531457D01*
X3016758Y6527038D01*
X3021685Y6522415D01*
X3026105Y6517538D01*
X3029813Y6512610D01*
X3032760Y6507683D01*
X3041294Y6490817D01*
X3043275Y6520332D01*
X3043834Y6531559D01*
X3043885Y6540347D01*
X3043377Y6546850D01*
X3042158Y6551168D01*
X3040278Y6553403D01*
X3037636Y6553708D01*
X3034182Y6552184D01*
X3029813Y6549034D01*
X3025038Y6545935D01*
X3020212Y6544767D01*
X3014929Y6545529D01*
X3004261Y6550152D01*
X2998927Y6551726D01*
X2992983Y6552946D01*
X2986481Y6553708D01*
X2979623Y6554114D01*
G37*
G36*
X3116732Y6553860D02*
G01*
X3111144Y6553758D01*
X3106369Y6553301D01*
X3102203Y6552438D01*
X3098495Y6551168D01*
X3095040Y6549440D01*
X3091688Y6547154D01*
X3088233Y6544309D01*
X3080258Y6536639D01*
X3075127Y6531305D01*
X3071063Y6526580D01*
X3068066Y6522313D01*
X3065983Y6518300D01*
X3064764Y6514388D01*
X3064357Y6510375D01*
X3064662Y6506057D01*
X3065627Y6501333D01*
X3067151Y6495745D01*
X3068777Y6490817D01*
X3070606Y6486499D01*
X3072790Y6482638D01*
X3075432Y6479184D01*
X3078632Y6475984D01*
X3082544Y6472936D01*
X3087217Y6469989D01*
X3092805Y6467043D01*
X3099409Y6463944D01*
X3130499Y6450939D01*
X3143808Y6444640D01*
X3154629Y6438798D01*
X3158642Y6436309D01*
X3161487Y6434175D01*
X3165348Y6430213D01*
X3168243Y6425844D01*
X3170224Y6421120D01*
X3171291Y6416141D01*
X3171545Y6411061D01*
X3170986Y6405880D01*
X3169716Y6400749D01*
X3167735Y6395770D01*
X3165094Y6391046D01*
X3161842Y6386626D01*
X3158032Y6382664D01*
X3153664Y6379159D01*
X3148838Y6376263D01*
X3143605Y6374130D01*
X3138017Y6372758D01*
X3132023Y6372250D01*
X3127654Y6372860D01*
X3122676Y6374587D01*
X3117138Y6377279D01*
X3111296Y6380734D01*
X3105302Y6384899D01*
X3099358Y6389624D01*
X3093567Y6394704D01*
X3088182Y6400038D01*
X3083306Y6405473D01*
X3079140Y6410858D01*
X3075889Y6416040D01*
X3072028Y6424828D01*
X3070504Y6427266D01*
X3069031Y6428282D01*
X3067710Y6428079D01*
X3066542Y6426758D01*
X3065576Y6424320D01*
X3064814Y6420967D01*
X3064357Y6416751D01*
X3064103Y6411772D01*
X3064205Y6406134D01*
X3064662Y6400038D01*
X3065475Y6393434D01*
X3067812Y6380784D01*
X3070352Y6373114D01*
X3073298Y6370015D01*
X3076854Y6371132D01*
X3080562Y6372961D01*
X3085439Y6373723D01*
X3090875Y6373418D01*
X3096158Y6371945D01*
X3102356Y6369812D01*
X3108909Y6368237D01*
X3115665Y6367272D01*
X3122574Y6366814D01*
X3129584Y6366865D01*
X3136544Y6367424D01*
X3143504Y6368491D01*
X3150311Y6369964D01*
X3156864Y6371945D01*
X3163112Y6374282D01*
X3169005Y6377076D01*
X3174441Y6380226D01*
X3179368Y6383731D01*
X3183686Y6387592D01*
X3187344Y6391757D01*
X3190189Y6396228D01*
X3192475Y6401155D01*
X3194202Y6406337D01*
X3195421Y6411722D01*
X3196132Y6417157D01*
X3196285Y6422644D01*
X3195980Y6428028D01*
X3195167Y6433312D01*
X3193846Y6438392D01*
X3192018Y6443167D01*
X3189782Y6447536D01*
X3187039Y6451498D01*
X3183890Y6454902D01*
X3180588Y6457543D01*
X3170428Y6463995D01*
X3156813Y6471259D01*
X3141522Y6478422D01*
X3123133Y6486144D01*
X3114598Y6490106D01*
X3107944Y6493662D01*
X3102864Y6497116D01*
X3099206Y6500571D01*
X3096717Y6504228D01*
X3095142Y6508242D01*
X3094329Y6512864D01*
X3094024Y6518554D01*
X3094431Y6523786D01*
X3095498Y6528460D01*
X3097225Y6532575D01*
X3099511Y6536232D01*
X3102305Y6539331D01*
X3105607Y6541871D01*
X3109264Y6543852D01*
X3113328Y6545326D01*
X3117748Y6546189D01*
X3122371Y6546545D01*
X3127248Y6546291D01*
X3132277Y6545427D01*
X3137458Y6544056D01*
X3142691Y6542024D01*
X3147923Y6539382D01*
X3153105Y6536181D01*
X3158185Y6532321D01*
X3163163Y6527850D01*
X3167938Y6522770D01*
X3185007Y6502958D01*
X3181248Y6550050D01*
X3131058Y6553352D01*
G37*
G36*
X2255012Y6499148D02*
G01*
X2250643Y6498132D01*
X2245664Y6495999D01*
X2239568Y6492748D01*
X2223770Y6482943D01*
X2217318Y6478270D01*
X2212644Y6473952D01*
X2209546Y6469837D01*
X2208022Y6465722D01*
X2207920Y6461455D01*
X2209139Y6456781D01*
X2211527Y6451549D01*
X2213254Y6448907D01*
X2215540Y6446418D01*
X2218385Y6443980D01*
X2221738Y6441694D01*
X2225548Y6439458D01*
X2229815Y6437376D01*
X2234488Y6435394D01*
X2244902Y6431838D01*
X2256586Y6428740D01*
X2269286Y6426200D01*
X2282698Y6424218D01*
X2296617Y6422847D01*
X2310739Y6422034D01*
X2324862Y6421882D01*
X2338730Y6422390D01*
X2351989Y6423609D01*
X2364486Y6425539D01*
X2370378Y6426758D01*
X2381199Y6429756D01*
X2386076Y6431584D01*
X2390546Y6433566D01*
X2397201Y6437071D01*
X2402890Y6440576D01*
X2407564Y6444030D01*
X2411272Y6447536D01*
X2413965Y6451041D01*
X2415743Y6454597D01*
X2416505Y6458204D01*
X2416352Y6461912D01*
X2415184Y6465722D01*
X2413101Y6469634D01*
X2410104Y6473698D01*
X2406142Y6477863D01*
X2398979Y6483807D01*
X2390698Y6489242D01*
X2382316Y6493560D01*
X2374849Y6496151D01*
X2366518Y6497675D01*
X2362098Y6497066D01*
X2360828Y6493814D01*
X2361996Y6487414D01*
X2363978Y6482334D01*
X2366772Y6479082D01*
X2370226Y6477762D01*
X2378557Y6479286D01*
X2382926Y6478930D01*
X2387244Y6477406D01*
X2391308Y6475018D01*
X2394813Y6471818D01*
X2397607Y6468059D01*
X2399436Y6463842D01*
X2400096Y6459372D01*
X2399588Y6456629D01*
X2398166Y6453987D01*
X2395778Y6451447D01*
X2392629Y6449060D01*
X2388666Y6446774D01*
X2384094Y6444640D01*
X2378862Y6442659D01*
X2373122Y6440830D01*
X2366924Y6439154D01*
X2353411Y6436360D01*
X2338882Y6434328D01*
X2323896Y6433210D01*
X2309063Y6433007D01*
X2294940Y6433820D01*
X2282088Y6435750D01*
X2276297Y6437172D01*
X2271064Y6438900D01*
X2266442Y6440881D01*
X2261158Y6443878D01*
X2256891Y6447028D01*
X2253538Y6450228D01*
X2251202Y6453530D01*
X2249779Y6456832D01*
X2249373Y6460134D01*
X2249881Y6463436D01*
X2251354Y6466636D01*
X2253792Y6469735D01*
X2257196Y6472682D01*
X2261565Y6475476D01*
X2277668Y6482791D01*
X2282037Y6486093D01*
X2280564Y6489090D01*
X2273858Y6493103D01*
X2268118Y6496050D01*
X2263343Y6498082D01*
X2259076Y6499148D01*
G37*
G36*
X812800Y8300720D02*
G01*
X812800Y8273135D01*
X978306Y8273135D01*
X978306Y8135213D01*
X840384Y8135213D01*
X840384Y8273135D01*
X812800Y8273135D01*
X812800Y8107629D01*
X1005890Y8107629D01*
X1005890Y8300720D01*
G37*
G36*
X1061059Y8300720D02*
G01*
X1061059Y8273135D01*
X1116228Y8273135D01*
X1116228Y8245551D01*
X1061059Y8245551D01*
X1061059Y8217966D01*
X1088644Y8217966D01*
X1088644Y8162798D01*
X1061059Y8162798D01*
X1061059Y8217966D01*
X1033475Y8217966D01*
X1033475Y8162798D01*
X1061059Y8162798D01*
X1061059Y8135213D01*
X1033475Y8135213D01*
X1033475Y8107629D01*
X1061059Y8107629D01*
X1061059Y8052460D01*
X1088644Y8052460D01*
X1088644Y8024875D01*
X1061059Y8024875D01*
X1061059Y7997291D01*
X1033475Y7997291D01*
X1033475Y8080044D01*
X950721Y8080044D01*
X950721Y8052460D01*
X923137Y8052460D01*
X923137Y7997291D01*
X950721Y7997291D01*
X950721Y8024875D01*
X978306Y8024875D01*
X978306Y8052460D01*
X1005890Y8052460D01*
X1005890Y8024875D01*
X978306Y8024875D01*
X978306Y7997291D01*
X1005890Y7997291D01*
X1005890Y7969707D01*
X978306Y7969707D01*
X978306Y7997291D01*
X840384Y7997291D01*
X840384Y8024875D01*
X867968Y8024875D01*
X867968Y8080044D01*
X812800Y8080044D01*
X812800Y7997291D01*
X840384Y7997291D01*
X840384Y7942122D01*
X812800Y7942122D01*
X812800Y7886953D01*
X840384Y7886953D01*
X840384Y7914538D01*
X867968Y7914538D01*
X867968Y7969707D01*
X895553Y7969707D01*
X895553Y7914538D01*
X923137Y7914538D01*
X923137Y7969707D01*
X950721Y7969707D01*
X950721Y7942122D01*
X1033475Y7942122D01*
X1033475Y7969707D01*
X1061059Y7969707D01*
X1061059Y7997291D01*
X1088644Y7997291D01*
X1088644Y8024875D01*
X1116228Y8024875D01*
X1116228Y8080044D01*
X1088644Y8080044D01*
X1088644Y8107629D01*
X1061059Y8107629D01*
X1061059Y8135213D01*
X1088644Y8135213D01*
X1088644Y8107629D01*
X1116228Y8107629D01*
X1116228Y8190382D01*
X1143812Y8190382D01*
X1143812Y8162798D01*
X1171397Y8162798D01*
X1171397Y8135213D01*
X1198981Y8135213D01*
X1198981Y8107629D01*
X1171397Y8107629D01*
X1171397Y8135213D01*
X1143812Y8135213D01*
X1143812Y8052460D01*
X1171397Y8052460D01*
X1171397Y8080044D01*
X1198981Y8080044D01*
X1198981Y8024875D01*
X1226566Y8024875D01*
X1226566Y7997291D01*
X1254150Y7997291D01*
X1254150Y8080044D01*
X1281785Y8080044D01*
X1281785Y8052460D01*
X1309370Y8052460D01*
X1309370Y8024875D01*
X1364538Y8024875D01*
X1364538Y7969707D01*
X1419707Y7969707D01*
X1419707Y7914538D01*
X1392123Y7914538D01*
X1392123Y7942122D01*
X1364538Y7942122D01*
X1364538Y7969707D01*
X1336954Y7969707D01*
X1336954Y7942122D01*
X1309370Y7942122D01*
X1309370Y7914538D01*
X1364538Y7914538D01*
X1364538Y7886953D01*
X1336954Y7886953D01*
X1336954Y7831785D01*
X1309370Y7831785D01*
X1309370Y7804200D01*
X1281785Y7804200D01*
X1281785Y7831785D01*
X1254150Y7831785D01*
X1254150Y7859369D01*
X1281785Y7859369D01*
X1281785Y7969707D01*
X1254150Y7969707D01*
X1254150Y7942122D01*
X1226566Y7942122D01*
X1226566Y7997291D01*
X1198981Y7997291D01*
X1198981Y7969707D01*
X1171397Y7969707D01*
X1171397Y7942122D01*
X1143812Y7942122D01*
X1143812Y7914538D01*
X1171397Y7914538D01*
X1171397Y7886953D01*
X1143812Y7886953D01*
X1143812Y7831785D01*
X1171397Y7831785D01*
X1171397Y7859369D01*
X1198981Y7859369D01*
X1198981Y7831785D01*
X1226566Y7831785D01*
X1226566Y7804200D01*
X1143812Y7804200D01*
X1143812Y7776616D01*
X1198981Y7776616D01*
X1198981Y7749031D01*
X1226566Y7749031D01*
X1226566Y7693863D01*
X1198981Y7693863D01*
X1198981Y7721447D01*
X1143812Y7721447D01*
X1143812Y7693863D01*
X1171397Y7693863D01*
X1171397Y7666228D01*
X1143812Y7666228D01*
X1143812Y7638694D01*
X1061059Y7638694D01*
X1061059Y7693863D01*
X1116228Y7693863D01*
X1116228Y7721447D01*
X1033475Y7721447D01*
X1033475Y7749031D01*
X1061059Y7749031D01*
X1061059Y7859369D01*
X978306Y7859369D01*
X978306Y7886953D01*
X950721Y7886953D01*
X950721Y7914538D01*
X895553Y7914538D01*
X895553Y7886953D01*
X923137Y7886953D01*
X923137Y7859369D01*
X895553Y7859369D01*
X895553Y7886953D01*
X840384Y7886953D01*
X840384Y7859369D01*
X812800Y7859369D01*
X812800Y7831785D01*
X895553Y7831785D01*
X895553Y7804200D01*
X923137Y7804200D01*
X923137Y7831785D01*
X1005890Y7831785D01*
X1005890Y7804200D01*
X978306Y7804200D01*
X978306Y7831785D01*
X950721Y7831785D01*
X950721Y7804200D01*
X923137Y7804200D01*
X923137Y7776616D01*
X867968Y7776616D01*
X867968Y7804200D01*
X840384Y7804200D01*
X840384Y7831785D01*
X812800Y7831785D01*
X812800Y7721447D01*
X840384Y7721447D01*
X840384Y7776616D01*
X867968Y7776616D01*
X867968Y7721447D01*
X895553Y7721447D01*
X895553Y7749031D01*
X923137Y7749031D01*
X923137Y7721447D01*
X950721Y7721447D01*
X950721Y7776616D01*
X1005890Y7776616D01*
X1005890Y7749031D01*
X978306Y7749031D01*
X978306Y7721447D01*
X1033475Y7721447D01*
X1033475Y7638694D01*
X1061059Y7638694D01*
X1061059Y7555890D01*
X1116228Y7555890D01*
X1116228Y7528306D01*
X1088644Y7528306D01*
X1088644Y7555890D01*
X1033475Y7555890D01*
X1033475Y7500721D01*
X1061059Y7500721D01*
X1061059Y7528306D01*
X1088644Y7528306D01*
X1088644Y7500721D01*
X1143812Y7500721D01*
X1143812Y7555890D01*
X1171397Y7555890D01*
X1171397Y7583474D01*
X1088644Y7583474D01*
X1088644Y7611059D01*
X1198981Y7611059D01*
X1198981Y7666228D01*
X1254150Y7666228D01*
X1254150Y7749031D01*
X1226566Y7749031D01*
X1226566Y7776616D01*
X1254150Y7776616D01*
X1254150Y7804200D01*
X1281785Y7804200D01*
X1281785Y7776616D01*
X1309370Y7776616D01*
X1309370Y7804200D01*
X1336954Y7804200D01*
X1336954Y7776616D01*
X1364538Y7776616D01*
X1364538Y7749031D01*
X1281785Y7749031D01*
X1281785Y7721447D01*
X1474876Y7721447D01*
X1474876Y7666228D01*
X1557629Y7666228D01*
X1557629Y7638694D01*
X1585214Y7638694D01*
X1585214Y7583474D01*
X1557629Y7583474D01*
X1557629Y7611059D01*
X1530045Y7611059D01*
X1530045Y7638694D01*
X1502460Y7638694D01*
X1502460Y7666228D01*
X1474876Y7666228D01*
X1474876Y7638694D01*
X1392123Y7638694D01*
X1392123Y7721447D01*
X1364538Y7721447D01*
X1364538Y7693863D01*
X1336954Y7693863D01*
X1336954Y7721447D01*
X1281785Y7721447D01*
X1281785Y7666228D01*
X1309370Y7666228D01*
X1309370Y7693863D01*
X1336954Y7693863D01*
X1336954Y7611059D01*
X1502460Y7611059D01*
X1502460Y7583474D01*
X1419707Y7583474D01*
X1419707Y7611059D01*
X1254150Y7611059D01*
X1254150Y7638694D01*
X1226566Y7638694D01*
X1226566Y7555890D01*
X1254150Y7555890D01*
X1254150Y7528306D01*
X1226566Y7528306D01*
X1226566Y7500721D01*
X1254150Y7500721D01*
X1254150Y7528306D01*
X1281785Y7528306D01*
X1281785Y7500721D01*
X1309370Y7500721D01*
X1309370Y7528306D01*
X1281785Y7528306D01*
X1281785Y7583474D01*
X1336954Y7583474D01*
X1336954Y7555890D01*
X1502460Y7555890D01*
X1502460Y7528306D01*
X1474876Y7528306D01*
X1474876Y7555890D01*
X1419707Y7555890D01*
X1419707Y7500721D01*
X1502460Y7500721D01*
X1502460Y7528306D01*
X1530045Y7528306D01*
X1530045Y7500721D01*
X1557629Y7500721D01*
X1557629Y7555890D01*
X1585214Y7555890D01*
X1585214Y7528306D01*
X1612798Y7528306D01*
X1612798Y7555890D01*
X1585214Y7555890D01*
X1585214Y7583474D01*
X1612798Y7583474D01*
X1612798Y7638694D01*
X1585214Y7638694D01*
X1585214Y7666228D01*
X1557629Y7666228D01*
X1557629Y7693863D01*
X1530045Y7693863D01*
X1530045Y7721447D01*
X1612798Y7721447D01*
X1612798Y7749031D01*
X1530045Y7749031D01*
X1530045Y7721447D01*
X1502460Y7721447D01*
X1502460Y7749031D01*
X1447292Y7749031D01*
X1447292Y7776616D01*
X1419707Y7776616D01*
X1419707Y7749031D01*
X1392123Y7749031D01*
X1392123Y7776616D01*
X1364538Y7776616D01*
X1364538Y7886953D01*
X1419707Y7886953D01*
X1419707Y7914538D01*
X1474876Y7914538D01*
X1474876Y7886953D01*
X1447292Y7886953D01*
X1447292Y7831785D01*
X1474876Y7831785D01*
X1474876Y7859369D01*
X1502460Y7859369D01*
X1502460Y7886953D01*
X1530045Y7886953D01*
X1530045Y7859369D01*
X1502460Y7859369D01*
X1502460Y7831785D01*
X1530045Y7831785D01*
X1530045Y7804200D01*
X1502460Y7804200D01*
X1502460Y7831785D01*
X1419707Y7831785D01*
X1419707Y7859369D01*
X1392123Y7859369D01*
X1392123Y7831785D01*
X1419707Y7831785D01*
X1419707Y7804200D01*
X1474876Y7804200D01*
X1474876Y7776616D01*
X1530045Y7776616D01*
X1530045Y7804200D01*
X1585214Y7804200D01*
X1585214Y7776616D01*
X1612798Y7776616D01*
X1612798Y7831785D01*
X1557629Y7831785D01*
X1557629Y7914538D01*
X1612798Y7914538D01*
X1612798Y7969707D01*
X1585214Y7969707D01*
X1585214Y7942122D01*
X1557629Y7942122D01*
X1557629Y7914538D01*
X1502460Y7914538D01*
X1502460Y7942122D01*
X1474876Y7942122D01*
X1474876Y7969707D01*
X1419707Y7969707D01*
X1419707Y7997291D01*
X1392123Y7997291D01*
X1392123Y8024875D01*
X1419707Y8024875D01*
X1419707Y8052460D01*
X1392123Y8052460D01*
X1392123Y8024875D01*
X1364538Y8024875D01*
X1364538Y8052460D01*
X1309370Y8052460D01*
X1309370Y8080044D01*
X1281785Y8080044D01*
X1281785Y8162798D01*
X1364538Y8162798D01*
X1364538Y8107629D01*
X1336954Y8107629D01*
X1336954Y8162798D01*
X1309370Y8162798D01*
X1309370Y8107629D01*
X1336954Y8107629D01*
X1336954Y8080044D01*
X1364538Y8080044D01*
X1364538Y8107629D01*
X1392123Y8107629D01*
X1392123Y8190382D01*
X1309370Y8190382D01*
X1309370Y8217966D01*
X1364538Y8217966D01*
X1364538Y8245551D01*
X1392123Y8245551D01*
X1392123Y8273135D01*
X1364538Y8273135D01*
X1364538Y8245551D01*
X1336954Y8245551D01*
X1336954Y8300720D01*
X1254150Y8300720D01*
X1254150Y8273135D01*
X1281785Y8273135D01*
X1281785Y8245551D01*
X1309370Y8245551D01*
X1309370Y8217966D01*
X1281785Y8217966D01*
X1281785Y8245551D01*
X1254150Y8245551D01*
X1254150Y8217966D01*
X1281785Y8217966D01*
X1281785Y8162798D01*
X1254150Y8162798D01*
X1254150Y8080044D01*
X1198981Y8080044D01*
X1198981Y8107629D01*
X1226566Y8107629D01*
X1226566Y8162798D01*
X1198981Y8162798D01*
X1198981Y8190382D01*
X1226566Y8190382D01*
X1226566Y8217966D01*
X1198981Y8217966D01*
X1198981Y8190382D01*
X1143812Y8190382D01*
X1143812Y8245551D01*
X1171397Y8245551D01*
X1171397Y8273135D01*
X1198981Y8273135D01*
X1198981Y8245551D01*
X1226566Y8245551D01*
X1226566Y8273135D01*
X1198981Y8273135D01*
X1198981Y8300720D01*
X1171397Y8300720D01*
X1171397Y8273135D01*
X1143812Y8273135D01*
X1143812Y8300720D01*
G37*
G36*
X1419707Y8300720D02*
G01*
X1419707Y8273135D01*
X1585214Y8273135D01*
X1585214Y8135213D01*
X1447292Y8135213D01*
X1447292Y8273135D01*
X1419707Y8273135D01*
X1419707Y8107629D01*
X1612798Y8107629D01*
X1612798Y8300720D01*
G37*
G36*
X867968Y8245551D02*
G01*
X867968Y8162798D01*
X950721Y8162798D01*
X950721Y8245551D01*
G37*
G36*
X1474876Y8245551D02*
G01*
X1474876Y8162798D01*
X1557629Y8162798D01*
X1557629Y8245551D01*
G37*
G36*
X1474876Y8080044D02*
G01*
X1474876Y8052460D01*
X1447292Y8052460D01*
X1447292Y8024875D01*
X1474876Y8024875D01*
X1474876Y7997291D01*
X1502460Y7997291D01*
X1502460Y7969707D01*
X1530045Y7969707D01*
X1530045Y7997291D01*
X1502460Y7997291D01*
X1502460Y8052460D01*
X1530045Y8052460D01*
X1530045Y8024875D01*
X1585214Y8024875D01*
X1585214Y8052460D01*
X1530045Y8052460D01*
X1530045Y8080044D01*
G37*
G36*
X1116228Y8024875D02*
G01*
X1116228Y7997291D01*
X1088644Y7997291D01*
X1088644Y7969707D01*
X1061059Y7969707D01*
X1061059Y7942122D01*
X1033475Y7942122D01*
X1033475Y7886953D01*
X1061059Y7886953D01*
X1061059Y7859369D01*
X1088644Y7859369D01*
X1088644Y7776616D01*
X1116228Y7776616D01*
X1116228Y7721447D01*
X1143812Y7721447D01*
X1143812Y7776616D01*
X1116228Y7776616D01*
X1116228Y7886953D01*
X1088644Y7886953D01*
X1088644Y7914538D01*
X1116228Y7914538D01*
X1116228Y7969707D01*
X1143812Y7969707D01*
X1143812Y7997291D01*
X1171397Y7997291D01*
X1171397Y8024875D01*
G37*
G36*
X978306Y7914538D02*
G01*
X978306Y7886953D01*
X1005890Y7886953D01*
X1005890Y7914538D01*
G37*
G36*
X1585214Y7886953D02*
G01*
X1585214Y7859369D01*
X1612798Y7859369D01*
X1612798Y7886953D01*
G37*
G36*
X1281785Y7859369D02*
G01*
X1281785Y7831785D01*
X1309370Y7831785D01*
X1309370Y7859369D01*
G37*
G36*
X812800Y7693863D02*
G01*
X812800Y7666228D01*
X978306Y7666228D01*
X978306Y7528306D01*
X840384Y7528306D01*
X840384Y7666228D01*
X812800Y7666228D01*
X812800Y7500721D01*
X1005890Y7500721D01*
X1005890Y7693863D01*
G37*
G36*
X1419707Y7693863D02*
G01*
X1419707Y7666228D01*
X1447292Y7666228D01*
X1447292Y7693863D01*
G37*
G36*
X867968Y7638694D02*
G01*
X867968Y7555890D01*
X950721Y7555890D01*
X950721Y7638694D01*
G37*
G36*
X1336954Y7528306D02*
G01*
X1336954Y7500721D01*
X1364538Y7500721D01*
X1364538Y7528306D01*
G37*
G36*
X8295081Y1218184D02*
G01*
X8290864Y1218031D01*
X8286648Y1217523D01*
X8282533Y1216660D01*
X8278520Y1215440D01*
X8274558Y1213866D01*
X8270748Y1211884D01*
X8267090Y1209497D01*
X8263585Y1206703D01*
X8260283Y1203502D01*
X8257133Y1199896D01*
X8254238Y1195832D01*
X8251545Y1191310D01*
X8249107Y1186332D01*
X8246922Y1180846D01*
X8245043Y1174902D01*
X8243468Y1168450D01*
X8242198Y1161491D01*
X8241233Y1153972D01*
X8240674Y1145997D01*
X8240522Y1137412D01*
X8240883Y1126744D01*
X8256524Y1126744D01*
X8260384Y1131671D01*
X8264398Y1135837D01*
X8268462Y1139240D01*
X8272525Y1141984D01*
X8276590Y1144016D01*
X8280552Y1145438D01*
X8284362Y1146302D01*
X8288020Y1146556D01*
X8294674Y1145946D01*
X8300415Y1144066D01*
X8305190Y1141120D01*
X8309102Y1137107D01*
X8312099Y1132179D01*
X8314232Y1126286D01*
X8315502Y1119632D01*
X8315959Y1112266D01*
X8315401Y1104849D01*
X8313928Y1098143D01*
X8311540Y1092200D01*
X8308390Y1087170D01*
X8304530Y1083056D01*
X8300059Y1080008D01*
X8295131Y1078128D01*
X8289747Y1077468D01*
X8284972Y1077823D01*
X8280552Y1078941D01*
X8276488Y1080719D01*
X8272780Y1083259D01*
X8269427Y1086408D01*
X8266480Y1090269D01*
X8263839Y1094790D01*
X8261603Y1099972D01*
X8259775Y1105763D01*
X8258302Y1112164D01*
X8257184Y1119174D01*
X8256524Y1126744D01*
X8240883Y1126744D01*
X8241436Y1120343D01*
X8242604Y1112621D01*
X8244179Y1105509D01*
X8246160Y1098956D01*
X8248497Y1092962D01*
X8251291Y1087526D01*
X8254390Y1082649D01*
X8257794Y1078331D01*
X8261553Y1074623D01*
X8265617Y1071473D01*
X8269986Y1068882D01*
X8274558Y1066850D01*
X8279434Y1065428D01*
X8284464Y1064564D01*
X8289747Y1064260D01*
X8295335Y1064666D01*
X8300720Y1065834D01*
X8305850Y1067714D01*
X8310676Y1070305D01*
X8315147Y1073607D01*
X8319211Y1077518D01*
X8322767Y1081989D01*
X8325866Y1087069D01*
X8328304Y1092657D01*
X8330133Y1098753D01*
X8331301Y1105306D01*
X8331708Y1112266D01*
X8331352Y1119682D01*
X8330387Y1126490D01*
X8328812Y1132586D01*
X8326628Y1138072D01*
X8323834Y1142949D01*
X8320531Y1147114D01*
X8316722Y1150670D01*
X8312403Y1153566D01*
X8307578Y1155852D01*
X8302294Y1157478D01*
X8296605Y1158443D01*
X8290559Y1158748D01*
X8286038Y1158443D01*
X8281466Y1157478D01*
X8276894Y1156004D01*
X8272424Y1153922D01*
X8268055Y1151331D01*
X8263890Y1148232D01*
X8259927Y1144676D01*
X8256270Y1140714D01*
X8256574Y1149248D01*
X8257286Y1157071D01*
X8258352Y1164234D01*
X8259775Y1170686D01*
X8261502Y1176528D01*
X8263534Y1181760D01*
X8265871Y1186383D01*
X8268411Y1190396D01*
X8271205Y1193850D01*
X8274202Y1196797D01*
X8277402Y1199235D01*
X8280806Y1201166D01*
X8284311Y1202639D01*
X8287969Y1203655D01*
X8291728Y1204264D01*
X8295640Y1204468D01*
X8302244Y1203655D01*
X8308594Y1201420D01*
X8314436Y1197813D01*
X8319465Y1193038D01*
X8328863Y1203452D01*
X8325713Y1206500D01*
X8322309Y1209294D01*
X8318601Y1211783D01*
X8314588Y1213967D01*
X8310219Y1215745D01*
X8305546Y1217066D01*
X8300516Y1217879D01*
G37*
G36*
X8529320Y1218184D02*
G01*
X8523732Y1217980D01*
X8518347Y1217320D01*
X8513114Y1216253D01*
X8508085Y1214780D01*
X8503259Y1212850D01*
X8498636Y1210564D01*
X8494217Y1207922D01*
X8490102Y1204823D01*
X8486190Y1201420D01*
X8482584Y1197610D01*
X8479231Y1193444D01*
X8476183Y1188923D01*
X8473440Y1184097D01*
X8471001Y1178915D01*
X8468918Y1173378D01*
X8467191Y1167536D01*
X8465820Y1161440D01*
X8464854Y1154988D01*
X8464245Y1148232D01*
X8464042Y1141222D01*
X8464194Y1134110D01*
X8464804Y1127353D01*
X8465769Y1120851D01*
X8467140Y1114704D01*
X8468817Y1108811D01*
X8470900Y1103325D01*
X8473236Y1098143D01*
X8475929Y1093266D01*
X8478926Y1088796D01*
X8482228Y1084630D01*
X8485784Y1080871D01*
X8489594Y1077468D01*
X8493658Y1074420D01*
X8497976Y1071778D01*
X8502497Y1069492D01*
X8507222Y1067612D01*
X8512149Y1066139D01*
X8517280Y1065123D01*
X8522563Y1064463D01*
X8527999Y1064260D01*
X8535060Y1064615D01*
X8541613Y1065682D01*
X8547811Y1067409D01*
X8553602Y1069797D01*
X8559038Y1072794D01*
X8564168Y1076452D01*
X8568994Y1080719D01*
X8573465Y1085596D01*
X8564067Y1096010D01*
X8560308Y1092149D01*
X8556447Y1088745D01*
X8552383Y1085799D01*
X8548166Y1083411D01*
X8543696Y1081481D01*
X8539022Y1080109D01*
X8534044Y1079296D01*
X8528812Y1078992D01*
X8523427Y1079246D01*
X8518347Y1080109D01*
X8513572Y1081481D01*
X8509050Y1083360D01*
X8504834Y1085748D01*
X8500922Y1088644D01*
X8497316Y1091996D01*
X8494064Y1095857D01*
X8491169Y1100124D01*
X8488629Y1104849D01*
X8486444Y1109980D01*
X8484616Y1115517D01*
X8483193Y1121460D01*
X8482126Y1127760D01*
X8481517Y1134465D01*
X8481263Y1141476D01*
X8481517Y1148486D01*
X8482177Y1155141D01*
X8483244Y1161440D01*
X8484717Y1167333D01*
X8486597Y1172819D01*
X8488832Y1177950D01*
X8491474Y1182624D01*
X8494471Y1186840D01*
X8497773Y1190650D01*
X8501430Y1193952D01*
X8505393Y1196797D01*
X8509660Y1199134D01*
X8514232Y1201013D01*
X8519109Y1202334D01*
X8524189Y1203198D01*
X8529574Y1203452D01*
X8538768Y1202385D01*
X8546896Y1199489D01*
X8554110Y1194968D01*
X8560308Y1189228D01*
X8569706Y1200150D01*
X8566302Y1203604D01*
X8562390Y1206906D01*
X8557971Y1210005D01*
X8553094Y1212697D01*
X8547811Y1214932D01*
X8542020Y1216660D01*
X8535873Y1217777D01*
G37*
G36*
X8636762Y1218184D02*
G01*
X8631631Y1217879D01*
X8626754Y1217015D01*
X8622131Y1215542D01*
X8617813Y1213510D01*
X8613749Y1210818D01*
X8609990Y1207566D01*
X8606536Y1203756D01*
X8603386Y1199286D01*
X8600592Y1194257D01*
X8598103Y1188567D01*
X8595969Y1182319D01*
X8594242Y1175410D01*
X8592820Y1167942D01*
X8591854Y1159814D01*
X8591245Y1151077D01*
X8591042Y1141730D01*
X8607044Y1141730D01*
X8607247Y1152093D01*
X8608009Y1161491D01*
X8609177Y1169873D01*
X8610854Y1177340D01*
X8612886Y1183894D01*
X8615324Y1189532D01*
X8618118Y1194206D01*
X8621268Y1198016D01*
X8624722Y1200962D01*
X8628430Y1203045D01*
X8632494Y1204315D01*
X8636762Y1204722D01*
X8640978Y1204315D01*
X8644991Y1203045D01*
X8648700Y1200962D01*
X8652103Y1198016D01*
X8655202Y1194206D01*
X8657894Y1189532D01*
X8660282Y1183894D01*
X8662263Y1177340D01*
X8663838Y1169873D01*
X8665006Y1161491D01*
X8665718Y1152093D01*
X8665972Y1141730D01*
X8665718Y1131163D01*
X8665006Y1121613D01*
X8663838Y1113028D01*
X8662263Y1105408D01*
X8660282Y1098753D01*
X8657894Y1093012D01*
X8655202Y1088186D01*
X8652103Y1084326D01*
X8648700Y1081278D01*
X8644991Y1079144D01*
X8640978Y1077874D01*
X8636762Y1077468D01*
X8632494Y1077874D01*
X8628430Y1079144D01*
X8624722Y1081278D01*
X8621268Y1084326D01*
X8618118Y1088186D01*
X8615324Y1093012D01*
X8612886Y1098753D01*
X8610854Y1105408D01*
X8609177Y1113028D01*
X8608009Y1121613D01*
X8607247Y1131163D01*
X8607044Y1141730D01*
X8591042Y1141730D01*
X8591245Y1132281D01*
X8591854Y1123442D01*
X8592820Y1115263D01*
X8594242Y1107643D01*
X8595969Y1100683D01*
X8598103Y1094333D01*
X8600592Y1088593D01*
X8603386Y1083462D01*
X8606536Y1078941D01*
X8609990Y1075029D01*
X8613749Y1071727D01*
X8617813Y1069035D01*
X8622131Y1066952D01*
X8626754Y1065428D01*
X8631631Y1064564D01*
X8636762Y1064260D01*
X8641842Y1064564D01*
X8646718Y1065428D01*
X8651290Y1066952D01*
X8655608Y1069035D01*
X8659672Y1071727D01*
X8663381Y1075029D01*
X8666835Y1078941D01*
X8669934Y1083462D01*
X8672728Y1088593D01*
X8675166Y1094333D01*
X8677300Y1100683D01*
X8679027Y1107643D01*
X8680399Y1115263D01*
X8681415Y1123442D01*
X8681974Y1132281D01*
X8682228Y1141730D01*
X8681974Y1151077D01*
X8681415Y1159814D01*
X8680399Y1167942D01*
X8679027Y1175410D01*
X8677300Y1182319D01*
X8675166Y1188567D01*
X8672728Y1194257D01*
X8669934Y1199286D01*
X8666835Y1203756D01*
X8663381Y1207566D01*
X8659672Y1210818D01*
X8655608Y1213510D01*
X8651290Y1215542D01*
X8646718Y1217015D01*
X8641842Y1217879D01*
G37*
G36*
X8743899Y1218184D02*
G01*
X8737244Y1217777D01*
X8731046Y1216609D01*
X8725255Y1214729D01*
X8719820Y1212189D01*
X8714689Y1209040D01*
X8709812Y1205331D01*
X8705088Y1201064D01*
X8700465Y1196340D01*
X8710422Y1187196D01*
X8713673Y1190802D01*
X8717127Y1194104D01*
X8720836Y1197102D01*
X8724747Y1199692D01*
X8728862Y1201775D01*
X8733129Y1203350D01*
X8737549Y1204366D01*
X8742172Y1204722D01*
X8748877Y1204112D01*
X8754719Y1202385D01*
X8759545Y1199591D01*
X8763457Y1195933D01*
X8766505Y1191412D01*
X8768638Y1186180D01*
X8769908Y1180338D01*
X8770315Y1173988D01*
X8770162Y1170127D01*
X8769705Y1166164D01*
X8768892Y1162100D01*
X8767775Y1157986D01*
X8766302Y1153769D01*
X8762339Y1145082D01*
X8759850Y1140561D01*
X8753856Y1131265D01*
X8746388Y1121460D01*
X8737447Y1111148D01*
X8726982Y1100277D01*
X8715044Y1088796D01*
X8701481Y1076706D01*
X8701481Y1066800D01*
X8793683Y1066800D01*
X8793683Y1081024D01*
X8745118Y1080922D01*
X8726678Y1079754D01*
X8737142Y1089914D01*
X8746845Y1099921D01*
X8755634Y1109675D01*
X8763457Y1119276D01*
X8770264Y1128776D01*
X8773261Y1133449D01*
X8778392Y1142746D01*
X8780526Y1147368D01*
X8782354Y1151991D01*
X8785047Y1161135D01*
X8785910Y1165656D01*
X8786418Y1170228D01*
X8786622Y1174750D01*
X8786266Y1181150D01*
X8785250Y1187145D01*
X8783624Y1192682D01*
X8781389Y1197762D01*
X8778595Y1202334D01*
X8775141Y1206347D01*
X8771229Y1209852D01*
X8766708Y1212799D01*
X8761730Y1215085D01*
X8756243Y1216812D01*
X8750300Y1217828D01*
G37*
G36*
X8867140Y1218184D02*
G01*
X8860637Y1217828D01*
X8854541Y1216863D01*
X8848801Y1215288D01*
X8843467Y1213154D01*
X8838590Y1210411D01*
X8834221Y1207211D01*
X8830411Y1203553D01*
X8827211Y1199438D01*
X8824620Y1194917D01*
X8822690Y1190040D01*
X8821521Y1184808D01*
X8821115Y1179322D01*
X8821877Y1171752D01*
X8823960Y1165148D01*
X8827109Y1159459D01*
X8831122Y1154582D01*
X8835796Y1150416D01*
X8840876Y1146911D01*
X8846108Y1143965D01*
X8851392Y1141476D01*
X8878112Y1129741D01*
X8882938Y1127353D01*
X8887256Y1124813D01*
X8890965Y1121968D01*
X8894064Y1118666D01*
X8896400Y1114806D01*
X8897823Y1110132D01*
X8898331Y1104646D01*
X8897772Y1099159D01*
X8896096Y1094181D01*
X8893352Y1089812D01*
X8889593Y1086104D01*
X8884869Y1083106D01*
X8879281Y1080871D01*
X8872829Y1079449D01*
X8865565Y1078992D01*
X8859723Y1079347D01*
X8853932Y1080312D01*
X8848293Y1081938D01*
X8842857Y1084122D01*
X8837676Y1086815D01*
X8832748Y1090015D01*
X8828125Y1093673D01*
X8823960Y1097788D01*
X8813749Y1086358D01*
X8818778Y1081481D01*
X8824214Y1077112D01*
X8830106Y1073353D01*
X8836406Y1070152D01*
X8843111Y1067612D01*
X8850172Y1065784D01*
X8857589Y1064666D01*
X8865362Y1064260D01*
X8872778Y1064615D01*
X8879738Y1065733D01*
X8886139Y1067460D01*
X8891981Y1069848D01*
X8897213Y1072845D01*
X8901887Y1076299D01*
X8905900Y1080312D01*
X8909253Y1084732D01*
X8911894Y1089558D01*
X8913825Y1094689D01*
X8914993Y1100175D01*
X8915349Y1105916D01*
X8914739Y1113637D01*
X8912961Y1120394D01*
X8910116Y1126236D01*
X8906357Y1131265D01*
X8901785Y1135583D01*
X8896502Y1139342D01*
X8890660Y1142644D01*
X8884412Y1145540D01*
X8858707Y1156614D01*
X8854338Y1158748D01*
X8850172Y1161084D01*
X8846312Y1163828D01*
X8843010Y1167028D01*
X8840419Y1170838D01*
X8838742Y1175308D01*
X8838133Y1180592D01*
X8838692Y1185570D01*
X8840266Y1190040D01*
X8842756Y1193952D01*
X8846159Y1197254D01*
X8850376Y1199896D01*
X8855303Y1201826D01*
X8860891Y1203045D01*
X8867140Y1203452D01*
X8872321Y1203198D01*
X8877198Y1202436D01*
X8881821Y1201216D01*
X8886190Y1199591D01*
X8890304Y1197508D01*
X8894165Y1195070D01*
X8897874Y1192326D01*
X8901379Y1189228D01*
X8910320Y1199896D01*
X8906256Y1203756D01*
X8901785Y1207262D01*
X8896858Y1210360D01*
X8891574Y1213053D01*
X8885936Y1215186D01*
X8879941Y1216812D01*
X8873642Y1217828D01*
G37*
G36*
X8057388Y1215644D02*
G01*
X8089392Y1066800D01*
X8109203Y1066800D01*
X8132267Y1159510D01*
X8139938Y1193292D01*
X8140649Y1193292D01*
X8148015Y1159510D01*
X8171942Y1066800D01*
X8191753Y1066800D01*
X8222945Y1215644D01*
X8206994Y1215644D01*
X8188198Y1120952D01*
X8181797Y1084580D01*
X8180781Y1084580D01*
X8169909Y1132840D01*
X8148574Y1215644D01*
X8132825Y1215644D01*
X8111744Y1132840D01*
X8104936Y1102817D01*
X8101075Y1084580D01*
X8100059Y1084580D01*
X8090865Y1132840D01*
X8074659Y1215644D01*
G37*
G36*
X8362899Y1215644D02*
G01*
X8358124Y1146556D01*
X8367217Y1140714D01*
X8373414Y1144574D01*
X8379358Y1147368D01*
X8385606Y1149045D01*
X8392617Y1149604D01*
X8399526Y1148994D01*
X8405723Y1147216D01*
X8411159Y1144270D01*
X8415731Y1140256D01*
X8419439Y1135227D01*
X8422132Y1129233D01*
X8423808Y1122324D01*
X8424367Y1114552D01*
X8423706Y1106576D01*
X8421827Y1099413D01*
X8418779Y1093165D01*
X8414766Y1087882D01*
X8409940Y1083665D01*
X8404352Y1080566D01*
X8398205Y1078636D01*
X8391601Y1077976D01*
X8385352Y1078331D01*
X8379663Y1079398D01*
X8374481Y1081024D01*
X8369757Y1083106D01*
X8365439Y1085646D01*
X8361527Y1088491D01*
X8354517Y1094740D01*
X8346135Y1083818D01*
X8350097Y1080109D01*
X8354415Y1076604D01*
X8359292Y1073251D01*
X8364728Y1070305D01*
X8370722Y1067816D01*
X8377428Y1065936D01*
X8384895Y1064666D01*
X8393176Y1064260D01*
X8399272Y1064615D01*
X8405266Y1065784D01*
X8411057Y1067612D01*
X8416544Y1070203D01*
X8421674Y1073505D01*
X8426399Y1077468D01*
X8430564Y1082141D01*
X8434171Y1087424D01*
X8437118Y1093419D01*
X8439302Y1100023D01*
X8440674Y1107236D01*
X8441131Y1115060D01*
X8440724Y1122883D01*
X8439556Y1129944D01*
X8437626Y1136294D01*
X8435035Y1141933D01*
X8431834Y1146860D01*
X8428075Y1151077D01*
X8423808Y1154633D01*
X8419084Y1157528D01*
X8413953Y1159764D01*
X8408466Y1161288D01*
X8402726Y1162253D01*
X8396681Y1162558D01*
X8390077Y1162100D01*
X8384184Y1160830D01*
X8378647Y1158798D01*
X8373313Y1156208D01*
X8377428Y1201420D01*
X8434070Y1201420D01*
X8434070Y1215644D01*
G37*
D10*
X11472905Y486331D02*
G01*
X11472905Y343075D01*
X11472905Y486331D02*
G01*
X11534119Y486331D01*
X11554693Y479473D01*
X11561551Y472615D01*
X11568409Y459153D01*
X11568409Y445437D01*
X11561551Y431721D01*
X11554693Y424863D01*
X11534119Y418005D01*
X11472905Y418005D01*
X11520657Y418005D02*
G01*
X11568409Y343075D01*
X11613367Y486331D02*
G01*
X11613367Y343075D01*
X11613367Y486331D02*
G01*
X11702013Y486331D01*
X11613367Y418005D02*
G01*
X11667977Y418005D01*
X11613367Y343075D02*
G01*
X11702013Y343075D01*
X11842475Y465757D02*
G01*
X11828759Y479473D01*
X11808439Y486331D01*
X11781007Y486331D01*
X11760687Y479473D01*
X11746971Y465757D01*
X11746971Y452295D01*
X11753829Y438579D01*
X11760687Y431721D01*
X11774149Y424863D01*
X11815043Y411401D01*
X11828759Y404543D01*
X11835617Y397685D01*
X11842475Y383969D01*
X11842475Y363649D01*
X11828759Y349933D01*
X11808439Y343075D01*
X11781007Y343075D01*
X11760687Y349933D01*
X11746971Y363649D01*
X11887433Y486331D02*
G01*
X11887433Y343075D01*
X11887433Y486331D02*
G01*
X11976079Y486331D01*
X11887433Y418005D02*
G01*
X11942043Y418005D01*
X11887433Y343075D02*
G01*
X11976079Y343075D01*
X12068789Y486331D02*
G01*
X12068789Y343075D01*
X12021037Y486331D02*
G01*
X12116541Y486331D01*
X12661900Y486331D02*
G01*
X12661900Y343075D01*
X12661900Y486331D02*
G01*
X12723113Y486331D01*
X12743688Y479473D01*
X12750545Y472615D01*
X12757404Y459153D01*
X12757404Y438579D01*
X12750545Y424863D01*
X12743688Y418005D01*
X12723113Y411401D01*
X12661900Y411401D01*
X12843256Y486331D02*
G01*
X12829540Y479473D01*
X12816077Y465757D01*
X12809220Y452295D01*
X12802361Y431721D01*
X12802361Y397685D01*
X12809220Y377111D01*
X12816077Y363649D01*
X12829540Y349933D01*
X12843256Y343075D01*
X12870434Y343075D01*
X12884150Y349933D01*
X12897865Y363649D01*
X12904724Y377111D01*
X12911327Y397685D01*
X12911327Y431721D01*
X12904724Y452295D01*
X12897865Y465757D01*
X12884150Y479473D01*
X12870434Y486331D01*
X12843256Y486331D01*
X12956540Y486331D02*
G01*
X12990575Y343075D01*
X13024611Y486331D02*
G01*
X12990575Y343075D01*
X13024611Y486331D02*
G01*
X13058647Y343075D01*
X13092684Y486331D02*
G01*
X13058647Y343075D01*
X13137895Y486331D02*
G01*
X13137895Y343075D01*
X13137895Y486331D02*
G01*
X13226541Y486331D01*
X13137895Y418005D02*
G01*
X13192252Y418005D01*
X13137895Y343075D02*
G01*
X13226541Y343075D01*
X13271500Y486331D02*
G01*
X13271500Y343075D01*
X13271500Y486331D02*
G01*
X13332713Y486331D01*
X13353288Y479473D01*
X13360145Y472615D01*
X13366750Y459153D01*
X13366750Y445437D01*
X13360145Y431721D01*
X13353288Y424863D01*
X13332713Y418005D01*
X13271500Y418005D01*
X13319252Y418005D02*
G01*
X13366750Y343075D01*
X2387600Y6910580D02*
G01*
X2387600Y6716778D01*
X2387600Y6910580D02*
G01*
X2461513Y6716778D01*
X2535427Y6910580D02*
G01*
X2461513Y6716778D01*
X2535427Y6910580D02*
G01*
X2535427Y6716778D01*
X2707131Y6846064D02*
G01*
X2707131Y6716778D01*
X2707131Y6818378D02*
G01*
X2688590Y6836666D01*
X2670302Y6846064D01*
X2642615Y6846064D01*
X2624074Y6836666D01*
X2605531Y6818378D01*
X2596388Y6790438D01*
X2596388Y6772150D01*
X2605531Y6744464D01*
X2624074Y6725922D01*
X2642615Y6716778D01*
X2670302Y6716778D01*
X2688590Y6725922D01*
X2707131Y6744464D01*
X2768091Y6846064D02*
G01*
X2768091Y6652008D01*
X2768091Y6818378D02*
G01*
X2786634Y6836666D01*
X2805175Y6846064D01*
X2832861Y6846064D01*
X2851150Y6836666D01*
X2869691Y6818378D01*
X2879090Y6790438D01*
X2879090Y6772150D01*
X2869691Y6744464D01*
X2851150Y6725922D01*
X2832861Y6716778D01*
X2805175Y6716778D01*
X2786634Y6725922D01*
X2768091Y6744464D01*
X3050793Y6846064D02*
G01*
X3050793Y6716778D01*
X3050793Y6818378D02*
G01*
X3032252Y6836666D01*
X3013709Y6846064D01*
X2986024Y6846064D01*
X2967736Y6836666D01*
X2949193Y6818378D01*
X2940050Y6790438D01*
X2940050Y6772150D01*
X2949193Y6744464D01*
X2967736Y6725922D01*
X2986024Y6716778D01*
X3013709Y6716778D01*
X3032252Y6725922D01*
X3050793Y6744464D01*
X3222497Y6818378D02*
G01*
X3204209Y6836666D01*
X3185668Y6846064D01*
X3157981Y6846064D01*
X3139440Y6836666D01*
X3120897Y6818378D01*
X3111754Y6790438D01*
X3111754Y6772150D01*
X3120897Y6744464D01*
X3139440Y6725922D01*
X3157981Y6716778D01*
X3185668Y6716778D01*
X3204209Y6725922D01*
X3222497Y6744464D01*
X3283458Y6910580D02*
G01*
X3283458Y6716778D01*
X3283458Y6808980D02*
G01*
X3311143Y6836666D01*
X3329686Y6846064D01*
X3357372Y6846064D01*
X3375913Y6836666D01*
X3385058Y6808980D01*
X3385058Y6716778D01*
X3446018Y6790438D02*
G01*
X3557015Y6790438D01*
X3557015Y6808980D01*
X3547618Y6827522D01*
X3538474Y6836666D01*
X3519931Y6846064D01*
X3492245Y6846064D01*
X3473704Y6836666D01*
X3455415Y6818378D01*
X3446018Y6790438D01*
X3446018Y6772150D01*
X3455415Y6744464D01*
X3473704Y6725922D01*
X3492245Y6716778D01*
X3519931Y6716778D01*
X3538474Y6725922D01*
X3557015Y6744464D01*
X3870959Y6882894D02*
G01*
X3861815Y6901436D01*
X3834129Y6910580D01*
X3815588Y6910580D01*
X3787902Y6901436D01*
X3769359Y6873750D01*
X3760215Y6827522D01*
X3760215Y6781294D01*
X3769359Y6744464D01*
X3787902Y6725922D01*
X3815588Y6716778D01*
X3824731Y6716778D01*
X3852418Y6725922D01*
X3870959Y6744464D01*
X3880104Y6772150D01*
X3880104Y6781294D01*
X3870959Y6808980D01*
X3852418Y6827522D01*
X3824731Y6836666D01*
X3815588Y6836666D01*
X3787902Y6827522D01*
X3769359Y6808980D01*
X3760215Y6781294D01*
X4033520Y6910580D02*
G01*
X3941063Y6781294D01*
X4079747Y6781294D01*
X4033520Y6910580D02*
G01*
X4033520Y6716778D01*
X6424929Y7042150D02*
G01*
X6415786Y7060692D01*
X6397243Y7079234D01*
X6378956Y7088378D01*
X6341872Y7088378D01*
X6323329Y7079234D01*
X6305041Y7060692D01*
X6295643Y7042150D01*
X6286500Y7014463D01*
X6286500Y6968236D01*
X6295643Y6940550D01*
X6305041Y6922262D01*
X6323329Y6903720D01*
X6341872Y6894576D01*
X6378956Y6894576D01*
X6397243Y6903720D01*
X6415786Y6922262D01*
X6424929Y6940550D01*
X6424929Y6968236D01*
X6378956Y6968236D02*
G01*
X6424929Y6968236D01*
X6596888Y7023862D02*
G01*
X6596888Y6894576D01*
X6596888Y6996176D02*
G01*
X6578345Y7014463D01*
X6559804Y7023862D01*
X6532118Y7023862D01*
X6513575Y7014463D01*
X6495288Y6996176D01*
X6485890Y6968236D01*
X6485890Y6949947D01*
X6495288Y6922262D01*
X6513575Y6903720D01*
X6532118Y6894576D01*
X6559804Y6894576D01*
X6578345Y6903720D01*
X6596888Y6922262D01*
X6657847Y7023862D02*
G01*
X6657847Y6894576D01*
X6657847Y6986778D02*
G01*
X6685534Y7014463D01*
X6704075Y7023862D01*
X6731761Y7023862D01*
X6750050Y7014463D01*
X6759447Y6986778D01*
X6759447Y6894576D01*
X6759447Y6986778D02*
G01*
X6787134Y7014463D01*
X6805675Y7023862D01*
X6833361Y7023862D01*
X6851650Y7014463D01*
X6861047Y6986778D01*
X6861047Y6894576D01*
X6922008Y6968236D02*
G01*
X7032752Y6968236D01*
X7032752Y6986778D01*
X7023608Y7005320D01*
X7014209Y7014463D01*
X6995922Y7023862D01*
X6968236Y7023862D01*
X6949693Y7014463D01*
X6931152Y6996176D01*
X6922008Y6968236D01*
X6922008Y6949947D01*
X6931152Y6922262D01*
X6949693Y6903720D01*
X6968236Y6894576D01*
X6995922Y6894576D01*
X7014209Y6903720D01*
X7032752Y6922262D01*
X7235952Y7088378D02*
G01*
X7235952Y6894576D01*
X7235952Y7088378D02*
G01*
X7319009Y7088378D01*
X7346695Y7079234D01*
X7356093Y7069836D01*
X7365238Y7051547D01*
X7365238Y7033005D01*
X7356093Y7014463D01*
X7346695Y7005320D01*
X7319009Y6996176D01*
X7235952Y6996176D01*
X7300722Y6996176D02*
G01*
X7365238Y6894576D01*
X7481570Y7088378D02*
G01*
X7463281Y7079234D01*
X7444740Y7060692D01*
X7435595Y7042150D01*
X7426197Y7014463D01*
X7426197Y6968236D01*
X7435595Y6940550D01*
X7444740Y6922262D01*
X7463281Y6903720D01*
X7481570Y6894576D01*
X7518654Y6894576D01*
X7537195Y6903720D01*
X7555484Y6922262D01*
X7564881Y6940550D01*
X7574025Y6968236D01*
X7574025Y7014463D01*
X7564881Y7042150D01*
X7555484Y7060692D01*
X7537195Y7079234D01*
X7518654Y7088378D01*
X7481570Y7088378D01*
X7634986Y7088378D02*
G01*
X7634986Y6894576D01*
X7634986Y7088378D02*
G01*
X7708900Y6894576D01*
X7782813Y7088378D02*
G01*
X7708900Y6894576D01*
X7782813Y7088378D02*
G01*
X7782813Y6894576D01*
X6628129Y3371847D02*
G01*
X6618986Y3390389D01*
X6600443Y3408931D01*
X6582156Y3418075D01*
X6545072Y3418075D01*
X6526529Y3408931D01*
X6508241Y3390389D01*
X6498843Y3371847D01*
X6489700Y3344161D01*
X6489700Y3298187D01*
X6498843Y3270247D01*
X6508241Y3251959D01*
X6526529Y3233417D01*
X6545072Y3224273D01*
X6582156Y3224273D01*
X6600443Y3233417D01*
X6618986Y3251959D01*
X6628129Y3270247D01*
X6689090Y3418075D02*
G01*
X6689090Y3224273D01*
X6689090Y3418075D02*
G01*
X6763004Y3224273D01*
X6836918Y3418075D02*
G01*
X6763004Y3224273D01*
X6836918Y3418075D02*
G01*
X6836918Y3224273D01*
X6953250Y3418075D02*
G01*
X6934961Y3408931D01*
X6916420Y3390389D01*
X6907275Y3371847D01*
X6897877Y3344161D01*
X6897877Y3298187D01*
X6907275Y3270247D01*
X6916420Y3251959D01*
X6934961Y3233417D01*
X6953250Y3224273D01*
X6990334Y3224273D01*
X7008875Y3233417D01*
X7027163Y3251959D01*
X7036561Y3270247D01*
X7045706Y3298187D01*
X7045706Y3344161D01*
X7036561Y3371847D01*
X7027163Y3390389D01*
X7008875Y3408931D01*
X6990334Y3418075D01*
X6953250Y3418075D01*
X7106665Y3418075D02*
G01*
X7106665Y3224273D01*
X7106665Y3418075D02*
G01*
X7171436Y3418075D01*
X7199122Y3408931D01*
X7217409Y3390389D01*
X7226808Y3371847D01*
X7235952Y3344161D01*
X7235952Y3298187D01*
X7226808Y3270247D01*
X7217409Y3251959D01*
X7199122Y3233417D01*
X7171436Y3224273D01*
X7106665Y3224273D01*
X7513065Y3418075D02*
G01*
X7439152Y3224273D01*
X7513065Y3418075D02*
G01*
X7586979Y3224273D01*
X7466838Y3288789D02*
G01*
X7559293Y3288789D01*
X7777225Y3418075D02*
G01*
X7684770Y3224273D01*
X7647940Y3418075D02*
G01*
X7777225Y3418075D01*
X10318986Y3872329D02*
G01*
X10318986Y3729073D01*
X10318986Y3872329D02*
G01*
X10407632Y3872329D01*
X10318986Y3804257D02*
G01*
X10373342Y3804257D01*
X10318986Y3729073D02*
G01*
X10407632Y3729073D01*
X10472910Y3872329D02*
G01*
X10472910Y3756505D01*
X10479768Y3735931D01*
X10493484Y3729073D01*
X10507200Y3729073D01*
X10452590Y3824577D02*
G01*
X10500342Y3824577D01*
X10552158Y3872329D02*
G01*
X10552158Y3729073D01*
X10552158Y3797399D02*
G01*
X10572478Y3817719D01*
X10586194Y3824577D01*
X10606514Y3824577D01*
X10620230Y3817719D01*
X10627088Y3797399D01*
X10627088Y3729073D01*
X10753834Y3824577D02*
G01*
X10753834Y3729073D01*
X10753834Y3804257D02*
G01*
X10740372Y3817719D01*
X10726656Y3824577D01*
X10706082Y3824577D01*
X10692620Y3817719D01*
X10678904Y3804257D01*
X10672046Y3783683D01*
X10672046Y3769967D01*
X10678904Y3749647D01*
X10692620Y3735931D01*
X10706082Y3729073D01*
X10726656Y3729073D01*
X10740372Y3735931D01*
X10753834Y3749647D01*
X10798792Y3824577D02*
G01*
X10798792Y3729073D01*
X10798792Y3797399D02*
G01*
X10819366Y3817719D01*
X10833082Y3824577D01*
X10853402Y3824577D01*
X10867118Y3817719D01*
X10873976Y3797399D01*
X10873976Y3729073D01*
X11119340Y3852009D02*
G01*
X11105624Y3865471D01*
X11085304Y3872329D01*
X11057872Y3872329D01*
X11037552Y3865471D01*
X11023836Y3852009D01*
X11023836Y3838293D01*
X11030694Y3824577D01*
X11037552Y3817719D01*
X11051268Y3810861D01*
X11092162Y3797399D01*
X11105624Y3790541D01*
X11112482Y3783683D01*
X11119340Y3769967D01*
X11119340Y3749647D01*
X11105624Y3735931D01*
X11085304Y3729073D01*
X11057872Y3729073D01*
X11037552Y3735931D01*
X11023836Y3749647D01*
X11164298Y3872329D02*
G01*
X11171156Y3865471D01*
X11178014Y3872329D01*
X11171156Y3879187D01*
X11164298Y3872329D01*
X11171156Y3824577D02*
G01*
X11171156Y3729073D01*
X11277582Y3872329D02*
G01*
X11263866Y3872329D01*
X11250150Y3865471D01*
X11243546Y3845151D01*
X11243546Y3729073D01*
X11222972Y3824577D02*
G01*
X11270724Y3824577D01*
X11377150Y3872329D02*
G01*
X11363434Y3872329D01*
X11349718Y3865471D01*
X11343114Y3845151D01*
X11343114Y3729073D01*
X11322540Y3824577D02*
G01*
X11370292Y3824577D01*
X11422108Y3783683D02*
G01*
X11503896Y3783683D01*
X11503896Y3797399D01*
X11497038Y3810861D01*
X11490180Y3817719D01*
X11476718Y3824577D01*
X11456144Y3824577D01*
X11442428Y3817719D01*
X11428966Y3804257D01*
X11422108Y3783683D01*
X11422108Y3769967D01*
X11428966Y3749647D01*
X11442428Y3735931D01*
X11456144Y3729073D01*
X11476718Y3729073D01*
X11490180Y3735931D01*
X11503896Y3749647D01*
X11548854Y3824577D02*
G01*
X11548854Y3729073D01*
X11548854Y3783683D02*
G01*
X11555712Y3804257D01*
X11569428Y3817719D01*
X11582890Y3824577D01*
X11603464Y3824577D01*
X11648422Y3824577D02*
G01*
X11648422Y3729073D01*
X11648422Y3797399D02*
G01*
X11668996Y3817719D01*
X11682458Y3824577D01*
X11703032Y3824577D01*
X11716748Y3817719D01*
X11723352Y3797399D01*
X11723352Y3729073D01*
X11723352Y3797399D02*
G01*
X11743926Y3817719D01*
X11757642Y3824577D01*
X11777962Y3824577D01*
X11791678Y3817719D01*
X11798536Y3797399D01*
X11798536Y3729073D01*
X11925282Y3824577D02*
G01*
X11925282Y3729073D01*
X11925282Y3804257D02*
G01*
X11911566Y3817719D01*
X11898104Y3824577D01*
X11877530Y3824577D01*
X11863814Y3817719D01*
X11850352Y3804257D01*
X11843494Y3783683D01*
X11843494Y3769967D01*
X11850352Y3749647D01*
X11863814Y3735931D01*
X11877530Y3729073D01*
X11898104Y3729073D01*
X11911566Y3735931D01*
X11925282Y3749647D01*
X11970240Y3824577D02*
G01*
X11970240Y3729073D01*
X11970240Y3797399D02*
G01*
X11990814Y3817719D01*
X12004276Y3824577D01*
X12024850Y3824577D01*
X12038566Y3817719D01*
X12045170Y3797399D01*
X12045170Y3729073D01*
X10318986Y3620869D02*
G01*
X10318986Y3477613D01*
X10318986Y3620869D02*
G01*
X10373342Y3477613D01*
X10427952Y3620869D02*
G01*
X10373342Y3477613D01*
X10427952Y3620869D02*
G01*
X10427952Y3477613D01*
X10554698Y3573117D02*
G01*
X10554698Y3477613D01*
X10554698Y3552543D02*
G01*
X10541236Y3566259D01*
X10527520Y3573117D01*
X10507200Y3573117D01*
X10493484Y3566259D01*
X10479768Y3552543D01*
X10472910Y3532223D01*
X10472910Y3518507D01*
X10479768Y3497933D01*
X10493484Y3484471D01*
X10507200Y3477613D01*
X10527520Y3477613D01*
X10541236Y3484471D01*
X10554698Y3497933D01*
X10620230Y3620869D02*
G01*
X10620230Y3504791D01*
X10627088Y3484471D01*
X10640804Y3477613D01*
X10654266Y3477613D01*
X10599910Y3573117D02*
G01*
X10647662Y3573117D01*
X10719798Y3620869D02*
G01*
X10719798Y3504791D01*
X10726656Y3484471D01*
X10740372Y3477613D01*
X10753834Y3477613D01*
X10699478Y3573117D02*
G01*
X10746976Y3573117D01*
X10798792Y3620869D02*
G01*
X10798792Y3477613D01*
X10798792Y3545685D02*
G01*
X10819366Y3566259D01*
X10833082Y3573117D01*
X10853402Y3573117D01*
X10867118Y3566259D01*
X10873976Y3545685D01*
X10873976Y3477613D01*
X10918934Y3532223D02*
G01*
X11000722Y3532223D01*
X11000722Y3545685D01*
X10993864Y3559401D01*
X10987006Y3566259D01*
X10973544Y3573117D01*
X10952970Y3573117D01*
X10939254Y3566259D01*
X10925792Y3552543D01*
X10918934Y3532223D01*
X10918934Y3518507D01*
X10925792Y3497933D01*
X10939254Y3484471D01*
X10952970Y3477613D01*
X10973544Y3477613D01*
X10987006Y3484471D01*
X11000722Y3497933D01*
X11045680Y3573117D02*
G01*
X11073112Y3477613D01*
X11100290Y3573117D02*
G01*
X11073112Y3477613D01*
X11100290Y3573117D02*
G01*
X11127468Y3477613D01*
X11154900Y3573117D02*
G01*
X11127468Y3477613D01*
X11352512Y3620869D02*
G01*
X11352512Y3477613D01*
X11304760Y3620869D02*
G01*
X11400264Y3620869D01*
X11479258Y3573117D02*
G01*
X11465796Y3566259D01*
X11452080Y3552543D01*
X11445222Y3532223D01*
X11445222Y3518507D01*
X11452080Y3497933D01*
X11465796Y3484471D01*
X11479258Y3477613D01*
X11499832Y3477613D01*
X11513548Y3484471D01*
X11527010Y3497933D01*
X11533868Y3518507D01*
X11533868Y3532223D01*
X11527010Y3552543D01*
X11513548Y3566259D01*
X11499832Y3573117D01*
X11479258Y3573117D01*
X11578826Y3573117D02*
G01*
X11578826Y3477613D01*
X11578826Y3545685D02*
G01*
X11599400Y3566259D01*
X11613116Y3573117D01*
X11633436Y3573117D01*
X11647152Y3566259D01*
X11654010Y3545685D01*
X11654010Y3477613D01*
X11654010Y3545685D02*
G01*
X11674330Y3566259D01*
X11688046Y3573117D01*
X11708366Y3573117D01*
X11722082Y3566259D01*
X11728940Y3545685D01*
X11728940Y3477613D01*
X10318986Y3369155D02*
G01*
X10318986Y3225899D01*
X10414236Y3369155D02*
G01*
X10318986Y3273651D01*
X10353022Y3307687D02*
G01*
X10414236Y3225899D01*
X10493484Y3321403D02*
G01*
X10479768Y3314545D01*
X10466052Y3301083D01*
X10459448Y3280509D01*
X10459448Y3266793D01*
X10466052Y3246473D01*
X10479768Y3232757D01*
X10493484Y3225899D01*
X10513804Y3225899D01*
X10527520Y3232757D01*
X10541236Y3246473D01*
X10548094Y3266793D01*
X10548094Y3280509D01*
X10541236Y3301083D01*
X10527520Y3314545D01*
X10513804Y3321403D01*
X10493484Y3321403D01*
X10674840Y3321403D02*
G01*
X10674840Y3212437D01*
X10667982Y3191863D01*
X10661124Y3185005D01*
X10647662Y3178147D01*
X10627088Y3178147D01*
X10613372Y3185005D01*
X10674840Y3301083D02*
G01*
X10661124Y3314545D01*
X10647662Y3321403D01*
X10627088Y3321403D01*
X10613372Y3314545D01*
X10599910Y3301083D01*
X10593052Y3280509D01*
X10593052Y3266793D01*
X10599910Y3246473D01*
X10613372Y3232757D01*
X10627088Y3225899D01*
X10647662Y3225899D01*
X10661124Y3232757D01*
X10674840Y3246473D01*
X10801586Y3321403D02*
G01*
X10801586Y3225899D01*
X10801586Y3301083D02*
G01*
X10787870Y3314545D01*
X10774408Y3321403D01*
X10753834Y3321403D01*
X10740372Y3314545D01*
X10726656Y3301083D01*
X10719798Y3280509D01*
X10719798Y3266793D01*
X10726656Y3246473D01*
X10740372Y3232757D01*
X10753834Y3225899D01*
X10774408Y3225899D01*
X10787870Y3232757D01*
X10801586Y3246473D01*
X10846544Y3321403D02*
G01*
X10846544Y3225899D01*
X10846544Y3294225D02*
G01*
X10867118Y3314545D01*
X10880834Y3321403D01*
X10901154Y3321403D01*
X10914870Y3314545D01*
X10921728Y3294225D01*
X10921728Y3225899D01*
X11167092Y3348581D02*
G01*
X11153376Y3362297D01*
X11133056Y3369155D01*
X11105624Y3369155D01*
X11085304Y3362297D01*
X11071588Y3348581D01*
X11071588Y3335119D01*
X11078446Y3321403D01*
X11085304Y3314545D01*
X11099020Y3307687D01*
X11139914Y3294225D01*
X11153376Y3287367D01*
X11160234Y3280509D01*
X11167092Y3266793D01*
X11167092Y3246473D01*
X11153376Y3232757D01*
X11133056Y3225899D01*
X11105624Y3225899D01*
X11085304Y3232757D01*
X11071588Y3246473D01*
X11293838Y3321403D02*
G01*
X11293838Y3225899D01*
X11293838Y3301083D02*
G01*
X11280376Y3314545D01*
X11266660Y3321403D01*
X11246086Y3321403D01*
X11232624Y3314545D01*
X11218908Y3301083D01*
X11212050Y3280509D01*
X11212050Y3266793D01*
X11218908Y3246473D01*
X11232624Y3232757D01*
X11246086Y3225899D01*
X11266660Y3225899D01*
X11280376Y3232757D01*
X11293838Y3246473D01*
X11338796Y3321403D02*
G01*
X11338796Y3225899D01*
X11338796Y3294225D02*
G01*
X11359370Y3314545D01*
X11373086Y3321403D01*
X11393406Y3321403D01*
X11407122Y3314545D01*
X11413980Y3294225D01*
X11413980Y3225899D01*
X11413980Y3294225D02*
G01*
X11434300Y3314545D01*
X11448016Y3321403D01*
X11468336Y3321403D01*
X11482052Y3314545D01*
X11488910Y3294225D01*
X11488910Y3225899D01*
X10318986Y3117441D02*
G01*
X10318986Y2974439D01*
X10318986Y3117441D02*
G01*
X10414236Y2974439D01*
X10414236Y3117441D02*
G01*
X10414236Y2974439D01*
X10459448Y3028795D02*
G01*
X10541236Y3028795D01*
X10541236Y3042511D01*
X10534378Y3056227D01*
X10527520Y3063085D01*
X10513804Y3069943D01*
X10493484Y3069943D01*
X10479768Y3063085D01*
X10466052Y3049369D01*
X10459448Y3028795D01*
X10459448Y3015333D01*
X10466052Y2994759D01*
X10479768Y2981297D01*
X10493484Y2974439D01*
X10513804Y2974439D01*
X10527520Y2981297D01*
X10541236Y2994759D01*
X10586194Y3117441D02*
G01*
X10593052Y3110837D01*
X10599910Y3117441D01*
X10593052Y3124299D01*
X10586194Y3117441D01*
X10593052Y3069943D02*
G01*
X10593052Y2974439D01*
X10644868Y3117441D02*
G01*
X10644868Y2974439D01*
X10794728Y3117441D02*
G01*
X10794728Y2974439D01*
X10794728Y3117441D02*
G01*
X10856196Y3117441D01*
X10876516Y3110837D01*
X10883374Y3103979D01*
X10890232Y3090263D01*
X10890232Y3076547D01*
X10883374Y3063085D01*
X10876516Y3056227D01*
X10856196Y3049369D01*
X10794728Y3049369D02*
G01*
X10856196Y3049369D01*
X10876516Y3042511D01*
X10883374Y3035653D01*
X10890232Y3022191D01*
X10890232Y3001617D01*
X10883374Y2987901D01*
X10876516Y2981297D01*
X10856196Y2974439D01*
X10794728Y2974439D01*
X11016978Y3069943D02*
G01*
X11016978Y2974439D01*
X11016978Y3049369D02*
G01*
X11003516Y3063085D01*
X10989800Y3069943D01*
X10969480Y3069943D01*
X10955764Y3063085D01*
X10942048Y3049369D01*
X10935190Y3028795D01*
X10935190Y3015333D01*
X10942048Y2994759D01*
X10955764Y2981297D01*
X10969480Y2974439D01*
X10989800Y2974439D01*
X11003516Y2981297D01*
X11016978Y2994759D01*
X11062190Y3117441D02*
G01*
X11062190Y2974439D01*
X11188936Y3049369D02*
G01*
X11175220Y3063085D01*
X11161504Y3069943D01*
X11141184Y3069943D01*
X11127468Y3063085D01*
X11114006Y3049369D01*
X11107148Y3028795D01*
X11107148Y3015333D01*
X11114006Y2994759D01*
X11127468Y2981297D01*
X11141184Y2974439D01*
X11161504Y2974439D01*
X11175220Y2981297D01*
X11188936Y2994759D01*
X11233894Y3117441D02*
G01*
X11233894Y2974439D01*
X11233894Y3042511D02*
G01*
X11254468Y3063085D01*
X11267930Y3069943D01*
X11288504Y3069943D01*
X11301966Y3063085D01*
X11308824Y3042511D01*
X11308824Y2974439D01*
X10318986Y2865981D02*
G01*
X10318986Y2722725D01*
X10318986Y2865981D02*
G01*
X10373342Y2722725D01*
X10427952Y2865981D02*
G01*
X10373342Y2722725D01*
X10427952Y2865981D02*
G01*
X10427952Y2722725D01*
X10554698Y2818229D02*
G01*
X10554698Y2722725D01*
X10554698Y2797655D02*
G01*
X10541236Y2811371D01*
X10527520Y2818229D01*
X10507200Y2818229D01*
X10493484Y2811371D01*
X10479768Y2797655D01*
X10472910Y2777335D01*
X10472910Y2763619D01*
X10479768Y2743299D01*
X10493484Y2729583D01*
X10507200Y2722725D01*
X10527520Y2722725D01*
X10541236Y2729583D01*
X10554698Y2743299D01*
X10599910Y2818229D02*
G01*
X10674840Y2722725D01*
X10674840Y2818229D02*
G01*
X10599910Y2722725D01*
X10824700Y2865981D02*
G01*
X10824700Y2722725D01*
X10824700Y2865981D02*
G01*
X10913346Y2865981D01*
X10824700Y2797655D02*
G01*
X10879310Y2797655D01*
X10958558Y2865981D02*
G01*
X10958558Y2722725D01*
X11003516Y2777335D02*
G01*
X11085304Y2777335D01*
X11085304Y2791051D01*
X11078446Y2804513D01*
X11071588Y2811371D01*
X11057872Y2818229D01*
X11037552Y2818229D01*
X11023836Y2811371D01*
X11010374Y2797655D01*
X11003516Y2777335D01*
X11003516Y2763619D01*
X11010374Y2743299D01*
X11023836Y2729583D01*
X11037552Y2722725D01*
X11057872Y2722725D01*
X11071588Y2729583D01*
X11085304Y2743299D01*
X11150836Y2865981D02*
G01*
X11150836Y2750157D01*
X11157440Y2729583D01*
X11171156Y2722725D01*
X11184872Y2722725D01*
X11130262Y2818229D02*
G01*
X11178014Y2818229D01*
X11311618Y2797655D02*
G01*
X11297902Y2811371D01*
X11284440Y2818229D01*
X11263866Y2818229D01*
X11250150Y2811371D01*
X11236688Y2797655D01*
X11229830Y2777335D01*
X11229830Y2763619D01*
X11236688Y2743299D01*
X11250150Y2729583D01*
X11263866Y2722725D01*
X11284440Y2722725D01*
X11297902Y2729583D01*
X11311618Y2743299D01*
X11356576Y2865981D02*
G01*
X11356576Y2722725D01*
X11356576Y2791051D02*
G01*
X11377150Y2811371D01*
X11390612Y2818229D01*
X11411186Y2818229D01*
X11424902Y2811371D01*
X11431506Y2791051D01*
X11431506Y2722725D01*
X11476718Y2777335D02*
G01*
X11558506Y2777335D01*
X11558506Y2791051D01*
X11551648Y2804513D01*
X11544790Y2811371D01*
X11531074Y2818229D01*
X11510754Y2818229D01*
X11497038Y2811371D01*
X11483322Y2797655D01*
X11476718Y2777335D01*
X11476718Y2763619D01*
X11483322Y2743299D01*
X11497038Y2729583D01*
X11510754Y2722725D01*
X11531074Y2722725D01*
X11544790Y2729583D01*
X11558506Y2743299D01*
X11603464Y2818229D02*
G01*
X11603464Y2722725D01*
X11603464Y2777335D02*
G01*
X11610322Y2797655D01*
X11623784Y2811371D01*
X11637500Y2818229D01*
X11658074Y2818229D01*
X1679902Y4844061D02*
G01*
X1486100Y4917975D01*
X1679902Y4844061D02*
G01*
X1486100Y4770147D01*
X1550616Y4890289D02*
G01*
X1550616Y4797833D01*
X1652216Y4579901D02*
G01*
X1670758Y4598443D01*
X1679902Y4626129D01*
X1679902Y4662959D01*
X1670758Y4690645D01*
X1652216Y4709187D01*
X1633674Y4709187D01*
X1615386Y4700043D01*
X1605988Y4690645D01*
X1596844Y4672357D01*
X1578302Y4616985D01*
X1569158Y4598443D01*
X1560014Y4589045D01*
X1541472Y4579901D01*
X1513786Y4579901D01*
X1495244Y4598443D01*
X1486100Y4626129D01*
X1486100Y4662959D01*
X1495244Y4690645D01*
X1513786Y4709187D01*
X1652216Y4408197D02*
G01*
X1670758Y4417341D01*
X1679902Y4445027D01*
X1679902Y4463569D01*
X1670758Y4491255D01*
X1643072Y4509797D01*
X1596844Y4518941D01*
X1550616Y4518941D01*
X1513786Y4509797D01*
X1495244Y4491255D01*
X1486100Y4463569D01*
X1486100Y4454425D01*
X1495244Y4426485D01*
X1513786Y4408197D01*
X1541472Y4398799D01*
X1550616Y4398799D01*
X1578302Y4408197D01*
X1596844Y4426485D01*
X1605988Y4454425D01*
X1605988Y4463569D01*
X1596844Y4491255D01*
X1578302Y4509797D01*
X1550616Y4518941D01*
X1633674Y4199409D02*
G01*
X1652216Y4208553D01*
X1670758Y4227095D01*
X1679902Y4245637D01*
X1679902Y4282467D01*
X1670758Y4301009D01*
X1652216Y4319551D01*
X1633674Y4328695D01*
X1605988Y4337839D01*
X1560014Y4337839D01*
X1532074Y4328695D01*
X1513786Y4319551D01*
X1495244Y4301009D01*
X1486100Y4282467D01*
X1486100Y4245637D01*
X1495244Y4227095D01*
X1513786Y4208553D01*
X1532074Y4199409D01*
X1652216Y4027705D02*
G01*
X1670758Y4036849D01*
X1679902Y4064535D01*
X1679902Y4083077D01*
X1670758Y4110763D01*
X1643072Y4129305D01*
X1596844Y4138449D01*
X1550616Y4138449D01*
X1513786Y4129305D01*
X1495244Y4110763D01*
X1486100Y4083077D01*
X1486100Y4073679D01*
X1495244Y4045993D01*
X1513786Y4027705D01*
X1541472Y4018307D01*
X1550616Y4018307D01*
X1578302Y4027705D01*
X1596844Y4045993D01*
X1605988Y4073679D01*
X1605988Y4083077D01*
X1596844Y4110763D01*
X1578302Y4129305D01*
X1550616Y4138449D01*
X1633674Y3948203D02*
G01*
X1643072Y3948203D01*
X1661614Y3938805D01*
X1670758Y3929661D01*
X1679902Y3911119D01*
X1679902Y3874289D01*
X1670758Y3855747D01*
X1661614Y3846603D01*
X1643072Y3837205D01*
X1624530Y3837205D01*
X1605988Y3846603D01*
X1578302Y3865145D01*
X1486100Y3957347D01*
X1486100Y3828061D01*
X1633674Y3757957D02*
G01*
X1643072Y3757957D01*
X1661614Y3748559D01*
X1670758Y3739415D01*
X1679902Y3720873D01*
X1679902Y3684043D01*
X1670758Y3665501D01*
X1661614Y3656357D01*
X1643072Y3646959D01*
X1624530Y3646959D01*
X1605988Y3656357D01*
X1578302Y3674645D01*
X1486100Y3767101D01*
X1486100Y3637815D01*
X1679902Y3466111D02*
G01*
X1679902Y3558313D01*
X1596844Y3567711D01*
X1605988Y3558313D01*
X1615386Y3530627D01*
X1615386Y3502941D01*
X1605988Y3475255D01*
X1587700Y3456713D01*
X1560014Y3447569D01*
X1541472Y3447569D01*
X1513786Y3456713D01*
X1495244Y3475255D01*
X1486100Y3502941D01*
X1486100Y3530627D01*
X1495244Y3558313D01*
X1504388Y3567711D01*
X1522930Y3576855D01*
X1652216Y3275865D02*
G01*
X1670758Y3285009D01*
X1679902Y3312695D01*
X1679902Y3331237D01*
X1670758Y3358923D01*
X1643072Y3377465D01*
X1596844Y3386609D01*
X1550616Y3386609D01*
X1513786Y3377465D01*
X1495244Y3358923D01*
X1486100Y3331237D01*
X1486100Y3321839D01*
X1495244Y3294153D01*
X1513786Y3275865D01*
X1541472Y3266467D01*
X1550616Y3266467D01*
X1578302Y3275865D01*
X1596844Y3294153D01*
X1605988Y3321839D01*
X1605988Y3331237D01*
X1596844Y3358923D01*
X1578302Y3377465D01*
X1550616Y3386609D01*
D11*
X8256762Y178307D02*
G01*
X8251428Y188721D01*
X8241014Y199136D01*
X8230854Y204215D01*
X8210026Y204215D01*
X8199612Y199136D01*
X8189198Y188721D01*
X8183864Y178307D01*
X8178784Y162560D01*
X8178784Y136652D01*
X8183864Y121157D01*
X8189198Y110744D01*
X8199612Y100329D01*
X8210026Y95250D01*
X8230854Y95250D01*
X8241014Y100329D01*
X8251428Y110744D01*
X8256762Y121157D01*
X8316960Y204215D02*
G01*
X8301466Y199136D01*
X8296132Y188721D01*
X8296132Y178307D01*
X8301466Y167894D01*
X8311880Y162560D01*
X8332454Y157479D01*
X8348202Y152400D01*
X8358616Y141986D01*
X8363696Y131571D01*
X8363696Y115823D01*
X8358616Y105410D01*
X8353282Y100329D01*
X8337788Y95250D01*
X8316960Y95250D01*
X8301466Y100329D01*
X8296132Y105410D01*
X8291052Y115823D01*
X8291052Y131571D01*
X8296132Y141986D01*
X8306546Y152400D01*
X8322294Y157479D01*
X8342868Y162560D01*
X8353282Y167894D01*
X8358616Y178307D01*
X8358616Y188721D01*
X8353282Y199136D01*
X8337788Y204215D01*
X8316960Y204215D01*
X4828011Y5775805D02*
G01*
X4822931Y5785965D01*
X4812517Y5796379D01*
X4802103Y5801713D01*
X4781275Y5801713D01*
X4770861Y5796379D01*
X4760447Y5785965D01*
X4755367Y5775805D01*
X4750033Y5760057D01*
X4750033Y5734149D01*
X4755367Y5718655D01*
X4760447Y5708241D01*
X4770861Y5697827D01*
X4781275Y5692493D01*
X4802103Y5692493D01*
X4812517Y5697827D01*
X4822931Y5708241D01*
X4828011Y5718655D01*
X4929865Y5765391D02*
G01*
X4924531Y5749643D01*
X4914371Y5739229D01*
X4898623Y5734149D01*
X4893543Y5734149D01*
X4877795Y5739229D01*
X4867381Y5749643D01*
X4862301Y5765391D01*
X4862301Y5770471D01*
X4867381Y5785965D01*
X4877795Y5796379D01*
X4893543Y5801713D01*
X4898623Y5801713D01*
X4914371Y5796379D01*
X4924531Y5785965D01*
X4929865Y5765391D01*
X4929865Y5739229D01*
X4924531Y5713321D01*
X4914371Y5697827D01*
X4898623Y5692493D01*
X4888209Y5692493D01*
X4872715Y5697827D01*
X4867381Y5708241D01*
X6453124Y5752592D02*
G01*
X6447790Y5763005D01*
X6437629Y5773420D01*
X6427215Y5778500D01*
X6406388Y5778500D01*
X6395974Y5773420D01*
X6385559Y5763005D01*
X6380479Y5752592D01*
X6375145Y5737097D01*
X6375145Y5710936D01*
X6380479Y5695442D01*
X6385559Y5685028D01*
X6395974Y5674613D01*
X6406388Y5669534D01*
X6427215Y5669534D01*
X6437629Y5674613D01*
X6447790Y5685028D01*
X6453124Y5695442D01*
X6487413Y5757671D02*
G01*
X6497827Y5763005D01*
X6513322Y5778500D01*
X6513322Y5669534D01*
X6578854Y5778500D02*
G01*
X6563359Y5773420D01*
X6552945Y5757671D01*
X6547611Y5731763D01*
X6547611Y5716270D01*
X6552945Y5690362D01*
X6563359Y5674613D01*
X6578854Y5669534D01*
X6589268Y5669534D01*
X6604761Y5674613D01*
X6615175Y5690362D01*
X6620509Y5716270D01*
X6620509Y5731763D01*
X6615175Y5757671D01*
X6604761Y5773420D01*
X6589268Y5778500D01*
X6578854Y5778500D01*
X7969758Y5777992D02*
G01*
X7964424Y5788405D01*
X7954009Y5798820D01*
X7943850Y5803900D01*
X7923022Y5803900D01*
X7912608Y5798820D01*
X7902193Y5788405D01*
X7896859Y5777992D01*
X7891779Y5762497D01*
X7891779Y5736336D01*
X7896859Y5720842D01*
X7902193Y5710428D01*
X7912608Y5700013D01*
X7923022Y5694934D01*
X7943850Y5694934D01*
X7954009Y5700013D01*
X7964424Y5710428D01*
X7969758Y5720842D01*
X8004047Y5783071D02*
G01*
X8014461Y5788405D01*
X8029956Y5803900D01*
X8029956Y5694934D01*
X8064245Y5783071D02*
G01*
X8074659Y5788405D01*
X8090154Y5803900D01*
X8090154Y5694934D01*
X8002777Y8331708D02*
G01*
X7997443Y8342121D01*
X7987029Y8352536D01*
X7976615Y8357615D01*
X7956041Y8357615D01*
X7945627Y8352536D01*
X7935213Y8342121D01*
X7929879Y8331708D01*
X7924800Y8315960D01*
X7924800Y8290052D01*
X7929879Y8274558D01*
X7935213Y8264144D01*
X7945627Y8253729D01*
X7956041Y8248395D01*
X7976615Y8248395D01*
X7987029Y8253729D01*
X7997443Y8264144D01*
X8002777Y8274558D01*
X8037068Y8336787D02*
G01*
X8047481Y8342121D01*
X8062975Y8357615D01*
X8062975Y8248395D01*
X8102345Y8331708D02*
G01*
X8102345Y8336787D01*
X8107679Y8347202D01*
X8112759Y8352536D01*
X8123174Y8357615D01*
X8144002Y8357615D01*
X8154415Y8352536D01*
X8159495Y8347202D01*
X8164829Y8336787D01*
X8164829Y8326373D01*
X8159495Y8315960D01*
X8149336Y8300465D01*
X8097265Y8248395D01*
X8169909Y8248395D01*
X13222477Y4788407D02*
G01*
X13217143Y4798821D01*
X13206729Y4809236D01*
X13196570Y4814315D01*
X13175741Y4814315D01*
X13165327Y4809236D01*
X13154913Y4798821D01*
X13149579Y4788407D01*
X13144500Y4772660D01*
X13144500Y4746752D01*
X13149579Y4731257D01*
X13154913Y4720844D01*
X13165327Y4710429D01*
X13175741Y4705350D01*
X13196570Y4705350D01*
X13206729Y4710429D01*
X13217143Y4720844D01*
X13222477Y4731257D01*
X13256768Y4793487D02*
G01*
X13267181Y4798821D01*
X13282675Y4814315D01*
X13282675Y4705350D01*
X13327379Y4814315D02*
G01*
X13384529Y4814315D01*
X13353288Y4772660D01*
X13369036Y4772660D01*
X13379450Y4767579D01*
X13384529Y4762500D01*
X13389609Y4746752D01*
X13389609Y4736337D01*
X13384529Y4720844D01*
X13374116Y4710429D01*
X13358622Y4705350D01*
X13342874Y4705350D01*
X13327379Y4710429D01*
X13322300Y4715510D01*
X13316966Y4725923D01*
X751078Y6623812D02*
G01*
X745744Y6634226D01*
X735329Y6644639D01*
X725170Y6649720D01*
X704342Y6649720D01*
X693928Y6644639D01*
X683513Y6634226D01*
X678179Y6623812D01*
X673100Y6608063D01*
X673100Y6582155D01*
X678179Y6566662D01*
X683513Y6556247D01*
X693928Y6545834D01*
X704342Y6540754D01*
X725170Y6540754D01*
X735329Y6545834D01*
X745744Y6556247D01*
X751078Y6566662D01*
X785368Y6628892D02*
G01*
X795781Y6634226D01*
X811276Y6649720D01*
X811276Y6540754D01*
X897636Y6649720D02*
G01*
X845565Y6577076D01*
X923544Y6577076D01*
X897636Y6649720D02*
G01*
X897636Y6540754D01*
X1170178Y6623304D02*
G01*
X1164844Y6633718D01*
X1154429Y6643878D01*
X1144270Y6649212D01*
X1123442Y6649212D01*
X1113028Y6643878D01*
X1102613Y6633718D01*
X1097279Y6623304D01*
X1092200Y6607555D01*
X1092200Y6581647D01*
X1097279Y6566154D01*
X1102613Y6555739D01*
X1113028Y6545326D01*
X1123442Y6539992D01*
X1144270Y6539992D01*
X1154429Y6545326D01*
X1164844Y6555739D01*
X1170178Y6566154D01*
X1204468Y6628384D02*
G01*
X1214881Y6633718D01*
X1230376Y6649212D01*
X1230376Y6539992D01*
X1327150Y6649212D02*
G01*
X1275079Y6649212D01*
X1270000Y6602476D01*
X1275079Y6607555D01*
X1290573Y6612889D01*
X1306321Y6612889D01*
X1321815Y6607555D01*
X1332229Y6597142D01*
X1337310Y6581647D01*
X1337310Y6571234D01*
X1332229Y6555739D01*
X1321815Y6545326D01*
X1306321Y6539992D01*
X1290573Y6539992D01*
X1275079Y6545326D01*
X1270000Y6550405D01*
X1264665Y6560820D01*
X11722861Y1677415D02*
G01*
X11722861Y1568450D01*
X11722861Y1677415D02*
G01*
X11769597Y1677415D01*
X11785091Y1672336D01*
X11790425Y1667002D01*
X11795506Y1656587D01*
X11795506Y1646173D01*
X11790425Y1635760D01*
X11785091Y1630679D01*
X11769597Y1625600D01*
X11722861Y1625600D01*
X11759184Y1625600D02*
G01*
X11795506Y1568450D01*
X11829795Y1656587D02*
G01*
X11840209Y1661921D01*
X11855704Y1677415D01*
X11855704Y1568450D01*
X5830290Y444474D02*
G01*
X5721324Y444474D01*
X5830290Y444474D02*
G01*
X5830290Y397738D01*
X5825210Y382244D01*
X5819876Y376910D01*
X5809462Y371830D01*
X5799048Y371830D01*
X5788634Y376910D01*
X5783554Y382244D01*
X5778474Y397738D01*
X5778474Y444474D01*
X5778474Y408152D02*
G01*
X5721324Y371830D01*
X5804382Y332206D02*
G01*
X5809462Y332206D01*
X5819876Y327126D01*
X5825210Y321792D01*
X5830290Y311378D01*
X5830290Y290804D01*
X5825210Y280390D01*
X5819876Y275056D01*
X5809462Y269976D01*
X5799048Y269976D01*
X5788634Y275056D01*
X5773140Y285470D01*
X5721324Y337540D01*
X5721324Y264642D01*
X11113541Y6603872D02*
G01*
X11004321Y6603872D01*
X11113541Y6603872D02*
G01*
X11113541Y6557137D01*
X11108207Y6541643D01*
X11103127Y6536309D01*
X11092713Y6531229D01*
X11082299Y6531229D01*
X11071885Y6536309D01*
X11066805Y6541643D01*
X11061471Y6557137D01*
X11061471Y6603872D01*
X11061471Y6567551D02*
G01*
X11004321Y6531229D01*
X11113541Y6486525D02*
G01*
X11113541Y6429375D01*
X11071885Y6460617D01*
X11071885Y6444869D01*
X11066805Y6434454D01*
X11061471Y6429375D01*
X11045977Y6424040D01*
X11035563Y6424040D01*
X11020069Y6429375D01*
X11009655Y6439788D01*
X11004321Y6455282D01*
X11004321Y6471030D01*
X11009655Y6486525D01*
X11014735Y6491604D01*
X11025149Y6496938D01*
X11570741Y6603872D02*
G01*
X11461521Y6603872D01*
X11570741Y6603872D02*
G01*
X11570741Y6557137D01*
X11565407Y6541643D01*
X11560327Y6536309D01*
X11549913Y6531229D01*
X11539499Y6531229D01*
X11529085Y6536309D01*
X11524005Y6541643D01*
X11518671Y6557137D01*
X11518671Y6603872D01*
X11518671Y6567551D02*
G01*
X11461521Y6531229D01*
X11570741Y6444869D02*
G01*
X11497843Y6496938D01*
X11497843Y6418961D01*
X11570741Y6444869D02*
G01*
X11461521Y6444869D01*
X11964441Y6603923D02*
G01*
X11855221Y6603923D01*
X11964441Y6603923D02*
G01*
X11964441Y6557187D01*
X11959107Y6541693D01*
X11954027Y6536359D01*
X11943613Y6531279D01*
X11933199Y6531279D01*
X11922785Y6536359D01*
X11917705Y6541693D01*
X11912371Y6557187D01*
X11912371Y6603923D01*
X11912371Y6567601D02*
G01*
X11855221Y6531279D01*
X11964441Y6434505D02*
G01*
X11964441Y6486575D01*
X11917705Y6491655D01*
X11922785Y6486575D01*
X11928119Y6470827D01*
X11928119Y6455333D01*
X11922785Y6439839D01*
X11912371Y6429425D01*
X11896877Y6424091D01*
X11886463Y6424091D01*
X11870969Y6429425D01*
X11860555Y6439839D01*
X11855221Y6455333D01*
X11855221Y6470827D01*
X11860555Y6486575D01*
X11865635Y6491655D01*
X11876049Y6496989D01*
X12345441Y6603923D02*
G01*
X12236221Y6603923D01*
X12345441Y6603923D02*
G01*
X12345441Y6557187D01*
X12340107Y6541693D01*
X12335027Y6536359D01*
X12324613Y6531279D01*
X12314199Y6531279D01*
X12303785Y6536359D01*
X12298705Y6541693D01*
X12293371Y6557187D01*
X12293371Y6603923D01*
X12293371Y6567601D02*
G01*
X12236221Y6531279D01*
X12329947Y6434505D02*
G01*
X12340107Y6439839D01*
X12345441Y6455333D01*
X12345441Y6465747D01*
X12340107Y6481241D01*
X12324613Y6491655D01*
X12298705Y6496989D01*
X12272797Y6496989D01*
X12251969Y6491655D01*
X12241555Y6481241D01*
X12236221Y6465747D01*
X12236221Y6460667D01*
X12241555Y6444919D01*
X12251969Y6434505D01*
X12267463Y6429425D01*
X12272797Y6429425D01*
X12288291Y6434505D01*
X12298705Y6444919D01*
X12303785Y6460667D01*
X12303785Y6465747D01*
X12298705Y6481241D01*
X12288291Y6491655D01*
X12272797Y6496989D01*
X12802641Y6603872D02*
G01*
X12693421Y6603872D01*
X12802641Y6603872D02*
G01*
X12802641Y6557137D01*
X12797307Y6541643D01*
X12792227Y6536309D01*
X12781813Y6531229D01*
X12771399Y6531229D01*
X12760985Y6536309D01*
X12755905Y6541643D01*
X12750571Y6557137D01*
X12750571Y6603872D01*
X12750571Y6567551D02*
G01*
X12693421Y6531229D01*
X12802641Y6424040D02*
G01*
X12693421Y6476111D01*
X12802641Y6496938D02*
G01*
X12802641Y6424040D01*
X13272541Y6603872D02*
G01*
X13163321Y6603872D01*
X13272541Y6603872D02*
G01*
X13272541Y6557137D01*
X13267207Y6541643D01*
X13262127Y6536309D01*
X13251713Y6531229D01*
X13241299Y6531229D01*
X13230885Y6536309D01*
X13225805Y6541643D01*
X13220471Y6557137D01*
X13220471Y6603872D01*
X13220471Y6567551D02*
G01*
X13163321Y6531229D01*
X13272541Y6471030D02*
G01*
X13267207Y6486525D01*
X13256793Y6491604D01*
X13246633Y6491604D01*
X13236219Y6486525D01*
X13230885Y6476111D01*
X13225805Y6455282D01*
X13220471Y6439788D01*
X13210057Y6429375D01*
X13199643Y6424040D01*
X13184149Y6424040D01*
X13173735Y6429375D01*
X13168655Y6434454D01*
X13163321Y6450203D01*
X13163321Y6471030D01*
X13168655Y6486525D01*
X13173735Y6491604D01*
X13184149Y6496938D01*
X13199643Y6496938D01*
X13210057Y6491604D01*
X13220471Y6481190D01*
X13225805Y6465696D01*
X13230885Y6444869D01*
X13236219Y6434454D01*
X13246633Y6429375D01*
X13256793Y6429375D01*
X13267207Y6434454D01*
X13272541Y6450203D01*
X13272541Y6471030D01*
X12958193Y1677413D02*
G01*
X12958193Y1568447D01*
X12958193Y1677413D02*
G01*
X13005183Y1677413D01*
X13020677Y1672333D01*
X13025757Y1666999D01*
X13031091Y1656585D01*
X13031091Y1646171D01*
X13025757Y1635757D01*
X13020677Y1630677D01*
X13005183Y1625597D01*
X12958193Y1625597D01*
X12994769Y1625597D02*
G01*
X13031091Y1568447D01*
X13132945Y1641091D02*
G01*
X13127611Y1625597D01*
X13117197Y1615183D01*
X13101703Y1609849D01*
X13096623Y1609849D01*
X13080875Y1615183D01*
X13070461Y1625597D01*
X13065381Y1641091D01*
X13065381Y1646171D01*
X13070461Y1661919D01*
X13080875Y1672333D01*
X13096623Y1677413D01*
X13101703Y1677413D01*
X13117197Y1672333D01*
X13127611Y1661919D01*
X13132945Y1641091D01*
X13132945Y1615183D01*
X13127611Y1589021D01*
X13117197Y1573527D01*
X13101703Y1568447D01*
X13091289Y1568447D01*
X13075795Y1573527D01*
X13070461Y1583941D01*
X2718798Y7391354D02*
G01*
X2609578Y7391354D01*
X2718798Y7391354D02*
G01*
X2718798Y7344618D01*
X2713718Y7329124D01*
X2708384Y7323790D01*
X2697970Y7318710D01*
X2687556Y7318710D01*
X2677142Y7323790D01*
X2672062Y7329124D01*
X2666728Y7344618D01*
X2666728Y7391354D01*
X2666728Y7355032D02*
G01*
X2609578Y7318710D01*
X2697970Y7284420D02*
G01*
X2703304Y7274006D01*
X2718798Y7258258D01*
X2609578Y7258258D01*
X2718798Y7192980D02*
G01*
X2713718Y7208474D01*
X2697970Y7218888D01*
X2672062Y7223968D01*
X2656568Y7223968D01*
X2630406Y7218888D01*
X2614912Y7208474D01*
X2609578Y7192980D01*
X2609578Y7182566D01*
X2614912Y7166818D01*
X2630406Y7156658D01*
X2656568Y7151324D01*
X2672062Y7151324D01*
X2697970Y7156658D01*
X2713718Y7166818D01*
X2718798Y7182566D01*
X2718798Y7192980D01*
X2350498Y7391354D02*
G01*
X2241278Y7391354D01*
X2350498Y7391354D02*
G01*
X2350498Y7344618D01*
X2345418Y7329124D01*
X2340084Y7323790D01*
X2329670Y7318710D01*
X2319256Y7318710D01*
X2308842Y7323790D01*
X2303762Y7329124D01*
X2298428Y7344618D01*
X2298428Y7391354D01*
X2298428Y7355032D02*
G01*
X2241278Y7318710D01*
X2329670Y7284420D02*
G01*
X2335004Y7274006D01*
X2350498Y7258258D01*
X2241278Y7258258D01*
X2329670Y7223968D02*
G01*
X2335004Y7213808D01*
X2350498Y7198060D01*
X2241278Y7198060D01*
X3252195Y8115251D02*
G01*
X3142975Y8115251D01*
X3252195Y8115251D02*
G01*
X3252195Y8068515D01*
X3247115Y8053021D01*
X3241781Y8047687D01*
X3231367Y8042607D01*
X3220953Y8042607D01*
X3210539Y8047687D01*
X3205459Y8053021D01*
X3200125Y8068515D01*
X3200125Y8115251D01*
X3200125Y8078929D02*
G01*
X3142975Y8042607D01*
X3231367Y8008317D02*
G01*
X3236701Y7997903D01*
X3252195Y7982155D01*
X3142975Y7982155D01*
X3226287Y7942785D02*
G01*
X3231367Y7942785D01*
X3241781Y7937705D01*
X3247115Y7932371D01*
X3252195Y7921957D01*
X3252195Y7901129D01*
X3247115Y7890715D01*
X3241781Y7885635D01*
X3231367Y7880555D01*
X3220953Y7880555D01*
X3210539Y7885635D01*
X3195045Y7896049D01*
X3142975Y7947865D01*
X3142975Y7875221D01*
X5898619Y1190569D02*
G01*
X5820641Y1190569D01*
X5805147Y1185489D01*
X5794733Y1175075D01*
X5789653Y1159327D01*
X5789653Y1148913D01*
X5794733Y1133419D01*
X5805147Y1123005D01*
X5820641Y1117925D01*
X5898619Y1117925D01*
X5877791Y1083635D02*
G01*
X5883125Y1073221D01*
X5898619Y1057473D01*
X5789653Y1057473D01*
X5944582Y5219654D02*
G01*
X5866604Y5219654D01*
X5851110Y5214574D01*
X5840696Y5204160D01*
X5835616Y5188412D01*
X5835616Y5177998D01*
X5840696Y5162504D01*
X5851110Y5152090D01*
X5866604Y5147010D01*
X5944582Y5147010D01*
X5944582Y5060650D02*
G01*
X5871938Y5112720D01*
X5871938Y5034742D01*
X5944582Y5060650D02*
G01*
X5835616Y5060650D01*
D12*
X5562513Y5128427D02*
G01*
X5580801Y5166781D01*
X5587913Y5128427D02*
G01*
X5562513Y5128427D01*
X5532287Y5128427D02*
G01*
X5550575Y5154081D01*
X5523143Y5154081D01*
X5532287Y5128427D02*
G01*
X5532287Y5166781D01*
X5511205Y5128427D02*
G01*
X5511205Y5166781D01*
X5511205Y5166781D02*
G01*
X5489361Y5166781D01*
X5477423Y5128427D02*
G01*
X5462945Y5166781D01*
X5448467Y5128427D02*
G01*
X5462945Y5166781D01*
X5409097Y5137571D02*
G01*
X5410875Y5134015D01*
X5414431Y5130459D01*
X5418241Y5128427D01*
X5425353Y5128427D01*
X5429163Y5130459D01*
X5432719Y5134015D01*
X5434497Y5137571D01*
X5436275Y5143159D01*
X5436275Y5152049D01*
X5434497Y5157637D01*
X5432719Y5161193D01*
X5429163Y5165003D01*
X5425353Y5166781D01*
X5418241Y5166781D01*
X5414431Y5165003D01*
X5410875Y5161193D01*
X5409097Y5157637D01*
X5378871Y5128427D02*
G01*
X5397159Y5154081D01*
X5369727Y5154081D01*
X5378871Y5128427D02*
G01*
X5378871Y5166781D01*
X5356011Y5137571D02*
G01*
X5356011Y5135793D01*
X5354233Y5132237D01*
X5352455Y5130459D01*
X5348645Y5128427D01*
X5341533Y5128427D01*
X5337723Y5130459D01*
X5335945Y5132237D01*
X5334167Y5135793D01*
X5334167Y5139349D01*
X5335945Y5143159D01*
X5339501Y5148493D01*
X5357789Y5166781D01*
X5332389Y5166781D01*
X5302163Y5128427D02*
G01*
X5320451Y5154081D01*
X5293019Y5154081D01*
X5302163Y5128427D02*
G01*
X5302163Y5166781D01*
X5259237Y5128427D02*
G01*
X5277525Y5128427D01*
X5279303Y5144937D01*
X5277525Y5143159D01*
X5271937Y5141127D01*
X5266603Y5141127D01*
X5261015Y5143159D01*
X5257459Y5146715D01*
X5255681Y5152049D01*
X5255681Y5155859D01*
X5257459Y5161193D01*
X5261015Y5165003D01*
X5266603Y5166781D01*
X5271937Y5166781D01*
X5277525Y5165003D01*
X5279303Y5162971D01*
X5281081Y5159415D01*
X5229011Y5128427D02*
G01*
X5243743Y5166781D01*
X5229011Y5128427D02*
G01*
X5214533Y5166781D01*
X5238155Y5154081D02*
G01*
X5219867Y5154081D01*
D11*
X13216130Y5169397D02*
G01*
X13210796Y5179811D01*
X13200382Y5190225D01*
X13189968Y5195305D01*
X13169394Y5195305D01*
X13158980Y5190225D01*
X13148566Y5179811D01*
X13143232Y5169397D01*
X13138152Y5153649D01*
X13138152Y5127741D01*
X13143232Y5112247D01*
X13148566Y5101833D01*
X13158980Y5091419D01*
X13169394Y5086339D01*
X13189968Y5086339D01*
X13200382Y5091419D01*
X13210796Y5101833D01*
X13216130Y5112247D01*
X13323064Y5195305D02*
G01*
X13271248Y5086339D01*
X13250420Y5195305D02*
G01*
X13323064Y5195305D01*
X7570177Y5219542D02*
G01*
X7492199Y5219542D01*
X7476705Y5214462D01*
X7466291Y5204048D01*
X7461211Y5188554D01*
X7461211Y5178140D01*
X7466291Y5162392D01*
X7476705Y5152232D01*
X7492199Y5146898D01*
X7570177Y5146898D01*
X7570177Y5050378D02*
G01*
X7570177Y5102194D01*
X7523441Y5107528D01*
X7528521Y5102194D01*
X7533855Y5086700D01*
X7533855Y5070952D01*
X7528521Y5055458D01*
X7518361Y5045044D01*
X7502613Y5039964D01*
X7492199Y5039964D01*
X7476705Y5045044D01*
X7466291Y5055458D01*
X7461211Y5070952D01*
X7461211Y5086700D01*
X7466291Y5102194D01*
X7471371Y5107528D01*
X7481785Y5112608D01*
D12*
X7188108Y5141254D02*
G01*
X7206396Y5179354D01*
X7213508Y5141254D02*
G01*
X7188108Y5141254D01*
X7157882Y5141254D02*
G01*
X7176170Y5166654D01*
X7148738Y5166654D01*
X7157882Y5141254D02*
G01*
X7157882Y5179354D01*
X7136800Y5141254D02*
G01*
X7136800Y5179354D01*
X7136800Y5179354D02*
G01*
X7114956Y5179354D01*
X7103018Y5141254D02*
G01*
X7088540Y5179354D01*
X7074062Y5141254D02*
G01*
X7088540Y5179354D01*
X7034692Y5150398D02*
G01*
X7036470Y5146588D01*
X7040026Y5143032D01*
X7043836Y5141254D01*
X7050948Y5141254D01*
X7054758Y5143032D01*
X7058314Y5146588D01*
X7060092Y5150398D01*
X7061870Y5155732D01*
X7061870Y5164876D01*
X7060092Y5170210D01*
X7058314Y5174020D01*
X7054758Y5177576D01*
X7050948Y5179354D01*
X7043836Y5179354D01*
X7040026Y5177576D01*
X7036470Y5174020D01*
X7034692Y5170210D01*
X7004466Y5141254D02*
G01*
X7022754Y5166654D01*
X6995322Y5166654D01*
X7004466Y5141254D02*
G01*
X7004466Y5179354D01*
X6981606Y5150398D02*
G01*
X6981606Y5148620D01*
X6979828Y5144810D01*
X6978050Y5143032D01*
X6974240Y5141254D01*
X6967128Y5141254D01*
X6963318Y5143032D01*
X6961540Y5144810D01*
X6959762Y5148620D01*
X6959762Y5152176D01*
X6961540Y5155732D01*
X6965096Y5161320D01*
X6983384Y5179354D01*
X6957984Y5179354D01*
X6927758Y5141254D02*
G01*
X6946046Y5166654D01*
X6918614Y5166654D01*
X6927758Y5141254D02*
G01*
X6927758Y5179354D01*
X6884832Y5141254D02*
G01*
X6903120Y5141254D01*
X6904898Y5157510D01*
X6903120Y5155732D01*
X6897532Y5153954D01*
X6892198Y5153954D01*
X6886610Y5155732D01*
X6883054Y5159288D01*
X6881276Y5164876D01*
X6881276Y5168432D01*
X6883054Y5174020D01*
X6886610Y5177576D01*
X6892198Y5179354D01*
X6897532Y5179354D01*
X6903120Y5177576D01*
X6904898Y5175798D01*
X6906676Y5172242D01*
X6854606Y5141254D02*
G01*
X6869338Y5179354D01*
X6854606Y5141254D02*
G01*
X6840128Y5179354D01*
X6863750Y5166654D02*
G01*
X6845462Y5166654D01*
D11*
X9157705Y5219644D02*
G01*
X9079727Y5219644D01*
X9064233Y5214564D01*
X9053819Y5204150D01*
X9048739Y5188402D01*
X9048739Y5177988D01*
X9053819Y5162494D01*
X9064233Y5152080D01*
X9079727Y5147000D01*
X9157705Y5147000D01*
X9142211Y5050226D02*
G01*
X9152625Y5055560D01*
X9157705Y5071054D01*
X9157705Y5081468D01*
X9152625Y5096962D01*
X9136877Y5107376D01*
X9110969Y5112710D01*
X9085061Y5112710D01*
X9064233Y5107376D01*
X9053819Y5096962D01*
X9048739Y5081468D01*
X9048739Y5076388D01*
X9053819Y5060640D01*
X9064233Y5050226D01*
X9079727Y5045146D01*
X9085061Y5045146D01*
X9100555Y5050226D01*
X9110969Y5060640D01*
X9116049Y5076388D01*
X9116049Y5081468D01*
X9110969Y5096962D01*
X9100555Y5107376D01*
X9085061Y5112710D01*
D12*
X8800955Y5128554D02*
G01*
X8819243Y5166654D01*
X8826355Y5128554D02*
G01*
X8800955Y5128554D01*
X8770729Y5128554D02*
G01*
X8789017Y5153954D01*
X8761839Y5153954D01*
X8770729Y5128554D02*
G01*
X8770729Y5166654D01*
X8749647Y5128554D02*
G01*
X8749647Y5166654D01*
X8749647Y5166654D02*
G01*
X8728057Y5166654D01*
X8715865Y5128554D02*
G01*
X8701387Y5166654D01*
X8686909Y5128554D02*
G01*
X8701387Y5166654D01*
X8647539Y5137698D02*
G01*
X8649317Y5133888D01*
X8653127Y5130332D01*
X8656683Y5128554D01*
X8664049Y5128554D01*
X8667605Y5130332D01*
X8671161Y5133888D01*
X8672939Y5137698D01*
X8674971Y5143032D01*
X8674971Y5152176D01*
X8672939Y5157510D01*
X8671161Y5161320D01*
X8667605Y5164876D01*
X8664049Y5166654D01*
X8656683Y5166654D01*
X8653127Y5164876D01*
X8649317Y5161320D01*
X8647539Y5157510D01*
X8617313Y5128554D02*
G01*
X8635601Y5153954D01*
X8608423Y5153954D01*
X8617313Y5128554D02*
G01*
X8617313Y5166654D01*
X8594453Y5137698D02*
G01*
X8594453Y5135920D01*
X8592675Y5132110D01*
X8590897Y5130332D01*
X8587087Y5128554D01*
X8579975Y5128554D01*
X8576419Y5130332D01*
X8574387Y5132110D01*
X8572609Y5135920D01*
X8572609Y5139476D01*
X8574387Y5143032D01*
X8578197Y5148620D01*
X8596231Y5166654D01*
X8570831Y5166654D01*
X8540605Y5128554D02*
G01*
X8558893Y5153954D01*
X8531461Y5153954D01*
X8540605Y5128554D02*
G01*
X8540605Y5166654D01*
X8497679Y5128554D02*
G01*
X8515967Y5128554D01*
X8517745Y5144810D01*
X8515967Y5143032D01*
X8510379Y5141254D01*
X8505045Y5141254D01*
X8499457Y5143032D01*
X8495901Y5146588D01*
X8494123Y5152176D01*
X8494123Y5155732D01*
X8495901Y5161320D01*
X8499457Y5164876D01*
X8505045Y5166654D01*
X8510379Y5166654D01*
X8515967Y5164876D01*
X8517745Y5163098D01*
X8519523Y5159542D01*
X8467453Y5128554D02*
G01*
X8482185Y5166654D01*
X8467453Y5128554D02*
G01*
X8452975Y5166654D01*
X8476597Y5153954D02*
G01*
X8458563Y5153954D01*
D11*
X13064495Y1359915D02*
G01*
X13064495Y1276857D01*
X13059161Y1261110D01*
X13054081Y1256029D01*
X13043667Y1250950D01*
X13033253Y1250950D01*
X13022839Y1256029D01*
X13017505Y1261110D01*
X13012425Y1276857D01*
X13012425Y1287271D01*
X13103865Y1334007D02*
G01*
X13103865Y1339087D01*
X13108945Y1349502D01*
X13114279Y1354836D01*
X13124693Y1359915D01*
X13145521Y1359915D01*
X13155935Y1354836D01*
X13161015Y1349502D01*
X13166095Y1339087D01*
X13166095Y1328673D01*
X13161015Y1318260D01*
X13150601Y1302765D01*
X13098785Y1250950D01*
X13171429Y1250950D01*
X12598382Y5512795D02*
G01*
X12598382Y5434817D01*
X12603462Y5419323D01*
X12613876Y5408909D01*
X12629624Y5403829D01*
X12640038Y5403829D01*
X12655532Y5408909D01*
X12665946Y5419323D01*
X12671026Y5434817D01*
X12671026Y5512795D01*
X12772880Y5476473D02*
G01*
X12767800Y5460979D01*
X12757386Y5450565D01*
X12741892Y5445231D01*
X12736558Y5445231D01*
X12721064Y5450565D01*
X12710650Y5460979D01*
X12705316Y5476473D01*
X12705316Y5481553D01*
X12710650Y5497301D01*
X12721064Y5507715D01*
X12736558Y5512795D01*
X12741892Y5512795D01*
X12757386Y5507715D01*
X12767800Y5497301D01*
X12772880Y5476473D01*
X12772880Y5450565D01*
X12767800Y5424403D01*
X12757386Y5408909D01*
X12741892Y5403829D01*
X12731478Y5403829D01*
X12715730Y5408909D01*
X12710650Y5419323D01*
X1881393Y1889627D02*
G01*
X1876059Y1900041D01*
X1865645Y1910455D01*
X1855485Y1915535D01*
X1834657Y1915535D01*
X1824243Y1910455D01*
X1813829Y1900041D01*
X1808495Y1889627D01*
X1803415Y1873879D01*
X1803415Y1847971D01*
X1808495Y1832477D01*
X1813829Y1822063D01*
X1824243Y1811649D01*
X1834657Y1806569D01*
X1855485Y1806569D01*
X1865645Y1811649D01*
X1876059Y1822063D01*
X1881393Y1832477D01*
X1915683Y1894707D02*
G01*
X1926097Y1900041D01*
X1941591Y1915535D01*
X1941591Y1806569D01*
X4332488Y1902327D02*
G01*
X4327154Y1912741D01*
X4316740Y1923155D01*
X4306580Y1928235D01*
X4285752Y1928235D01*
X4275338Y1923155D01*
X4264924Y1912741D01*
X4259590Y1902327D01*
X4254510Y1886579D01*
X4254510Y1860671D01*
X4259590Y1845177D01*
X4264924Y1834763D01*
X4275338Y1824349D01*
X4285752Y1819269D01*
X4306580Y1819269D01*
X4316740Y1824349D01*
X4327154Y1834763D01*
X4332488Y1845177D01*
X4371858Y1902327D02*
G01*
X4371858Y1907407D01*
X4377192Y1917821D01*
X4382272Y1923155D01*
X4392686Y1928235D01*
X4413514Y1928235D01*
X4423928Y1923155D01*
X4429008Y1917821D01*
X4434342Y1907407D01*
X4434342Y1896993D01*
X4429008Y1886579D01*
X4418594Y1871085D01*
X4366778Y1819269D01*
X4439422Y1819269D01*
X2716484Y5975789D02*
G01*
X2711150Y5986203D01*
X2700736Y5996617D01*
X2690576Y6001697D01*
X2669748Y6001697D01*
X2659334Y5996617D01*
X2648920Y5986203D01*
X2643586Y5975789D01*
X2638506Y5960041D01*
X2638506Y5934133D01*
X2643586Y5918639D01*
X2648920Y5908225D01*
X2659334Y5897811D01*
X2669748Y5892731D01*
X2690576Y5892731D01*
X2700736Y5897811D01*
X2711150Y5908225D01*
X2716484Y5918639D01*
X2761188Y6001697D02*
G01*
X2818338Y6001697D01*
X2787096Y5960041D01*
X2802590Y5960041D01*
X2813004Y5954961D01*
X2818338Y5949881D01*
X2823418Y5934133D01*
X2823418Y5923719D01*
X2818338Y5908225D01*
X2807924Y5897811D01*
X2792176Y5892731D01*
X2776682Y5892731D01*
X2761188Y5897811D01*
X2755854Y5902891D01*
X2750774Y5913305D01*
X6109675Y5752630D02*
G01*
X6104341Y5763044D01*
X6093927Y5773458D01*
X6083767Y5778538D01*
X6062939Y5778538D01*
X6052525Y5773458D01*
X6042111Y5763044D01*
X6036777Y5752630D01*
X6031697Y5736882D01*
X6031697Y5710974D01*
X6036777Y5695480D01*
X6042111Y5685066D01*
X6052525Y5674652D01*
X6062939Y5669572D01*
X6083767Y5669572D01*
X6093927Y5674652D01*
X6104341Y5685066D01*
X6109675Y5695480D01*
X6195781Y5778538D02*
G01*
X6143965Y5705894D01*
X6221943Y5705894D01*
X6195781Y5778538D02*
G01*
X6195781Y5669572D01*
X7655526Y5778042D02*
G01*
X7650192Y5788456D01*
X7639778Y5798870D01*
X7629618Y5803950D01*
X7608790Y5803950D01*
X7598376Y5798870D01*
X7587962Y5788456D01*
X7582628Y5778042D01*
X7577548Y5762294D01*
X7577548Y5736386D01*
X7582628Y5720892D01*
X7587962Y5710478D01*
X7598376Y5700064D01*
X7608790Y5694984D01*
X7629618Y5694984D01*
X7639778Y5700064D01*
X7650192Y5710478D01*
X7655526Y5720892D01*
X7752046Y5803950D02*
G01*
X7700230Y5803950D01*
X7694896Y5757214D01*
X7700230Y5762294D01*
X7715724Y5767628D01*
X7731218Y5767628D01*
X7746966Y5762294D01*
X7757380Y5752134D01*
X7762460Y5736386D01*
X7762460Y5725972D01*
X7757380Y5710478D01*
X7746966Y5700064D01*
X7731218Y5694984D01*
X7715724Y5694984D01*
X7700230Y5700064D01*
X7694896Y5705144D01*
X7689816Y5715558D01*
X9310855Y5804362D02*
G01*
X9305521Y5814776D01*
X9295107Y5825190D01*
X9284947Y5830270D01*
X9264119Y5830270D01*
X9253705Y5825190D01*
X9243291Y5814776D01*
X9237957Y5804362D01*
X9232877Y5788614D01*
X9232877Y5762706D01*
X9237957Y5747212D01*
X9243291Y5736798D01*
X9253705Y5726384D01*
X9264119Y5721304D01*
X9284947Y5721304D01*
X9295107Y5726384D01*
X9305521Y5736798D01*
X9310855Y5747212D01*
X9407375Y5814776D02*
G01*
X9402295Y5825190D01*
X9386547Y5830270D01*
X9376387Y5830270D01*
X9360639Y5825190D01*
X9350225Y5809442D01*
X9345145Y5783534D01*
X9345145Y5757626D01*
X9350225Y5736798D01*
X9360639Y5726384D01*
X9376387Y5721304D01*
X9381467Y5721304D01*
X9396961Y5726384D01*
X9407375Y5736798D01*
X9412709Y5752292D01*
X9412709Y5757626D01*
X9407375Y5773120D01*
X9396961Y5783534D01*
X9381467Y5788614D01*
X9376387Y5788614D01*
X9360639Y5783534D01*
X9350225Y5773120D01*
X9345145Y5757626D01*
X1192684Y1448305D02*
G01*
X1187350Y1458719D01*
X1176936Y1469133D01*
X1166776Y1474213D01*
X1145948Y1474213D01*
X1135534Y1469133D01*
X1125120Y1458719D01*
X1119786Y1448305D01*
X1114706Y1432557D01*
X1114706Y1406649D01*
X1119786Y1391155D01*
X1125120Y1380741D01*
X1135534Y1370327D01*
X1145948Y1365247D01*
X1166776Y1365247D01*
X1176936Y1370327D01*
X1187350Y1380741D01*
X1192684Y1391155D01*
X1258216Y1474213D02*
G01*
X1247802Y1469133D01*
X1237388Y1458719D01*
X1232054Y1448305D01*
X1226974Y1432557D01*
X1226974Y1406649D01*
X1232054Y1391155D01*
X1237388Y1380741D01*
X1247802Y1370327D01*
X1258216Y1365247D01*
X1278790Y1365247D01*
X1289204Y1370327D01*
X1299618Y1380741D01*
X1304952Y1391155D01*
X1310032Y1406649D01*
X1310032Y1432557D01*
X1304952Y1448305D01*
X1299618Y1458719D01*
X1289204Y1469133D01*
X1278790Y1474213D01*
X1258216Y1474213D01*
X1344322Y1474213D02*
G01*
X1344322Y1365247D01*
X1344322Y1474213D02*
G01*
X1416966Y1365247D01*
X1416966Y1474213D02*
G01*
X1416966Y1365247D01*
X1487832Y1474213D02*
G01*
X1487832Y1365247D01*
X1451256Y1474213D02*
G01*
X1524154Y1474213D01*
X1558444Y1474213D02*
G01*
X1558444Y1365247D01*
X1558444Y1474213D02*
G01*
X1605180Y1474213D01*
X1620674Y1469133D01*
X1626008Y1463799D01*
X1631088Y1453385D01*
X1631088Y1442971D01*
X1626008Y1432557D01*
X1620674Y1427477D01*
X1605180Y1422397D01*
X1558444Y1422397D01*
X1594766Y1422397D02*
G01*
X1631088Y1365247D01*
X1696620Y1474213D02*
G01*
X1686206Y1469133D01*
X1675792Y1458719D01*
X1670712Y1448305D01*
X1665378Y1432557D01*
X1665378Y1406649D01*
X1670712Y1391155D01*
X1675792Y1380741D01*
X1686206Y1370327D01*
X1696620Y1365247D01*
X1717448Y1365247D01*
X1727862Y1370327D01*
X1738276Y1380741D01*
X1743356Y1391155D01*
X1748436Y1406649D01*
X1748436Y1432557D01*
X1743356Y1448305D01*
X1738276Y1458719D01*
X1727862Y1469133D01*
X1717448Y1474213D01*
X1696620Y1474213D01*
X1782726Y1474213D02*
G01*
X1782726Y1365247D01*
X1782726Y1365247D02*
G01*
X1845210Y1365247D01*
X1879500Y1474213D02*
G01*
X1879500Y1365247D01*
X1879500Y1365247D02*
G01*
X1941730Y1365247D01*
X1976020Y1474213D02*
G01*
X1976020Y1365247D01*
X1976020Y1474213D02*
G01*
X2043584Y1474213D01*
X1976020Y1422397D02*
G01*
X2017676Y1422397D01*
X1976020Y1365247D02*
G01*
X2043584Y1365247D01*
X2077874Y1474213D02*
G01*
X2077874Y1365247D01*
X2077874Y1474213D02*
G01*
X2124610Y1474213D01*
X2140358Y1469133D01*
X2145438Y1463799D01*
X2150772Y1453385D01*
X2150772Y1442971D01*
X2145438Y1432557D01*
X2140358Y1427477D01*
X2124610Y1422397D01*
X2077874Y1422397D01*
X2114196Y1422397D02*
G01*
X2150772Y1365247D01*
X2185062Y1453385D02*
G01*
X2195476Y1458719D01*
X2210970Y1474213D01*
X2210970Y1365247D01*
D13*
X1313703Y768179D02*
G01*
X1313703Y696805D01*
X1313703Y768179D02*
G01*
X1361455Y696805D01*
X1361455Y768179D02*
G01*
X1361455Y696805D01*
X1384061Y768179D02*
G01*
X1384061Y696805D01*
X1384061Y768179D02*
G01*
X1428257Y768179D01*
X1384061Y734143D02*
G01*
X1411239Y734143D01*
X1384061Y696805D02*
G01*
X1428257Y696805D01*
X1498615Y758019D02*
G01*
X1491757Y764877D01*
X1481597Y768179D01*
X1467881Y768179D01*
X1457721Y764877D01*
X1450863Y758019D01*
X1450863Y751161D01*
X1454165Y744303D01*
X1457721Y741001D01*
X1464579Y737699D01*
X1484899Y730841D01*
X1491757Y727285D01*
X1495059Y723983D01*
X1498615Y717125D01*
X1498615Y706965D01*
X1491757Y700107D01*
X1481597Y696805D01*
X1467881Y696805D01*
X1457721Y700107D01*
X1450863Y706965D01*
X1577101Y751161D02*
G01*
X1577101Y754717D01*
X1580403Y761575D01*
X1583705Y764877D01*
X1590563Y768179D01*
X1604279Y768179D01*
X1611137Y764877D01*
X1614439Y761575D01*
X1617995Y754717D01*
X1617995Y747859D01*
X1614439Y741001D01*
X1607581Y730841D01*
X1573545Y696805D01*
X1621297Y696805D01*
X1688099Y744303D02*
G01*
X1684797Y734143D01*
X1677939Y727285D01*
X1667779Y723983D01*
X1664223Y723983D01*
X1654063Y727285D01*
X1647205Y734143D01*
X1643903Y744303D01*
X1643903Y747859D01*
X1647205Y758019D01*
X1654063Y764877D01*
X1664223Y768179D01*
X1667779Y768179D01*
X1677939Y764877D01*
X1684797Y758019D01*
X1688099Y744303D01*
X1688099Y727285D01*
X1684797Y710267D01*
X1677939Y700107D01*
X1667779Y696805D01*
X1660921Y696805D01*
X1650507Y700107D01*
X1647205Y706965D01*
X1714007Y751161D02*
G01*
X1714007Y754717D01*
X1717563Y761575D01*
X1720865Y764877D01*
X1727723Y768179D01*
X1741439Y768179D01*
X1748043Y764877D01*
X1751599Y761575D01*
X1754901Y754717D01*
X1754901Y747859D01*
X1751599Y741001D01*
X1744741Y730841D01*
X1710705Y696805D01*
X1758457Y696805D01*
X1784365Y751161D02*
G01*
X1784365Y754717D01*
X1787667Y761575D01*
X1790969Y764877D01*
X1797827Y768179D01*
X1811543Y768179D01*
X1818401Y764877D01*
X1821703Y761575D01*
X1825259Y754717D01*
X1825259Y747859D01*
X1821703Y741001D01*
X1814845Y730841D01*
X1780809Y696805D01*
X1828561Y696805D01*
X1892061Y768179D02*
G01*
X1858025Y768179D01*
X1854469Y737699D01*
X1858025Y741001D01*
X1868185Y744303D01*
X1878345Y744303D01*
X1888505Y741001D01*
X1895363Y734143D01*
X1898919Y723983D01*
X1898919Y717125D01*
X1895363Y706965D01*
X1888505Y700107D01*
X1878345Y696805D01*
X1868185Y696805D01*
X1858025Y700107D01*
X1854469Y703409D01*
X1851167Y710267D01*
X1941845Y768179D02*
G01*
X1931431Y764877D01*
X1924827Y754717D01*
X1921271Y737699D01*
X1921271Y727285D01*
X1924827Y710267D01*
X1931431Y700107D01*
X1941845Y696805D01*
X1948703Y696805D01*
X1958863Y700107D01*
X1965721Y710267D01*
X1969023Y727285D01*
X1969023Y737699D01*
X1965721Y754717D01*
X1958863Y764877D01*
X1948703Y768179D01*
X1941845Y768179D01*
X1991629Y727285D02*
G01*
X2052843Y727285D01*
X2123201Y768179D02*
G01*
X2089165Y696805D01*
X2075449Y768179D02*
G01*
X2123201Y768179D01*
D11*
X3782606Y1435605D02*
G01*
X3777272Y1446019D01*
X3766858Y1456433D01*
X3756698Y1461513D01*
X3735870Y1461513D01*
X3725456Y1456433D01*
X3715042Y1446019D01*
X3709708Y1435605D01*
X3704628Y1419857D01*
X3704628Y1393949D01*
X3709708Y1378455D01*
X3715042Y1368041D01*
X3725456Y1357627D01*
X3735870Y1352547D01*
X3756698Y1352547D01*
X3766858Y1357627D01*
X3777272Y1368041D01*
X3782606Y1378455D01*
X3848138Y1461513D02*
G01*
X3837724Y1456433D01*
X3827310Y1446019D01*
X3821976Y1435605D01*
X3816896Y1419857D01*
X3816896Y1393949D01*
X3821976Y1378455D01*
X3827310Y1368041D01*
X3837724Y1357627D01*
X3848138Y1352547D01*
X3868712Y1352547D01*
X3879126Y1357627D01*
X3889540Y1368041D01*
X3894874Y1378455D01*
X3899954Y1393949D01*
X3899954Y1419857D01*
X3894874Y1435605D01*
X3889540Y1446019D01*
X3879126Y1456433D01*
X3868712Y1461513D01*
X3848138Y1461513D01*
X3934244Y1461513D02*
G01*
X3934244Y1352547D01*
X3934244Y1461513D02*
G01*
X4006888Y1352547D01*
X4006888Y1461513D02*
G01*
X4006888Y1352547D01*
X4077754Y1461513D02*
G01*
X4077754Y1352547D01*
X4041178Y1461513D02*
G01*
X4114076Y1461513D01*
X4148366Y1461513D02*
G01*
X4148366Y1352547D01*
X4148366Y1461513D02*
G01*
X4195102Y1461513D01*
X4210596Y1456433D01*
X4215930Y1451099D01*
X4221010Y1440685D01*
X4221010Y1430271D01*
X4215930Y1419857D01*
X4210596Y1414777D01*
X4195102Y1409697D01*
X4148366Y1409697D01*
X4184688Y1409697D02*
G01*
X4221010Y1352547D01*
X4286542Y1461513D02*
G01*
X4276128Y1456433D01*
X4265714Y1446019D01*
X4260634Y1435605D01*
X4255300Y1419857D01*
X4255300Y1393949D01*
X4260634Y1378455D01*
X4265714Y1368041D01*
X4276128Y1357627D01*
X4286542Y1352547D01*
X4307370Y1352547D01*
X4317784Y1357627D01*
X4328198Y1368041D01*
X4333278Y1378455D01*
X4338358Y1393949D01*
X4338358Y1419857D01*
X4333278Y1435605D01*
X4328198Y1446019D01*
X4317784Y1456433D01*
X4307370Y1461513D01*
X4286542Y1461513D01*
X4372648Y1461513D02*
G01*
X4372648Y1352547D01*
X4372648Y1352547D02*
G01*
X4435132Y1352547D01*
X4469422Y1461513D02*
G01*
X4469422Y1352547D01*
X4469422Y1352547D02*
G01*
X4531652Y1352547D01*
X4565942Y1461513D02*
G01*
X4565942Y1352547D01*
X4565942Y1461513D02*
G01*
X4633506Y1461513D01*
X4565942Y1409697D02*
G01*
X4607598Y1409697D01*
X4565942Y1352547D02*
G01*
X4633506Y1352547D01*
X4667796Y1461513D02*
G01*
X4667796Y1352547D01*
X4667796Y1461513D02*
G01*
X4714532Y1461513D01*
X4730280Y1456433D01*
X4735360Y1451099D01*
X4740694Y1440685D01*
X4740694Y1430271D01*
X4735360Y1419857D01*
X4730280Y1414777D01*
X4714532Y1409697D01*
X4667796Y1409697D01*
X4704118Y1409697D02*
G01*
X4740694Y1352547D01*
X4780064Y1435605D02*
G01*
X4780064Y1440685D01*
X4785398Y1451099D01*
X4790478Y1456433D01*
X4800892Y1461513D01*
X4821720Y1461513D01*
X4832134Y1456433D01*
X4837214Y1451099D01*
X4842548Y1440685D01*
X4842548Y1430271D01*
X4837214Y1419857D01*
X4826800Y1404363D01*
X4774984Y1352547D01*
X4847628Y1352547D01*
D13*
X3781285Y768177D02*
G01*
X3781285Y696803D01*
X3781285Y768177D02*
G01*
X3829037Y696803D01*
X3829037Y768177D02*
G01*
X3829037Y696803D01*
X3851643Y768177D02*
G01*
X3851643Y696803D01*
X3851643Y768177D02*
G01*
X3895839Y768177D01*
X3851643Y734141D02*
G01*
X3878821Y734141D01*
X3851643Y696803D02*
G01*
X3895839Y696803D01*
X3966197Y758017D02*
G01*
X3959339Y764875D01*
X3949179Y768177D01*
X3935463Y768177D01*
X3925303Y764875D01*
X3918445Y758017D01*
X3918445Y751159D01*
X3921747Y744301D01*
X3925303Y740999D01*
X3932161Y737697D01*
X3952481Y730839D01*
X3959339Y727283D01*
X3962641Y723981D01*
X3966197Y717123D01*
X3966197Y706963D01*
X3959339Y700105D01*
X3949179Y696803D01*
X3935463Y696803D01*
X3925303Y700105D01*
X3918445Y706963D01*
X4044683Y751159D02*
G01*
X4044683Y754715D01*
X4047985Y761573D01*
X4051287Y764875D01*
X4058145Y768177D01*
X4071861Y768177D01*
X4078719Y764875D01*
X4082021Y761573D01*
X4085577Y754715D01*
X4085577Y747857D01*
X4082021Y740999D01*
X4075163Y730839D01*
X4041127Y696803D01*
X4088879Y696803D01*
X4155681Y744301D02*
G01*
X4152379Y734141D01*
X4145521Y727283D01*
X4135361Y723981D01*
X4131805Y723981D01*
X4121645Y727283D01*
X4114787Y734141D01*
X4111485Y744301D01*
X4111485Y747857D01*
X4114787Y758017D01*
X4121645Y764875D01*
X4131805Y768177D01*
X4135361Y768177D01*
X4145521Y764875D01*
X4152379Y758017D01*
X4155681Y744301D01*
X4155681Y727283D01*
X4152379Y710265D01*
X4145521Y700105D01*
X4135361Y696803D01*
X4128503Y696803D01*
X4118089Y700105D01*
X4114787Y706963D01*
X4181589Y751159D02*
G01*
X4181589Y754715D01*
X4185145Y761573D01*
X4188447Y764875D01*
X4195305Y768177D01*
X4209021Y768177D01*
X4215625Y764875D01*
X4219181Y761573D01*
X4222483Y754715D01*
X4222483Y747857D01*
X4219181Y740999D01*
X4212323Y730839D01*
X4178287Y696803D01*
X4226039Y696803D01*
X4251947Y751159D02*
G01*
X4251947Y754715D01*
X4255249Y761573D01*
X4258551Y764875D01*
X4265409Y768177D01*
X4279125Y768177D01*
X4285983Y764875D01*
X4289285Y761573D01*
X4292841Y754715D01*
X4292841Y747857D01*
X4289285Y740999D01*
X4282427Y730839D01*
X4248391Y696803D01*
X4296143Y696803D01*
X4359643Y768177D02*
G01*
X4325607Y768177D01*
X4322051Y737697D01*
X4325607Y740999D01*
X4335767Y744301D01*
X4345927Y744301D01*
X4356087Y740999D01*
X4362945Y734141D01*
X4366501Y723981D01*
X4366501Y717123D01*
X4362945Y706963D01*
X4356087Y700105D01*
X4345927Y696803D01*
X4335767Y696803D01*
X4325607Y700105D01*
X4322051Y703407D01*
X4318749Y710265D01*
X4409427Y768177D02*
G01*
X4399013Y764875D01*
X4392409Y754715D01*
X4388853Y737697D01*
X4388853Y727283D01*
X4392409Y710265D01*
X4399013Y700105D01*
X4409427Y696803D01*
X4416285Y696803D01*
X4426445Y700105D01*
X4433303Y710265D01*
X4436605Y727283D01*
X4436605Y737697D01*
X4433303Y754715D01*
X4426445Y764875D01*
X4416285Y768177D01*
X4409427Y768177D01*
X4459211Y727283D02*
G01*
X4520425Y727283D01*
X4590783Y768177D02*
G01*
X4556747Y696803D01*
X4543031Y768177D02*
G01*
X4590783Y768177D01*
D11*
X11876001Y7163808D02*
G01*
X11876001Y7054842D01*
X11876001Y7163808D02*
G01*
X11912323Y7163808D01*
X11928071Y7158728D01*
X11938231Y7148314D01*
X11943565Y7137900D01*
X11948645Y7122152D01*
X11948645Y7096244D01*
X11943565Y7080750D01*
X11938231Y7070336D01*
X11928071Y7059922D01*
X11912323Y7054842D01*
X11876001Y7054842D01*
X12055833Y7148314D02*
G01*
X12045419Y7158728D01*
X12029671Y7163808D01*
X12009097Y7163808D01*
X11993349Y7158728D01*
X11982935Y7148314D01*
X11982935Y7137900D01*
X11988269Y7127486D01*
X11993349Y7122152D01*
X12003763Y7117072D01*
X12035005Y7106658D01*
X12045419Y7101578D01*
X12050499Y7096244D01*
X12055833Y7085830D01*
X12055833Y7070336D01*
X12045419Y7059922D01*
X12029671Y7054842D01*
X12009097Y7054842D01*
X11993349Y7059922D01*
X11982935Y7070336D01*
X12090123Y7163808D02*
G01*
X12090123Y7085830D01*
X12095203Y7070336D01*
X12105617Y7059922D01*
X12121111Y7054842D01*
X12131525Y7054842D01*
X12147273Y7059922D01*
X12157687Y7070336D01*
X12162767Y7085830D01*
X12162767Y7163808D01*
X12197057Y7163808D02*
G01*
X12197057Y7054842D01*
X12197057Y7163808D02*
G01*
X12243793Y7163808D01*
X12259541Y7158728D01*
X12264621Y7153394D01*
X12269701Y7142980D01*
X12269701Y7132566D01*
X12264621Y7122152D01*
X12259541Y7117072D01*
X12243793Y7111992D01*
X12197057Y7111992D02*
G01*
X12243793Y7111992D01*
X12259541Y7106658D01*
X12264621Y7101578D01*
X12269701Y7091164D01*
X12269701Y7075416D01*
X12264621Y7065002D01*
X12259541Y7059922D01*
X12243793Y7054842D01*
X12197057Y7054842D01*
X12303991Y7142980D02*
G01*
X12314405Y7148314D01*
X12330153Y7163808D01*
X12330153Y7054842D01*
X977897Y7341603D02*
G01*
X977897Y7232637D01*
X1090165Y7315695D02*
G01*
X1084831Y7326109D01*
X1074417Y7336523D01*
X1064257Y7341603D01*
X1043429Y7341603D01*
X1033015Y7336523D01*
X1022601Y7326109D01*
X1017267Y7315695D01*
X1012187Y7299947D01*
X1012187Y7274039D01*
X1017267Y7258545D01*
X1022601Y7248131D01*
X1033015Y7237717D01*
X1043429Y7232637D01*
X1064257Y7232637D01*
X1074417Y7237717D01*
X1084831Y7248131D01*
X1090165Y7258545D01*
X1124455Y7320775D02*
G01*
X1134869Y7326109D01*
X1150363Y7341603D01*
X1150363Y7232637D01*
X11829163Y1359915D02*
G01*
X11829163Y1276857D01*
X11823829Y1261110D01*
X11818749Y1256029D01*
X11808335Y1250950D01*
X11797921Y1250950D01*
X11787507Y1256029D01*
X11782173Y1261110D01*
X11777093Y1276857D01*
X11777093Y1287271D01*
X11863453Y1339087D02*
G01*
X11873613Y1344421D01*
X11889361Y1359915D01*
X11889361Y1250950D01*
X1485905Y6147798D02*
G01*
X1485905Y6069820D01*
X1490985Y6054326D01*
X1501399Y6043912D01*
X1517147Y6038832D01*
X1527561Y6038832D01*
X1543055Y6043912D01*
X1553469Y6054326D01*
X1558549Y6069820D01*
X1558549Y6147798D01*
X1603253Y6147798D02*
G01*
X1660403Y6147798D01*
X1629415Y6106142D01*
X1644909Y6106142D01*
X1655323Y6101062D01*
X1660403Y6095982D01*
X1665737Y6080234D01*
X1665737Y6069820D01*
X1660403Y6054326D01*
X1649989Y6043912D01*
X1634495Y6038832D01*
X1619001Y6038832D01*
X1603253Y6043912D01*
X1598173Y6048992D01*
X1592839Y6059406D01*
X2108192Y7735308D02*
G01*
X2108192Y7657330D01*
X2113272Y7641836D01*
X2123686Y7631422D01*
X2139434Y7626342D01*
X2149848Y7626342D01*
X2165342Y7631422D01*
X2175756Y7641836D01*
X2180836Y7657330D01*
X2180836Y7735308D01*
X2288024Y7719814D02*
G01*
X2277610Y7730228D01*
X2261862Y7735308D01*
X2241288Y7735308D01*
X2225540Y7730228D01*
X2215126Y7719814D01*
X2215126Y7709400D01*
X2220460Y7698986D01*
X2225540Y7693652D01*
X2235954Y7688572D01*
X2267196Y7678158D01*
X2277610Y7673078D01*
X2282690Y7667744D01*
X2288024Y7657330D01*
X2288024Y7641836D01*
X2277610Y7631422D01*
X2261862Y7626342D01*
X2241288Y7626342D01*
X2225540Y7631422D01*
X2215126Y7641836D01*
X2322314Y7735308D02*
G01*
X2322314Y7626342D01*
X2322314Y7735308D02*
G01*
X2369050Y7735308D01*
X2384544Y7730228D01*
X2389878Y7724894D01*
X2394958Y7714480D01*
X2394958Y7704066D01*
X2389878Y7693652D01*
X2384544Y7688572D01*
X2369050Y7683492D01*
X2322314Y7683492D02*
G01*
X2369050Y7683492D01*
X2384544Y7678158D01*
X2389878Y7673078D01*
X2394958Y7662664D01*
X2394958Y7646916D01*
X2389878Y7636502D01*
X2384544Y7631422D01*
X2369050Y7626342D01*
X2322314Y7626342D01*
X2429248Y7714480D02*
G01*
X2439662Y7719814D01*
X2455156Y7735308D01*
X2455156Y7626342D01*
G36*
X12745720Y1206500D02*
G01*
X12745720Y1028700D01*
X13304519Y1028700D01*
X13304519Y1206500D01*
G37*
G36*
X11510416Y1206500D02*
G01*
X11510416Y1028700D01*
X12069216Y1028700D01*
X12069216Y1206500D01*
G37*
D14*
X8127286Y179677D02*
G01*
X8127286Y99674D01*
X8016311Y210662D02*
G01*
X8096308Y210662D01*
X8016311Y68696D02*
G01*
X8096308Y68696D01*
X7958721Y211244D02*
G01*
X7878721Y211244D01*
X7847738Y180261D02*
G01*
X7847738Y100263D01*
X7958721Y69283D02*
G01*
X7878721Y69283D01*
X4977955Y5616039D02*
G01*
X4977955Y5536036D01*
X4866980Y5647024D02*
G01*
X4946977Y5647024D01*
X4866980Y5505058D02*
G01*
X4946977Y5505058D01*
X4809390Y5647606D02*
G01*
X4729391Y5647606D01*
X4698408Y5616623D02*
G01*
X4698408Y5536625D01*
X4809390Y5505645D02*
G01*
X4729391Y5505645D01*
X6325298Y5509922D02*
G01*
X6325298Y5589925D01*
X6436273Y5478937D02*
G01*
X6356276Y5478937D01*
X6436273Y5620903D02*
G01*
X6356276Y5620903D01*
X6493863Y5478355D02*
G01*
X6573862Y5478355D01*
X6604845Y5509338D02*
G01*
X6604845Y5589336D01*
X6493863Y5620316D02*
G01*
X6573862Y5620316D01*
X7874698Y5535322D02*
G01*
X7874698Y5615325D01*
X7985673Y5504337D02*
G01*
X7905676Y5504337D01*
X7985673Y5646303D02*
G01*
X7905676Y5646303D01*
X8043263Y5503755D02*
G01*
X8123262Y5503755D01*
X8154245Y5534738D02*
G01*
X8154245Y5614736D01*
X8043263Y5645716D02*
G01*
X8123262Y5645716D01*
X7887398Y8088022D02*
G01*
X7887398Y8168025D01*
X7998373Y8057037D02*
G01*
X7918376Y8057037D01*
X7998373Y8199003D02*
G01*
X7918376Y8199003D01*
X8055963Y8056455D02*
G01*
X8135962Y8056455D01*
X8166945Y8087438D02*
G01*
X8166945Y8167436D01*
X8055963Y8198416D02*
G01*
X8135962Y8198416D01*
X13404151Y4624677D02*
G01*
X13404151Y4544674D01*
X13293176Y4655662D02*
G01*
X13373173Y4655662D01*
X13293176Y4513696D02*
G01*
X13373173Y4513696D01*
X13235586Y4656244D02*
G01*
X13155587Y4656244D01*
X13124604Y4625261D02*
G01*
X13124604Y4545263D01*
X13235586Y4514283D02*
G01*
X13155587Y4514283D01*
X939101Y6453477D02*
G01*
X939101Y6373474D01*
X828126Y6484462D02*
G01*
X908123Y6484462D01*
X828126Y6342496D02*
G01*
X908123Y6342496D01*
X770536Y6485044D02*
G01*
X690537Y6485044D01*
X659554Y6454061D02*
G01*
X659554Y6374063D01*
X770536Y6343083D02*
G01*
X690537Y6343083D01*
X1080198Y6373522D02*
G01*
X1080198Y6453525D01*
X1191173Y6342537D02*
G01*
X1111176Y6342537D01*
X1191173Y6484503D02*
G01*
X1111176Y6484503D01*
X1248763Y6341955D02*
G01*
X1328762Y6341955D01*
X1359745Y6372938D02*
G01*
X1359745Y6452936D01*
X1248763Y6483916D02*
G01*
X1328762Y6483916D01*
D11*
X11832539Y1381739D02*
G01*
X11928426Y1381739D01*
X11928426Y1513860D01*
X11832539Y1513860D01*
X11747296Y1381739D02*
G01*
X11651409Y1381739D01*
X11651409Y1513860D01*
X11747296Y1513860D01*
X5547339Y401878D02*
G01*
X5547339Y305991D01*
X5679460Y305991D01*
X5679460Y401878D01*
X5547339Y487121D02*
G01*
X5547339Y583008D01*
X5679460Y583008D01*
X5679460Y487121D01*
X10830539Y6561378D02*
G01*
X10830539Y6465491D01*
X10962660Y6465491D01*
X10962660Y6561378D01*
X10830539Y6646621D02*
G01*
X10830539Y6742508D01*
X10962660Y6742508D01*
X10962660Y6646621D01*
X11287739Y6561378D02*
G01*
X11287739Y6465491D01*
X11419860Y6465491D01*
X11419860Y6561378D01*
X11287739Y6646621D02*
G01*
X11287739Y6742508D01*
X11419860Y6742508D01*
X11419860Y6646621D01*
X11681439Y6561378D02*
G01*
X11681439Y6465491D01*
X11813560Y6465491D01*
X11813560Y6561378D01*
X11681439Y6646621D02*
G01*
X11681439Y6742508D01*
X11813560Y6742508D01*
X11813560Y6646621D01*
X12062439Y6561378D02*
G01*
X12062439Y6465491D01*
X12194560Y6465491D01*
X12194560Y6561378D01*
X12062439Y6646621D02*
G01*
X12062439Y6742508D01*
X12194560Y6742508D01*
X12194560Y6646621D01*
X12519639Y6561378D02*
G01*
X12519639Y6465491D01*
X12651760Y6465491D01*
X12651760Y6561378D01*
X12519639Y6646621D02*
G01*
X12519639Y6742508D01*
X12651760Y6742508D01*
X12651760Y6646621D01*
X12989539Y6561378D02*
G01*
X12989539Y6465491D01*
X13121660Y6465491D01*
X13121660Y6561378D01*
X12989539Y6646621D02*
G01*
X12989539Y6742508D01*
X13121660Y6742508D01*
X13121660Y6646621D01*
X13067746Y1381737D02*
G01*
X13163633Y1381737D01*
X13163633Y1513857D01*
X13067746Y1513857D01*
X12982503Y1381737D02*
G01*
X12886616Y1381737D01*
X12886616Y1513857D01*
X12982503Y1513857D01*
X2435832Y7348773D02*
G01*
X2435832Y7252886D01*
X2567952Y7252886D01*
X2567952Y7348773D01*
X2435832Y7434016D02*
G01*
X2435832Y7529903D01*
X2567952Y7529903D01*
X2567952Y7434016D01*
X2067532Y7348773D02*
G01*
X2067532Y7252886D01*
X2199652Y7252886D01*
X2199652Y7348773D01*
X2067532Y7434016D02*
G01*
X2067532Y7529903D01*
X2199652Y7529903D01*
X2199652Y7434016D01*
X2969232Y8072673D02*
G01*
X2969232Y7976786D01*
X3101352Y7976786D01*
X3101352Y8072673D01*
X2969232Y8157916D02*
G01*
X2969232Y8253803D01*
X3101352Y8253803D01*
X3101352Y8157916D01*
D14*
X11061689Y508000D02*
G01*
X11061689Y1778000D01*
X11061689Y1778000D02*
G01*
X5981689Y1778000D01*
X11061689Y508000D02*
G01*
X5981689Y508000D01*
X5981689Y508000D02*
G01*
X5981689Y952500D01*
X5981689Y1333500D02*
G01*
X5981689Y1778000D01*
D13*
X5798571Y5363453D02*
G01*
X5798571Y4933431D01*
X4993645Y4933431D01*
X4993645Y5363453D01*
X5403601Y5363453D01*
X5798571Y5363453D01*
D14*
X4767889Y6065486D02*
G01*
X4767889Y6319486D01*
X9339882Y6319486D01*
X9339882Y6065486D01*
X4767889Y6065486D01*
X4767889Y7691084D02*
G01*
X4767889Y7945084D01*
X9339882Y7945084D01*
X9339882Y7691084D01*
X4767889Y7691084D01*
X13397776Y5005666D02*
G01*
X13397776Y4925664D01*
X13286800Y5036652D02*
G01*
X13366798Y5036652D01*
X13286800Y4894686D02*
G01*
X13366798Y4894686D01*
X13229211Y5037234D02*
G01*
X13149211Y5037234D01*
X13118228Y5006251D02*
G01*
X13118228Y4926253D01*
X13229211Y4895273D02*
G01*
X13149211Y4895273D01*
D13*
X7417818Y5362554D02*
G01*
X7417818Y4932532D01*
X6612892Y4932532D01*
X6612892Y5362554D01*
X7022848Y5362554D01*
X7417818Y5362554D01*
X9015458Y5362554D02*
G01*
X9015458Y4932532D01*
X8210532Y4932532D01*
X8210532Y5362554D01*
X8620488Y5362554D01*
X9015458Y5362554D01*
D14*
X12745725Y571500D02*
G01*
X12745725Y1206500D01*
X13304525Y1206500D01*
X13304525Y571500D01*
X12745725Y571500D01*
X12547582Y5342689D02*
G01*
X12801582Y5342689D01*
X12924581Y1775696D02*
G01*
X12924581Y5342689D01*
X12547582Y1775696D02*
G01*
X12801582Y1775696D01*
X12424582Y5342689D02*
G01*
X12424582Y1775696D01*
X12924581Y1775696D02*
G01*
X12801582Y1775696D01*
X12924581Y5342689D02*
G01*
X12801582Y5342689D01*
X12424582Y1775696D02*
G01*
X12547582Y1775696D01*
X12424582Y5342689D02*
G01*
X12547582Y5342689D01*
X1740595Y1636420D02*
G01*
X1740595Y1716422D01*
X1851571Y1605434D02*
G01*
X1771573Y1605434D01*
X1851571Y1747400D02*
G01*
X1771573Y1747400D01*
X1909160Y1604853D02*
G01*
X1989160Y1604853D01*
X2020143Y1635836D02*
G01*
X2020143Y1715833D01*
X1909160Y1746813D02*
G01*
X1989160Y1746813D01*
X4204390Y1649120D02*
G01*
X4204390Y1729122D01*
X4315366Y1618134D02*
G01*
X4235368Y1618134D01*
X4315366Y1760100D02*
G01*
X4235368Y1760100D01*
X4372955Y1617553D02*
G01*
X4452955Y1617553D01*
X4483938Y1648536D02*
G01*
X4483938Y1728533D01*
X4372955Y1759513D02*
G01*
X4452955Y1759513D01*
X2869496Y5818464D02*
G01*
X2869496Y5738461D01*
X2758521Y5849449D02*
G01*
X2838518Y5849449D01*
X2758521Y5707484D02*
G01*
X2838518Y5707484D01*
X2700931Y5850031D02*
G01*
X2620932Y5850031D01*
X2589949Y5819048D02*
G01*
X2589949Y5739051D01*
X2700931Y5708070D02*
G01*
X2620932Y5708070D01*
X6266599Y5589856D02*
G01*
X6266599Y5509854D01*
X6155623Y5620842D02*
G01*
X6235621Y5620842D01*
X6155623Y5478876D02*
G01*
X6235621Y5478876D01*
X6098034Y5621423D02*
G01*
X6018034Y5621423D01*
X5987051Y5590440D02*
G01*
X5987051Y5510443D01*
X6098034Y5479463D02*
G01*
X6018034Y5479463D01*
X7809786Y5615266D02*
G01*
X7809786Y5535264D01*
X7698811Y5646252D02*
G01*
X7778808Y5646252D01*
X7698811Y5504286D02*
G01*
X7778808Y5504286D01*
X7641221Y5646834D02*
G01*
X7561221Y5646834D01*
X7530238Y5615851D02*
G01*
X7530238Y5535853D01*
X7641221Y5504873D02*
G01*
X7561221Y5504873D01*
X9194083Y5818464D02*
G01*
X9194083Y5738461D01*
X9083108Y5849449D02*
G01*
X9163105Y5849449D01*
X9083108Y5707484D02*
G01*
X9163105Y5707484D01*
X9025519Y5850031D02*
G01*
X8945519Y5850031D01*
X8914536Y5819048D02*
G01*
X8914536Y5739051D01*
X9025519Y5708070D02*
G01*
X8945519Y5708070D01*
D15*
X938804Y1303604D02*
G01*
X2498796Y1303604D01*
X2498796Y423595D01*
X938804Y423595D01*
X938804Y1303604D01*
X3406386Y1303601D02*
G01*
X4966378Y1303601D01*
X4966378Y423593D01*
X3406386Y423593D01*
X3406386Y1303601D01*
D14*
X10553082Y8834290D02*
G01*
X10553082Y7234290D01*
X13653081Y8834290D02*
G01*
X10553082Y8834290D01*
X11120627Y8834290D02*
G01*
X11120648Y9294289D01*
X11120648Y9293849D02*
G01*
X10580649Y9293849D01*
X10581728Y8834290D02*
G01*
X10581728Y9293849D01*
X13083082Y8834290D02*
G01*
X13083082Y9293849D01*
X13621981Y8834290D02*
G01*
X13622002Y9294289D01*
X13622002Y9293849D02*
G01*
X13082003Y9293849D01*
X12913083Y9404289D02*
G01*
X11293081Y9404289D01*
X13653081Y8834290D02*
G01*
X13653081Y7234290D01*
X11228082Y8834290D02*
G01*
X11293081Y9404289D01*
X12978081Y8834290D02*
G01*
X12913083Y9404289D01*
X13653081Y7234290D02*
G01*
X10553082Y7234290D01*
D16*
X1495905Y6703199D02*
G01*
X1495905Y7173175D01*
X459889Y7173175D01*
X459889Y6870687D01*
D14*
X11510393Y571500D02*
G01*
X11510393Y1206500D01*
X12069193Y1206500D01*
X12069193Y571500D01*
X11510393Y571500D01*
X899797Y2434861D02*
G01*
X899797Y2285992D01*
X899797Y2688861D02*
G01*
X899797Y2518122D01*
X899797Y2942861D02*
G01*
X899797Y2772122D01*
X899797Y3196861D02*
G01*
X899797Y3026122D01*
X899797Y3450861D02*
G01*
X899797Y3280122D01*
X899797Y3704861D02*
G01*
X899797Y3534122D01*
X899797Y3958861D02*
G01*
X899797Y3788122D01*
X899797Y4212861D02*
G01*
X899797Y4042122D01*
X899797Y4466861D02*
G01*
X899797Y4296122D01*
X899797Y4720861D02*
G01*
X899797Y4550122D01*
X899797Y4974861D02*
G01*
X899797Y4804122D01*
X899797Y5228861D02*
G01*
X899797Y5058122D01*
X899797Y5482861D02*
G01*
X899797Y5312122D01*
X899797Y5671134D02*
G01*
X899797Y5566122D01*
X899797Y5977491D02*
G01*
X899797Y5885850D01*
X2249797Y2434861D02*
G01*
X2249797Y2277493D01*
X2249797Y2688861D02*
G01*
X2249797Y2518122D01*
X2249797Y2942861D02*
G01*
X2249797Y2772122D01*
X2249797Y3196861D02*
G01*
X2249797Y3026122D01*
X2249797Y3450861D02*
G01*
X2249797Y3280122D01*
X2249797Y3704861D02*
G01*
X2249797Y3534122D01*
X2249797Y3958861D02*
G01*
X2249797Y3788122D01*
X2249797Y4212861D02*
G01*
X2249797Y4042122D01*
X2249797Y4466861D02*
G01*
X2249797Y4296122D01*
X2249797Y4720861D02*
G01*
X2249797Y4550122D01*
X2249797Y4974861D02*
G01*
X2249797Y4804122D01*
X2249797Y5228861D02*
G01*
X2249797Y5058122D01*
X2249797Y5482861D02*
G01*
X2249797Y5312122D01*
X2249797Y5736861D02*
G01*
X2249797Y5566122D01*
X2249797Y5977491D02*
G01*
X2249797Y5820122D01*
X899797Y5977491D02*
G01*
X1377360Y5977491D01*
X2249797Y5977491D02*
G01*
X1777359Y5977491D01*
X899797Y2277493D02*
G01*
X2249797Y2277493D01*
D17*
X1881393Y8035792D02*
G01*
X1881393Y8195792D01*
X2671391Y7855793D02*
G01*
X2651391Y7855793D01*
X1971393Y7855793D02*
G01*
X1951393Y7855793D01*
X2671391Y8385792D02*
G01*
X1951393Y8385792D01*
X2751391Y8035792D02*
G01*
X2751391Y8195792D01*
D14*
G75*
G01*
X7847734Y180261D02*
G02*
X7878717Y211244I30983J0D01*
G75*
G01*
X7878717Y69278D02*
G02*
X7847734Y100264I0J30983D01*
G75*
G01*
X8096303Y210663D02*
G02*
X8127286Y179677I0J-30983D01*
G75*
G01*
X8127286Y99680D02*
G02*
X8096303Y68697I-30983J0D01*
G75*
G01*
X4698403Y5616623D02*
G02*
X4729386Y5647606I30983J0D01*
G75*
G01*
X4729386Y5505641D02*
G02*
X4698403Y5536626I0J30982D01*
G75*
G01*
X4946973Y5647025D02*
G02*
X4977956Y5616039I0J-30983D01*
G75*
G01*
X4977956Y5536042D02*
G02*
X4946973Y5505059I-30983J0D01*
G75*
G01*
X6604851Y5509339D02*
G02*
X6573868Y5478356I-30983J0D01*
G75*
G01*
X6573868Y5620322D02*
G02*
X6604851Y5589336I0J-30983D01*
G75*
G01*
X6356281Y5478937D02*
G02*
X6325299Y5509923I0J30983D01*
G75*
G01*
X6325299Y5589920D02*
G02*
X6356281Y5620903I30982J0D01*
G75*
G01*
X8154251Y5534739D02*
G02*
X8123268Y5503756I-30983J0D01*
G75*
G01*
X8123268Y5645722D02*
G02*
X8154251Y5614736I0J-30983D01*
G75*
G01*
X7905681Y5504337D02*
G02*
X7874699Y5535323I0J30983D01*
G75*
G01*
X7874699Y5615320D02*
G02*
X7905681Y5646303I30982J0D01*
G75*
G01*
X8166951Y8087439D02*
G02*
X8135968Y8056456I-30983J0D01*
G75*
G01*
X8135968Y8198422D02*
G02*
X8166951Y8167436I0J-30983D01*
G75*
G01*
X7918381Y8057037D02*
G02*
X7887399Y8088023I0J30983D01*
G75*
G01*
X7887399Y8168020D02*
G02*
X7918381Y8199003I30982J0D01*
G75*
G01*
X13124599Y4625261D02*
G02*
X13155582Y4656244I30983J0D01*
G75*
G01*
X13155582Y4514278D02*
G02*
X13124599Y4545264I0J30983D01*
G75*
G01*
X13373169Y4655663D02*
G02*
X13404151Y4624677I0J-30983D01*
G75*
G01*
X13404151Y4544680D02*
G02*
X13373169Y4513697I-30982J0D01*
G75*
G01*
X659549Y6454061D02*
G02*
X690532Y6485044I30983J0D01*
G75*
G01*
X690532Y6343078D02*
G02*
X659549Y6374064I0J30983D01*
G75*
G01*
X908119Y6484463D02*
G02*
X939101Y6453477I0J-30983D01*
G75*
G01*
X939101Y6373480D02*
G02*
X908119Y6342497I-30982J0D01*
G75*
G01*
X1359751Y6372939D02*
G02*
X1328768Y6341956I-30983J0D01*
G75*
G01*
X1328768Y6483922D02*
G02*
X1359751Y6452936I0J-30983D01*
G75*
G01*
X1111181Y6342537D02*
G02*
X1080199Y6373523I0J30983D01*
G75*
G01*
X1080199Y6453520D02*
G02*
X1111181Y6484503I30982J0D01*
G75*
G01*
X5981695Y1333500D02*
G02*
X5981695Y952500I0J-190500D01*
G75*
G01*
X13118224Y5006251D02*
G02*
X13149207Y5037234I30983J0D01*
G75*
G01*
X13149207Y4895268D02*
G02*
X13118224Y4926254I0J30983D01*
G75*
G01*
X13366793Y5036652D02*
G02*
X13397776Y5005667I0J-30983D01*
G75*
G01*
X13397776Y4925670D02*
G02*
X13366793Y4894687I-30983J0D01*
G75*
G01*
X2020148Y1635836D02*
G02*
X1989165Y1604853I-30983J0D01*
G75*
G01*
X1989165Y1746819D02*
G02*
X2020148Y1715833I0J-30983D01*
G75*
G01*
X1771579Y1605435D02*
G02*
X1740596Y1636420I0J30983D01*
G75*
G01*
X1740596Y1716418D02*
G02*
X1771579Y1747401I30983J0D01*
G75*
G01*
X4483943Y1648536D02*
G02*
X4452960Y1617553I-30983J0D01*
G75*
G01*
X4452960Y1759519D02*
G02*
X4483943Y1728533I0J-30983D01*
G75*
G01*
X4235374Y1618135D02*
G02*
X4204391Y1649120I0J30983D01*
G75*
G01*
X4204391Y1729118D02*
G02*
X4235374Y1760101I30983J0D01*
G75*
G01*
X2589944Y5819049D02*
G02*
X2620927Y5850031I30983J0D01*
G75*
G01*
X2620927Y5708066D02*
G02*
X2589944Y5739051I0J30983D01*
G75*
G01*
X2838513Y5849450D02*
G02*
X2869496Y5818464I1J-30983D01*
G75*
G01*
X2869496Y5738467D02*
G02*
X2838513Y5707484I-30982J0D01*
G75*
G01*
X5987047Y5590441D02*
G02*
X6018030Y5621424I30983J0D01*
G75*
G01*
X6018030Y5479458D02*
G02*
X5987047Y5510444I0J30983D01*
G75*
G01*
X6235616Y5620842D02*
G02*
X6266599Y5589857I0J-30983D01*
G75*
G01*
X6266599Y5509859D02*
G02*
X6235616Y5478877I-30983J0D01*
G75*
G01*
X7530234Y5615851D02*
G02*
X7561217Y5646834I30983J0D01*
G75*
G01*
X7561217Y5504868D02*
G02*
X7530234Y5535854I0J30983D01*
G75*
G01*
X7778803Y5646252D02*
G02*
X7809786Y5615267I0J-30983D01*
G75*
G01*
X7809786Y5535270D02*
G02*
X7778803Y5504287I-30983J0D01*
G75*
G01*
X8914531Y5819049D02*
G02*
X8945514Y5850031I30983J0D01*
G75*
G01*
X8945514Y5708066D02*
G02*
X8914531Y5739051I0J30983D01*
G75*
G01*
X9163101Y5849450D02*
G02*
X9194084Y5818464I0J-30983D01*
G75*
G01*
X9194084Y5738467D02*
G02*
X9163101Y5707484I-30983J0D01*
G75*
G01*
X1777360Y5977494D02*
G02*
X1377361Y5977494I-200000J0D01*
G75*
G01
X6235700Y698500D02*
G03X6235700Y698500I-63500J0D01*
D13*
G75*
G01
X5763717Y5318506D02*
G03X5763717Y5318506I-5004J0D01*
G75*
G01
X7382967Y5317617D02*
G03X7382967Y5317617I-5004J0D01*
G75*
G01
X8980576Y5317617D02*
G03X8980576Y5317617I-5004J0D01*
D14*
G75*
G01
X880745Y1117600D02*
G03X880745Y1117600I-26924J0D01*
G75*
G01
X3348330Y1117600D02*
G03X3348330Y1117600I-26924J0D01*
G75*
G01
X833704Y5943600D02*
G03X833704Y5943600I-33604J0D01*
M02*
