G04 Layer: TopPasteMaskLayer*
G04 EasyEDA v6.5.22, 2023-04-21 15:38:10*
G04 6d2149ed1d2646eb8880a206008ce751,0d2cea57a9a8422ebbcee2df73fbc454,10*
G04 Gerber Generator version 0.2*
G04 Scale: 100 percent, Rotated: No, Reflected: No *
G04 Dimensions in millimeters *
G04 leading zeros omitted , absolute positions ,4 integer and 5 decimal *
%FSLAX45Y45*%
%MOMM*%

%ADD10R,0.8000X0.9000*%
%ADD11R,0.3000X1.0000*%
%ADD12R,0.8000X2.0000*%
%ADD13R,0.7600X2.0000*%
%ADD14R,0.7000X2.0000*%
%ADD15R,0.0194X2.0000*%

%LPD*%
G36*
X11829440Y1492808D02*
G01*
X11824411Y1487779D01*
X11824411Y1465021D01*
X11861393Y1465021D01*
X11861393Y1432001D01*
X11824411Y1432001D01*
X11824411Y1407820D01*
X11829440Y1402791D01*
X11909399Y1402791D01*
X11914428Y1407820D01*
X11914428Y1487779D01*
X11909399Y1492808D01*
G37*
G36*
X11670436Y1492808D02*
G01*
X11665407Y1487779D01*
X11665407Y1407820D01*
X11670436Y1402791D01*
X11749430Y1402791D01*
X11754408Y1407820D01*
X11754408Y1432001D01*
X11716410Y1432001D01*
X11716410Y1465021D01*
X11754408Y1465021D01*
X11754408Y1487779D01*
X11749430Y1492808D01*
G37*
G36*
X5573420Y410006D02*
G01*
X5568391Y404977D01*
X5568391Y325018D01*
X5573420Y319989D01*
X5653379Y319989D01*
X5658408Y325018D01*
X5658408Y404977D01*
X5653379Y410006D01*
X5630621Y410006D01*
X5630621Y372973D01*
X5597601Y372973D01*
X5597601Y410006D01*
G37*
G36*
X5573420Y569010D02*
G01*
X5568391Y563981D01*
X5568391Y484987D01*
X5573420Y480009D01*
X5597601Y480009D01*
X5597601Y518007D01*
X5630621Y518007D01*
X5630621Y480009D01*
X5653379Y480009D01*
X5658408Y484987D01*
X5658408Y563981D01*
X5653379Y569010D01*
G37*
G36*
X10856620Y6569506D02*
G01*
X10851591Y6564477D01*
X10851591Y6484518D01*
X10856620Y6479489D01*
X10936579Y6479489D01*
X10941608Y6484518D01*
X10941608Y6564477D01*
X10936579Y6569506D01*
X10913821Y6569506D01*
X10913821Y6532473D01*
X10880801Y6532473D01*
X10880801Y6569506D01*
G37*
G36*
X10856620Y6728510D02*
G01*
X10851591Y6723481D01*
X10851591Y6644487D01*
X10856620Y6639509D01*
X10880801Y6639509D01*
X10880801Y6677507D01*
X10913821Y6677507D01*
X10913821Y6639509D01*
X10936579Y6639509D01*
X10941608Y6644487D01*
X10941608Y6723481D01*
X10936579Y6728510D01*
G37*
G36*
X11313820Y6569506D02*
G01*
X11308791Y6564477D01*
X11308791Y6484518D01*
X11313820Y6479489D01*
X11393779Y6479489D01*
X11398808Y6484518D01*
X11398808Y6564477D01*
X11393779Y6569506D01*
X11371021Y6569506D01*
X11371021Y6532473D01*
X11338001Y6532473D01*
X11338001Y6569506D01*
G37*
G36*
X11313820Y6728510D02*
G01*
X11308791Y6723481D01*
X11308791Y6644487D01*
X11313820Y6639509D01*
X11338001Y6639509D01*
X11338001Y6677507D01*
X11371021Y6677507D01*
X11371021Y6639509D01*
X11393779Y6639509D01*
X11398808Y6644487D01*
X11398808Y6723481D01*
X11393779Y6728510D01*
G37*
G36*
X11707520Y6569506D02*
G01*
X11702491Y6564477D01*
X11702491Y6484518D01*
X11707520Y6479489D01*
X11787479Y6479489D01*
X11792508Y6484518D01*
X11792508Y6564477D01*
X11787479Y6569506D01*
X11764721Y6569506D01*
X11764721Y6532473D01*
X11731701Y6532473D01*
X11731701Y6569506D01*
G37*
G36*
X11707520Y6728510D02*
G01*
X11702491Y6723481D01*
X11702491Y6644487D01*
X11707520Y6639509D01*
X11731701Y6639509D01*
X11731701Y6677507D01*
X11764721Y6677507D01*
X11764721Y6639509D01*
X11787479Y6639509D01*
X11792508Y6644487D01*
X11792508Y6723481D01*
X11787479Y6728510D01*
G37*
G36*
X12088520Y6569506D02*
G01*
X12083491Y6564477D01*
X12083491Y6484518D01*
X12088520Y6479489D01*
X12168479Y6479489D01*
X12173508Y6484518D01*
X12173508Y6564477D01*
X12168479Y6569506D01*
X12145721Y6569506D01*
X12145721Y6532473D01*
X12112701Y6532473D01*
X12112701Y6569506D01*
G37*
G36*
X12088520Y6728510D02*
G01*
X12083491Y6723481D01*
X12083491Y6644487D01*
X12088520Y6639509D01*
X12112701Y6639509D01*
X12112701Y6677507D01*
X12145721Y6677507D01*
X12145721Y6639509D01*
X12168479Y6639509D01*
X12173508Y6644487D01*
X12173508Y6723481D01*
X12168479Y6728510D01*
G37*
G36*
X12545720Y6569506D02*
G01*
X12540691Y6564477D01*
X12540691Y6484518D01*
X12545720Y6479489D01*
X12625679Y6479489D01*
X12630708Y6484518D01*
X12630708Y6564477D01*
X12625679Y6569506D01*
X12602921Y6569506D01*
X12602921Y6532473D01*
X12569901Y6532473D01*
X12569901Y6569506D01*
G37*
G36*
X12545720Y6728510D02*
G01*
X12540691Y6723481D01*
X12540691Y6644487D01*
X12545720Y6639509D01*
X12569901Y6639509D01*
X12569901Y6677507D01*
X12602921Y6677507D01*
X12602921Y6639509D01*
X12625679Y6639509D01*
X12630708Y6644487D01*
X12630708Y6723481D01*
X12625679Y6728510D01*
G37*
G36*
X13015620Y6569506D02*
G01*
X13010591Y6564477D01*
X13010591Y6484518D01*
X13015620Y6479489D01*
X13095579Y6479489D01*
X13100608Y6484518D01*
X13100608Y6564477D01*
X13095579Y6569506D01*
X13072821Y6569506D01*
X13072821Y6532473D01*
X13039801Y6532473D01*
X13039801Y6569506D01*
G37*
G36*
X13015620Y6728510D02*
G01*
X13010591Y6723481D01*
X13010591Y6644487D01*
X13015620Y6639509D01*
X13039801Y6639509D01*
X13039801Y6677507D01*
X13072821Y6677507D01*
X13072821Y6639509D01*
X13095579Y6639509D01*
X13100608Y6644487D01*
X13100608Y6723481D01*
X13095579Y6728510D01*
G37*
G36*
X13064642Y1492808D02*
G01*
X13059613Y1487779D01*
X13059613Y1465021D01*
X13096646Y1465021D01*
X13096646Y1432001D01*
X13059613Y1432001D01*
X13059613Y1407820D01*
X13064642Y1402791D01*
X13144652Y1402791D01*
X13149630Y1407820D01*
X13149630Y1487779D01*
X13144652Y1492808D01*
G37*
G36*
X12905638Y1492808D02*
G01*
X12900609Y1487779D01*
X12900609Y1407820D01*
X12905638Y1402791D01*
X12984632Y1402791D01*
X12989610Y1407820D01*
X12989610Y1432001D01*
X12951612Y1432001D01*
X12951612Y1465021D01*
X12989610Y1465021D01*
X12989610Y1487779D01*
X12984632Y1492808D01*
G37*
G36*
X2461869Y7356906D02*
G01*
X2456891Y7351877D01*
X2456891Y7271918D01*
X2461869Y7266889D01*
X2541879Y7266889D01*
X2546908Y7271918D01*
X2546908Y7351877D01*
X2541879Y7356906D01*
X2519070Y7356906D01*
X2519070Y7319873D01*
X2486101Y7319873D01*
X2486101Y7356906D01*
G37*
G36*
X2461869Y7515910D02*
G01*
X2456891Y7510881D01*
X2456891Y7431887D01*
X2461869Y7426909D01*
X2486101Y7426909D01*
X2486101Y7464907D01*
X2519070Y7464907D01*
X2519070Y7426909D01*
X2541879Y7426909D01*
X2546908Y7431887D01*
X2546908Y7510881D01*
X2541879Y7515910D01*
G37*
G36*
X2093569Y7356906D02*
G01*
X2088591Y7351877D01*
X2088591Y7271918D01*
X2093569Y7266889D01*
X2173579Y7266889D01*
X2178608Y7271918D01*
X2178608Y7351877D01*
X2173579Y7356906D01*
X2150770Y7356906D01*
X2150770Y7319873D01*
X2117801Y7319873D01*
X2117801Y7356906D01*
G37*
G36*
X2093569Y7515910D02*
G01*
X2088591Y7510881D01*
X2088591Y7431887D01*
X2093569Y7426909D01*
X2117801Y7426909D01*
X2117801Y7464907D01*
X2150770Y7464907D01*
X2150770Y7426909D01*
X2173579Y7426909D01*
X2178608Y7431887D01*
X2178608Y7510881D01*
X2173579Y7515910D01*
G37*
G36*
X2995269Y8080806D02*
G01*
X2990291Y8075777D01*
X2990291Y7995818D01*
X2995269Y7990789D01*
X3075279Y7990789D01*
X3080308Y7995818D01*
X3080308Y8075777D01*
X3075279Y8080806D01*
X3052470Y8080806D01*
X3052470Y8043773D01*
X3019501Y8043773D01*
X3019501Y8080806D01*
G37*
G36*
X2995269Y8239810D02*
G01*
X2990291Y8234781D01*
X2990291Y8155787D01*
X2995269Y8150809D01*
X3019501Y8150809D01*
X3019501Y8188807D01*
X3052470Y8188807D01*
X3052470Y8150809D01*
X3075279Y8150809D01*
X3080308Y8155787D01*
X3080308Y8234781D01*
X3075279Y8239810D01*
G37*
D10*
G01*
X8058277Y139700D03*
G01*
X7918297Y139700D03*
G01*
X4908956Y5576062D03*
G01*
X4768951Y5576062D03*
G01*
X6394297Y5549900D03*
G01*
X6534302Y5549900D03*
G01*
X7943697Y5575300D03*
G01*
X8083702Y5575300D03*
G01*
X7956397Y8128000D03*
G01*
X8096402Y8128000D03*
G01*
X13335152Y4584700D03*
G01*
X13195147Y4584700D03*
G01*
X870102Y6413500D03*
G01*
X730097Y6413500D03*
G01*
X1149197Y6413500D03*
G01*
X1289202Y6413500D03*
D11*
G01*
X5753684Y5433491D03*
G01*
X5688685Y5433491D03*
G01*
X5623686Y5433491D03*
G01*
X5558688Y5433491D03*
G01*
X5493689Y5433491D03*
G01*
X5428691Y5433491D03*
G01*
X5363692Y5433491D03*
G01*
X5298693Y5433491D03*
G01*
X5233695Y5433491D03*
G01*
X5168696Y5433491D03*
G01*
X5103698Y5433491D03*
G01*
X5038699Y5433491D03*
G01*
X5038699Y4858486D03*
G01*
X5103698Y4858486D03*
G01*
X5168696Y4858486D03*
G01*
X5233695Y4858486D03*
G01*
X5298693Y4858486D03*
G01*
X5363692Y4858486D03*
G01*
X5428691Y4858486D03*
G01*
X5493689Y4858486D03*
G01*
X5558688Y4858486D03*
G01*
X5623686Y4858486D03*
G01*
X5688685Y4858486D03*
G01*
X5753684Y4858486D03*
D10*
G01*
X13328777Y4965700D03*
G01*
X13188772Y4965700D03*
D11*
G01*
X7372934Y5432577D03*
G01*
X7307935Y5432577D03*
G01*
X7242936Y5432577D03*
G01*
X7177938Y5432577D03*
G01*
X7112939Y5432577D03*
G01*
X7047941Y5432577D03*
G01*
X6982942Y5432577D03*
G01*
X6917943Y5432577D03*
G01*
X6852945Y5432577D03*
G01*
X6787946Y5432577D03*
G01*
X6722948Y5432577D03*
G01*
X6657949Y5432577D03*
G01*
X6657949Y4857597D03*
G01*
X6722948Y4857597D03*
G01*
X6787946Y4857597D03*
G01*
X6852945Y4857597D03*
G01*
X6917943Y4857597D03*
G01*
X6982942Y4857597D03*
G01*
X7047941Y4857597D03*
G01*
X7112939Y4857597D03*
G01*
X7177938Y4857597D03*
G01*
X7242936Y4857597D03*
G01*
X7307935Y4857597D03*
G01*
X7372934Y4857597D03*
G01*
X8970594Y5432577D03*
G01*
X8905570Y5432577D03*
G01*
X8840571Y5432577D03*
G01*
X8775572Y5432577D03*
G01*
X8710574Y5432577D03*
G01*
X8645575Y5432577D03*
G01*
X8580577Y5432577D03*
G01*
X8515578Y5432577D03*
G01*
X8450579Y5432577D03*
G01*
X8385581Y5432577D03*
G01*
X8320582Y5432577D03*
G01*
X8255584Y5432577D03*
G01*
X8255584Y4857597D03*
G01*
X8320582Y4857597D03*
G01*
X8385581Y4857597D03*
G01*
X8450579Y4857597D03*
G01*
X8515578Y4857597D03*
G01*
X8580577Y4857597D03*
G01*
X8645575Y4857597D03*
G01*
X8710574Y4857597D03*
G01*
X8775572Y4857597D03*
G01*
X8840571Y4857597D03*
G01*
X8905570Y4857597D03*
G01*
X8970594Y4857597D03*
D10*
G01*
X1809597Y1676400D03*
G01*
X1949602Y1676400D03*
G01*
X4273397Y1689100D03*
G01*
X4413402Y1689100D03*
G01*
X2800502Y5778474D03*
G01*
X2660497Y5778474D03*
G01*
X6197600Y5549874D03*
G01*
X6057595Y5549874D03*
G01*
X7740777Y5575300D03*
G01*
X7600797Y5575300D03*
G01*
X9125077Y5778474D03*
G01*
X8985072Y5778474D03*
D12*
G01*
X2586405Y7877784D03*
G01*
X2036394Y7877784D03*
D13*
G01*
X2463393Y7877784D03*
D14*
G01*
X2361387Y7877784D03*
G01*
X2261387Y7877784D03*
D13*
G01*
X2159381Y7877784D03*
M02*
