G04 Layer: TopSolderMaskLayer*
G04 EasyEDA v6.5.22, 2023-04-21 15:38:10*
G04 6d2149ed1d2646eb8880a206008ce751,0d2cea57a9a8422ebbcee2df73fbc454,10*
G04 Gerber Generator version 0.2*
G04 Scale: 100 percent, Rotated: No, Reflected: No *
G04 Dimensions in millimeters *
G04 leading zeros omitted , absolute positions ,4 integer and 5 decimal *
%FSLAX45Y45*%
%MOMM*%

%AMMACRO1*1,1,$1,$2,$3*1,1,$1,$4,$5*1,1,$1,0-$2,0-$3*1,1,$1,0-$4,0-$5*20,1,$1,$2,$3,$4,$5,0*20,1,$1,$4,$5,0-$2,0-$3,0*20,1,$1,0-$2,0-$3,0-$4,0-$5,0*20,1,$1,0-$4,0-$5,$2,$3,0*4,1,4,$2,$3,$4,$5,0-$2,0-$3,0-$4,0-$5,$2,$3,0*%
%ADD10MACRO1,0.1016X-0.4X0.45X0.4X0.45*%
%ADD11MACRO1,0.1016X0.4X-0.45X-0.4X-0.45*%
%ADD12MACRO1,0.1016X-0.4032X-0.432X-0.4032X0.432*%
%ADD13MACRO1,0.1016X0.4032X-0.432X0.4032X0.432*%
%ADD14MACRO1,0.1016X-0.432X0.4032X0.432X0.4032*%
%ADD15MACRO1,0.1016X-0.432X-0.4032X0.432X-0.4032*%
%ADD16C,1.8034*%
%ADD17MACRO1,0.2032X-0.8001X0.8001X0.8001X0.8001*%
%ADD18MACRO1,0.1016X-0.85X-0.8499X-0.85X0.8499*%
%ADD19C,1.8016*%
%ADD20MACRO1,0.1016X0.15X0.5X0.15X-0.5*%
%ADD21MACRO1,0.1016X-0.762X-0.762X-0.762X0.762*%
%ADD22C,1.6256*%
%ADD23R,1.7272X1.7272*%
%ADD24C,1.7272*%
%ADD25C,1.2032*%
%ADD26MACRO1,0.2032X-0.5X0.5X0.5X0.5*%
%ADD27C,3.7008*%
%ADD28C,1.6942*%
%ADD29MACRO1,0.1016X-0.915X0.915X0.915X0.915*%
%ADD30C,1.9317*%
%ADD31MACRO1,0.2032X-0.762X-0.762X-0.762X0.762*%
%ADD32C,1.9016*%
%ADD33MACRO1,0.1016X0.8992X0.8992X0.8992X-0.8992*%
%ADD34MACRO1,0.1016X0.4X-1X-0.4X-1*%
%ADD35MACRO1,0.1016X0.38X-1X-0.38X-1*%
%ADD36MACRO1,0.1016X0.35X-1X-0.35X-1*%
%ADD37O,1.3031978X1.9031966*%
%ADD38O,0.01X1.9031966*%

%LPD*%
D10*
G01*
X8058284Y139700D03*
G01*
X7918284Y139700D03*
G01*
X4908953Y5576062D03*
G01*
X4768954Y5576062D03*
D11*
G01*
X6394300Y5549900D03*
G01*
X6534299Y5549900D03*
G01*
X7943700Y5575300D03*
G01*
X8083699Y5575300D03*
G01*
X7956400Y8128000D03*
G01*
X8096399Y8128000D03*
D10*
G01*
X13335149Y4584700D03*
G01*
X13195150Y4584700D03*
G01*
X870099Y6413500D03*
G01*
X730100Y6413500D03*
D11*
G01*
X1149200Y6413500D03*
G01*
X1289199Y6413500D03*
D12*
G01*
X11865242Y1447800D03*
D13*
G01*
X11714593Y1447800D03*
D14*
G01*
X5613400Y369175D03*
D15*
G01*
X5613400Y519824D03*
D14*
G01*
X10896600Y6528675D03*
D15*
G01*
X10896600Y6679324D03*
D14*
G01*
X11353800Y6528675D03*
D15*
G01*
X11353800Y6679324D03*
D14*
G01*
X11747500Y6528675D03*
D15*
G01*
X11747500Y6679324D03*
D14*
G01*
X12128500Y6528675D03*
D15*
G01*
X12128500Y6679324D03*
D14*
G01*
X12585700Y6528675D03*
D15*
G01*
X12585700Y6679324D03*
D14*
G01*
X13055600Y6528675D03*
D15*
G01*
X13055600Y6679324D03*
D12*
G01*
X13100450Y1447797D03*
D13*
G01*
X12949800Y1447797D03*
D14*
G01*
X2501892Y7316069D03*
D15*
G01*
X2501892Y7466719D03*
D14*
G01*
X2133592Y7316069D03*
D15*
G01*
X2133592Y7466719D03*
D14*
G01*
X3035292Y8039969D03*
D15*
G01*
X3035292Y8190619D03*
D16*
G01*
X10934700Y381000D03*
G01*
X10680700Y381000D03*
G01*
X10426700Y381000D03*
G01*
X10172700Y381000D03*
G01*
X9918700Y381000D03*
G01*
X9664700Y381000D03*
G01*
X9410700Y381000D03*
G01*
X9156700Y381000D03*
G01*
X8902700Y381000D03*
G01*
X8648700Y381000D03*
G01*
X8140700Y381000D03*
G01*
X7886700Y381000D03*
G01*
X7632700Y381000D03*
G01*
X7378700Y381000D03*
G01*
X7124700Y381000D03*
G01*
X6870700Y381000D03*
G01*
X6616700Y381000D03*
G01*
X6362700Y381000D03*
D17*
G01*
X6108689Y381000D03*
D16*
G01*
X8394700Y381000D03*
G01*
X6108700Y1905000D03*
G01*
X6362700Y1905000D03*
G01*
X6616700Y1905000D03*
G01*
X10934700Y1905000D03*
G01*
X10680700Y1905000D03*
G01*
X10426700Y1905000D03*
G01*
X6870700Y1905000D03*
G01*
X7124700Y1905000D03*
G01*
X10172700Y1905000D03*
G01*
X9918700Y1905000D03*
G01*
X9664700Y1905000D03*
G01*
X7378700Y1905000D03*
G01*
X9410700Y1905000D03*
G01*
X7632700Y1905000D03*
G01*
X9156700Y1905000D03*
G01*
X7886700Y1905000D03*
G01*
X8140700Y1905000D03*
G01*
X8902700Y1905000D03*
G01*
X8648700Y1905000D03*
G01*
X8394700Y1905000D03*
D18*
G01*
X4076674Y2527292D03*
D19*
G01*
X4330700Y2527300D03*
G01*
X4584700Y2527300D03*
G01*
X4838700Y2527300D03*
G01*
X5092700Y2527300D03*
G01*
X5346700Y2527300D03*
G01*
X5600700Y2527300D03*
G01*
X5854700Y2527300D03*
G01*
X6108700Y2527300D03*
G01*
X6362700Y2527300D03*
G01*
X6616700Y2527300D03*
G01*
X6870700Y2527300D03*
G01*
X7124700Y2527300D03*
G01*
X7378700Y2527300D03*
G01*
X7632700Y2527300D03*
G01*
X7886700Y2527300D03*
G01*
X8140700Y2527300D03*
G01*
X8394700Y2527300D03*
G01*
X8648700Y2527300D03*
G01*
X8902700Y2527300D03*
G01*
X9156700Y2527300D03*
G01*
X9410700Y2527300D03*
G01*
X9664700Y2527300D03*
G01*
X9918700Y2527300D03*
G01*
X9918700Y4051300D03*
G01*
X9664700Y4051300D03*
G01*
X9410700Y4051300D03*
G01*
X9156700Y4051300D03*
G01*
X8902700Y4051300D03*
G01*
X8648700Y4051300D03*
G01*
X8394700Y4051300D03*
G01*
X8140700Y4051300D03*
G01*
X7886700Y4051300D03*
G01*
X7632700Y4051300D03*
G01*
X7378700Y4051300D03*
G01*
X7124700Y4051300D03*
G01*
X6870700Y4051300D03*
G01*
X6616700Y4051300D03*
G01*
X6362700Y4051300D03*
G01*
X6108700Y4051300D03*
G01*
X5854700Y4051300D03*
G01*
X5600700Y4051300D03*
G01*
X5346700Y4051300D03*
G01*
X5092700Y4051300D03*
G01*
X4838700Y4051300D03*
G01*
X4584700Y4051300D03*
G01*
X4330700Y4051300D03*
G01*
X4076700Y4051300D03*
D20*
G01*
X5753694Y5433489D03*
G01*
X5688693Y5433489D03*
G01*
X5623694Y5433489D03*
G01*
X5558693Y5433489D03*
G01*
X5493694Y5433489D03*
G01*
X5428693Y5433489D03*
G01*
X5363695Y5433489D03*
G01*
X5298694Y5433489D03*
G01*
X5233695Y5433489D03*
G01*
X5168694Y5433489D03*
G01*
X5103693Y5433489D03*
G01*
X5038694Y5433489D03*
G01*
X5038694Y4858489D03*
G01*
X5103693Y4858489D03*
G01*
X5168694Y4858489D03*
G01*
X5233695Y4858489D03*
G01*
X5298694Y4858489D03*
G01*
X5363695Y4858489D03*
G01*
X5428693Y4858489D03*
G01*
X5493694Y4858489D03*
G01*
X5558693Y4858489D03*
G01*
X5623694Y4858489D03*
G01*
X5688693Y4858489D03*
G01*
X5753694Y4858489D03*
D21*
G01*
X4894889Y6192486D03*
D22*
G01*
X5148884Y6192494D03*
G01*
X5402884Y6192494D03*
G01*
X5656884Y6192494D03*
G01*
X5910884Y6192494D03*
G01*
X6164884Y6192494D03*
G01*
X6418884Y6192494D03*
G01*
X6672884Y6192494D03*
G01*
X6926884Y6192494D03*
G01*
X7180884Y6192494D03*
G01*
X7434884Y6192494D03*
G01*
X7688884Y6192494D03*
G01*
X7942884Y6192494D03*
G01*
X8196884Y6192494D03*
G01*
X8450884Y6192494D03*
G01*
X8704884Y6192494D03*
G01*
X8958884Y6192494D03*
G01*
X9212884Y6192494D03*
D21*
G01*
X4894889Y7818084D03*
D22*
G01*
X5148884Y7818094D03*
G01*
X5402884Y7818094D03*
G01*
X5656884Y7818094D03*
G01*
X5910884Y7818094D03*
G01*
X6164884Y7818094D03*
G01*
X6418884Y7818094D03*
G01*
X6672884Y7818094D03*
G01*
X6926884Y7818094D03*
G01*
X7180884Y7818094D03*
G01*
X7434884Y7818094D03*
G01*
X7688884Y7818094D03*
G01*
X7942884Y7818094D03*
G01*
X8196884Y7818094D03*
G01*
X8450884Y7818094D03*
G01*
X8704884Y7818094D03*
G01*
X8958884Y7818094D03*
G01*
X9212884Y7818094D03*
D10*
G01*
X13328774Y4965689D03*
G01*
X13188774Y4965689D03*
D20*
G01*
X7372941Y5432590D03*
G01*
X7307940Y5432590D03*
G01*
X7242942Y5432590D03*
G01*
X7177940Y5432590D03*
G01*
X7112942Y5432590D03*
G01*
X7047941Y5432590D03*
G01*
X6982942Y5432590D03*
G01*
X6917941Y5432590D03*
G01*
X6852942Y5432590D03*
G01*
X6787941Y5432590D03*
G01*
X6722940Y5432590D03*
G01*
X6657941Y5432590D03*
G01*
X6657941Y4857589D03*
G01*
X6722940Y4857589D03*
G01*
X6787941Y4857589D03*
G01*
X6852942Y4857589D03*
G01*
X6917941Y4857589D03*
G01*
X6982942Y4857589D03*
G01*
X7047941Y4857589D03*
G01*
X7112942Y4857589D03*
G01*
X7177940Y4857589D03*
G01*
X7242942Y4857589D03*
G01*
X7307940Y4857589D03*
G01*
X7372941Y4857589D03*
G01*
X8970581Y5432590D03*
G01*
X8905580Y5432590D03*
G01*
X8840581Y5432590D03*
G01*
X8775580Y5432590D03*
G01*
X8710582Y5432590D03*
G01*
X8645580Y5432590D03*
G01*
X8580582Y5432590D03*
G01*
X8515581Y5432590D03*
G01*
X8450582Y5432590D03*
G01*
X8385581Y5432590D03*
G01*
X8320580Y5432590D03*
G01*
X8255581Y5432590D03*
G01*
X8255581Y4857589D03*
G01*
X8320580Y4857589D03*
G01*
X8385581Y4857589D03*
G01*
X8450582Y4857589D03*
G01*
X8515581Y4857589D03*
G01*
X8580582Y4857589D03*
G01*
X8645580Y4857589D03*
G01*
X8710582Y4857589D03*
G01*
X8775580Y4857589D03*
G01*
X8840581Y4857589D03*
G01*
X8905580Y4857589D03*
G01*
X8970581Y4857589D03*
D23*
G01*
X12898120Y876300D03*
D24*
G01*
X13152120Y876300D03*
D22*
G01*
X12547574Y5219700D03*
G01*
X12547574Y4965700D03*
G01*
X12547574Y4711700D03*
G01*
X12547574Y4457700D03*
G01*
X12547574Y4203700D03*
G01*
X12547574Y3949700D03*
G01*
X12547574Y3695700D03*
G01*
X12547574Y3441700D03*
G01*
X12547574Y3187700D03*
G01*
X12547574Y2933700D03*
G01*
X12547574Y2679700D03*
G01*
X12547574Y2425700D03*
G01*
X12547574Y2171700D03*
G01*
X12547574Y1917700D03*
G01*
X12801574Y1917700D03*
G01*
X12801574Y2171700D03*
G01*
X12801574Y2425700D03*
G01*
X12801574Y2679700D03*
G01*
X12801574Y2933700D03*
G01*
X12801574Y3187700D03*
G01*
X12801574Y3441700D03*
G01*
X12801574Y3695700D03*
G01*
X12801574Y3949700D03*
G01*
X12801574Y4203700D03*
G01*
X12801574Y4457700D03*
G01*
X12801574Y4711700D03*
G01*
X12801574Y4965700D03*
G01*
X12801574Y5219700D03*
D11*
G01*
X1809597Y1676397D03*
G01*
X1949597Y1676397D03*
G01*
X4273392Y1689097D03*
G01*
X4413392Y1689097D03*
D10*
G01*
X2800494Y5778487D03*
G01*
X2660495Y5778487D03*
G01*
X6197597Y5549879D03*
G01*
X6057597Y5549879D03*
G01*
X7740784Y5575289D03*
G01*
X7600784Y5575289D03*
G01*
X9125082Y5778487D03*
G01*
X8985082Y5778487D03*
D25*
G01*
X1748815Y1117600D03*
G01*
X1548815Y1117600D03*
G01*
X1348816Y1117600D03*
G01*
X1948815Y1117600D03*
G01*
X2148814Y1117600D03*
G01*
X2348814Y1117600D03*
D26*
G01*
X1148811Y1117600D03*
D25*
G01*
X4216400Y1117600D03*
G01*
X4016400Y1117600D03*
G01*
X3816400Y1117600D03*
G01*
X4416374Y1117600D03*
G01*
X4616399Y1117600D03*
G01*
X4816398Y1117600D03*
D26*
G01*
X3616393Y1117597D03*
D27*
G01*
X13353084Y7734300D03*
G01*
X10853064Y7734300D03*
D28*
G01*
X12553061Y7480300D03*
G01*
X12328067Y7480300D03*
G01*
X12103074Y7480300D03*
G01*
X11878081Y7480300D03*
G01*
X11653062Y7480300D03*
G01*
X12440564Y7734300D03*
G01*
X12215571Y7734300D03*
G01*
X11990577Y7734300D03*
G01*
X11765584Y7734300D03*
G01*
X11540566Y7734300D03*
G01*
X12553061Y7988300D03*
G01*
X12328067Y7988300D03*
G01*
X12103074Y7988300D03*
G01*
X11878081Y7988300D03*
G01*
X11653062Y7988300D03*
D29*
G01*
X723897Y6870687D03*
D30*
G01*
X977900Y6870700D03*
G01*
X1231900Y6870700D03*
D31*
G01*
X11662793Y876300D03*
D24*
G01*
X11916790Y876300D03*
D32*
G01*
X2354808Y5778500D03*
G01*
X2354808Y5524500D03*
G01*
X2354808Y5270500D03*
G01*
X2354808Y5016500D03*
G01*
X2354808Y4762500D03*
G01*
X2354808Y4508500D03*
G01*
X2354808Y4254500D03*
G01*
X2354808Y4000500D03*
G01*
X2354808Y3746500D03*
G01*
X2354808Y3492500D03*
G01*
X2354808Y3238500D03*
G01*
X2354808Y2984500D03*
G01*
X2354808Y2730500D03*
G01*
X2354808Y2476500D03*
G01*
X794791Y2476500D03*
G01*
X794791Y2730500D03*
G01*
X794791Y2984500D03*
G01*
X794791Y3238500D03*
G01*
X794791Y3492500D03*
G01*
X794791Y3746500D03*
G01*
X794791Y4000500D03*
G01*
X794791Y4508500D03*
G01*
X794791Y4762500D03*
G01*
X794791Y5016500D03*
G01*
X794791Y5270500D03*
G01*
X794791Y5524500D03*
G01*
X794791Y4254500D03*
D33*
G01*
X794809Y5778492D03*
D34*
G01*
X2586393Y7877792D03*
G01*
X2036391Y7877792D03*
D35*
G01*
X2463394Y7877792D03*
D36*
G01*
X2361391Y7877792D03*
G01*
X2261393Y7877792D03*
D35*
G01*
X2159389Y7877792D03*
D37*
G01*
X2743403Y7925790D03*
G01*
X1879396Y7925790D03*
G01*
X2743403Y8305800D03*
G01*
X1879396Y8305800D03*
M02*
