M48
METRIC,LZ,000.000
;FILE_FORMAT=3:3
;TYPE=PLATED
;Layer: PTH_Through
;EasyEDA v6.5.22, 2023-04-21 16:03:43
;4c68439a23b5444c8928c868920feb27,770f932475b44407b2c7c1ef503837d0,10
;Gerber Generator version 0.2
;Holesize 1 = 0.915 mm
T01C0.915
;Holesize 2 = 1.100 mm
T02C1.100
;Holesize 3 = 3.251 mm
T03C3.251
%
G05
G90
T01
X-051000Y-019256
X-048460Y-019256
X-045920Y-019256
X-043380Y-019256
X-040840Y-019256
X-038300Y-019256
X-035760Y-019256
X-033220Y-019256
X-030680Y-019256
X-028140Y-019256
X-025600Y-019256
X-023060Y-019256
X-020520Y-019256
X-017980Y-019256
X-015440Y-019256
X-012900Y-019256
X-010360Y-019256
X-007820Y-019256
X-051000Y-003000
X-048460Y-003000
X-045920Y-003000
X-043380Y-003000
X-040840Y-003000
X-038300Y-003000
X-035760Y-003000
X-033220Y-003000
X-030680Y-003000
X-028140Y-003000
X-025600Y-003000
X-023060Y-003000
X-020520Y-003000
X-017980Y-003000
X-015440Y-003000
X-012900Y-003000
X-010360Y-003000
X-007820Y-003000
T02
X-047190Y-013541G85X-047190Y-013541
X-047190Y-008691G85X-047190Y-008691
X-044650Y-013541G85X-044650Y-013541
X-044650Y-008691G85X-044650Y-008691
X-042110Y-013541G85X-042110Y-013541
X-042110Y-008691G85X-042110Y-008691
X-039570Y-013541G85X-039570Y-013541
X-039570Y-008691G85X-039570Y-008691
X-037030Y-013541G85X-037030Y-013541
X-037030Y-008691G85X-037030Y-008691
X-034490Y-013541G85X-034490Y-013541
X-034490Y-008691G85X-034490Y-008691
X-031950Y-013541G85X-031950Y-013541
X-031950Y-008691G85X-031950Y-008691
X-029410Y-013541G85X-029410Y-013541
X-029410Y-008691G85X-029410Y-008691
X-026870Y-013541G85X-026870Y-013541
X-026870Y-008691G85X-026870Y-008691
X-024330Y-013541G85X-024330Y-013541
X-024330Y-008691G85X-024330Y-008691
X-021790Y-013541G85X-021790Y-013541
X-021790Y-008691G85X-021790Y-008691
X-019250Y-013541G85X-019250Y-013541
X-019250Y-008691G85X-019250Y-008691
X-016710Y-013541G85X-016710Y-013541
X-016710Y-008691G85X-016710Y-008691
X-014170Y-013541G85X-014170Y-013541
X-014170Y-008691G85X-014170Y-008691
X-011630Y-013541G85X-011630Y-013541
X-011630Y-008691G85X-011630Y-008691
T03
X-055760Y-011116G85X-055760Y-011116
X-003060Y-011116G85X-003060Y-011116
M30
