G04 Layer: TopSilkscreenLayer*
G04 EasyEDA v6.5.22, 2023-04-21 16:03:43*
G04 4c68439a23b5444c8928c868920feb27,770f932475b44407b2c7c1ef503837d0,10*
G04 Gerber Generator version 0.2*
G04 Scale: 100 percent, Rotated: No, Reflected: No *
G04 Dimensions in millimeters *
G04 leading zeros omitted , absolute positions ,4 integer and 5 decimal *
%FSLAX45Y45*%
%MOMM*%

%ADD10C,0.1001*%
%ADD11C,0.2000*%

%LPD*%
G36*
X-3804158Y-2801721D02*
G01*
X-3811168Y-2804617D01*
X-3825341Y-2811424D01*
X-3830828Y-2814523D01*
X-3837533Y-2819044D01*
X-3845204Y-2824734D01*
X-3853789Y-2831541D01*
X-3863035Y-2839262D01*
X-3882999Y-2856890D01*
X-3903929Y-2876448D01*
X-3924452Y-2896768D01*
X-3943400Y-2916580D01*
X-3951833Y-2925978D01*
X-3959402Y-2934817D01*
X-3965905Y-2942894D01*
X-3974744Y-2954883D01*
X-3978452Y-2960370D01*
X-3981653Y-2965551D01*
X-3984345Y-2970479D01*
X-3986529Y-2975203D01*
X-3988257Y-2979826D01*
X-3989527Y-2984246D01*
X-3990289Y-2988614D01*
X-3990536Y-2993085D01*
X-3979265Y-2993085D01*
X-3979011Y-2990850D01*
X-3978351Y-2988310D01*
X-3977284Y-2985363D01*
X-3973931Y-2978658D01*
X-3969156Y-2970834D01*
X-3963060Y-2962046D01*
X-3955846Y-2952445D01*
X-3947617Y-2942234D01*
X-3938524Y-2931515D01*
X-3928719Y-2920441D01*
X-3907637Y-2897835D01*
X-3891076Y-2881122D01*
X-3879951Y-2870352D01*
X-3868928Y-2860090D01*
X-3858209Y-2850489D01*
X-3847896Y-2841650D01*
X-3838143Y-2833725D01*
X-3829100Y-2826969D01*
X-3820922Y-2821381D01*
X-3813759Y-2817266D01*
X-3807714Y-2814624D01*
X-3805224Y-2813964D01*
X-3803040Y-2813761D01*
X-3799230Y-2815285D01*
X-3792118Y-2819400D01*
X-3782669Y-2825546D01*
X-3771950Y-2833014D01*
X-3764534Y-2838704D01*
X-3756202Y-2845612D01*
X-3747008Y-2853588D01*
X-3726992Y-2872181D01*
X-3705910Y-2892907D01*
X-3685184Y-2914396D01*
X-3666236Y-2935071D01*
X-3657854Y-2944672D01*
X-3644188Y-2961538D01*
X-3639261Y-2968345D01*
X-3635857Y-2973933D01*
X-3624427Y-2995168D01*
X-3643528Y-3023870D01*
X-3649624Y-3031744D01*
X-3657549Y-3041192D01*
X-3666947Y-3051860D01*
X-3688892Y-3075584D01*
X-3712870Y-3100222D01*
X-3736187Y-3123082D01*
X-3746804Y-3133039D01*
X-3756304Y-3141522D01*
X-3764279Y-3148279D01*
X-3770477Y-3152902D01*
X-3775456Y-3155645D01*
X-3777691Y-3156458D01*
X-3779520Y-3156610D01*
X-3780993Y-3155899D01*
X-3782161Y-3154222D01*
X-3783076Y-3151327D01*
X-3783736Y-3147060D01*
X-3784498Y-3133852D01*
X-3784701Y-3113176D01*
X-3784752Y-3038652D01*
X-3826865Y-3038652D01*
X-3830320Y-3162401D01*
X-3890467Y-3105404D01*
X-3910380Y-3085693D01*
X-3922522Y-3073044D01*
X-3933698Y-3060954D01*
X-3943807Y-3049422D01*
X-3952798Y-3038602D01*
X-3960571Y-3028594D01*
X-3967124Y-3019399D01*
X-3972306Y-3011170D01*
X-3976115Y-3004007D01*
X-3977487Y-3000806D01*
X-3978452Y-2997911D01*
X-3979062Y-2995320D01*
X-3979265Y-2993085D01*
X-3990536Y-2993085D01*
X-3990340Y-2997250D01*
X-3989628Y-3001619D01*
X-3988409Y-3006039D01*
X-3986733Y-3010611D01*
X-3984599Y-3015284D01*
X-3978808Y-3025292D01*
X-3971036Y-3036468D01*
X-3963111Y-3046730D01*
X-3955643Y-3055772D01*
X-3947160Y-3065424D01*
X-3937914Y-3075533D01*
X-3917594Y-3096564D01*
X-3896004Y-3117494D01*
X-3874566Y-3137204D01*
X-3864254Y-3146145D01*
X-3854450Y-3154273D01*
X-3845356Y-3161487D01*
X-3837127Y-3167532D01*
X-3825798Y-3175000D01*
X-3819601Y-3178606D01*
X-3814419Y-3181045D01*
X-3809847Y-3182366D01*
X-3805428Y-3182670D01*
X-3800805Y-3181959D01*
X-3795572Y-3180384D01*
X-3787190Y-3176930D01*
X-3781856Y-3173730D01*
X-3775151Y-3169005D01*
X-3767277Y-3162909D01*
X-3748887Y-3147517D01*
X-3727958Y-3128772D01*
X-3716985Y-3118612D01*
X-3689451Y-3091992D01*
X-3668826Y-3070961D01*
X-3650843Y-3051606D01*
X-3643325Y-3042920D01*
X-3637026Y-3035147D01*
X-3632047Y-3028442D01*
X-3627018Y-3021025D01*
X-3622954Y-3014421D01*
X-3619754Y-3008477D01*
X-3617468Y-3003042D01*
X-3616096Y-2997962D01*
X-3615690Y-2993034D01*
X-3616147Y-2988157D01*
X-3617518Y-2983077D01*
X-3619804Y-2977642D01*
X-3623005Y-2971698D01*
X-3627120Y-2965145D01*
X-3635197Y-2953461D01*
X-3642360Y-2944215D01*
X-3650843Y-2934157D01*
X-3660394Y-2923438D01*
X-3670858Y-2912262D01*
X-3682034Y-2900781D01*
X-3693718Y-2889148D01*
X-3717950Y-2866186D01*
X-3741928Y-2844749D01*
X-3753408Y-2835046D01*
X-3764229Y-2826258D01*
X-3774236Y-2818536D01*
X-3783279Y-2812084D01*
X-3791102Y-2807004D01*
X-3797503Y-2803550D01*
X-3800195Y-2802483D01*
X-3802379Y-2801874D01*
G37*
G36*
X-3827272Y-2892755D02*
G01*
X-3827272Y-2920136D01*
X-3820007Y-2920136D01*
X-3819855Y-2913634D01*
X-3819296Y-2909468D01*
X-3818382Y-2907893D01*
X-3817213Y-2909366D01*
X-3816248Y-2913126D01*
X-3815892Y-2917799D01*
X-3816010Y-2920136D01*
X-3807866Y-2920136D01*
X-3807714Y-2913634D01*
X-3807104Y-2909468D01*
X-3806190Y-2907893D01*
X-3805072Y-2909366D01*
X-3804107Y-2913126D01*
X-3803751Y-2917799D01*
X-3803846Y-2920136D01*
X-3795674Y-2920136D01*
X-3795572Y-2913634D01*
X-3794963Y-2909468D01*
X-3794048Y-2907893D01*
X-3792880Y-2909366D01*
X-3791965Y-2913126D01*
X-3791559Y-2917799D01*
X-3791813Y-2922828D01*
X-3792677Y-2927604D01*
X-3793794Y-2930347D01*
X-3794709Y-2929839D01*
X-3795369Y-2926334D01*
X-3795674Y-2920136D01*
X-3803846Y-2920136D01*
X-3803954Y-2922828D01*
X-3804818Y-2927604D01*
X-3805936Y-2930347D01*
X-3806850Y-2929839D01*
X-3807561Y-2926334D01*
X-3807866Y-2920136D01*
X-3816010Y-2920136D01*
X-3816146Y-2922828D01*
X-3817010Y-2927604D01*
X-3818077Y-2930347D01*
X-3819042Y-2929839D01*
X-3819702Y-2926334D01*
X-3820007Y-2920136D01*
X-3827272Y-2920136D01*
X-3827272Y-3014370D01*
X-3784752Y-3014370D01*
X-3784752Y-2892755D01*
G37*
G36*
X-2846425Y-2898851D02*
G01*
X-2867406Y-2899003D01*
X-2882493Y-2899460D01*
X-2888030Y-2899816D01*
X-2892298Y-2900324D01*
X-2895396Y-2900934D01*
X-2897378Y-2901696D01*
X-2898394Y-2902661D01*
X-2898444Y-2903728D01*
X-2897632Y-2904998D01*
X-2893618Y-2908706D01*
X-2891383Y-2911398D01*
X-2889402Y-2914548D01*
X-2887624Y-2918155D01*
X-2886100Y-2922320D01*
X-2884779Y-2927045D01*
X-2883712Y-2932379D01*
X-2882849Y-2938373D01*
X-2882188Y-2944977D01*
X-2881477Y-2960471D01*
X-2881768Y-2985566D01*
X-2854655Y-2985566D01*
X-2854502Y-2940354D01*
X-2854147Y-2932836D01*
X-2853537Y-2926283D01*
X-2852674Y-2920695D01*
X-2851607Y-2916174D01*
X-2850286Y-2912668D01*
X-2848762Y-2910281D01*
X-2847035Y-2908960D01*
X-2840736Y-2906928D01*
X-2834284Y-2905760D01*
X-2827883Y-2905556D01*
X-2821584Y-2906166D01*
X-2815539Y-2907690D01*
X-2809849Y-2909976D01*
X-2804566Y-2913126D01*
X-2799943Y-2917088D01*
X-2796438Y-2920949D01*
X-2793542Y-2924911D01*
X-2791256Y-2928924D01*
X-2789529Y-2932988D01*
X-2788412Y-2937002D01*
X-2787853Y-2941066D01*
X-2787853Y-2945079D01*
X-2788412Y-2948990D01*
X-2789478Y-2952800D01*
X-2791053Y-2956560D01*
X-2793136Y-2960116D01*
X-2795727Y-2963570D01*
X-2798775Y-2966770D01*
X-2802331Y-2969768D01*
X-2806293Y-2972562D01*
X-2810713Y-2975051D01*
X-2815590Y-2977286D01*
X-2820873Y-2979216D01*
X-2826562Y-2980791D01*
X-2832608Y-2981960D01*
X-2854655Y-2985566D01*
X-2881768Y-2985566D01*
X-2882392Y-3001060D01*
X-2883595Y-3020974D01*
X-2853944Y-3020974D01*
X-2853588Y-3009087D01*
X-2852724Y-3000705D01*
X-2852115Y-2998317D01*
X-2850388Y-2995523D01*
X-2847695Y-2993339D01*
X-2844139Y-2991713D01*
X-2839923Y-2990748D01*
X-2835148Y-2990291D01*
X-2829915Y-2990443D01*
X-2824429Y-2991154D01*
X-2818790Y-2992424D01*
X-2813202Y-2994202D01*
X-2807716Y-2996488D01*
X-2802483Y-2999333D01*
X-2797708Y-3002635D01*
X-2793695Y-3006140D01*
X-2790291Y-3009900D01*
X-2787446Y-3013862D01*
X-2785110Y-3017977D01*
X-2783332Y-3022244D01*
X-2782062Y-3026613D01*
X-2781249Y-3031032D01*
X-2780944Y-3035503D01*
X-2781096Y-3039922D01*
X-2781757Y-3044342D01*
X-2782773Y-3048609D01*
X-2784246Y-3052826D01*
X-2786126Y-3056839D01*
X-2788412Y-3060649D01*
X-2791053Y-3064256D01*
X-2794050Y-3067558D01*
X-2797403Y-3070606D01*
X-2801112Y-3073247D01*
X-2805125Y-3075584D01*
X-2809443Y-3077464D01*
X-2814015Y-3078886D01*
X-2818892Y-3079800D01*
X-2823972Y-3080207D01*
X-2829356Y-3080054D01*
X-2851607Y-3078175D01*
X-2853740Y-3035046D01*
X-2853944Y-3020974D01*
X-2883595Y-3020974D01*
X-2884678Y-3036620D01*
X-2886303Y-3053384D01*
X-2887268Y-3059734D01*
X-2888335Y-3064916D01*
X-2889554Y-3069082D01*
X-2891028Y-3072434D01*
X-2892704Y-3075076D01*
X-2894685Y-3077159D01*
X-2896971Y-3078835D01*
X-2901543Y-3081375D01*
X-2902610Y-3082391D01*
X-2902712Y-3083255D01*
X-2901746Y-3084017D01*
X-2899765Y-3084677D01*
X-2896717Y-3085236D01*
X-2887116Y-3086100D01*
X-2872587Y-3086608D01*
X-2852826Y-3086862D01*
X-2833776Y-3086760D01*
X-2817114Y-3086100D01*
X-2802686Y-3084830D01*
X-2790393Y-3082848D01*
X-2785008Y-3081528D01*
X-2780080Y-3080054D01*
X-2775610Y-3078378D01*
X-2771597Y-3076448D01*
X-2767990Y-3074263D01*
X-2764790Y-3071876D01*
X-2761996Y-3069234D01*
X-2759557Y-3066338D01*
X-2757474Y-3063138D01*
X-2755747Y-3059684D01*
X-2754325Y-3055924D01*
X-2753156Y-3051911D01*
X-2751734Y-3042869D01*
X-2751378Y-3037890D01*
X-2751277Y-3032556D01*
X-2751785Y-3027883D01*
X-2753106Y-3023108D01*
X-2755239Y-3018231D01*
X-2758084Y-3013456D01*
X-2761437Y-3008833D01*
X-2765298Y-3004464D01*
X-2769514Y-3000502D01*
X-2774035Y-2997047D01*
X-2778658Y-2994101D01*
X-2783382Y-2991916D01*
X-2788005Y-2990545D01*
X-2792526Y-2990037D01*
X-2794457Y-2988919D01*
X-2792933Y-2985973D01*
X-2788361Y-2981553D01*
X-2774848Y-2971546D01*
X-2769616Y-2966770D01*
X-2765348Y-2961843D01*
X-2762097Y-2956763D01*
X-2759811Y-2951581D01*
X-2758541Y-2946298D01*
X-2758236Y-2940964D01*
X-2758948Y-2935579D01*
X-2760675Y-2930194D01*
X-2763418Y-2924810D01*
X-2767126Y-2919476D01*
X-2771902Y-2914142D01*
X-2778556Y-2908096D01*
X-2781808Y-2905760D01*
X-2785313Y-2903829D01*
X-2789224Y-2902356D01*
X-2793796Y-2901137D01*
X-2799232Y-2900273D01*
X-2805734Y-2899664D01*
X-2822702Y-2899003D01*
G37*
G36*
X-2575001Y-2898851D02*
G01*
X-2622753Y-2899156D01*
X-2630525Y-2899410D01*
X-2636418Y-2899867D01*
X-2640482Y-2900527D01*
X-2642819Y-2901391D01*
X-2643530Y-2902458D01*
X-2642666Y-2903778D01*
X-2638704Y-2906522D01*
X-2637231Y-2907792D01*
X-2635910Y-2909417D01*
X-2634742Y-2911398D01*
X-2633776Y-2913786D01*
X-2632151Y-2920339D01*
X-2631033Y-2929636D01*
X-2630322Y-2942285D01*
X-2629916Y-2958998D01*
X-2629712Y-2980436D01*
X-2629763Y-3017062D01*
X-2630068Y-3036011D01*
X-2630627Y-3050641D01*
X-2631541Y-3061563D01*
X-2632151Y-3065830D01*
X-2633776Y-3072333D01*
X-2634742Y-3074771D01*
X-2635910Y-3076752D01*
X-2637231Y-3078327D01*
X-2638704Y-3079648D01*
X-2642666Y-3082340D01*
X-2643428Y-3083661D01*
X-2642666Y-3084779D01*
X-2640177Y-3085642D01*
X-2635961Y-3086252D01*
X-2629916Y-3086709D01*
X-2611831Y-3087116D01*
X-2591206Y-3086963D01*
X-2584856Y-3086557D01*
X-2580944Y-3085846D01*
X-2579166Y-3084830D01*
X-2579319Y-3083306D01*
X-2581148Y-3081274D01*
X-2586888Y-3076702D01*
X-2588971Y-3074466D01*
X-2590749Y-3071723D01*
X-2592273Y-3068370D01*
X-2593543Y-3064205D01*
X-2594610Y-3059023D01*
X-2595473Y-3052673D01*
X-2596235Y-3044952D01*
X-2597353Y-3024784D01*
X-2598318Y-2997098D01*
X-2599080Y-2957017D01*
X-2598826Y-2943555D01*
X-2598064Y-2933446D01*
X-2597454Y-2929432D01*
X-2596642Y-2925978D01*
X-2595676Y-2922981D01*
X-2594508Y-2920339D01*
X-2593136Y-2917952D01*
X-2589733Y-2913634D01*
G37*
G36*
X-2482850Y-2898851D02*
G01*
X-2504033Y-2898952D01*
X-2519578Y-2899257D01*
X-2530043Y-2899867D01*
X-2533650Y-2900324D01*
X-2536190Y-2900883D01*
X-2537866Y-2901594D01*
X-2538628Y-2902458D01*
X-2538679Y-2903474D01*
X-2538069Y-2904693D01*
X-2535072Y-2907690D01*
X-2530703Y-2911348D01*
X-2527147Y-2915056D01*
X-2525725Y-2917190D01*
X-2524506Y-2919628D01*
X-2523490Y-2922422D01*
X-2522677Y-2925775D01*
X-2521508Y-2934411D01*
X-2521000Y-2946298D01*
X-2520950Y-2962351D01*
X-2521864Y-3008985D01*
X-2522524Y-3030474D01*
X-2523286Y-3046577D01*
X-2524404Y-3058210D01*
X-2525115Y-3062630D01*
X-2526030Y-3066288D01*
X-2527096Y-3069234D01*
X-2528366Y-3071672D01*
X-2529840Y-3073654D01*
X-2533599Y-3076752D01*
X-2542184Y-3081629D01*
X-2543048Y-3082594D01*
X-2543200Y-3083407D01*
X-2542540Y-3084118D01*
X-2541066Y-3084728D01*
X-2538679Y-3085287D01*
X-2530957Y-3086150D01*
X-2518968Y-3086709D01*
X-2480208Y-3087166D01*
X-2455367Y-3087217D01*
X-2418080Y-3086658D01*
X-2404770Y-3086049D01*
X-2394610Y-3085134D01*
X-2387396Y-3084017D01*
X-2382824Y-3082544D01*
X-2381453Y-3081680D01*
X-2380640Y-3080715D01*
X-2380386Y-3079699D01*
X-2380030Y-3075533D01*
X-2379167Y-3069844D01*
X-2376373Y-3056890D01*
X-2372461Y-3041700D01*
X-2389174Y-3058109D01*
X-2393086Y-3061614D01*
X-2397556Y-3064865D01*
X-2402382Y-3067812D01*
X-2407615Y-3070504D01*
X-2413152Y-3072892D01*
X-2418943Y-3074974D01*
X-2424887Y-3076752D01*
X-2430932Y-3078175D01*
X-2437028Y-3079292D01*
X-2443073Y-3080004D01*
X-2449068Y-3080359D01*
X-2454859Y-3080308D01*
X-2460447Y-3079902D01*
X-2465730Y-3079038D01*
X-2470658Y-3077768D01*
X-2475179Y-3076041D01*
X-2479649Y-3073755D01*
X-2483154Y-3071266D01*
X-2485745Y-3068167D01*
X-2487574Y-3064002D01*
X-2488793Y-3058414D01*
X-2489504Y-3050946D01*
X-2489911Y-3028899D01*
X-2489911Y-2988513D01*
X-2470150Y-2992424D01*
X-2461615Y-2995015D01*
X-2453081Y-2999181D01*
X-2445512Y-3004362D01*
X-2439873Y-3009900D01*
X-2436469Y-3014218D01*
X-2433878Y-3016961D01*
X-2431999Y-3017977D01*
X-2430729Y-3016961D01*
X-2429967Y-3013608D01*
X-2429510Y-3007817D01*
X-2429103Y-2951784D01*
X-2443988Y-2967888D01*
X-2451201Y-2974340D01*
X-2459177Y-2979470D01*
X-2467254Y-2982772D01*
X-2474722Y-2983941D01*
X-2479802Y-2983839D01*
X-2483662Y-2983280D01*
X-2486406Y-2981756D01*
X-2488184Y-2978962D01*
X-2489098Y-2974390D01*
X-2489403Y-2967634D01*
X-2488641Y-2945942D01*
X-2486863Y-2907944D01*
X-2463292Y-2906014D01*
X-2456281Y-2905709D01*
X-2449322Y-2905912D01*
X-2442514Y-2906572D01*
X-2435860Y-2907741D01*
X-2429510Y-2909316D01*
X-2423363Y-2911348D01*
X-2417572Y-2913786D01*
X-2412187Y-2916580D01*
X-2407208Y-2919780D01*
X-2402738Y-2923336D01*
X-2398776Y-2927248D01*
X-2395423Y-2931414D01*
X-2386533Y-2944114D01*
X-2386584Y-2926588D01*
X-2386939Y-2918917D01*
X-2387447Y-2915666D01*
X-2388158Y-2912821D01*
X-2389225Y-2910281D01*
X-2390648Y-2908096D01*
X-2392527Y-2906166D01*
X-2394915Y-2904540D01*
X-2397810Y-2903220D01*
X-2401316Y-2902051D01*
X-2405532Y-2901137D01*
X-2416149Y-2899867D01*
X-2430119Y-2899206D01*
X-2447899Y-2898902D01*
G37*
G36*
X-2264511Y-2899105D02*
G01*
X-2309774Y-2899410D01*
X-2325217Y-2899816D01*
X-2335834Y-2900426D01*
X-2342184Y-2901442D01*
X-2343962Y-2902102D01*
X-2344877Y-2902864D01*
X-2345029Y-2903778D01*
X-2344470Y-2904845D01*
X-2341626Y-2907436D01*
X-2336444Y-2911246D01*
X-2333955Y-2913481D01*
X-2331872Y-2916021D01*
X-2330196Y-2919069D01*
X-2328824Y-2922879D01*
X-2327757Y-2927654D01*
X-2326995Y-2933598D01*
X-2326436Y-2941015D01*
X-2325878Y-2961081D01*
X-2325776Y-2989630D01*
X-2325979Y-3013862D01*
X-2326690Y-3033369D01*
X-2327249Y-3041548D01*
X-2328062Y-3048711D01*
X-2329027Y-3055010D01*
X-2330196Y-3060446D01*
X-2331669Y-3065119D01*
X-2333345Y-3069132D01*
X-2335326Y-3072587D01*
X-2337612Y-3075432D01*
X-2340203Y-3077870D01*
X-2343150Y-3079902D01*
X-2346401Y-3081629D01*
X-2350058Y-3083102D01*
X-2350566Y-3083509D01*
X-2349500Y-3083966D01*
X-2343251Y-3084779D01*
X-2332075Y-3085541D01*
X-2316632Y-3086150D01*
X-2275992Y-3086811D01*
X-2253843Y-3086760D01*
X-2233676Y-3086455D01*
X-2216454Y-3085795D01*
X-2202891Y-3084982D01*
X-2193848Y-3083915D01*
X-2191308Y-3083356D01*
X-2190191Y-3082747D01*
X-2188870Y-3079546D01*
X-2187092Y-3074162D01*
X-2183282Y-3059938D01*
X-2178913Y-3041700D01*
X-2196388Y-3058363D01*
X-2200503Y-3061868D01*
X-2205075Y-3065119D01*
X-2210104Y-3068116D01*
X-2215438Y-3070809D01*
X-2221128Y-3073196D01*
X-2227021Y-3075279D01*
X-2233066Y-3077057D01*
X-2239162Y-3078429D01*
X-2245309Y-3079496D01*
X-2251354Y-3080156D01*
X-2257247Y-3080461D01*
X-2262936Y-3080359D01*
X-2268372Y-3079851D01*
X-2273452Y-3078886D01*
X-2278126Y-3077464D01*
X-2282291Y-3075635D01*
X-2286101Y-3073298D01*
X-2289098Y-3070606D01*
X-2291384Y-3067304D01*
X-2293061Y-3062935D01*
X-2294229Y-3057347D01*
X-2294890Y-3050032D01*
X-2295245Y-3040837D01*
X-2295296Y-3019552D01*
X-2295042Y-3011373D01*
X-2294483Y-3004616D01*
X-2293569Y-2999282D01*
X-2292197Y-2995269D01*
X-2290267Y-2992424D01*
X-2287727Y-2990748D01*
X-2284425Y-2990088D01*
X-2280310Y-2990342D01*
X-2275332Y-2991459D01*
X-2269388Y-2993390D01*
X-2262327Y-2995980D01*
X-2256282Y-2998978D01*
X-2251303Y-3002889D01*
X-2247950Y-3007106D01*
X-2246731Y-3011170D01*
X-2246325Y-3014776D01*
X-2245309Y-3017723D01*
X-2243734Y-3019704D01*
X-2241854Y-3020415D01*
X-2239975Y-3017774D01*
X-2238502Y-3010611D01*
X-2237536Y-2999994D01*
X-2237282Y-2986989D01*
X-2237790Y-2974035D01*
X-2238857Y-2963367D01*
X-2240381Y-2956204D01*
X-2242159Y-2953562D01*
X-2243937Y-2954020D01*
X-2245410Y-2955239D01*
X-2246376Y-2957017D01*
X-2247595Y-2963367D01*
X-2249982Y-2967583D01*
X-2253589Y-2971749D01*
X-2258161Y-2975610D01*
X-2263444Y-2978962D01*
X-2269134Y-2981604D01*
X-2274925Y-2983331D01*
X-2280615Y-2983941D01*
X-2285288Y-2983788D01*
X-2288844Y-2983077D01*
X-2291486Y-2981401D01*
X-2293264Y-2978353D01*
X-2294432Y-2973527D01*
X-2295042Y-2966567D01*
X-2295347Y-2944418D01*
X-2295347Y-2904947D01*
X-2266340Y-2904947D01*
X-2259330Y-2905150D01*
X-2252573Y-2905760D01*
X-2246122Y-2906826D01*
X-2239924Y-2908249D01*
X-2233980Y-2910179D01*
X-2228291Y-2912465D01*
X-2222906Y-2915158D01*
X-2217775Y-2918307D01*
X-2212898Y-2921863D01*
X-2208276Y-2925826D01*
X-2203907Y-2930245D01*
X-2195931Y-2939491D01*
X-2193645Y-2940507D01*
X-2192578Y-2937814D01*
X-2192172Y-2926740D01*
X-2192477Y-2919018D01*
X-2192883Y-2915767D01*
X-2193594Y-2912872D01*
X-2194610Y-2910332D01*
X-2196033Y-2908147D01*
X-2197912Y-2906217D01*
X-2200300Y-2904591D01*
X-2203246Y-2903270D01*
X-2206802Y-2902153D01*
X-2211019Y-2901238D01*
X-2221738Y-2899968D01*
X-2235911Y-2899359D01*
G37*
G36*
X-2070760Y-2899206D02*
G01*
X-2114397Y-2899562D01*
X-2140712Y-2900578D01*
X-2148382Y-2901391D01*
X-2152751Y-2902458D01*
X-2153818Y-2903067D01*
X-2154123Y-2903728D01*
X-2153716Y-2904490D01*
X-2152650Y-2905353D01*
X-2146604Y-2908655D01*
X-2144826Y-2910027D01*
X-2143302Y-2911652D01*
X-2141982Y-2913684D01*
X-2140864Y-2916174D01*
X-2139950Y-2919272D01*
X-2138629Y-2927756D01*
X-2137816Y-2939999D01*
X-2137460Y-2956966D01*
X-2137359Y-3018688D01*
X-2137613Y-3038297D01*
X-2138172Y-3052775D01*
X-2139238Y-3063036D01*
X-2139950Y-3066846D01*
X-2140864Y-3069996D01*
X-2141982Y-3072485D01*
X-2143302Y-3074466D01*
X-2144826Y-3076143D01*
X-2146604Y-3077514D01*
X-2152650Y-3080816D01*
X-2153666Y-3081629D01*
X-2154021Y-3082391D01*
X-2153666Y-3083102D01*
X-2152548Y-3083712D01*
X-2150668Y-3084271D01*
X-2144420Y-3085185D01*
X-2134666Y-3085896D01*
X-2103577Y-3086709D01*
X-2057603Y-3086963D01*
X-2038197Y-3086760D01*
X-2023008Y-3086201D01*
X-2016810Y-3085693D01*
X-2011476Y-3084982D01*
X-2006955Y-3084118D01*
X-2003196Y-3083001D01*
X-2000046Y-3081629D01*
X-1997557Y-3080054D01*
X-1995576Y-3078124D01*
X-1994052Y-3075940D01*
X-1992985Y-3073400D01*
X-1992274Y-3070504D01*
X-1991817Y-3067202D01*
X-1991563Y-3059430D01*
X-1991868Y-3047898D01*
X-1992731Y-3045358D01*
X-1994712Y-3047085D01*
X-1998319Y-3052927D01*
X-2000859Y-3056585D01*
X-2004110Y-3060039D01*
X-2007971Y-3063240D01*
X-2012391Y-3066288D01*
X-2017268Y-3069031D01*
X-2022551Y-3071520D01*
X-2028189Y-3073755D01*
X-2034082Y-3075736D01*
X-2040128Y-3077362D01*
X-2046274Y-3078683D01*
X-2052472Y-3079699D01*
X-2058619Y-3080359D01*
X-2064613Y-3080664D01*
X-2070455Y-3080613D01*
X-2076043Y-3080156D01*
X-2081275Y-3079292D01*
X-2086102Y-3078073D01*
X-2090420Y-3076346D01*
X-2094230Y-3074263D01*
X-2097379Y-3071672D01*
X-2099665Y-3068828D01*
X-2101596Y-3065272D01*
X-2103272Y-3060852D01*
X-2104593Y-3055670D01*
X-2105609Y-3049625D01*
X-2106320Y-3042666D01*
X-2106777Y-3034842D01*
X-2106879Y-3014624D01*
X-2106574Y-3005886D01*
X-2105914Y-2999486D01*
X-2104745Y-2995117D01*
X-2102866Y-2992323D01*
X-2100122Y-2990799D01*
X-2096363Y-2990189D01*
X-2091436Y-2990037D01*
X-2084273Y-2991205D01*
X-2076145Y-2994406D01*
X-2068068Y-2999181D01*
X-2061057Y-3004972D01*
X-2046122Y-3019856D01*
X-2046528Y-2950514D01*
X-2058974Y-2967228D01*
X-2065629Y-2974797D01*
X-2072792Y-2979978D01*
X-2080615Y-2982976D01*
X-2089454Y-2983941D01*
X-2107488Y-2983941D01*
X-2103882Y-2907944D01*
X-2058924Y-2908300D01*
X-2050440Y-2908808D01*
X-2043277Y-2909824D01*
X-2037181Y-2911398D01*
X-2031644Y-2913735D01*
X-2026361Y-2916936D01*
X-2020976Y-2921101D01*
X-2006447Y-2933903D01*
X-2001164Y-2937560D01*
X-1998929Y-2937306D01*
X-1999589Y-2933293D01*
X-2001164Y-2928061D01*
X-2002383Y-2922016D01*
X-2003247Y-2915920D01*
X-2003653Y-2908554D01*
X-2003958Y-2906877D01*
X-2004517Y-2905404D01*
X-2005533Y-2904083D01*
X-2007057Y-2902966D01*
X-2009139Y-2902051D01*
X-2011934Y-2901289D01*
X-2015540Y-2900629D01*
X-2025446Y-2899765D01*
X-2039670Y-2899308D01*
G37*
G36*
X-3310280Y-2899257D02*
G01*
X-3325469Y-2899714D01*
X-3329127Y-2900324D01*
X-3330498Y-2901238D01*
X-3329736Y-2902610D01*
X-3327095Y-2904388D01*
X-3319322Y-2908554D01*
X-3316427Y-2910382D01*
X-3314090Y-2912414D01*
X-3312160Y-2914954D01*
X-3310686Y-2918256D01*
X-3309569Y-2922524D01*
X-3308756Y-2928010D01*
X-3308146Y-2934970D01*
X-3307791Y-2943656D01*
X-3307537Y-2967177D01*
X-3307587Y-2994202D01*
X-3307943Y-3014522D01*
X-3308959Y-3031032D01*
X-3309772Y-3037941D01*
X-3310839Y-3044037D01*
X-3312160Y-3049371D01*
X-3313836Y-3054045D01*
X-3315766Y-3058007D01*
X-3318103Y-3061360D01*
X-3320796Y-3064154D01*
X-3323945Y-3066389D01*
X-3327501Y-3068218D01*
X-3331565Y-3069590D01*
X-3336086Y-3070656D01*
X-3341166Y-3071368D01*
X-3346856Y-3071825D01*
X-3359962Y-3072079D01*
X-3370834Y-3071825D01*
X-3380181Y-3070809D01*
X-3384346Y-3069996D01*
X-3388106Y-3068980D01*
X-3391560Y-3067608D01*
X-3394710Y-3065983D01*
X-3397554Y-3064052D01*
X-3400145Y-3061766D01*
X-3402431Y-3059125D01*
X-3404463Y-3056077D01*
X-3406241Y-3052622D01*
X-3407816Y-3048762D01*
X-3409187Y-3044393D01*
X-3411270Y-3034233D01*
X-3412693Y-3021939D01*
X-3413506Y-3007309D01*
X-3413861Y-2990138D01*
X-3413861Y-2967126D01*
X-3413556Y-2946044D01*
X-3413201Y-2938018D01*
X-3412591Y-2931363D01*
X-3411829Y-2925978D01*
X-3410762Y-2921609D01*
X-3409442Y-2918053D01*
X-3407765Y-2915158D01*
X-3405733Y-2912668D01*
X-3403295Y-2910484D01*
X-3396386Y-2905353D01*
X-3393998Y-2903118D01*
X-3393643Y-2901442D01*
X-3395573Y-2900324D01*
X-3400094Y-2899664D01*
X-3407511Y-2899410D01*
X-3432301Y-2899562D01*
X-3449065Y-2900070D01*
X-3461156Y-2900883D01*
X-3465118Y-2901391D01*
X-3467455Y-2901950D01*
X-3468014Y-2902508D01*
X-3463747Y-2904134D01*
X-3461004Y-2905658D01*
X-3458464Y-2907639D01*
X-3456178Y-2910179D01*
X-3454146Y-2913278D01*
X-3452317Y-2916986D01*
X-3450691Y-2921304D01*
X-3449269Y-2926232D01*
X-3448050Y-2931922D01*
X-3446983Y-2938272D01*
X-3446119Y-2945384D01*
X-3444951Y-2961944D01*
X-3444392Y-2981858D01*
X-3443884Y-3024022D01*
X-3442817Y-3037992D01*
X-3441954Y-3043478D01*
X-3440836Y-3048203D01*
X-3439414Y-3052368D01*
X-3437686Y-3056077D01*
X-3435553Y-3059582D01*
X-3433064Y-3063036D01*
X-3430117Y-3066592D01*
X-3425901Y-3071164D01*
X-3421634Y-3074924D01*
X-3417062Y-3077972D01*
X-3411982Y-3080410D01*
X-3406140Y-3082340D01*
X-3399282Y-3083814D01*
X-3391154Y-3084982D01*
X-3381552Y-3085947D01*
X-3368040Y-3086658D01*
X-3361740Y-3086709D01*
X-3355797Y-3086506D01*
X-3344773Y-3085388D01*
X-3339693Y-3084474D01*
X-3330448Y-3081832D01*
X-3326282Y-3080105D01*
X-3322320Y-3078124D01*
X-3318662Y-3075889D01*
X-3315309Y-3073349D01*
X-3312160Y-3070504D01*
X-3309264Y-3067405D01*
X-3306622Y-3064002D01*
X-3304235Y-3060293D01*
X-3302101Y-3056280D01*
X-3300171Y-3051911D01*
X-3298444Y-3047288D01*
X-3296970Y-3042310D01*
X-3295700Y-3036976D01*
X-3293770Y-3025394D01*
X-3292652Y-3012389D01*
X-3291941Y-2976372D01*
X-3291078Y-2958033D01*
X-3290468Y-2950057D01*
X-3288690Y-2936240D01*
X-3287522Y-2930347D01*
X-3286201Y-2925165D01*
X-3284728Y-2920542D01*
X-3283051Y-2916580D01*
X-3281172Y-2913176D01*
X-3279140Y-2910332D01*
X-3276854Y-2907995D01*
X-3274364Y-2906166D01*
X-3269081Y-2903524D01*
X-3268116Y-2902407D01*
X-3268827Y-2901492D01*
X-3271164Y-2900781D01*
X-3275279Y-2900172D01*
X-3288893Y-2899460D01*
G37*
G36*
X-3144418Y-2899359D02*
G01*
X-3151530Y-2899410D01*
X-3158794Y-2899765D01*
X-3166059Y-2900578D01*
X-3173171Y-2901746D01*
X-3180029Y-2903270D01*
X-3186531Y-2905201D01*
X-3192526Y-2907487D01*
X-3197250Y-2909722D01*
X-3201771Y-2912313D01*
X-3206089Y-2915158D01*
X-3210306Y-2918307D01*
X-3218078Y-2925419D01*
X-3225038Y-2933496D01*
X-3231134Y-2942386D01*
X-3233826Y-2947111D01*
X-3236264Y-2951937D01*
X-3238500Y-2956966D01*
X-3240430Y-2962097D01*
X-3242106Y-2967329D01*
X-3243529Y-2972663D01*
X-3244646Y-2978048D01*
X-3245459Y-2983484D01*
X-3246018Y-2988970D01*
X-3246170Y-2999994D01*
X-3245764Y-3005531D01*
X-3245053Y-3011017D01*
X-3243986Y-3016453D01*
X-3242614Y-3021736D01*
X-3240938Y-3026816D01*
X-3239008Y-3031744D01*
X-3236823Y-3036468D01*
X-3231743Y-3045358D01*
X-3225749Y-3053435D01*
X-3218891Y-3060750D01*
X-3211372Y-3067202D01*
X-3203244Y-3072841D01*
X-3194558Y-3077565D01*
X-3185464Y-3081375D01*
X-3176016Y-3084322D01*
X-3171190Y-3085439D01*
X-3166313Y-3086303D01*
X-3156458Y-3087268D01*
X-3151479Y-3087420D01*
X-3141573Y-3086912D01*
X-3131718Y-3085388D01*
X-3126841Y-3084220D01*
X-3117291Y-3081121D01*
X-3112617Y-3079140D01*
X-3108045Y-3076905D01*
X-3103575Y-3074365D01*
X-3099206Y-3071571D01*
X-3094990Y-3068472D01*
X-3090875Y-3065119D01*
X-3086912Y-3061462D01*
X-3083102Y-3057499D01*
X-3078937Y-3052165D01*
X-3076143Y-3047238D01*
X-3074974Y-3043123D01*
X-3075686Y-3040532D01*
X-3078022Y-3039922D01*
X-3081324Y-3041446D01*
X-3085134Y-3044698D01*
X-3091383Y-3052267D01*
X-3094431Y-3055162D01*
X-3098139Y-3058007D01*
X-3102356Y-3060801D01*
X-3106928Y-3063443D01*
X-3111703Y-3065830D01*
X-3116630Y-3067913D01*
X-3121456Y-3069590D01*
X-3126435Y-3070910D01*
X-3131362Y-3071825D01*
X-3136188Y-3072333D01*
X-3140913Y-3072485D01*
X-3145536Y-3072333D01*
X-3150057Y-3071774D01*
X-3154426Y-3070910D01*
X-3158744Y-3069742D01*
X-3162909Y-3068269D01*
X-3166922Y-3066491D01*
X-3170834Y-3064459D01*
X-3174593Y-3062173D01*
X-3181654Y-3056788D01*
X-3188055Y-3050540D01*
X-3191052Y-3047085D01*
X-3196437Y-3039668D01*
X-3201060Y-3031540D01*
X-3203092Y-3027324D01*
X-3206546Y-3018434D01*
X-3207969Y-3013862D01*
X-3210102Y-3004413D01*
X-3210814Y-2999638D01*
X-3211525Y-2989884D01*
X-3211525Y-2984957D01*
X-3210712Y-2975152D01*
X-3208832Y-2965399D01*
X-3207512Y-2960573D01*
X-3205886Y-2955798D01*
X-3203956Y-2951124D01*
X-3201720Y-2946501D01*
X-3199180Y-2941980D01*
X-3196386Y-2937560D01*
X-3193237Y-2933242D01*
X-3189782Y-2929077D01*
X-3186023Y-2925064D01*
X-3181705Y-2921000D01*
X-3177133Y-2917240D01*
X-3172460Y-2913837D01*
X-3167786Y-2910840D01*
X-3163316Y-2908401D01*
X-3159150Y-2906522D01*
X-3155442Y-2905353D01*
X-3152292Y-2904947D01*
X-3147212Y-2905353D01*
X-3141776Y-2906572D01*
X-3135985Y-2908554D01*
X-3130092Y-2911144D01*
X-3124149Y-2914294D01*
X-3118307Y-2917952D01*
X-3112617Y-2922066D01*
X-3107283Y-2926435D01*
X-3102356Y-2931109D01*
X-3097987Y-2935935D01*
X-3094228Y-2940862D01*
X-3091332Y-2945790D01*
X-3082747Y-2962656D01*
X-3080766Y-2933141D01*
X-3080207Y-2921914D01*
X-3080156Y-2913126D01*
X-3080715Y-2906623D01*
X-3081883Y-2902356D01*
X-3083763Y-2900121D01*
X-3086404Y-2899816D01*
X-3089859Y-2901289D01*
X-3094228Y-2904490D01*
X-3099003Y-2907538D01*
X-3103829Y-2908706D01*
X-3109112Y-2907995D01*
X-3119780Y-2903372D01*
X-3125114Y-2901746D01*
X-3131108Y-2900578D01*
X-3137560Y-2899765D01*
G37*
G36*
X-3007309Y-2899613D02*
G01*
X-3012897Y-2899765D01*
X-3017672Y-2900222D01*
X-3021838Y-2901035D01*
X-3025546Y-2902305D01*
X-3029000Y-2904083D01*
X-3032353Y-2906369D01*
X-3035808Y-2909214D01*
X-3043783Y-2916834D01*
X-3048914Y-2922168D01*
X-3052978Y-2926892D01*
X-3055975Y-2931160D01*
X-3058058Y-2935173D01*
X-3059277Y-2939084D01*
X-3059684Y-2943098D01*
X-3059379Y-2947416D01*
X-3058414Y-2952140D01*
X-3056890Y-2957779D01*
X-3055264Y-2962656D01*
X-3053435Y-2967024D01*
X-3051251Y-2970834D01*
X-3048609Y-2974340D01*
X-3045409Y-2977540D01*
X-3041548Y-2980537D01*
X-3036874Y-2983484D01*
X-3031286Y-2986430D01*
X-3016910Y-2992831D01*
X-3000705Y-2999435D01*
X-2986684Y-3005683D01*
X-2974441Y-3011881D01*
X-2969412Y-3014675D01*
X-2965399Y-3017215D01*
X-2962554Y-3019298D01*
X-2958693Y-3023260D01*
X-2955798Y-3027680D01*
X-2953816Y-3032404D01*
X-2952750Y-3037332D01*
X-2952496Y-3042462D01*
X-2953054Y-3047593D01*
X-2954324Y-3052724D01*
X-2956306Y-3057702D01*
X-2958947Y-3062427D01*
X-2962198Y-3066846D01*
X-2966059Y-3070860D01*
X-2970377Y-3074314D01*
X-2975203Y-3077210D01*
X-2980436Y-3079394D01*
X-2986074Y-3080766D01*
X-2992018Y-3081223D01*
X-2996387Y-3080613D01*
X-3001365Y-3078886D01*
X-3006902Y-3076244D01*
X-3012744Y-3072739D01*
X-3018739Y-3068574D01*
X-3024682Y-3063849D01*
X-3030474Y-3058769D01*
X-3035909Y-3053435D01*
X-3040735Y-3048050D01*
X-3044901Y-3042666D01*
X-3048203Y-3037433D01*
X-3052013Y-3028696D01*
X-3053537Y-3026257D01*
X-3055010Y-3025190D01*
X-3056331Y-3025394D01*
X-3057499Y-3026765D01*
X-3058464Y-3029153D01*
X-3059226Y-3032556D01*
X-3059734Y-3036773D01*
X-3059938Y-3041751D01*
X-3059836Y-3047339D01*
X-3059379Y-3053486D01*
X-3058566Y-3060039D01*
X-3056229Y-3072688D01*
X-3053689Y-3080410D01*
X-3050743Y-3083509D01*
X-3047238Y-3082340D01*
X-3043478Y-3080512D01*
X-3038602Y-3079750D01*
X-3033166Y-3080105D01*
X-3027883Y-3081528D01*
X-3021685Y-3083661D01*
X-3015132Y-3085236D01*
X-3008426Y-3086252D01*
X-3001467Y-3086709D01*
X-2994507Y-3086608D01*
X-2987497Y-3086049D01*
X-2980537Y-3085033D01*
X-2973781Y-3083509D01*
X-2967177Y-3081578D01*
X-2960928Y-3079191D01*
X-2955036Y-3076448D01*
X-2949600Y-3073298D01*
X-2944672Y-3069742D01*
X-2940354Y-3065881D01*
X-2936748Y-3061716D01*
X-2933852Y-3057245D01*
X-2931566Y-3052318D01*
X-2929839Y-3047136D01*
X-2928620Y-3041802D01*
X-2927908Y-3036316D01*
X-2927756Y-3030880D01*
X-2928061Y-3025444D01*
X-2928874Y-3020161D01*
X-2930194Y-3015132D01*
X-2932023Y-3010357D01*
X-2934258Y-3005937D01*
X-2937002Y-3001975D01*
X-2940202Y-2998571D01*
X-2943453Y-2995930D01*
X-2948025Y-2992882D01*
X-2953664Y-2989478D01*
X-2967228Y-2982264D01*
X-2982518Y-2975051D01*
X-3000908Y-2967329D01*
X-3009442Y-2963418D01*
X-3016097Y-2959811D01*
X-3021177Y-2956407D01*
X-3024835Y-2952953D01*
X-3027324Y-2949295D01*
X-3028899Y-2945231D01*
X-3029712Y-2940608D01*
X-3030067Y-2934919D01*
X-3029610Y-2929737D01*
X-3028543Y-2925064D01*
X-3026816Y-2920898D01*
X-3024530Y-2917291D01*
X-3021736Y-2914192D01*
X-3018485Y-2911652D01*
X-3014776Y-2909620D01*
X-3010712Y-2908147D01*
X-3006293Y-2907284D01*
X-3001670Y-2906979D01*
X-2996793Y-2907233D01*
X-2991764Y-2908046D01*
X-2986582Y-2909468D01*
X-2981401Y-2911500D01*
X-2976168Y-2914091D01*
X-2970936Y-2917342D01*
X-2965856Y-2921152D01*
X-2960878Y-2925622D01*
X-2956102Y-2930702D01*
X-2939034Y-2950514D01*
X-2942793Y-2903423D01*
X-2992983Y-2900172D01*
G37*
G36*
X-3869029Y-2954324D02*
G01*
X-3873398Y-2955340D01*
X-3878376Y-2957474D01*
X-3884472Y-2960776D01*
X-3900271Y-2970530D01*
X-3906723Y-2975254D01*
X-3911396Y-2979572D01*
X-3914495Y-2983687D01*
X-3916019Y-2987802D01*
X-3916121Y-2992069D01*
X-3914952Y-2996742D01*
X-3912514Y-3001924D01*
X-3910787Y-3004566D01*
X-3908501Y-3007106D01*
X-3905656Y-3009493D01*
X-3902303Y-3011830D01*
X-3898493Y-3014014D01*
X-3889603Y-3018078D01*
X-3879138Y-3021685D01*
X-3867454Y-3024733D01*
X-3854754Y-3027273D01*
X-3841343Y-3029254D01*
X-3827424Y-3030626D01*
X-3813301Y-3031439D01*
X-3799179Y-3031591D01*
X-3785362Y-3031083D01*
X-3772052Y-3029864D01*
X-3759555Y-3027984D01*
X-3753713Y-3026765D01*
X-3748125Y-3025343D01*
X-3742893Y-3023717D01*
X-3737965Y-3021888D01*
X-3733495Y-3019907D01*
X-3726840Y-3016402D01*
X-3721150Y-3012948D01*
X-3716477Y-3009442D01*
X-3712768Y-3005988D01*
X-3710076Y-3002483D01*
X-3708298Y-2998876D01*
X-3707536Y-2995269D01*
X-3707739Y-2991561D01*
X-3708857Y-2987751D01*
X-3710940Y-2983839D01*
X-3713987Y-2979826D01*
X-3717950Y-2975610D01*
X-3725062Y-2969717D01*
X-3733342Y-2964281D01*
X-3741724Y-2959963D01*
X-3749192Y-2957372D01*
X-3757523Y-2955798D01*
X-3761943Y-2956458D01*
X-3763213Y-2959709D01*
X-3762095Y-2966110D01*
X-3760063Y-2971190D01*
X-3757320Y-2974441D01*
X-3753815Y-2975762D01*
X-3745484Y-2974187D01*
X-3741115Y-2974594D01*
X-3736797Y-2976067D01*
X-3732784Y-2978454D01*
X-3729228Y-2981655D01*
X-3726434Y-2985414D01*
X-3724605Y-2989630D01*
X-3723944Y-2994152D01*
X-3724452Y-2996844D01*
X-3725926Y-2999486D01*
X-3728262Y-3002026D01*
X-3731463Y-3004413D01*
X-3735374Y-3006699D01*
X-3739946Y-3008833D01*
X-3745179Y-3010865D01*
X-3750919Y-3012694D01*
X-3757117Y-3014370D01*
X-3770680Y-3017164D01*
X-3785209Y-3019145D01*
X-3800144Y-3020263D01*
X-3807612Y-3020517D01*
X-3822192Y-3020212D01*
X-3829100Y-3019653D01*
X-3835755Y-3018840D01*
X-3841953Y-3017723D01*
X-3847744Y-3016300D01*
X-3852976Y-3014624D01*
X-3857599Y-3012592D01*
X-3862882Y-3009595D01*
X-3867150Y-3006496D01*
X-3870502Y-3003245D01*
X-3872839Y-2999994D01*
X-3874262Y-2996641D01*
X-3874719Y-2993339D01*
X-3874160Y-2990088D01*
X-3872687Y-2986836D01*
X-3870248Y-2983788D01*
X-3866845Y-2980791D01*
X-3862476Y-2978048D01*
X-3857142Y-2975457D01*
X-3846372Y-2970682D01*
X-3842004Y-2967431D01*
X-3843477Y-2964383D01*
X-3850233Y-2960370D01*
X-3855923Y-2957423D01*
X-3860698Y-2955391D01*
X-3864965Y-2954375D01*
G37*
G36*
X-2945638Y-2233218D02*
G01*
X-2957423Y-2233574D01*
X-2969006Y-2234590D01*
X-2980283Y-2236216D01*
X-2991256Y-2238502D01*
X-3001924Y-2241448D01*
X-3012287Y-2244953D01*
X-3022244Y-2249017D01*
X-3031896Y-2253691D01*
X-3041192Y-2258923D01*
X-3050082Y-2264714D01*
X-3058566Y-2271014D01*
X-3066592Y-2277821D01*
X-3074212Y-2285136D01*
X-3081324Y-2292908D01*
X-3088030Y-2301138D01*
X-3094177Y-2309876D01*
X-3099866Y-2318969D01*
X-3104997Y-2328519D01*
X-3109620Y-2338476D01*
X-3113633Y-2348839D01*
X-3117088Y-2359558D01*
X-3119983Y-2370632D01*
X-3122269Y-2382012D01*
X-3123895Y-2393746D01*
X-3124860Y-2405837D01*
X-3125216Y-2418130D01*
X-3124911Y-2430678D01*
X-3123946Y-2442870D01*
X-3122371Y-2454757D01*
X-3120186Y-2466289D01*
X-3117392Y-2477414D01*
X-3114040Y-2488184D01*
X-3110128Y-2498547D01*
X-3105658Y-2508504D01*
X-3100628Y-2518054D01*
X-3095091Y-2527147D01*
X-3089046Y-2535783D01*
X-3082493Y-2544013D01*
X-3075432Y-2551734D01*
X-3067913Y-2558948D01*
X-3059938Y-2565704D01*
X-3051505Y-2571902D01*
X-3042666Y-2577592D01*
X-3033369Y-2582773D01*
X-3023717Y-2587345D01*
X-3013608Y-2591358D01*
X-3003143Y-2594813D01*
X-2992323Y-2597658D01*
X-2981147Y-2599893D01*
X-2969615Y-2601518D01*
X-2957779Y-2602484D01*
X-2945638Y-2602788D01*
X-2938627Y-2602738D01*
X-2924759Y-2601976D01*
X-2917901Y-2601366D01*
X-2904337Y-2599486D01*
X-2890977Y-2596794D01*
X-2877870Y-2593289D01*
X-2871419Y-2591206D01*
X-2858668Y-2586380D01*
X-2846171Y-2580640D01*
X-2839974Y-2577388D01*
X-2838958Y-2499715D01*
X-2867914Y-2499715D01*
X-2881122Y-2566720D01*
X-2888691Y-2570073D01*
X-2896311Y-2572816D01*
X-2903931Y-2575102D01*
X-2911551Y-2576830D01*
X-2919222Y-2578150D01*
X-2926791Y-2579014D01*
X-2934360Y-2579522D01*
X-2941828Y-2579725D01*
X-2953004Y-2579268D01*
X-2963824Y-2578049D01*
X-2974238Y-2575966D01*
X-2984296Y-2573020D01*
X-2989122Y-2571292D01*
X-2998520Y-2567127D01*
X-3003042Y-2564790D01*
X-3011678Y-2559405D01*
X-3015843Y-2556459D01*
X-3023768Y-2549906D01*
X-3031134Y-2542540D01*
X-3037941Y-2534361D01*
X-3044190Y-2525420D01*
X-3049828Y-2515717D01*
X-3054807Y-2505202D01*
X-3057093Y-2499664D01*
X-3061106Y-2487980D01*
X-3064459Y-2475534D01*
X-3067100Y-2462326D01*
X-3069031Y-2448356D01*
X-3069742Y-2441092D01*
X-3070504Y-2426004D01*
X-3070504Y-2410358D01*
X-3070199Y-2402738D01*
X-3068929Y-2388057D01*
X-3066846Y-2374138D01*
X-3064002Y-2360930D01*
X-3060395Y-2348534D01*
X-3058363Y-2342591D01*
X-3053740Y-2331262D01*
X-3048457Y-2320747D01*
X-3042513Y-2310993D01*
X-3036011Y-2302002D01*
X-3028950Y-2293823D01*
X-3021330Y-2286406D01*
X-3013202Y-2279802D01*
X-3004667Y-2274011D01*
X-2995625Y-2269032D01*
X-2986227Y-2264867D01*
X-2976473Y-2261514D01*
X-2966364Y-2258974D01*
X-2955950Y-2257298D01*
X-2945231Y-2256485D01*
X-2933141Y-2256536D01*
X-2926435Y-2257094D01*
X-2919780Y-2258060D01*
X-2913075Y-2259431D01*
X-2906318Y-2261260D01*
X-2899562Y-2263546D01*
X-2892806Y-2266289D01*
X-2885948Y-2269591D01*
X-2872740Y-2337104D01*
X-2843784Y-2337104D01*
X-2844800Y-2259380D01*
X-2851353Y-2255774D01*
X-2864459Y-2249424D01*
X-2870962Y-2246731D01*
X-2884017Y-2242210D01*
X-2896920Y-2238705D01*
X-2909620Y-2236165D01*
X-2922016Y-2234488D01*
X-2934055Y-2233523D01*
G37*
G36*
X-1733296Y-2234234D02*
G01*
X-1747113Y-2236216D01*
X-1760423Y-2238705D01*
X-1773326Y-2241804D01*
X-1785772Y-2245410D01*
X-1797761Y-2249525D01*
X-1809242Y-2254148D01*
X-1820316Y-2259228D01*
X-1830882Y-2264816D01*
X-1840992Y-2270861D01*
X-1850593Y-2277313D01*
X-1859737Y-2284222D01*
X-1868373Y-2291537D01*
X-1876552Y-2299208D01*
X-1884222Y-2307285D01*
X-1891385Y-2315718D01*
X-1898040Y-2324455D01*
X-1904136Y-2333548D01*
X-1909775Y-2342946D01*
X-1914906Y-2352649D01*
X-1919478Y-2362606D01*
X-1923592Y-2372868D01*
X-1927098Y-2383332D01*
X-1930095Y-2394051D01*
X-1932584Y-2404922D01*
X-1934514Y-2416048D01*
X-1935886Y-2427325D01*
X-1936750Y-2438806D01*
X-1936915Y-2443530D01*
X-1890775Y-2443530D01*
X-1890775Y-2433116D01*
X-1885492Y-2428697D01*
X-1880057Y-2424734D01*
X-1874520Y-2421178D01*
X-1868881Y-2418130D01*
X-1863191Y-2415489D01*
X-1857400Y-2413254D01*
X-1851609Y-2411425D01*
X-1845767Y-2409952D01*
X-1839925Y-2408834D01*
X-1834134Y-2408072D01*
X-1828393Y-2407615D01*
X-1822704Y-2407462D01*
X-1817166Y-2407666D01*
X-1811832Y-2408275D01*
X-1806651Y-2409291D01*
X-1801723Y-2410714D01*
X-1797050Y-2412542D01*
X-1792579Y-2414778D01*
X-1788363Y-2417470D01*
X-1784400Y-2420569D01*
X-1780692Y-2424074D01*
X-1777238Y-2428036D01*
X-1774088Y-2432456D01*
X-1771243Y-2437333D01*
X-1768652Y-2442667D01*
X-1766417Y-2448407D01*
X-1764487Y-2454656D01*
X-1762861Y-2461310D01*
X-1761642Y-2468473D01*
X-1760728Y-2476144D01*
X-1760169Y-2484221D01*
X-1759966Y-2492857D01*
X-1760169Y-2501544D01*
X-1760728Y-2509774D01*
X-1761591Y-2517546D01*
X-1762861Y-2524912D01*
X-1764436Y-2531821D01*
X-1766366Y-2538222D01*
X-1768602Y-2544267D01*
X-1771142Y-2549804D01*
X-1773936Y-2554884D01*
X-1777034Y-2559558D01*
X-1780438Y-2563774D01*
X-1784045Y-2567533D01*
X-1787956Y-2570886D01*
X-1792071Y-2573782D01*
X-1796389Y-2576220D01*
X-1800961Y-2578201D01*
X-1805736Y-2579725D01*
X-1810715Y-2580843D01*
X-1815846Y-2581503D01*
X-1821180Y-2581757D01*
X-1825752Y-2581554D01*
X-1830222Y-2581046D01*
X-1834540Y-2580132D01*
X-1838706Y-2578912D01*
X-1842770Y-2577287D01*
X-1846630Y-2575356D01*
X-1850389Y-2573020D01*
X-1853996Y-2570378D01*
X-1857400Y-2567381D01*
X-1860702Y-2564028D01*
X-1863852Y-2560269D01*
X-1866798Y-2556205D01*
X-1869643Y-2551785D01*
X-1872284Y-2547010D01*
X-1874723Y-2541930D01*
X-1877060Y-2536444D01*
X-1881174Y-2524455D01*
X-1884578Y-2511044D01*
X-1887270Y-2496261D01*
X-1889201Y-2480106D01*
X-1890369Y-2462530D01*
X-1890775Y-2443530D01*
X-1936915Y-2443530D01*
X-1937004Y-2450388D01*
X-1936597Y-2465882D01*
X-1935378Y-2480614D01*
X-1933448Y-2494635D01*
X-1930704Y-2507843D01*
X-1927199Y-2520289D01*
X-1925218Y-2526233D01*
X-1920646Y-2537460D01*
X-1915363Y-2547874D01*
X-1912518Y-2552750D01*
X-1909470Y-2557424D01*
X-1902866Y-2566060D01*
X-1895602Y-2573883D01*
X-1891792Y-2577439D01*
X-1883613Y-2583840D01*
X-1874824Y-2589326D01*
X-1870252Y-2591714D01*
X-1865528Y-2593848D01*
X-1860600Y-2595778D01*
X-1850440Y-2598826D01*
X-1845157Y-2599994D01*
X-1834184Y-2601518D01*
X-1828495Y-2601925D01*
X-1816760Y-2601925D01*
X-1810969Y-2601569D01*
X-1805279Y-2600960D01*
X-1799742Y-2600096D01*
X-1794306Y-2598978D01*
X-1783892Y-2596032D01*
X-1774037Y-2592171D01*
X-1764842Y-2587396D01*
X-1760474Y-2584653D01*
X-1752193Y-2578506D01*
X-1744675Y-2571445D01*
X-1737918Y-2563520D01*
X-1734820Y-2559253D01*
X-1731924Y-2554782D01*
X-1726742Y-2545181D01*
X-1722424Y-2534767D01*
X-1720596Y-2529230D01*
X-1717649Y-2517648D01*
X-1716532Y-2511552D01*
X-1715007Y-2498750D01*
X-1714500Y-2485186D01*
X-1714652Y-2478379D01*
X-1715058Y-2471674D01*
X-1716786Y-2458923D01*
X-1718056Y-2452827D01*
X-1721408Y-2441295D01*
X-1723491Y-2435860D01*
X-1725828Y-2430576D01*
X-1728368Y-2425598D01*
X-1731162Y-2420772D01*
X-1734210Y-2416251D01*
X-1737461Y-2411933D01*
X-1740966Y-2407818D01*
X-1744675Y-2404008D01*
X-1752752Y-2397099D01*
X-1757121Y-2394051D01*
X-1761642Y-2391257D01*
X-1766366Y-2388768D01*
X-1771294Y-2386533D01*
X-1776374Y-2384552D01*
X-1781657Y-2382875D01*
X-1787143Y-2381504D01*
X-1792732Y-2380437D01*
X-1798523Y-2379675D01*
X-1804416Y-2379218D01*
X-1815947Y-2379167D01*
X-1821281Y-2379573D01*
X-1826615Y-2380284D01*
X-1831898Y-2381250D01*
X-1837131Y-2382520D01*
X-1842312Y-2384044D01*
X-1847443Y-2385822D01*
X-1852472Y-2387854D01*
X-1862277Y-2392781D01*
X-1867052Y-2395626D01*
X-1876247Y-2402128D01*
X-1880717Y-2405786D01*
X-1889252Y-2413812D01*
X-1887575Y-2401062D01*
X-1885289Y-2388768D01*
X-1882444Y-2376982D01*
X-1878888Y-2365603D01*
X-1874774Y-2354732D01*
X-1869998Y-2344318D01*
X-1864563Y-2334412D01*
X-1858467Y-2324912D01*
X-1851710Y-2315921D01*
X-1844243Y-2307386D01*
X-1836115Y-2299360D01*
X-1827326Y-2291791D01*
X-1817776Y-2284679D01*
X-1807514Y-2278024D01*
X-1796542Y-2271877D01*
X-1784857Y-2266188D01*
X-1772412Y-2261006D01*
X-1759204Y-2256282D01*
X-1745234Y-2252014D01*
X-1730502Y-2248204D01*
G37*
G36*
X-1522476Y-2236012D02*
G01*
X-1675207Y-2454249D01*
X-1652270Y-2454249D01*
X-1535430Y-2285796D01*
X-1535430Y-2454249D01*
X-1675207Y-2454249D01*
X-1678939Y-2459583D01*
X-1678939Y-2485186D01*
X-1535430Y-2485186D01*
X-1535430Y-2595168D01*
X-1493012Y-2595168D01*
X-1493012Y-2485186D01*
X-1437132Y-2485186D01*
X-1437132Y-2454249D01*
X-1493012Y-2454249D01*
X-1493012Y-2236012D01*
G37*
G36*
X-3947668Y-2239060D02*
G01*
X-4021680Y-2457246D01*
X-3999737Y-2457246D01*
X-3945636Y-2293162D01*
X-3890518Y-2457246D01*
X-4021680Y-2457246D01*
X-4059936Y-2570022D01*
X-4102862Y-2576880D01*
X-4102862Y-2595168D01*
X-3985260Y-2595168D01*
X-3985260Y-2576880D01*
X-4036822Y-2570022D01*
X-4006342Y-2477820D01*
X-3883914Y-2477820D01*
X-3852926Y-2570530D01*
X-3904996Y-2576880D01*
X-3904996Y-2595168D01*
X-3761232Y-2595168D01*
X-3761232Y-2576880D01*
X-3802887Y-2572054D01*
X-3916679Y-2239060D01*
G37*
G36*
X-3323082Y-2239060D02*
G01*
X-3397261Y-2457246D01*
X-3375151Y-2457246D01*
X-3321050Y-2293162D01*
X-3266186Y-2457246D01*
X-3397261Y-2457246D01*
X-3435604Y-2570022D01*
X-3478529Y-2576880D01*
X-3478529Y-2595168D01*
X-3360674Y-2595168D01*
X-3360674Y-2576880D01*
X-3412490Y-2570022D01*
X-3382010Y-2477820D01*
X-3259328Y-2477820D01*
X-3228594Y-2570530D01*
X-3280664Y-2576880D01*
X-3280664Y-2595168D01*
X-3136900Y-2595168D01*
X-3136900Y-2576880D01*
X-3178302Y-2572054D01*
X-3292094Y-2239060D01*
G37*
G36*
X-4562856Y-2241346D02*
G01*
X-4562856Y-2259888D01*
X-4514596Y-2265476D01*
X-4515104Y-2570022D01*
X-4562856Y-2576880D01*
X-4562856Y-2595168D01*
X-4444746Y-2595168D01*
X-4444746Y-2576880D01*
X-4490466Y-2570022D01*
X-4490567Y-2399080D01*
X-4493514Y-2292146D01*
X-4369816Y-2595168D01*
X-4347210Y-2595168D01*
X-4228084Y-2291130D01*
X-4228388Y-2488590D01*
X-4228592Y-2523236D01*
X-4229354Y-2571546D01*
X-4275328Y-2576880D01*
X-4275328Y-2595168D01*
X-4131564Y-2595168D01*
X-4131564Y-2576880D01*
X-4180332Y-2571546D01*
X-4180992Y-2507234D01*
X-4180992Y-2334768D01*
X-4180332Y-2264968D01*
X-4131056Y-2259888D01*
X-4131056Y-2241346D01*
X-4232910Y-2241346D01*
X-4347210Y-2534970D01*
X-4466336Y-2241346D01*
G37*
G36*
X-3737101Y-2241346D02*
G01*
X-3737101Y-2259888D01*
X-3687826Y-2264968D01*
X-3687267Y-2317394D01*
X-3687064Y-2432608D01*
X-3638804Y-2432608D01*
X-3638499Y-2309368D01*
X-3637787Y-2262225D01*
X-3596284Y-2262378D01*
X-3588918Y-2262835D01*
X-3581908Y-2263597D01*
X-3575253Y-2264714D01*
X-3568954Y-2266086D01*
X-3563010Y-2267813D01*
X-3557371Y-2269794D01*
X-3552139Y-2272080D01*
X-3547211Y-2274671D01*
X-3542588Y-2277567D01*
X-3538372Y-2280716D01*
X-3534460Y-2284120D01*
X-3530854Y-2287879D01*
X-3527602Y-2291842D01*
X-3524656Y-2296109D01*
X-3522014Y-2300681D01*
X-3519728Y-2305456D01*
X-3517747Y-2310536D01*
X-3516071Y-2315870D01*
X-3514699Y-2321458D01*
X-3513632Y-2327249D01*
X-3512921Y-2333345D01*
X-3512464Y-2339695D01*
X-3512312Y-2346299D01*
X-3512464Y-2352548D01*
X-3512870Y-2358694D01*
X-3513582Y-2364638D01*
X-3514598Y-2370378D01*
X-3515868Y-2375966D01*
X-3517493Y-2381300D01*
X-3519373Y-2386431D01*
X-3521608Y-2391359D01*
X-3524148Y-2396032D01*
X-3527044Y-2400452D01*
X-3530244Y-2404668D01*
X-3533800Y-2408580D01*
X-3537712Y-2412288D01*
X-3541928Y-2415641D01*
X-3546551Y-2418791D01*
X-3551529Y-2421585D01*
X-3556863Y-2424125D01*
X-3562553Y-2426309D01*
X-3568649Y-2428189D01*
X-3575151Y-2429764D01*
X-3582009Y-2431034D01*
X-3589274Y-2431897D01*
X-3596944Y-2432456D01*
X-3687064Y-2432608D01*
X-3687267Y-2525115D01*
X-3687826Y-2571546D01*
X-3737101Y-2576880D01*
X-3737101Y-2595168D01*
X-3587496Y-2595168D01*
X-3587496Y-2576880D01*
X-3637787Y-2571038D01*
X-3638397Y-2541320D01*
X-3638804Y-2482900D01*
X-3638804Y-2453741D01*
X-3601872Y-2453589D01*
X-3593490Y-2453284D01*
X-3577488Y-2451963D01*
X-3562705Y-2449830D01*
X-3548989Y-2446934D01*
X-3536442Y-2443276D01*
X-3524910Y-2438908D01*
X-3514496Y-2433878D01*
X-3509619Y-2431135D01*
X-3505047Y-2428240D01*
X-3500729Y-2425192D01*
X-3492804Y-2418689D01*
X-3485896Y-2411628D01*
X-3482797Y-2407970D01*
X-3477260Y-2400198D01*
X-3472687Y-2392019D01*
X-3468928Y-2383485D01*
X-3466084Y-2374595D01*
X-3464102Y-2365400D01*
X-3463391Y-2360726D01*
X-3462629Y-2351125D01*
X-3462680Y-2340457D01*
X-3463036Y-2334768D01*
X-3463696Y-2329180D01*
X-3465728Y-2318461D01*
X-3467150Y-2313279D01*
X-3468827Y-2308301D01*
X-3470757Y-2303424D01*
X-3475431Y-2294128D01*
X-3478123Y-2289759D01*
X-3481120Y-2285492D01*
X-3484372Y-2281428D01*
X-3487826Y-2277567D01*
X-3491585Y-2273858D01*
X-3495598Y-2270302D01*
X-3499865Y-2266950D01*
X-3509213Y-2260803D01*
X-3514293Y-2258009D01*
X-3519576Y-2255418D01*
X-3531006Y-2250897D01*
X-3537102Y-2248916D01*
X-3543452Y-2247188D01*
X-3550107Y-2245664D01*
X-3564128Y-2243328D01*
X-3571544Y-2242464D01*
X-3579215Y-2241854D01*
X-3595370Y-2241346D01*
G37*
G36*
X-2793238Y-2241346D02*
G01*
X-2793238Y-2259888D01*
X-2743962Y-2264968D01*
X-2743047Y-2334920D01*
X-2743047Y-2496058D01*
X-2743606Y-2554173D01*
X-2743962Y-2571546D01*
X-2793238Y-2576880D01*
X-2793238Y-2595168D01*
X-2645156Y-2595168D01*
X-2645156Y-2576880D01*
X-2693670Y-2571546D01*
X-2694432Y-2519019D01*
X-2694686Y-2424226D01*
X-2522474Y-2424226D01*
X-2522728Y-2519527D01*
X-2523490Y-2571546D01*
X-2572258Y-2576880D01*
X-2572258Y-2595168D01*
X-2423922Y-2595168D01*
X-2423922Y-2576880D01*
X-2473198Y-2571546D01*
X-2474061Y-2507234D01*
X-2474214Y-2472232D01*
X-2474112Y-2340610D01*
X-2473198Y-2264968D01*
X-2423922Y-2259888D01*
X-2423922Y-2241346D01*
X-2572258Y-2241346D01*
X-2572258Y-2259888D01*
X-2523490Y-2264968D01*
X-2522880Y-2299512D01*
X-2522474Y-2368854D01*
X-2522474Y-2403652D01*
X-2694686Y-2403652D01*
X-2694279Y-2299258D01*
X-2693670Y-2264968D01*
X-2645156Y-2259888D01*
X-2645156Y-2241346D01*
G37*
G36*
X-2376678Y-2241346D02*
G01*
X-2376678Y-2259888D01*
X-2327402Y-2264968D01*
X-2326843Y-2317394D01*
X-2326690Y-2496058D01*
X-2327402Y-2571546D01*
X-2376678Y-2576880D01*
X-2376678Y-2595168D01*
X-2104644Y-2595168D01*
X-2101596Y-2501188D01*
X-2127758Y-2501188D01*
X-2141728Y-2572054D01*
X-2277364Y-2572054D01*
X-2278075Y-2524861D01*
X-2278329Y-2488692D01*
X-2278380Y-2425750D01*
X-2198116Y-2425750D01*
X-2191004Y-2476804D01*
X-2169160Y-2476804D01*
X-2169160Y-2352344D01*
X-2191004Y-2352344D01*
X-2198624Y-2404465D01*
X-2278380Y-2404465D01*
X-2278024Y-2304897D01*
X-2277364Y-2264765D01*
X-2151888Y-2264765D01*
X-2137918Y-2334615D01*
X-2111756Y-2334615D01*
X-2114550Y-2241346D01*
G37*
D10*
X-5906493Y-1579092D02*
G01*
X24508Y-1579092D01*
X24508Y-644093D01*
X-5906493Y-644093D01*
X-5906493Y-1579092D01*
D11*
G75*
G01
X-5746267Y0D02*
G03X-5746267Y0I-253721J0D01*
G75*
G01
X-5746267Y-2999994D02*
G03X-5746267Y-2999994I-253721J0D01*
G75*
G01
X253721Y-2999994D02*
G03X253721Y-2999994I-253721J0D01*
G75*
G01
X253721Y0D02*
G03X253721Y0I-253721J0D01*
M02*
