G04 Layer: TopLayer*
G04 EasyEDA v6.5.22, 2023-04-21 16:03:43*
G04 4c68439a23b5444c8928c868920feb27,770f932475b44407b2c7c1ef503837d0,10*
G04 Gerber Generator version 0.2*
G04 Scale: 100 percent, Rotated: No, Reflected: No *
G04 Dimensions in millimeters *
G04 leading zeros omitted , absolute positions ,4 integer and 5 decimal *
%FSLAX45Y45*%
%MOMM*%

%AMMACRO1*21,1,$1,$2,0,0,$3*%
%ADD10C,0.2540*%
%ADD11MACRO1,1.524X1.524X-90.0000*%
%ADD12C,1.5240*%
%ADD13C,1.6500*%
%ADD14C,4.8750*%
%ADD15C,0.0106*%

%LPD*%
G36*
X-5967780Y-3274110D02*
G01*
X-5972048Y-3273145D01*
X-5975502Y-3270554D01*
X-5977534Y-3266795D01*
X-5977839Y-3262477D01*
X-5976315Y-3258413D01*
X-5973267Y-3255365D01*
X-5969203Y-3253892D01*
X-5957773Y-3252215D01*
X-5942584Y-3249218D01*
X-5927648Y-3245256D01*
X-5920181Y-3242970D01*
X-5912815Y-3240430D01*
X-5898438Y-3234690D01*
X-5884367Y-3228086D01*
X-5870752Y-3220669D01*
X-5857595Y-3212439D01*
X-5845048Y-3203397D01*
X-5838901Y-3198622D01*
X-5827166Y-3188462D01*
X-5821527Y-3183178D01*
X-5810707Y-3172002D01*
X-5805576Y-3166211D01*
X-5795873Y-3154070D01*
X-5786932Y-3141421D01*
X-5782665Y-3134868D01*
X-5774893Y-3121456D01*
X-5767984Y-3107588D01*
X-5764784Y-3100527D01*
X-5759196Y-3086100D01*
X-5756656Y-3078734D01*
X-5754370Y-3071317D01*
X-5750458Y-3056280D01*
X-5747512Y-3041091D01*
X-5745530Y-3025698D01*
X-5744819Y-3017926D01*
X-5744514Y-3011728D01*
X-5744819Y-3005124D01*
X-5745988Y-2999892D01*
X-5744921Y-2994812D01*
X-5744514Y-2988208D01*
X-5745632Y-2973222D01*
X-5746546Y-2965500D01*
X-5747715Y-2957830D01*
X-5750814Y-2942590D01*
X-5752592Y-2935071D01*
X-5757011Y-2920187D01*
X-5762294Y-2905607D01*
X-5765241Y-2898444D01*
X-5771896Y-2884424D01*
X-5775452Y-2877566D01*
X-5783326Y-2864154D01*
X-5791962Y-2851251D01*
X-5796534Y-2845003D01*
X-5806338Y-2832963D01*
X-5816803Y-2821533D01*
X-5822289Y-2816047D01*
X-5833821Y-2805633D01*
X-5845860Y-2795879D01*
X-5858510Y-2786938D01*
X-5871718Y-2778709D01*
X-5885383Y-2771343D01*
X-5899454Y-2764840D01*
X-5913932Y-2759151D01*
X-5928664Y-2754376D01*
X-5943650Y-2750515D01*
X-5951270Y-2748889D01*
X-5966561Y-2746400D01*
X-5982004Y-2744825D01*
X-5988253Y-2744470D01*
X-5994806Y-2744876D01*
X-6000038Y-2745994D01*
X-6005169Y-2744876D01*
X-6011722Y-2744520D01*
X-6019038Y-2744927D01*
X-6026810Y-2745638D01*
X-6042152Y-2747772D01*
X-6049772Y-2749143D01*
X-6064961Y-2752648D01*
X-6079744Y-2757017D01*
X-6094323Y-2762300D01*
X-6108598Y-2768498D01*
X-6115558Y-2771851D01*
X-6129172Y-2779318D01*
X-6142329Y-2787548D01*
X-6154928Y-2796590D01*
X-6167018Y-2806344D01*
X-6172860Y-2811475D01*
X-6183884Y-2822346D01*
X-6194399Y-2833776D01*
X-6204102Y-2845917D01*
X-6213043Y-2858516D01*
X-6217310Y-2865120D01*
X-6225082Y-2878531D01*
X-6232042Y-2892399D01*
X-6238087Y-2906623D01*
X-6240830Y-2913888D01*
X-6245656Y-2928670D01*
X-6249517Y-2943656D01*
X-6252464Y-2958846D01*
X-6253835Y-2968853D01*
X-6255410Y-2972917D01*
X-6258407Y-2975965D01*
X-6262420Y-2977489D01*
X-6266738Y-2977184D01*
X-6270599Y-2975102D01*
X-6273139Y-2971647D01*
X-6274054Y-2967431D01*
X-6274054Y-32258D01*
X-6273139Y-28041D01*
X-6270599Y-24587D01*
X-6266738Y-22504D01*
X-6262420Y-22199D01*
X-6258407Y-23723D01*
X-6255410Y-26771D01*
X-6253835Y-30835D01*
X-6252210Y-42214D01*
X-6249212Y-57404D01*
X-6245250Y-72390D01*
X-6242964Y-79806D01*
X-6240424Y-87122D01*
X-6234684Y-101549D01*
X-6231534Y-108610D01*
X-6228130Y-115570D01*
X-6220714Y-129235D01*
X-6212484Y-142341D01*
X-6208064Y-148742D01*
X-6198616Y-161086D01*
X-6188506Y-172821D01*
X-6177635Y-183946D01*
X-6166154Y-194360D01*
X-6160211Y-199339D01*
X-6147816Y-208686D01*
X-6134862Y-217271D01*
X-6128207Y-221284D01*
X-6114592Y-228650D01*
X-6100572Y-235153D01*
X-6086043Y-240842D01*
X-6071311Y-245617D01*
X-6056274Y-249478D01*
X-6048756Y-251104D01*
X-6033363Y-253593D01*
X-6025692Y-254508D01*
X-6011722Y-255524D01*
X-6005118Y-255117D01*
X-5999937Y-254000D01*
X-5994755Y-255066D01*
X-5988253Y-255473D01*
X-5980938Y-255066D01*
X-5973165Y-254355D01*
X-5957824Y-252221D01*
X-5942584Y-249224D01*
X-5927648Y-245262D01*
X-5920181Y-242976D01*
X-5912815Y-240436D01*
X-5898438Y-234696D01*
X-5884367Y-228092D01*
X-5870752Y-220675D01*
X-5857595Y-212445D01*
X-5845048Y-203403D01*
X-5838901Y-198628D01*
X-5827166Y-188468D01*
X-5821527Y-183184D01*
X-5810707Y-172008D01*
X-5805576Y-166217D01*
X-5795873Y-154076D01*
X-5786932Y-141427D01*
X-5782665Y-134874D01*
X-5774893Y-121462D01*
X-5767984Y-107594D01*
X-5764784Y-100533D01*
X-5759196Y-86106D01*
X-5756656Y-78740D01*
X-5754370Y-71323D01*
X-5750458Y-56286D01*
X-5747512Y-41097D01*
X-5745530Y-25704D01*
X-5744819Y-17932D01*
X-5744514Y-11734D01*
X-5744819Y-5130D01*
X-5745988Y101D01*
X-5744921Y5181D01*
X-5744514Y11785D01*
X-5745632Y26771D01*
X-5746546Y34493D01*
X-5747715Y42164D01*
X-5750814Y57404D01*
X-5752592Y64922D01*
X-5757011Y79806D01*
X-5762294Y94386D01*
X-5765241Y101549D01*
X-5771896Y115570D01*
X-5775452Y122428D01*
X-5783326Y135839D01*
X-5791962Y148742D01*
X-5796534Y154990D01*
X-5806338Y167030D01*
X-5816803Y178460D01*
X-5822289Y183946D01*
X-5833821Y194360D01*
X-5845860Y204114D01*
X-5858510Y213055D01*
X-5871718Y221284D01*
X-5885383Y228650D01*
X-5899454Y235153D01*
X-5913932Y240842D01*
X-5928664Y245617D01*
X-5943650Y249478D01*
X-5958890Y252475D01*
X-5968847Y253847D01*
X-5972911Y255371D01*
X-5976010Y258419D01*
X-5977534Y262483D01*
X-5977178Y266801D01*
X-5975146Y270560D01*
X-5971692Y273151D01*
X-5967425Y274066D01*
X-32156Y274066D01*
X-27990Y273151D01*
X-24485Y270560D01*
X-22402Y266801D01*
X-22148Y262483D01*
X-23672Y258419D01*
X-26670Y255371D01*
X-30733Y253898D01*
X-42265Y252221D01*
X-57404Y249224D01*
X-72339Y245262D01*
X-79806Y242976D01*
X-87172Y240436D01*
X-101498Y234696D01*
X-115570Y228142D01*
X-129184Y220675D01*
X-142392Y212445D01*
X-154990Y203403D01*
X-166979Y193649D01*
X-178511Y183184D01*
X-189280Y172008D01*
X-199288Y160223D01*
X-208635Y147828D01*
X-213106Y141427D01*
X-221234Y128270D01*
X-228600Y114604D01*
X-235204Y100533D01*
X-240792Y86106D01*
X-243382Y78740D01*
X-247650Y63855D01*
X-249478Y56337D01*
X-252425Y41097D01*
X-253644Y33375D01*
X-255168Y17983D01*
X-255524Y11734D01*
X-255168Y5181D01*
X-254000Y-101D01*
X-255117Y-5181D01*
X-255473Y-11785D01*
X-254304Y-26771D01*
X-252272Y-42164D01*
X-249275Y-57404D01*
X-247396Y-64922D01*
X-243027Y-79806D01*
X-240487Y-87122D01*
X-234696Y-101549D01*
X-228092Y-115570D01*
X-220675Y-129235D01*
X-212445Y-142341D01*
X-203454Y-154990D01*
X-193649Y-167030D01*
X-183134Y-178460D01*
X-172059Y-189230D01*
X-160223Y-199339D01*
X-154127Y-204114D01*
X-141427Y-213055D01*
X-128219Y-221284D01*
X-114604Y-228650D01*
X-100533Y-235153D01*
X-93421Y-238099D01*
X-78790Y-243332D01*
X-63855Y-247650D01*
X-48717Y-251104D01*
X-33426Y-253593D01*
X-25704Y-254508D01*
X-11734Y-255524D01*
X-5130Y-255117D01*
X101Y-254000D01*
X5181Y-255066D01*
X11785Y-255473D01*
X19100Y-255066D01*
X26822Y-254355D01*
X42164Y-252221D01*
X57404Y-249224D01*
X72390Y-245262D01*
X79806Y-242976D01*
X94386Y-237693D01*
X108661Y-231495D01*
X115570Y-228142D01*
X129184Y-220675D01*
X135890Y-216662D01*
X148742Y-208025D01*
X161036Y-198628D01*
X167030Y-193649D01*
X178460Y-183184D01*
X189280Y-172008D01*
X194411Y-166217D01*
X204114Y-154076D01*
X213106Y-141427D01*
X221284Y-128270D01*
X228650Y-114604D01*
X235204Y-100533D01*
X240842Y-86106D01*
X243382Y-78740D01*
X247700Y-63855D01*
X251104Y-48717D01*
X252475Y-41097D01*
X253847Y-31089D01*
X255422Y-27025D01*
X258470Y-23977D01*
X262483Y-22453D01*
X266801Y-22758D01*
X270611Y-24841D01*
X273202Y-28295D01*
X274116Y-32512D01*
X274116Y-2967888D01*
X273202Y-2972104D01*
X270611Y-2975559D01*
X266801Y-2977642D01*
X262483Y-2977946D01*
X258470Y-2976422D01*
X255422Y-2973374D01*
X253847Y-2969310D01*
X252272Y-2957779D01*
X249224Y-2942590D01*
X247396Y-2935071D01*
X245313Y-2927604D01*
X240436Y-2912872D01*
X234696Y-2898444D01*
X231546Y-2891383D01*
X228142Y-2884424D01*
X220624Y-2870758D01*
X212445Y-2857652D01*
X203454Y-2845003D01*
X193649Y-2832963D01*
X183184Y-2821533D01*
X172008Y-2810764D01*
X160223Y-2800654D01*
X154127Y-2795879D01*
X141427Y-2786938D01*
X134924Y-2782722D01*
X121462Y-2774950D01*
X107645Y-2767990D01*
X93370Y-2761894D01*
X86106Y-2759151D01*
X71323Y-2754376D01*
X56337Y-2750515D01*
X41097Y-2747518D01*
X25654Y-2745486D01*
X11734Y-2744470D01*
X5130Y-2744876D01*
X-50Y-2745994D01*
X-5181Y-2744876D01*
X-11734Y-2744520D01*
X-19050Y-2744927D01*
X-34493Y-2746603D01*
X-49733Y-2749143D01*
X-57404Y-2750769D01*
X-72339Y-2754731D01*
X-79806Y-2757017D01*
X-87172Y-2759557D01*
X-101498Y-2765298D01*
X-115570Y-2771851D01*
X-129184Y-2779318D01*
X-142392Y-2787548D01*
X-154990Y-2796590D01*
X-166979Y-2806344D01*
X-178511Y-2816809D01*
X-189280Y-2827985D01*
X-199288Y-2839770D01*
X-208635Y-2852166D01*
X-213106Y-2858516D01*
X-221234Y-2871724D01*
X-228600Y-2885338D01*
X-235204Y-2899460D01*
X-240792Y-2913888D01*
X-243382Y-2921254D01*
X-247650Y-2936138D01*
X-249478Y-2943656D01*
X-252425Y-2958896D01*
X-253644Y-2966618D01*
X-255168Y-2982010D01*
X-255524Y-2988259D01*
X-255168Y-2994812D01*
X-254000Y-3000095D01*
X-255117Y-3005175D01*
X-255473Y-3011779D01*
X-254304Y-3026765D01*
X-252272Y-3042158D01*
X-249275Y-3057398D01*
X-247396Y-3064916D01*
X-243027Y-3079800D01*
X-240487Y-3087116D01*
X-234696Y-3101543D01*
X-228092Y-3115564D01*
X-220675Y-3129229D01*
X-212445Y-3142335D01*
X-203454Y-3154984D01*
X-193649Y-3167024D01*
X-183134Y-3178454D01*
X-172059Y-3189224D01*
X-160223Y-3199333D01*
X-154127Y-3204108D01*
X-141427Y-3213049D01*
X-128219Y-3221278D01*
X-114604Y-3228644D01*
X-100533Y-3235147D01*
X-93421Y-3238093D01*
X-78790Y-3243326D01*
X-63855Y-3247644D01*
X-48717Y-3251098D01*
X-41046Y-3252470D01*
X-31292Y-3253841D01*
X-27178Y-3255264D01*
X-24130Y-3258261D01*
X-22453Y-3262325D01*
X-22758Y-3266694D01*
X-24790Y-3270503D01*
X-28244Y-3273145D01*
X-32512Y-3274110D01*
G37*

%LPC*%
G36*
X-5175605Y-2027732D02*
G01*
X-5024323Y-2027732D01*
X-5018024Y-2026970D01*
X-5012537Y-2025091D01*
X-5007660Y-2021992D01*
X-5003546Y-2017928D01*
X-5000548Y-2013000D01*
X-4998618Y-2007565D01*
X-4997856Y-2001215D01*
X-4997856Y-1849983D01*
X-4998618Y-1843633D01*
X-5000548Y-1838198D01*
X-5003546Y-1833270D01*
X-5007660Y-1829206D01*
X-5012537Y-1826107D01*
X-5018024Y-1824228D01*
X-5024323Y-1823516D01*
X-5175605Y-1823516D01*
X-5181904Y-1824228D01*
X-5187391Y-1826107D01*
X-5192268Y-1829206D01*
X-5196433Y-1833270D01*
X-5199430Y-1838198D01*
X-5201361Y-1843633D01*
X-5202072Y-1849983D01*
X-5202072Y-2001215D01*
X-5201361Y-2007565D01*
X-5199430Y-2013000D01*
X-5196433Y-2017928D01*
X-5192268Y-2021992D01*
X-5187391Y-2025091D01*
X-5181904Y-2026970D01*
G37*
G36*
X-1042771Y-2027478D02*
G01*
X-1029157Y-2027478D01*
X-1015695Y-2025650D01*
X-1002537Y-2022043D01*
X-989939Y-2016709D01*
X-978204Y-2009749D01*
X-967486Y-2001316D01*
X-958087Y-1991512D01*
X-949909Y-1980539D01*
X-943406Y-1968550D01*
X-938530Y-1955850D01*
X-935329Y-1942592D01*
X-933958Y-1929028D01*
X-934415Y-1915363D01*
X-936650Y-1901952D01*
X-940714Y-1888896D01*
X-946454Y-1876552D01*
X-953769Y-1865020D01*
X-962609Y-1854606D01*
X-972769Y-1845462D01*
X-983996Y-1837740D01*
X-996187Y-1831593D01*
X-1008989Y-1827123D01*
X-1022350Y-1824431D01*
X-1035964Y-1823516D01*
X-1049578Y-1824431D01*
X-1062939Y-1827123D01*
X-1075842Y-1831593D01*
X-1088034Y-1837740D01*
X-1099261Y-1845462D01*
X-1109421Y-1854606D01*
X-1118209Y-1865020D01*
X-1125474Y-1876552D01*
X-1131214Y-1888896D01*
X-1135329Y-1901952D01*
X-1137564Y-1915363D01*
X-1138021Y-1929028D01*
X-1136650Y-1942592D01*
X-1133449Y-1955850D01*
X-1128572Y-1968550D01*
X-1122019Y-1980539D01*
X-1113942Y-1991512D01*
X-1104442Y-2001316D01*
X-1093724Y-2009749D01*
X-1081989Y-2016709D01*
X-1069492Y-2022043D01*
X-1056284Y-2025650D01*
G37*
G36*
X-1296771Y-2027478D02*
G01*
X-1283157Y-2027478D01*
X-1269695Y-2025650D01*
X-1256538Y-2022043D01*
X-1243939Y-2016709D01*
X-1232204Y-2009749D01*
X-1221486Y-2001316D01*
X-1212088Y-1991512D01*
X-1203909Y-1980539D01*
X-1197406Y-1968550D01*
X-1192530Y-1955850D01*
X-1189329Y-1942592D01*
X-1187958Y-1929028D01*
X-1188415Y-1915363D01*
X-1190650Y-1901952D01*
X-1194714Y-1888896D01*
X-1200454Y-1876552D01*
X-1207770Y-1865020D01*
X-1216609Y-1854606D01*
X-1226769Y-1845462D01*
X-1237996Y-1837740D01*
X-1250188Y-1831593D01*
X-1262989Y-1827123D01*
X-1276350Y-1824431D01*
X-1289964Y-1823516D01*
X-1303578Y-1824431D01*
X-1316939Y-1827123D01*
X-1329842Y-1831593D01*
X-1342034Y-1837740D01*
X-1353261Y-1845462D01*
X-1363421Y-1854606D01*
X-1372209Y-1865020D01*
X-1379474Y-1876552D01*
X-1385214Y-1888896D01*
X-1389329Y-1901952D01*
X-1391564Y-1915363D01*
X-1392021Y-1929028D01*
X-1390650Y-1942592D01*
X-1387449Y-1955850D01*
X-1382572Y-1968550D01*
X-1376019Y-1980539D01*
X-1367942Y-1991512D01*
X-1358442Y-2001316D01*
X-1347724Y-2009749D01*
X-1335989Y-2016709D01*
X-1323492Y-2022043D01*
X-1310284Y-2025650D01*
G37*
G36*
X-788771Y-2027478D02*
G01*
X-775157Y-2027478D01*
X-761695Y-2025650D01*
X-748538Y-2022043D01*
X-735939Y-2016709D01*
X-724204Y-2009749D01*
X-713486Y-2001316D01*
X-704088Y-1991512D01*
X-695909Y-1980539D01*
X-689406Y-1968550D01*
X-684530Y-1955850D01*
X-681329Y-1942592D01*
X-679958Y-1929028D01*
X-680415Y-1915363D01*
X-682650Y-1901952D01*
X-686714Y-1888896D01*
X-692454Y-1876552D01*
X-699770Y-1865020D01*
X-708609Y-1854606D01*
X-718769Y-1845462D01*
X-729996Y-1837740D01*
X-742188Y-1831593D01*
X-754989Y-1827123D01*
X-768350Y-1824431D01*
X-781964Y-1823516D01*
X-795578Y-1824431D01*
X-808939Y-1827123D01*
X-821842Y-1831593D01*
X-834034Y-1837740D01*
X-845261Y-1845462D01*
X-855421Y-1854606D01*
X-864209Y-1865020D01*
X-871474Y-1876552D01*
X-877214Y-1888896D01*
X-881329Y-1901952D01*
X-883564Y-1915363D01*
X-884021Y-1929028D01*
X-882650Y-1942592D01*
X-879449Y-1955850D01*
X-874572Y-1968550D01*
X-868019Y-1980539D01*
X-859942Y-1991512D01*
X-850442Y-2001316D01*
X-839724Y-2009749D01*
X-827989Y-2016709D01*
X-815492Y-2022043D01*
X-802284Y-2025650D01*
G37*
G36*
X-1550771Y-2027478D02*
G01*
X-1537157Y-2027478D01*
X-1523695Y-2025650D01*
X-1510538Y-2022043D01*
X-1497939Y-2016709D01*
X-1486204Y-2009749D01*
X-1475486Y-2001316D01*
X-1466088Y-1991512D01*
X-1457909Y-1980539D01*
X-1451406Y-1968550D01*
X-1446530Y-1955850D01*
X-1443329Y-1942592D01*
X-1441958Y-1929028D01*
X-1442415Y-1915363D01*
X-1444650Y-1901952D01*
X-1448714Y-1888896D01*
X-1454454Y-1876552D01*
X-1461770Y-1865020D01*
X-1470609Y-1854606D01*
X-1480769Y-1845462D01*
X-1491996Y-1837740D01*
X-1504188Y-1831593D01*
X-1516989Y-1827123D01*
X-1530350Y-1824431D01*
X-1543964Y-1823516D01*
X-1557578Y-1824431D01*
X-1570939Y-1827123D01*
X-1583842Y-1831593D01*
X-1596034Y-1837740D01*
X-1607261Y-1845462D01*
X-1617421Y-1854606D01*
X-1626209Y-1865020D01*
X-1633474Y-1876552D01*
X-1639214Y-1888896D01*
X-1643329Y-1901952D01*
X-1645564Y-1915363D01*
X-1646021Y-1929028D01*
X-1644650Y-1942592D01*
X-1641449Y-1955850D01*
X-1636572Y-1968550D01*
X-1630019Y-1980539D01*
X-1621942Y-1991512D01*
X-1612442Y-2001316D01*
X-1601724Y-2009749D01*
X-1589989Y-2016709D01*
X-1577492Y-2022043D01*
X-1564284Y-2025650D01*
G37*
G36*
X-4598771Y-2027478D02*
G01*
X-4585157Y-2027478D01*
X-4571695Y-2025650D01*
X-4558538Y-2022043D01*
X-4545939Y-2016709D01*
X-4534204Y-2009749D01*
X-4523486Y-2001316D01*
X-4514037Y-1991512D01*
X-4505909Y-1980539D01*
X-4499406Y-1968550D01*
X-4494530Y-1955850D01*
X-4491278Y-1942592D01*
X-4489958Y-1929028D01*
X-4490415Y-1915363D01*
X-4492650Y-1901952D01*
X-4496714Y-1888896D01*
X-4502454Y-1876552D01*
X-4509770Y-1865020D01*
X-4518558Y-1854606D01*
X-4528769Y-1845462D01*
X-4539996Y-1837740D01*
X-4547819Y-1833778D01*
X-4550714Y-1831543D01*
X-4552696Y-1828393D01*
X-4553356Y-1824736D01*
X-4553356Y-1755292D01*
X-4552645Y-1751431D01*
X-4550359Y-1748129D01*
X-4259935Y-1457655D01*
X-4256836Y-1455572D01*
X-4253230Y-1454708D01*
X-4249470Y-1455216D01*
X-4239056Y-1458772D01*
X-4225137Y-1461566D01*
X-4210964Y-1462481D01*
X-4196842Y-1461566D01*
X-4182922Y-1458772D01*
X-4169511Y-1454251D01*
X-4156760Y-1447952D01*
X-4144975Y-1440078D01*
X-4134307Y-1430731D01*
X-4124960Y-1420063D01*
X-4117086Y-1408277D01*
X-4110837Y-1395577D01*
X-4106265Y-1382166D01*
X-4103522Y-1368247D01*
X-4102557Y-1354124D01*
X-4103522Y-1339951D01*
X-4106265Y-1326032D01*
X-4110837Y-1312621D01*
X-4117086Y-1299921D01*
X-4124960Y-1288135D01*
X-4134307Y-1277467D01*
X-4144975Y-1268120D01*
X-4156760Y-1260246D01*
X-4169511Y-1253947D01*
X-4182922Y-1249426D01*
X-4196842Y-1246632D01*
X-4210964Y-1245717D01*
X-4225137Y-1246632D01*
X-4239056Y-1249426D01*
X-4252468Y-1253947D01*
X-4265168Y-1260246D01*
X-4276953Y-1268120D01*
X-4287621Y-1277467D01*
X-4296968Y-1288135D01*
X-4304842Y-1299921D01*
X-4311091Y-1312621D01*
X-4315714Y-1326032D01*
X-4318406Y-1339951D01*
X-4319371Y-1354124D01*
X-4318406Y-1368247D01*
X-4315714Y-1382166D01*
X-4312107Y-1392631D01*
X-4311599Y-1396339D01*
X-4312412Y-1399997D01*
X-4314545Y-1403096D01*
X-4618939Y-1707438D01*
X-4624019Y-1713687D01*
X-4627575Y-1720342D01*
X-4629810Y-1727555D01*
X-4630572Y-1735582D01*
X-4630572Y-1824736D01*
X-4631283Y-1828393D01*
X-4633264Y-1831543D01*
X-4636211Y-1833829D01*
X-4644034Y-1837740D01*
X-4655261Y-1845462D01*
X-4665421Y-1854606D01*
X-4674209Y-1865020D01*
X-4681474Y-1876552D01*
X-4687214Y-1888896D01*
X-4691329Y-1901952D01*
X-4693513Y-1915363D01*
X-4693970Y-1929028D01*
X-4692650Y-1942592D01*
X-4689449Y-1955850D01*
X-4684572Y-1968550D01*
X-4678019Y-1980539D01*
X-4669942Y-1991512D01*
X-4660442Y-2001316D01*
X-4649724Y-2009749D01*
X-4637989Y-2016709D01*
X-4625492Y-2022043D01*
X-4612284Y-2025650D01*
G37*
G36*
X-4852771Y-2027478D02*
G01*
X-4839157Y-2027478D01*
X-4825695Y-2025650D01*
X-4812538Y-2022043D01*
X-4799939Y-2016709D01*
X-4788204Y-2009749D01*
X-4777486Y-2001316D01*
X-4768037Y-1991512D01*
X-4759909Y-1980539D01*
X-4753406Y-1968550D01*
X-4748530Y-1955850D01*
X-4745278Y-1942592D01*
X-4743958Y-1929028D01*
X-4744415Y-1915363D01*
X-4746650Y-1901952D01*
X-4750714Y-1888896D01*
X-4756454Y-1876552D01*
X-4763770Y-1865020D01*
X-4772558Y-1854606D01*
X-4782769Y-1845462D01*
X-4793996Y-1837740D01*
X-4801819Y-1833778D01*
X-4804714Y-1831543D01*
X-4806696Y-1828393D01*
X-4807356Y-1824736D01*
X-4807356Y-1755292D01*
X-4806645Y-1751431D01*
X-4804359Y-1748129D01*
X-4513935Y-1457655D01*
X-4510836Y-1455572D01*
X-4507230Y-1454708D01*
X-4503470Y-1455216D01*
X-4493056Y-1458772D01*
X-4479137Y-1461566D01*
X-4464964Y-1462481D01*
X-4450842Y-1461566D01*
X-4436922Y-1458772D01*
X-4423511Y-1454251D01*
X-4410760Y-1447952D01*
X-4398975Y-1440078D01*
X-4388307Y-1430731D01*
X-4378960Y-1420063D01*
X-4371086Y-1408277D01*
X-4364837Y-1395577D01*
X-4360265Y-1382166D01*
X-4357522Y-1368247D01*
X-4356557Y-1354124D01*
X-4357522Y-1339951D01*
X-4360265Y-1326032D01*
X-4364837Y-1312621D01*
X-4371086Y-1299921D01*
X-4378960Y-1288135D01*
X-4388307Y-1277467D01*
X-4398975Y-1268120D01*
X-4410760Y-1260246D01*
X-4423511Y-1253947D01*
X-4436922Y-1249426D01*
X-4450842Y-1246632D01*
X-4464964Y-1245717D01*
X-4479137Y-1246632D01*
X-4493056Y-1249426D01*
X-4506468Y-1253947D01*
X-4519168Y-1260246D01*
X-4530953Y-1268120D01*
X-4541621Y-1277467D01*
X-4550968Y-1288135D01*
X-4558842Y-1299921D01*
X-4565091Y-1312621D01*
X-4569714Y-1326032D01*
X-4572406Y-1339951D01*
X-4573371Y-1354124D01*
X-4572406Y-1368247D01*
X-4569714Y-1382166D01*
X-4566107Y-1392631D01*
X-4565599Y-1396339D01*
X-4566412Y-1399997D01*
X-4568545Y-1403096D01*
X-4872939Y-1707438D01*
X-4878019Y-1713687D01*
X-4881575Y-1720342D01*
X-4883810Y-1727555D01*
X-4884572Y-1735582D01*
X-4884572Y-1824736D01*
X-4885283Y-1828393D01*
X-4887264Y-1831543D01*
X-4890211Y-1833829D01*
X-4898034Y-1837740D01*
X-4909261Y-1845462D01*
X-4919421Y-1854606D01*
X-4928209Y-1865020D01*
X-4935474Y-1876552D01*
X-4941214Y-1888896D01*
X-4945329Y-1901952D01*
X-4947513Y-1915363D01*
X-4947970Y-1929028D01*
X-4946650Y-1942592D01*
X-4943449Y-1955850D01*
X-4938572Y-1968550D01*
X-4932019Y-1980539D01*
X-4923942Y-1991512D01*
X-4914442Y-2001316D01*
X-4903724Y-2009749D01*
X-4891989Y-2016709D01*
X-4879492Y-2022043D01*
X-4866284Y-2025650D01*
G37*
G36*
X-3836771Y-2027478D02*
G01*
X-3823157Y-2027478D01*
X-3809695Y-2025650D01*
X-3796537Y-2022043D01*
X-3783939Y-2016709D01*
X-3772204Y-2009749D01*
X-3761486Y-2001316D01*
X-3752037Y-1991512D01*
X-3743909Y-1980539D01*
X-3737406Y-1968550D01*
X-3732529Y-1955850D01*
X-3729278Y-1942592D01*
X-3727958Y-1929028D01*
X-3728415Y-1915363D01*
X-3730650Y-1901952D01*
X-3734714Y-1888896D01*
X-3740454Y-1876552D01*
X-3747770Y-1865020D01*
X-3756609Y-1854606D01*
X-3766769Y-1845462D01*
X-3777996Y-1837740D01*
X-3785819Y-1833829D01*
X-3788714Y-1831543D01*
X-3790696Y-1828393D01*
X-3791356Y-1824736D01*
X-3791356Y-1755292D01*
X-3790645Y-1751431D01*
X-3788359Y-1748129D01*
X-3497935Y-1457655D01*
X-3494836Y-1455572D01*
X-3491229Y-1454708D01*
X-3487470Y-1455216D01*
X-3477056Y-1458772D01*
X-3463137Y-1461566D01*
X-3448964Y-1462481D01*
X-3434842Y-1461566D01*
X-3420922Y-1458772D01*
X-3407511Y-1454251D01*
X-3394760Y-1447952D01*
X-3382975Y-1440078D01*
X-3372307Y-1430731D01*
X-3362960Y-1420063D01*
X-3355086Y-1408277D01*
X-3348837Y-1395577D01*
X-3344265Y-1382166D01*
X-3341522Y-1368247D01*
X-3340557Y-1354124D01*
X-3341522Y-1339951D01*
X-3344265Y-1326032D01*
X-3348837Y-1312621D01*
X-3355086Y-1299921D01*
X-3362960Y-1288135D01*
X-3372307Y-1277467D01*
X-3382975Y-1268120D01*
X-3394760Y-1260246D01*
X-3407511Y-1253947D01*
X-3420922Y-1249426D01*
X-3434842Y-1246632D01*
X-3448964Y-1245717D01*
X-3463137Y-1246632D01*
X-3477056Y-1249426D01*
X-3490468Y-1253947D01*
X-3503168Y-1260246D01*
X-3514953Y-1268120D01*
X-3525621Y-1277467D01*
X-3534968Y-1288135D01*
X-3542842Y-1299921D01*
X-3549091Y-1312621D01*
X-3553714Y-1326032D01*
X-3556406Y-1339951D01*
X-3557371Y-1354124D01*
X-3556406Y-1368247D01*
X-3553714Y-1382166D01*
X-3550107Y-1392631D01*
X-3549599Y-1396339D01*
X-3550412Y-1399997D01*
X-3552545Y-1403096D01*
X-3856939Y-1707438D01*
X-3862019Y-1713687D01*
X-3865575Y-1720342D01*
X-3867810Y-1727555D01*
X-3868572Y-1735582D01*
X-3868572Y-1824736D01*
X-3869283Y-1828393D01*
X-3871264Y-1831543D01*
X-3874211Y-1833829D01*
X-3882034Y-1837740D01*
X-3893261Y-1845462D01*
X-3903421Y-1854606D01*
X-3912209Y-1865020D01*
X-3919474Y-1876552D01*
X-3925214Y-1888896D01*
X-3929329Y-1901952D01*
X-3931564Y-1915363D01*
X-3931970Y-1929028D01*
X-3930650Y-1942592D01*
X-3927449Y-1955850D01*
X-3922572Y-1968550D01*
X-3916019Y-1980539D01*
X-3907942Y-1991512D01*
X-3898442Y-2001316D01*
X-3887724Y-2009749D01*
X-3875989Y-2016709D01*
X-3863492Y-2022043D01*
X-3850284Y-2025650D01*
G37*
G36*
X-3582771Y-2027478D02*
G01*
X-3569157Y-2027478D01*
X-3555695Y-2025650D01*
X-3542537Y-2022043D01*
X-3529939Y-2016709D01*
X-3518204Y-2009749D01*
X-3507486Y-2001316D01*
X-3498037Y-1991512D01*
X-3489909Y-1980539D01*
X-3483406Y-1968550D01*
X-3478529Y-1955850D01*
X-3475278Y-1942592D01*
X-3473958Y-1929028D01*
X-3474415Y-1915363D01*
X-3476650Y-1901952D01*
X-3480714Y-1888896D01*
X-3486454Y-1876552D01*
X-3493770Y-1865020D01*
X-3502609Y-1854606D01*
X-3512769Y-1845462D01*
X-3523996Y-1837740D01*
X-3531819Y-1833829D01*
X-3534714Y-1831543D01*
X-3536696Y-1828393D01*
X-3537356Y-1824736D01*
X-3537356Y-1755292D01*
X-3536645Y-1751431D01*
X-3534359Y-1748129D01*
X-3243935Y-1457655D01*
X-3240836Y-1455572D01*
X-3237230Y-1454708D01*
X-3233470Y-1455216D01*
X-3223056Y-1458772D01*
X-3209137Y-1461566D01*
X-3194964Y-1462481D01*
X-3180842Y-1461566D01*
X-3166922Y-1458772D01*
X-3153511Y-1454251D01*
X-3140760Y-1447952D01*
X-3128975Y-1440078D01*
X-3118307Y-1430731D01*
X-3108960Y-1420063D01*
X-3101086Y-1408277D01*
X-3094837Y-1395577D01*
X-3090265Y-1382166D01*
X-3087522Y-1368247D01*
X-3086557Y-1354124D01*
X-3087522Y-1339951D01*
X-3090265Y-1326032D01*
X-3094837Y-1312621D01*
X-3101086Y-1299921D01*
X-3108960Y-1288135D01*
X-3118307Y-1277467D01*
X-3128975Y-1268120D01*
X-3140760Y-1260246D01*
X-3153511Y-1253947D01*
X-3166922Y-1249426D01*
X-3180842Y-1246632D01*
X-3194964Y-1245717D01*
X-3209137Y-1246632D01*
X-3223056Y-1249426D01*
X-3236468Y-1253947D01*
X-3249168Y-1260246D01*
X-3260953Y-1268120D01*
X-3271621Y-1277467D01*
X-3280968Y-1288135D01*
X-3288842Y-1299921D01*
X-3295091Y-1312621D01*
X-3299714Y-1326032D01*
X-3302406Y-1339951D01*
X-3303371Y-1354124D01*
X-3302406Y-1368247D01*
X-3299714Y-1382166D01*
X-3296107Y-1392631D01*
X-3295599Y-1396339D01*
X-3296412Y-1399997D01*
X-3298545Y-1403096D01*
X-3602939Y-1707438D01*
X-3608019Y-1713687D01*
X-3611575Y-1720342D01*
X-3613810Y-1727555D01*
X-3614572Y-1735582D01*
X-3614572Y-1824736D01*
X-3615283Y-1828393D01*
X-3617264Y-1831543D01*
X-3620211Y-1833829D01*
X-3628034Y-1837740D01*
X-3639261Y-1845462D01*
X-3649421Y-1854606D01*
X-3658209Y-1865020D01*
X-3665474Y-1876552D01*
X-3671214Y-1888896D01*
X-3675329Y-1901952D01*
X-3677564Y-1915363D01*
X-3677970Y-1929028D01*
X-3676650Y-1942592D01*
X-3673449Y-1955850D01*
X-3668572Y-1968550D01*
X-3662019Y-1980539D01*
X-3653942Y-1991512D01*
X-3644442Y-2001316D01*
X-3633724Y-2009749D01*
X-3621989Y-2016709D01*
X-3609492Y-2022043D01*
X-3596284Y-2025650D01*
G37*
G36*
X-4090771Y-2027478D02*
G01*
X-4077157Y-2027478D01*
X-4063695Y-2025650D01*
X-4050537Y-2022043D01*
X-4037939Y-2016709D01*
X-4026204Y-2009749D01*
X-4015486Y-2001316D01*
X-4006037Y-1991512D01*
X-3997909Y-1980539D01*
X-3991406Y-1968550D01*
X-3986529Y-1955850D01*
X-3983278Y-1942592D01*
X-3981958Y-1929028D01*
X-3982415Y-1915363D01*
X-3984650Y-1901952D01*
X-3988714Y-1888896D01*
X-3994454Y-1876552D01*
X-4001770Y-1865020D01*
X-4010609Y-1854606D01*
X-4020769Y-1845462D01*
X-4031996Y-1837740D01*
X-4039819Y-1833829D01*
X-4042714Y-1831543D01*
X-4044696Y-1828393D01*
X-4045356Y-1824736D01*
X-4045356Y-1755292D01*
X-4044645Y-1751431D01*
X-4042359Y-1748129D01*
X-3751935Y-1457655D01*
X-3748836Y-1455572D01*
X-3745229Y-1454708D01*
X-3741470Y-1455216D01*
X-3731056Y-1458772D01*
X-3717137Y-1461566D01*
X-3702964Y-1462481D01*
X-3688842Y-1461566D01*
X-3674922Y-1458772D01*
X-3661511Y-1454251D01*
X-3648760Y-1447952D01*
X-3636975Y-1440078D01*
X-3626307Y-1430731D01*
X-3616960Y-1420063D01*
X-3609086Y-1408277D01*
X-3602837Y-1395577D01*
X-3598265Y-1382166D01*
X-3595522Y-1368247D01*
X-3594557Y-1354124D01*
X-3595522Y-1339951D01*
X-3598265Y-1326032D01*
X-3602837Y-1312621D01*
X-3609086Y-1299921D01*
X-3616960Y-1288135D01*
X-3626307Y-1277467D01*
X-3636975Y-1268120D01*
X-3648760Y-1260246D01*
X-3661511Y-1253947D01*
X-3674922Y-1249426D01*
X-3688842Y-1246632D01*
X-3702964Y-1245717D01*
X-3717137Y-1246632D01*
X-3731056Y-1249426D01*
X-3744468Y-1253947D01*
X-3757168Y-1260246D01*
X-3768953Y-1268120D01*
X-3779621Y-1277467D01*
X-3788968Y-1288135D01*
X-3796842Y-1299921D01*
X-3803091Y-1312621D01*
X-3807714Y-1326032D01*
X-3810406Y-1339951D01*
X-3811371Y-1354124D01*
X-3810406Y-1368247D01*
X-3807714Y-1382166D01*
X-3804107Y-1392631D01*
X-3803599Y-1396339D01*
X-3804412Y-1399997D01*
X-3806545Y-1403096D01*
X-4110939Y-1707438D01*
X-4116019Y-1713687D01*
X-4119575Y-1720342D01*
X-4121810Y-1727555D01*
X-4122572Y-1735582D01*
X-4122572Y-1824736D01*
X-4123283Y-1828393D01*
X-4125264Y-1831543D01*
X-4128211Y-1833829D01*
X-4136034Y-1837740D01*
X-4147261Y-1845462D01*
X-4157421Y-1854606D01*
X-4166209Y-1865020D01*
X-4173474Y-1876552D01*
X-4179214Y-1888896D01*
X-4183329Y-1901952D01*
X-4185564Y-1915363D01*
X-4185970Y-1929028D01*
X-4184650Y-1942592D01*
X-4181449Y-1955850D01*
X-4176572Y-1968550D01*
X-4170019Y-1980539D01*
X-4161942Y-1991512D01*
X-4152442Y-2001316D01*
X-4141724Y-2009749D01*
X-4129989Y-2016709D01*
X-4117492Y-2022043D01*
X-4104284Y-2025650D01*
G37*
G36*
X-3328771Y-2027478D02*
G01*
X-3315157Y-2027478D01*
X-3301695Y-2025650D01*
X-3288537Y-2022043D01*
X-3275939Y-2016709D01*
X-3264204Y-2009749D01*
X-3253486Y-2001316D01*
X-3244037Y-1991512D01*
X-3235909Y-1980539D01*
X-3229406Y-1968550D01*
X-3224530Y-1955850D01*
X-3221278Y-1942592D01*
X-3219958Y-1929028D01*
X-3220415Y-1915363D01*
X-3222650Y-1901952D01*
X-3226714Y-1888896D01*
X-3232454Y-1876552D01*
X-3239770Y-1865020D01*
X-3248609Y-1854606D01*
X-3258769Y-1845462D01*
X-3269996Y-1837740D01*
X-3277819Y-1833829D01*
X-3280765Y-1831543D01*
X-3282696Y-1828393D01*
X-3283356Y-1824736D01*
X-3283356Y-1755292D01*
X-3282645Y-1751431D01*
X-3280359Y-1748129D01*
X-2989935Y-1457655D01*
X-2986836Y-1455572D01*
X-2983230Y-1454708D01*
X-2979470Y-1455216D01*
X-2969056Y-1458772D01*
X-2955137Y-1461566D01*
X-2940964Y-1462481D01*
X-2926842Y-1461566D01*
X-2912922Y-1458772D01*
X-2899511Y-1454251D01*
X-2886760Y-1447952D01*
X-2874975Y-1440078D01*
X-2864307Y-1430731D01*
X-2854960Y-1420063D01*
X-2847086Y-1408277D01*
X-2840837Y-1395577D01*
X-2836265Y-1382166D01*
X-2833522Y-1368247D01*
X-2832557Y-1354124D01*
X-2833522Y-1339951D01*
X-2836265Y-1326032D01*
X-2840837Y-1312621D01*
X-2847086Y-1299921D01*
X-2854960Y-1288135D01*
X-2864307Y-1277467D01*
X-2874975Y-1268120D01*
X-2886760Y-1260246D01*
X-2899511Y-1253947D01*
X-2912922Y-1249426D01*
X-2926842Y-1246632D01*
X-2940964Y-1245717D01*
X-2955137Y-1246632D01*
X-2969056Y-1249426D01*
X-2982468Y-1253947D01*
X-2995168Y-1260246D01*
X-3006953Y-1268120D01*
X-3017621Y-1277467D01*
X-3026968Y-1288135D01*
X-3034842Y-1299921D01*
X-3041091Y-1312621D01*
X-3045714Y-1326032D01*
X-3048406Y-1339951D01*
X-3049371Y-1354124D01*
X-3048406Y-1368247D01*
X-3045714Y-1382166D01*
X-3042107Y-1392631D01*
X-3041599Y-1396339D01*
X-3042412Y-1399997D01*
X-3044545Y-1403096D01*
X-3348939Y-1707438D01*
X-3354019Y-1713687D01*
X-3357575Y-1720342D01*
X-3359810Y-1727555D01*
X-3360572Y-1735582D01*
X-3360572Y-1824736D01*
X-3361283Y-1828393D01*
X-3363264Y-1831543D01*
X-3366211Y-1833829D01*
X-3374034Y-1837740D01*
X-3385261Y-1845462D01*
X-3395421Y-1854606D01*
X-3404209Y-1865020D01*
X-3411474Y-1876552D01*
X-3417214Y-1888896D01*
X-3421329Y-1901952D01*
X-3423564Y-1915363D01*
X-3423970Y-1929028D01*
X-3422650Y-1942592D01*
X-3419449Y-1955850D01*
X-3414572Y-1968550D01*
X-3408019Y-1980539D01*
X-3399942Y-1991512D01*
X-3390442Y-2001316D01*
X-3379724Y-2009749D01*
X-3367989Y-2016709D01*
X-3355492Y-2022043D01*
X-3342284Y-2025650D01*
G37*
G36*
X-4344771Y-2027478D02*
G01*
X-4331157Y-2027478D01*
X-4317695Y-2025650D01*
X-4304538Y-2022043D01*
X-4291939Y-2016709D01*
X-4280204Y-2009749D01*
X-4269486Y-2001316D01*
X-4260037Y-1991512D01*
X-4251909Y-1980539D01*
X-4245406Y-1968550D01*
X-4240530Y-1955850D01*
X-4237278Y-1942592D01*
X-4235958Y-1929028D01*
X-4236415Y-1915363D01*
X-4238650Y-1901952D01*
X-4242714Y-1888896D01*
X-4248454Y-1876552D01*
X-4255770Y-1865020D01*
X-4264609Y-1854606D01*
X-4274769Y-1845462D01*
X-4285996Y-1837740D01*
X-4293819Y-1833829D01*
X-4296714Y-1831543D01*
X-4298696Y-1828393D01*
X-4299356Y-1824736D01*
X-4299356Y-1755292D01*
X-4298645Y-1751431D01*
X-4296359Y-1748129D01*
X-4005935Y-1457655D01*
X-4002836Y-1455572D01*
X-3999229Y-1454708D01*
X-3995470Y-1455216D01*
X-3985056Y-1458772D01*
X-3971137Y-1461566D01*
X-3956964Y-1462481D01*
X-3942842Y-1461566D01*
X-3928922Y-1458772D01*
X-3915511Y-1454251D01*
X-3902760Y-1447952D01*
X-3890975Y-1440078D01*
X-3880307Y-1430731D01*
X-3870960Y-1420063D01*
X-3863086Y-1408277D01*
X-3856837Y-1395577D01*
X-3852265Y-1382166D01*
X-3849522Y-1368247D01*
X-3848557Y-1354124D01*
X-3849522Y-1339951D01*
X-3852265Y-1326032D01*
X-3856837Y-1312621D01*
X-3863086Y-1299921D01*
X-3870960Y-1288135D01*
X-3880307Y-1277467D01*
X-3890975Y-1268120D01*
X-3902760Y-1260246D01*
X-3915511Y-1253947D01*
X-3928922Y-1249426D01*
X-3942842Y-1246632D01*
X-3956964Y-1245717D01*
X-3971137Y-1246632D01*
X-3985056Y-1249426D01*
X-3998468Y-1253947D01*
X-4011168Y-1260246D01*
X-4022953Y-1268120D01*
X-4033621Y-1277467D01*
X-4042968Y-1288135D01*
X-4050842Y-1299921D01*
X-4057091Y-1312621D01*
X-4061714Y-1326032D01*
X-4064406Y-1339951D01*
X-4065371Y-1354124D01*
X-4064406Y-1368247D01*
X-4061714Y-1382166D01*
X-4058107Y-1392631D01*
X-4057599Y-1396339D01*
X-4058412Y-1399997D01*
X-4060545Y-1403096D01*
X-4364939Y-1707438D01*
X-4370019Y-1713687D01*
X-4373575Y-1720342D01*
X-4375810Y-1727555D01*
X-4376572Y-1735582D01*
X-4376572Y-1824736D01*
X-4377283Y-1828393D01*
X-4379264Y-1831543D01*
X-4382211Y-1833829D01*
X-4390034Y-1837740D01*
X-4401261Y-1845462D01*
X-4411421Y-1854606D01*
X-4420209Y-1865020D01*
X-4427474Y-1876552D01*
X-4433214Y-1888896D01*
X-4437329Y-1901952D01*
X-4439564Y-1915363D01*
X-4439970Y-1929028D01*
X-4438650Y-1942592D01*
X-4435449Y-1955850D01*
X-4430572Y-1968550D01*
X-4424019Y-1980539D01*
X-4415942Y-1991512D01*
X-4406442Y-2001316D01*
X-4395724Y-2009749D01*
X-4383989Y-2016709D01*
X-4371492Y-2022043D01*
X-4358284Y-2025650D01*
G37*
G36*
X-2566771Y-2027478D02*
G01*
X-2553157Y-2027478D01*
X-2539695Y-2025650D01*
X-2526538Y-2022043D01*
X-2513939Y-2016709D01*
X-2502204Y-2009749D01*
X-2491486Y-2001316D01*
X-2482037Y-1991512D01*
X-2473909Y-1980539D01*
X-2467406Y-1968550D01*
X-2462530Y-1955850D01*
X-2459329Y-1942592D01*
X-2457958Y-1929028D01*
X-2458415Y-1915363D01*
X-2460650Y-1901952D01*
X-2464714Y-1888896D01*
X-2470454Y-1876552D01*
X-2477770Y-1865020D01*
X-2486609Y-1854606D01*
X-2496769Y-1845462D01*
X-2507996Y-1837740D01*
X-2515819Y-1833829D01*
X-2518765Y-1831543D01*
X-2520696Y-1828393D01*
X-2521356Y-1824736D01*
X-2521356Y-1755292D01*
X-2520645Y-1751431D01*
X-2518359Y-1748129D01*
X-2227935Y-1457655D01*
X-2224836Y-1455572D01*
X-2221230Y-1454708D01*
X-2217470Y-1455216D01*
X-2207056Y-1458772D01*
X-2193137Y-1461566D01*
X-2178964Y-1462481D01*
X-2164842Y-1461566D01*
X-2150922Y-1458772D01*
X-2137511Y-1454251D01*
X-2124760Y-1447952D01*
X-2112975Y-1440078D01*
X-2102307Y-1430731D01*
X-2092960Y-1420063D01*
X-2085086Y-1408277D01*
X-2078837Y-1395577D01*
X-2074265Y-1382166D01*
X-2071522Y-1368247D01*
X-2070557Y-1354124D01*
X-2071522Y-1339951D01*
X-2074265Y-1326032D01*
X-2078837Y-1312621D01*
X-2085086Y-1299921D01*
X-2092960Y-1288135D01*
X-2102307Y-1277467D01*
X-2112975Y-1268120D01*
X-2124760Y-1260246D01*
X-2137511Y-1253947D01*
X-2150922Y-1249426D01*
X-2164842Y-1246632D01*
X-2178964Y-1245717D01*
X-2193137Y-1246632D01*
X-2207056Y-1249426D01*
X-2220468Y-1253947D01*
X-2233168Y-1260246D01*
X-2244953Y-1268120D01*
X-2255621Y-1277467D01*
X-2264968Y-1288135D01*
X-2272842Y-1299921D01*
X-2279091Y-1312621D01*
X-2283714Y-1326032D01*
X-2286406Y-1339951D01*
X-2287371Y-1354124D01*
X-2286406Y-1368247D01*
X-2283714Y-1382166D01*
X-2280107Y-1392631D01*
X-2279599Y-1396339D01*
X-2280412Y-1399997D01*
X-2282545Y-1403096D01*
X-2586939Y-1707438D01*
X-2592019Y-1713687D01*
X-2595575Y-1720342D01*
X-2597810Y-1727555D01*
X-2598572Y-1735582D01*
X-2598572Y-1824736D01*
X-2599283Y-1828393D01*
X-2601264Y-1831543D01*
X-2604211Y-1833778D01*
X-2612034Y-1837740D01*
X-2623261Y-1845462D01*
X-2633421Y-1854606D01*
X-2642209Y-1865020D01*
X-2649474Y-1876552D01*
X-2655214Y-1888896D01*
X-2659329Y-1901952D01*
X-2661564Y-1915363D01*
X-2662021Y-1929028D01*
X-2660650Y-1942592D01*
X-2657449Y-1955850D01*
X-2652572Y-1968550D01*
X-2646019Y-1980539D01*
X-2637942Y-1991512D01*
X-2628442Y-2001316D01*
X-2617724Y-2009749D01*
X-2605989Y-2016709D01*
X-2593492Y-2022043D01*
X-2580284Y-2025650D01*
G37*
G36*
X-2820771Y-2027478D02*
G01*
X-2807157Y-2027478D01*
X-2793695Y-2025650D01*
X-2780538Y-2022043D01*
X-2767939Y-2016709D01*
X-2756204Y-2009749D01*
X-2745486Y-2001316D01*
X-2736037Y-1991512D01*
X-2727909Y-1980539D01*
X-2721406Y-1968550D01*
X-2716530Y-1955850D01*
X-2713329Y-1942592D01*
X-2711958Y-1929028D01*
X-2712415Y-1915363D01*
X-2714650Y-1901952D01*
X-2718714Y-1888896D01*
X-2724454Y-1876552D01*
X-2731770Y-1865020D01*
X-2740609Y-1854606D01*
X-2750769Y-1845462D01*
X-2761996Y-1837740D01*
X-2769819Y-1833829D01*
X-2772765Y-1831543D01*
X-2774696Y-1828393D01*
X-2775356Y-1824736D01*
X-2775356Y-1755292D01*
X-2774645Y-1751431D01*
X-2772359Y-1748129D01*
X-2481935Y-1457655D01*
X-2478836Y-1455572D01*
X-2475230Y-1454708D01*
X-2471470Y-1455216D01*
X-2461056Y-1458772D01*
X-2447137Y-1461566D01*
X-2432964Y-1462481D01*
X-2418842Y-1461566D01*
X-2404922Y-1458772D01*
X-2391511Y-1454251D01*
X-2378760Y-1447952D01*
X-2366975Y-1440078D01*
X-2356307Y-1430731D01*
X-2346960Y-1420063D01*
X-2339086Y-1408277D01*
X-2332837Y-1395577D01*
X-2328265Y-1382166D01*
X-2325522Y-1368247D01*
X-2324557Y-1354124D01*
X-2325522Y-1339951D01*
X-2328265Y-1326032D01*
X-2332837Y-1312621D01*
X-2339086Y-1299921D01*
X-2346960Y-1288135D01*
X-2356307Y-1277467D01*
X-2366975Y-1268120D01*
X-2378760Y-1260246D01*
X-2391511Y-1253947D01*
X-2404922Y-1249426D01*
X-2418842Y-1246632D01*
X-2432964Y-1245717D01*
X-2447137Y-1246632D01*
X-2461056Y-1249426D01*
X-2474468Y-1253947D01*
X-2487168Y-1260246D01*
X-2498953Y-1268120D01*
X-2509621Y-1277467D01*
X-2518968Y-1288135D01*
X-2526842Y-1299921D01*
X-2533091Y-1312621D01*
X-2537714Y-1326032D01*
X-2540406Y-1339951D01*
X-2541371Y-1354124D01*
X-2540406Y-1368247D01*
X-2537714Y-1382166D01*
X-2534107Y-1392631D01*
X-2533599Y-1396339D01*
X-2534412Y-1399997D01*
X-2536545Y-1403096D01*
X-2840939Y-1707438D01*
X-2846019Y-1713687D01*
X-2849575Y-1720342D01*
X-2851810Y-1727555D01*
X-2852572Y-1735582D01*
X-2852572Y-1824736D01*
X-2853283Y-1828393D01*
X-2855264Y-1831543D01*
X-2858211Y-1833778D01*
X-2866034Y-1837740D01*
X-2877261Y-1845462D01*
X-2887421Y-1854606D01*
X-2896209Y-1865020D01*
X-2903474Y-1876552D01*
X-2909214Y-1888896D01*
X-2913329Y-1901952D01*
X-2915564Y-1915363D01*
X-2916021Y-1929028D01*
X-2914650Y-1942592D01*
X-2911449Y-1955850D01*
X-2906572Y-1968550D01*
X-2900019Y-1980539D01*
X-2891942Y-1991512D01*
X-2882442Y-2001316D01*
X-2871724Y-2009749D01*
X-2859989Y-2016709D01*
X-2847492Y-2022043D01*
X-2834284Y-2025650D01*
G37*
G36*
X-2312771Y-2027478D02*
G01*
X-2299157Y-2027478D01*
X-2285695Y-2025650D01*
X-2272538Y-2022043D01*
X-2259939Y-2016709D01*
X-2248204Y-2009749D01*
X-2237486Y-2001316D01*
X-2228037Y-1991512D01*
X-2219909Y-1980539D01*
X-2213406Y-1968550D01*
X-2208530Y-1955850D01*
X-2205329Y-1942592D01*
X-2203958Y-1929028D01*
X-2204415Y-1915363D01*
X-2206650Y-1901952D01*
X-2210714Y-1888896D01*
X-2216454Y-1876552D01*
X-2223770Y-1865020D01*
X-2232609Y-1854606D01*
X-2242769Y-1845462D01*
X-2253996Y-1837740D01*
X-2261819Y-1833829D01*
X-2264765Y-1831543D01*
X-2266696Y-1828393D01*
X-2267356Y-1824736D01*
X-2267356Y-1755292D01*
X-2266645Y-1751431D01*
X-2264359Y-1748129D01*
X-1973935Y-1457655D01*
X-1970836Y-1455572D01*
X-1967230Y-1454708D01*
X-1963470Y-1455216D01*
X-1953056Y-1458772D01*
X-1939137Y-1461566D01*
X-1924964Y-1462481D01*
X-1910842Y-1461566D01*
X-1896922Y-1458772D01*
X-1883511Y-1454251D01*
X-1870760Y-1447952D01*
X-1858975Y-1440078D01*
X-1848307Y-1430731D01*
X-1838960Y-1420063D01*
X-1831086Y-1408277D01*
X-1824837Y-1395577D01*
X-1820265Y-1382166D01*
X-1817522Y-1368247D01*
X-1816557Y-1354124D01*
X-1817522Y-1339951D01*
X-1820265Y-1326032D01*
X-1824837Y-1312621D01*
X-1831086Y-1299921D01*
X-1838960Y-1288135D01*
X-1848307Y-1277467D01*
X-1858975Y-1268120D01*
X-1870760Y-1260246D01*
X-1883511Y-1253947D01*
X-1896922Y-1249426D01*
X-1910842Y-1246632D01*
X-1924964Y-1245717D01*
X-1939137Y-1246632D01*
X-1953056Y-1249426D01*
X-1966468Y-1253947D01*
X-1979168Y-1260246D01*
X-1990953Y-1268120D01*
X-2001621Y-1277467D01*
X-2010968Y-1288135D01*
X-2018842Y-1299921D01*
X-2025091Y-1312621D01*
X-2029714Y-1326032D01*
X-2032406Y-1339951D01*
X-2033371Y-1354124D01*
X-2032406Y-1368247D01*
X-2029714Y-1382166D01*
X-2026107Y-1392631D01*
X-2025599Y-1396339D01*
X-2026412Y-1399997D01*
X-2028545Y-1403096D01*
X-2332939Y-1707438D01*
X-2338019Y-1713687D01*
X-2341575Y-1720342D01*
X-2343810Y-1727555D01*
X-2344572Y-1735582D01*
X-2344572Y-1824736D01*
X-2345283Y-1828393D01*
X-2347264Y-1831543D01*
X-2350211Y-1833778D01*
X-2358034Y-1837740D01*
X-2369261Y-1845462D01*
X-2379421Y-1854606D01*
X-2388209Y-1865020D01*
X-2395474Y-1876552D01*
X-2401214Y-1888896D01*
X-2405329Y-1901952D01*
X-2407564Y-1915363D01*
X-2408021Y-1929028D01*
X-2406650Y-1942592D01*
X-2403449Y-1955850D01*
X-2398572Y-1968550D01*
X-2392019Y-1980539D01*
X-2383942Y-1991512D01*
X-2374442Y-2001316D01*
X-2363724Y-2009749D01*
X-2351989Y-2016709D01*
X-2339492Y-2022043D01*
X-2326284Y-2025650D01*
G37*
G36*
X-3074771Y-2027478D02*
G01*
X-3061157Y-2027478D01*
X-3047695Y-2025650D01*
X-3034538Y-2022043D01*
X-3021939Y-2016709D01*
X-3010204Y-2009749D01*
X-2999486Y-2001316D01*
X-2990037Y-1991512D01*
X-2981909Y-1980539D01*
X-2975406Y-1968550D01*
X-2970530Y-1955850D01*
X-2967329Y-1942592D01*
X-2965958Y-1929028D01*
X-2966415Y-1915363D01*
X-2968650Y-1901952D01*
X-2972714Y-1888896D01*
X-2978454Y-1876552D01*
X-2985770Y-1865020D01*
X-2994609Y-1854606D01*
X-3004769Y-1845462D01*
X-3015996Y-1837740D01*
X-3023819Y-1833829D01*
X-3026765Y-1831543D01*
X-3028696Y-1828393D01*
X-3029356Y-1824736D01*
X-3029356Y-1755292D01*
X-3028645Y-1751431D01*
X-3026359Y-1748129D01*
X-2735935Y-1457655D01*
X-2732836Y-1455572D01*
X-2729230Y-1454708D01*
X-2725470Y-1455216D01*
X-2715056Y-1458772D01*
X-2701137Y-1461566D01*
X-2686964Y-1462481D01*
X-2672842Y-1461566D01*
X-2658922Y-1458772D01*
X-2645511Y-1454251D01*
X-2632760Y-1447952D01*
X-2620975Y-1440078D01*
X-2610307Y-1430731D01*
X-2600960Y-1420063D01*
X-2593086Y-1408277D01*
X-2586837Y-1395577D01*
X-2582265Y-1382166D01*
X-2579522Y-1368247D01*
X-2578557Y-1354124D01*
X-2579522Y-1339951D01*
X-2582265Y-1326032D01*
X-2586837Y-1312621D01*
X-2593086Y-1299921D01*
X-2600960Y-1288135D01*
X-2610307Y-1277467D01*
X-2620975Y-1268120D01*
X-2632760Y-1260246D01*
X-2645511Y-1253947D01*
X-2658922Y-1249426D01*
X-2672842Y-1246632D01*
X-2686964Y-1245717D01*
X-2701137Y-1246632D01*
X-2715056Y-1249426D01*
X-2728468Y-1253947D01*
X-2741168Y-1260246D01*
X-2752953Y-1268120D01*
X-2763621Y-1277467D01*
X-2772968Y-1288135D01*
X-2780842Y-1299921D01*
X-2787091Y-1312621D01*
X-2791714Y-1326032D01*
X-2794406Y-1339951D01*
X-2795371Y-1354124D01*
X-2794406Y-1368247D01*
X-2791714Y-1382166D01*
X-2788107Y-1392631D01*
X-2787599Y-1396339D01*
X-2788412Y-1399997D01*
X-2790545Y-1403096D01*
X-3094939Y-1707438D01*
X-3100019Y-1713687D01*
X-3103575Y-1720342D01*
X-3105810Y-1727555D01*
X-3106572Y-1735582D01*
X-3106572Y-1824736D01*
X-3107283Y-1828393D01*
X-3109264Y-1831543D01*
X-3112211Y-1833778D01*
X-3120034Y-1837740D01*
X-3131261Y-1845462D01*
X-3141421Y-1854606D01*
X-3150209Y-1865020D01*
X-3157474Y-1876552D01*
X-3163214Y-1888896D01*
X-3167329Y-1901952D01*
X-3169564Y-1915363D01*
X-3170021Y-1929028D01*
X-3168650Y-1942592D01*
X-3165449Y-1955850D01*
X-3160572Y-1968550D01*
X-3154019Y-1980539D01*
X-3145942Y-1991512D01*
X-3136442Y-2001316D01*
X-3125724Y-2009749D01*
X-3113989Y-2016709D01*
X-3101492Y-2022043D01*
X-3088284Y-2025650D01*
G37*
G36*
X-2058771Y-2027478D02*
G01*
X-2045157Y-2027478D01*
X-2031695Y-2025650D01*
X-2018538Y-2022043D01*
X-2005939Y-2016709D01*
X-1994204Y-2009749D01*
X-1983486Y-2001316D01*
X-1974037Y-1991512D01*
X-1965909Y-1980539D01*
X-1959406Y-1968550D01*
X-1954530Y-1955850D01*
X-1951329Y-1942592D01*
X-1949957Y-1929028D01*
X-1950415Y-1915363D01*
X-1952650Y-1901952D01*
X-1956714Y-1888896D01*
X-1962454Y-1876552D01*
X-1969770Y-1865020D01*
X-1978609Y-1854606D01*
X-1988769Y-1845462D01*
X-1999996Y-1837740D01*
X-2007819Y-1833829D01*
X-2010765Y-1831543D01*
X-2012696Y-1828393D01*
X-2013356Y-1824736D01*
X-2013356Y-1755292D01*
X-2012645Y-1751431D01*
X-2010359Y-1748129D01*
X-1719935Y-1457655D01*
X-1716836Y-1455572D01*
X-1713230Y-1454708D01*
X-1709470Y-1455216D01*
X-1699056Y-1458772D01*
X-1685137Y-1461566D01*
X-1670964Y-1462481D01*
X-1656842Y-1461566D01*
X-1642922Y-1458772D01*
X-1629511Y-1454251D01*
X-1616760Y-1447952D01*
X-1604975Y-1440078D01*
X-1594307Y-1430731D01*
X-1584960Y-1420063D01*
X-1577086Y-1408277D01*
X-1570837Y-1395577D01*
X-1566265Y-1382166D01*
X-1563522Y-1368247D01*
X-1562557Y-1354124D01*
X-1563522Y-1339951D01*
X-1566265Y-1326032D01*
X-1570837Y-1312621D01*
X-1577086Y-1299921D01*
X-1584960Y-1288135D01*
X-1594307Y-1277467D01*
X-1604975Y-1268120D01*
X-1616760Y-1260246D01*
X-1629511Y-1253947D01*
X-1642922Y-1249426D01*
X-1656842Y-1246632D01*
X-1670964Y-1245717D01*
X-1685137Y-1246632D01*
X-1699056Y-1249426D01*
X-1712468Y-1253947D01*
X-1725168Y-1260246D01*
X-1736953Y-1268120D01*
X-1747621Y-1277467D01*
X-1756968Y-1288135D01*
X-1764842Y-1299921D01*
X-1771091Y-1312621D01*
X-1775714Y-1326032D01*
X-1778406Y-1339951D01*
X-1779371Y-1354124D01*
X-1778406Y-1368247D01*
X-1775714Y-1382166D01*
X-1772107Y-1392631D01*
X-1771599Y-1396339D01*
X-1772412Y-1399997D01*
X-1774545Y-1403096D01*
X-2078939Y-1707438D01*
X-2084019Y-1713687D01*
X-2087575Y-1720342D01*
X-2089810Y-1727555D01*
X-2090572Y-1735582D01*
X-2090572Y-1824736D01*
X-2091283Y-1828393D01*
X-2093264Y-1831543D01*
X-2096211Y-1833778D01*
X-2104034Y-1837740D01*
X-2115261Y-1845462D01*
X-2125421Y-1854606D01*
X-2134209Y-1865020D01*
X-2141474Y-1876552D01*
X-2147214Y-1888896D01*
X-2151329Y-1901952D01*
X-2153564Y-1915363D01*
X-2154021Y-1929028D01*
X-2152650Y-1942592D01*
X-2149449Y-1955850D01*
X-2144572Y-1968550D01*
X-2138019Y-1980539D01*
X-2129942Y-1991512D01*
X-2120442Y-2001316D01*
X-2109724Y-2009749D01*
X-2097989Y-2016709D01*
X-2085492Y-2022043D01*
X-2072284Y-2025650D01*
G37*
G36*
X-1804771Y-2027478D02*
G01*
X-1791157Y-2027478D01*
X-1777695Y-2025650D01*
X-1764538Y-2022043D01*
X-1751939Y-2016709D01*
X-1740204Y-2009749D01*
X-1729486Y-2001316D01*
X-1720088Y-1991512D01*
X-1711909Y-1980539D01*
X-1705406Y-1968550D01*
X-1700530Y-1955850D01*
X-1697329Y-1942592D01*
X-1695957Y-1929028D01*
X-1696415Y-1915363D01*
X-1698650Y-1901952D01*
X-1702714Y-1888896D01*
X-1708454Y-1876552D01*
X-1715770Y-1865020D01*
X-1724609Y-1854606D01*
X-1734769Y-1845462D01*
X-1745996Y-1837740D01*
X-1753819Y-1833829D01*
X-1756765Y-1831543D01*
X-1758696Y-1828393D01*
X-1759356Y-1824736D01*
X-1759356Y-1755292D01*
X-1758645Y-1751431D01*
X-1756359Y-1748129D01*
X-1465935Y-1457655D01*
X-1462836Y-1455572D01*
X-1459230Y-1454708D01*
X-1455470Y-1455216D01*
X-1445056Y-1458772D01*
X-1431137Y-1461566D01*
X-1416964Y-1462481D01*
X-1402842Y-1461566D01*
X-1388922Y-1458772D01*
X-1375511Y-1454251D01*
X-1362760Y-1447952D01*
X-1350975Y-1440078D01*
X-1340307Y-1430731D01*
X-1330960Y-1420063D01*
X-1323086Y-1408277D01*
X-1316837Y-1395577D01*
X-1312265Y-1382166D01*
X-1309522Y-1368247D01*
X-1308557Y-1354124D01*
X-1309522Y-1339951D01*
X-1312265Y-1326032D01*
X-1316837Y-1312621D01*
X-1323086Y-1299921D01*
X-1330960Y-1288135D01*
X-1340307Y-1277467D01*
X-1350975Y-1268120D01*
X-1362760Y-1260246D01*
X-1375511Y-1253947D01*
X-1388922Y-1249426D01*
X-1402842Y-1246632D01*
X-1416964Y-1245717D01*
X-1431137Y-1246632D01*
X-1445056Y-1249426D01*
X-1458468Y-1253947D01*
X-1471168Y-1260246D01*
X-1482953Y-1268120D01*
X-1493621Y-1277467D01*
X-1502968Y-1288135D01*
X-1510842Y-1299921D01*
X-1517091Y-1312621D01*
X-1521714Y-1326032D01*
X-1524406Y-1339951D01*
X-1525371Y-1354124D01*
X-1524406Y-1368247D01*
X-1521714Y-1382166D01*
X-1518107Y-1392631D01*
X-1517599Y-1396339D01*
X-1518412Y-1399997D01*
X-1520545Y-1403096D01*
X-1824939Y-1707438D01*
X-1830019Y-1713687D01*
X-1833575Y-1720342D01*
X-1835810Y-1727555D01*
X-1836572Y-1735582D01*
X-1836572Y-1824736D01*
X-1837283Y-1828393D01*
X-1839264Y-1831543D01*
X-1842211Y-1833778D01*
X-1850034Y-1837740D01*
X-1861261Y-1845462D01*
X-1871421Y-1854606D01*
X-1880209Y-1865020D01*
X-1887474Y-1876552D01*
X-1893214Y-1888896D01*
X-1897329Y-1901952D01*
X-1899564Y-1915363D01*
X-1900021Y-1929028D01*
X-1898650Y-1942592D01*
X-1895449Y-1955850D01*
X-1890572Y-1968550D01*
X-1884019Y-1980539D01*
X-1875942Y-1991512D01*
X-1866442Y-2001316D01*
X-1855724Y-2009749D01*
X-1843989Y-2016709D01*
X-1831492Y-2022043D01*
X-1818284Y-2025650D01*
G37*
G36*
X-4718964Y-1462481D02*
G01*
X-4704842Y-1461566D01*
X-4690922Y-1458772D01*
X-4677511Y-1454251D01*
X-4664760Y-1447952D01*
X-4652975Y-1440078D01*
X-4642307Y-1430731D01*
X-4632960Y-1420063D01*
X-4625086Y-1408277D01*
X-4618837Y-1395577D01*
X-4614265Y-1382166D01*
X-4611522Y-1368247D01*
X-4610557Y-1354124D01*
X-4611522Y-1339951D01*
X-4614265Y-1326032D01*
X-4618837Y-1312621D01*
X-4625086Y-1299921D01*
X-4632960Y-1288135D01*
X-4642307Y-1277467D01*
X-4652975Y-1268120D01*
X-4664760Y-1260246D01*
X-4677511Y-1253947D01*
X-4690922Y-1249426D01*
X-4704842Y-1246632D01*
X-4718964Y-1245717D01*
X-4733137Y-1246632D01*
X-4747056Y-1249426D01*
X-4760468Y-1253947D01*
X-4773168Y-1260246D01*
X-4784953Y-1268120D01*
X-4795621Y-1277467D01*
X-4804968Y-1288135D01*
X-4812842Y-1299921D01*
X-4819091Y-1312621D01*
X-4823714Y-1326032D01*
X-4826406Y-1339951D01*
X-4827371Y-1354124D01*
X-4826406Y-1368247D01*
X-4823714Y-1382166D01*
X-4819091Y-1395577D01*
X-4812842Y-1408277D01*
X-4804968Y-1420063D01*
X-4795621Y-1430731D01*
X-4784953Y-1440078D01*
X-4773168Y-1447952D01*
X-4760468Y-1454251D01*
X-4747056Y-1458772D01*
X-4733137Y-1461566D01*
G37*
G36*
X-1210614Y-1451203D02*
G01*
X-1210614Y-1401724D01*
X-1260094Y-1401724D01*
X-1256842Y-1408277D01*
X-1248968Y-1420063D01*
X-1239621Y-1430731D01*
X-1228953Y-1440078D01*
X-1217168Y-1447952D01*
G37*
G36*
X-1115415Y-1451203D02*
G01*
X-1108760Y-1447952D01*
X-1096975Y-1440078D01*
X-1086307Y-1430731D01*
X-1076960Y-1420063D01*
X-1069086Y-1408277D01*
X-1065834Y-1401724D01*
X-1115415Y-1401724D01*
G37*
G36*
X-434187Y-1348587D02*
G01*
X-434187Y-1239824D01*
X-543052Y-1239824D01*
X-541426Y-1243126D01*
X-529386Y-1262583D01*
X-515772Y-1281023D01*
X-500634Y-1298194D01*
X-484124Y-1314043D01*
X-466293Y-1328420D01*
X-447344Y-1341221D01*
G37*
G36*
X-5704179Y-1348587D02*
G01*
X-5704179Y-1239824D01*
X-5813044Y-1239824D01*
X-5811418Y-1243126D01*
X-5799378Y-1262583D01*
X-5785764Y-1281023D01*
X-5770626Y-1298194D01*
X-5754116Y-1314043D01*
X-5736285Y-1328420D01*
X-5717336Y-1341221D01*
G37*
G36*
X-177749Y-1348587D02*
G01*
X-164592Y-1341221D01*
X-145694Y-1328420D01*
X-127812Y-1314043D01*
X-111302Y-1298194D01*
X-96164Y-1281023D01*
X-82550Y-1262583D01*
X-70561Y-1243126D01*
X-68884Y-1239824D01*
X-177749Y-1239824D01*
G37*
G36*
X-5447741Y-1348587D02*
G01*
X-5434584Y-1341221D01*
X-5415635Y-1328420D01*
X-5397804Y-1314043D01*
X-5381294Y-1298194D01*
X-5366156Y-1281023D01*
X-5352542Y-1262583D01*
X-5340553Y-1243126D01*
X-5338876Y-1239824D01*
X-5447741Y-1239824D01*
G37*
G36*
X-1115415Y-1306525D02*
G01*
X-1065834Y-1306525D01*
X-1069086Y-1299921D01*
X-1076960Y-1288135D01*
X-1086307Y-1277467D01*
X-1096975Y-1268120D01*
X-1108760Y-1260246D01*
X-1115415Y-1256995D01*
G37*
G36*
X-1260094Y-1306525D02*
G01*
X-1210614Y-1306525D01*
X-1210614Y-1256995D01*
X-1217168Y-1260246D01*
X-1228953Y-1268120D01*
X-1239621Y-1277467D01*
X-1248968Y-1288135D01*
X-1256842Y-1299921D01*
G37*
G36*
X-5447741Y-983386D02*
G01*
X-5338876Y-983386D01*
X-5340553Y-980084D01*
X-5352542Y-960628D01*
X-5366156Y-942187D01*
X-5381294Y-925017D01*
X-5397804Y-909167D01*
X-5415635Y-894791D01*
X-5434584Y-881989D01*
X-5447741Y-874623D01*
G37*
G36*
X-177749Y-983386D02*
G01*
X-68884Y-983386D01*
X-70561Y-980084D01*
X-82550Y-960628D01*
X-96164Y-942187D01*
X-111302Y-925017D01*
X-127812Y-909167D01*
X-145694Y-894791D01*
X-164592Y-881989D01*
X-177749Y-874623D01*
G37*
G36*
X-5813044Y-983386D02*
G01*
X-5704179Y-983386D01*
X-5704179Y-874623D01*
X-5717336Y-881989D01*
X-5736285Y-894791D01*
X-5754116Y-909167D01*
X-5770626Y-925017D01*
X-5785764Y-942187D01*
X-5799378Y-960628D01*
X-5811418Y-980084D01*
G37*
G36*
X-543052Y-983386D02*
G01*
X-434187Y-983386D01*
X-434187Y-874623D01*
X-447344Y-881989D01*
X-466293Y-894791D01*
X-484124Y-909167D01*
X-500634Y-925017D01*
X-515772Y-942187D01*
X-529386Y-960628D01*
X-541426Y-980084D01*
G37*
G36*
X-1162964Y-977493D02*
G01*
X-1148842Y-976579D01*
X-1134922Y-973785D01*
X-1121511Y-969264D01*
X-1108760Y-962964D01*
X-1096975Y-955090D01*
X-1086307Y-945743D01*
X-1076960Y-935075D01*
X-1069086Y-923290D01*
X-1062837Y-910590D01*
X-1058265Y-897178D01*
X-1055522Y-883259D01*
X-1054557Y-869137D01*
X-1055522Y-854964D01*
X-1058265Y-841044D01*
X-1062837Y-827633D01*
X-1069086Y-814933D01*
X-1076960Y-803148D01*
X-1086307Y-792480D01*
X-1096975Y-783132D01*
X-1108760Y-775258D01*
X-1121511Y-768959D01*
X-1134922Y-764438D01*
X-1148842Y-761644D01*
X-1162964Y-760730D01*
X-1177137Y-761644D01*
X-1191056Y-764438D01*
X-1204468Y-768959D01*
X-1217168Y-775258D01*
X-1228953Y-783132D01*
X-1239621Y-792480D01*
X-1248968Y-803148D01*
X-1256842Y-814933D01*
X-1263091Y-827633D01*
X-1267714Y-841044D01*
X-1270406Y-854964D01*
X-1271371Y-869137D01*
X-1270406Y-883259D01*
X-1267714Y-897178D01*
X-1263091Y-910590D01*
X-1256842Y-923290D01*
X-1248968Y-935075D01*
X-1239621Y-945743D01*
X-1228953Y-955090D01*
X-1217168Y-962964D01*
X-1204468Y-969264D01*
X-1191056Y-973785D01*
X-1177137Y-976579D01*
G37*
G36*
X-2432964Y-977493D02*
G01*
X-2418842Y-976579D01*
X-2404922Y-973785D01*
X-2391511Y-969264D01*
X-2378760Y-962964D01*
X-2366975Y-955090D01*
X-2356307Y-945743D01*
X-2346960Y-935075D01*
X-2339086Y-923290D01*
X-2332837Y-910590D01*
X-2328265Y-897178D01*
X-2325522Y-883259D01*
X-2324557Y-869137D01*
X-2325522Y-854964D01*
X-2328265Y-841044D01*
X-2332837Y-827633D01*
X-2339086Y-814933D01*
X-2346960Y-803148D01*
X-2356307Y-792480D01*
X-2366975Y-783132D01*
X-2378760Y-775258D01*
X-2391511Y-768959D01*
X-2404922Y-764438D01*
X-2418842Y-761644D01*
X-2432964Y-760730D01*
X-2447137Y-761644D01*
X-2461056Y-764438D01*
X-2474468Y-768959D01*
X-2487168Y-775258D01*
X-2498953Y-783132D01*
X-2509621Y-792480D01*
X-2518968Y-803148D01*
X-2526842Y-814933D01*
X-2533091Y-827633D01*
X-2537714Y-841044D01*
X-2540406Y-854964D01*
X-2541371Y-869137D01*
X-2540406Y-883259D01*
X-2537714Y-897178D01*
X-2533091Y-910590D01*
X-2526842Y-923290D01*
X-2518968Y-935075D01*
X-2509621Y-945743D01*
X-2498953Y-955090D01*
X-2487168Y-962964D01*
X-2474468Y-969264D01*
X-2461056Y-973785D01*
X-2447137Y-976579D01*
G37*
G36*
X-1670964Y-977493D02*
G01*
X-1656842Y-976579D01*
X-1642922Y-973785D01*
X-1629511Y-969264D01*
X-1616760Y-962964D01*
X-1604975Y-955090D01*
X-1594307Y-945743D01*
X-1584960Y-935075D01*
X-1577086Y-923290D01*
X-1570837Y-910590D01*
X-1566265Y-897178D01*
X-1563522Y-883259D01*
X-1562557Y-869137D01*
X-1563522Y-854964D01*
X-1566265Y-841044D01*
X-1570837Y-827633D01*
X-1577086Y-814933D01*
X-1584960Y-803148D01*
X-1594307Y-792480D01*
X-1604975Y-783132D01*
X-1616760Y-775258D01*
X-1629511Y-768959D01*
X-1642922Y-764438D01*
X-1656842Y-761644D01*
X-1670964Y-760730D01*
X-1685137Y-761644D01*
X-1699056Y-764438D01*
X-1712468Y-768959D01*
X-1725168Y-775258D01*
X-1736953Y-783132D01*
X-1747621Y-792480D01*
X-1756968Y-803148D01*
X-1764842Y-814933D01*
X-1771091Y-827633D01*
X-1775714Y-841044D01*
X-1778406Y-854964D01*
X-1779371Y-869137D01*
X-1778406Y-883259D01*
X-1775714Y-897178D01*
X-1771091Y-910590D01*
X-1764842Y-923290D01*
X-1756968Y-935075D01*
X-1747621Y-945743D01*
X-1736953Y-955090D01*
X-1725168Y-962964D01*
X-1712468Y-969264D01*
X-1699056Y-973785D01*
X-1685137Y-976579D01*
G37*
G36*
X-2178964Y-977493D02*
G01*
X-2164842Y-976579D01*
X-2150922Y-973785D01*
X-2137511Y-969264D01*
X-2124760Y-962964D01*
X-2112975Y-955090D01*
X-2102307Y-945743D01*
X-2092960Y-935075D01*
X-2085086Y-923290D01*
X-2078837Y-910590D01*
X-2074265Y-897178D01*
X-2071522Y-883259D01*
X-2070557Y-869137D01*
X-2071522Y-854964D01*
X-2074265Y-841044D01*
X-2078837Y-827633D01*
X-2085086Y-814933D01*
X-2092960Y-803148D01*
X-2102307Y-792480D01*
X-2112975Y-783132D01*
X-2124760Y-775258D01*
X-2137511Y-768959D01*
X-2150922Y-764438D01*
X-2164842Y-761644D01*
X-2178964Y-760730D01*
X-2193137Y-761644D01*
X-2207056Y-764438D01*
X-2220468Y-768959D01*
X-2233168Y-775258D01*
X-2244953Y-783132D01*
X-2255621Y-792480D01*
X-2264968Y-803148D01*
X-2272842Y-814933D01*
X-2279091Y-827633D01*
X-2283714Y-841044D01*
X-2286406Y-854964D01*
X-2287371Y-869137D01*
X-2286406Y-883259D01*
X-2283714Y-897178D01*
X-2279091Y-910590D01*
X-2272842Y-923290D01*
X-2264968Y-935075D01*
X-2255621Y-945743D01*
X-2244953Y-955090D01*
X-2233168Y-962964D01*
X-2220468Y-969264D01*
X-2207056Y-973785D01*
X-2193137Y-976579D01*
G37*
G36*
X-1416964Y-977493D02*
G01*
X-1402842Y-976579D01*
X-1388922Y-973785D01*
X-1375511Y-969264D01*
X-1362760Y-962964D01*
X-1350975Y-955090D01*
X-1340307Y-945743D01*
X-1330960Y-935075D01*
X-1323086Y-923290D01*
X-1316837Y-910590D01*
X-1312265Y-897178D01*
X-1309522Y-883259D01*
X-1308557Y-869137D01*
X-1309522Y-854964D01*
X-1312265Y-841044D01*
X-1316837Y-827633D01*
X-1323086Y-814933D01*
X-1330960Y-803148D01*
X-1340307Y-792480D01*
X-1350975Y-783132D01*
X-1362760Y-775258D01*
X-1375511Y-768959D01*
X-1388922Y-764438D01*
X-1402842Y-761644D01*
X-1416964Y-760730D01*
X-1431137Y-761644D01*
X-1445056Y-764438D01*
X-1458468Y-768959D01*
X-1471168Y-775258D01*
X-1482953Y-783132D01*
X-1493621Y-792480D01*
X-1502968Y-803148D01*
X-1510842Y-814933D01*
X-1517091Y-827633D01*
X-1521714Y-841044D01*
X-1524406Y-854964D01*
X-1525371Y-869137D01*
X-1524406Y-883259D01*
X-1521714Y-897178D01*
X-1517091Y-910590D01*
X-1510842Y-923290D01*
X-1502968Y-935075D01*
X-1493621Y-945743D01*
X-1482953Y-955090D01*
X-1471168Y-962964D01*
X-1458468Y-969264D01*
X-1445056Y-973785D01*
X-1431137Y-976579D01*
G37*
G36*
X-1924964Y-977493D02*
G01*
X-1910842Y-976579D01*
X-1896922Y-973785D01*
X-1883511Y-969264D01*
X-1870760Y-962964D01*
X-1858975Y-955090D01*
X-1848307Y-945743D01*
X-1838960Y-935075D01*
X-1831086Y-923290D01*
X-1824837Y-910590D01*
X-1820265Y-897178D01*
X-1817522Y-883259D01*
X-1816557Y-869137D01*
X-1817522Y-854964D01*
X-1820265Y-841044D01*
X-1824837Y-827633D01*
X-1831086Y-814933D01*
X-1838960Y-803148D01*
X-1848307Y-792480D01*
X-1858975Y-783132D01*
X-1870760Y-775258D01*
X-1883511Y-768959D01*
X-1896922Y-764438D01*
X-1910842Y-761644D01*
X-1924964Y-760730D01*
X-1939137Y-761644D01*
X-1953056Y-764438D01*
X-1966468Y-768959D01*
X-1979168Y-775258D01*
X-1990953Y-783132D01*
X-2001621Y-792480D01*
X-2010968Y-803148D01*
X-2018842Y-814933D01*
X-2025091Y-827633D01*
X-2029714Y-841044D01*
X-2032406Y-854964D01*
X-2033371Y-869137D01*
X-2032406Y-883259D01*
X-2029714Y-897178D01*
X-2025091Y-910590D01*
X-2018842Y-923290D01*
X-2010968Y-935075D01*
X-2001621Y-945743D01*
X-1990953Y-955090D01*
X-1979168Y-962964D01*
X-1966468Y-969264D01*
X-1953056Y-973785D01*
X-1939137Y-976579D01*
G37*
G36*
X-2686964Y-977493D02*
G01*
X-2672842Y-976579D01*
X-2658922Y-973785D01*
X-2645511Y-969264D01*
X-2632760Y-962964D01*
X-2620975Y-955090D01*
X-2610307Y-945743D01*
X-2600960Y-935075D01*
X-2593086Y-923290D01*
X-2586837Y-910590D01*
X-2582265Y-897178D01*
X-2579522Y-883259D01*
X-2578557Y-869137D01*
X-2579522Y-854964D01*
X-2582265Y-841044D01*
X-2586837Y-827633D01*
X-2593086Y-814933D01*
X-2600960Y-803148D01*
X-2610307Y-792480D01*
X-2620975Y-783132D01*
X-2632760Y-775258D01*
X-2645511Y-768959D01*
X-2658922Y-764438D01*
X-2672842Y-761644D01*
X-2686964Y-760730D01*
X-2701137Y-761644D01*
X-2715056Y-764438D01*
X-2728468Y-768959D01*
X-2741168Y-775258D01*
X-2752953Y-783132D01*
X-2763621Y-792480D01*
X-2772968Y-803148D01*
X-2780842Y-814933D01*
X-2787091Y-827633D01*
X-2791714Y-841044D01*
X-2794406Y-854964D01*
X-2795371Y-869137D01*
X-2794406Y-883259D01*
X-2791714Y-897178D01*
X-2787091Y-910590D01*
X-2780842Y-923290D01*
X-2772968Y-935075D01*
X-2763621Y-945743D01*
X-2752953Y-955090D01*
X-2741168Y-962964D01*
X-2728468Y-969264D01*
X-2715056Y-973785D01*
X-2701137Y-976579D01*
G37*
G36*
X-4464964Y-977493D02*
G01*
X-4450842Y-976579D01*
X-4436922Y-973785D01*
X-4423511Y-969264D01*
X-4410760Y-962964D01*
X-4398975Y-955090D01*
X-4388307Y-945743D01*
X-4378960Y-935075D01*
X-4371086Y-923290D01*
X-4364837Y-910590D01*
X-4360265Y-897178D01*
X-4357522Y-883259D01*
X-4356557Y-869137D01*
X-4357522Y-854964D01*
X-4360265Y-841044D01*
X-4364837Y-827633D01*
X-4371086Y-814933D01*
X-4378960Y-803148D01*
X-4388307Y-792480D01*
X-4398975Y-783132D01*
X-4409186Y-776325D01*
X-4412183Y-773226D01*
X-4413605Y-769213D01*
X-4413250Y-764895D01*
X-4411167Y-761187D01*
X-4407712Y-758596D01*
X-4403598Y-757682D01*
X-4272381Y-757682D01*
X-4268216Y-758596D01*
X-4264761Y-761187D01*
X-4262678Y-764895D01*
X-4262323Y-769213D01*
X-4263745Y-773226D01*
X-4266742Y-776325D01*
X-4276953Y-783132D01*
X-4287621Y-792480D01*
X-4296968Y-803148D01*
X-4304842Y-814933D01*
X-4311091Y-827633D01*
X-4315714Y-841044D01*
X-4318406Y-854964D01*
X-4319371Y-869137D01*
X-4318406Y-883259D01*
X-4315714Y-897178D01*
X-4311091Y-910590D01*
X-4304842Y-923290D01*
X-4296968Y-935075D01*
X-4287621Y-945743D01*
X-4276953Y-955090D01*
X-4265168Y-962964D01*
X-4252468Y-969264D01*
X-4239056Y-973785D01*
X-4225137Y-976579D01*
X-4210964Y-977493D01*
X-4196842Y-976579D01*
X-4182922Y-973785D01*
X-4169511Y-969264D01*
X-4156760Y-962964D01*
X-4144975Y-955090D01*
X-4134307Y-945743D01*
X-4124960Y-935075D01*
X-4117086Y-923290D01*
X-4110837Y-910590D01*
X-4106265Y-897178D01*
X-4103522Y-883259D01*
X-4102557Y-869137D01*
X-4103522Y-854964D01*
X-4106265Y-841044D01*
X-4110837Y-827633D01*
X-4117086Y-814933D01*
X-4124960Y-803148D01*
X-4134307Y-792480D01*
X-4144975Y-783132D01*
X-4155186Y-776325D01*
X-4158183Y-773226D01*
X-4159605Y-769213D01*
X-4159250Y-764895D01*
X-4157167Y-761187D01*
X-4153712Y-758596D01*
X-4149598Y-757682D01*
X-4018381Y-757682D01*
X-4014215Y-758596D01*
X-4010761Y-761187D01*
X-4008678Y-764895D01*
X-4008323Y-769213D01*
X-4009745Y-773226D01*
X-4012742Y-776325D01*
X-4022953Y-783132D01*
X-4033621Y-792480D01*
X-4042968Y-803148D01*
X-4050842Y-814933D01*
X-4057091Y-827633D01*
X-4061714Y-841044D01*
X-4064406Y-854964D01*
X-4065371Y-869137D01*
X-4064406Y-883259D01*
X-4061714Y-897178D01*
X-4057091Y-910590D01*
X-4050842Y-923290D01*
X-4042968Y-935075D01*
X-4033621Y-945743D01*
X-4022953Y-955090D01*
X-4011168Y-962964D01*
X-3998468Y-969264D01*
X-3985056Y-973785D01*
X-3971137Y-976579D01*
X-3956964Y-977493D01*
X-3942842Y-976579D01*
X-3928922Y-973785D01*
X-3915511Y-969264D01*
X-3902760Y-962964D01*
X-3890975Y-955090D01*
X-3880307Y-945743D01*
X-3870960Y-935075D01*
X-3863086Y-923290D01*
X-3856837Y-910590D01*
X-3852265Y-897178D01*
X-3849522Y-883259D01*
X-3848557Y-869137D01*
X-3849522Y-854964D01*
X-3852265Y-841044D01*
X-3856837Y-827633D01*
X-3863086Y-814933D01*
X-3870960Y-803148D01*
X-3880307Y-792480D01*
X-3890975Y-783132D01*
X-3901186Y-776325D01*
X-3904183Y-773226D01*
X-3905605Y-769213D01*
X-3905250Y-764895D01*
X-3903167Y-761187D01*
X-3899712Y-758596D01*
X-3895598Y-757682D01*
X-3873246Y-757682D01*
X-3869334Y-758494D01*
X-3865981Y-760679D01*
X-3806545Y-820115D01*
X-3804412Y-823214D01*
X-3803599Y-826871D01*
X-3804107Y-830580D01*
X-3807714Y-841044D01*
X-3810406Y-854964D01*
X-3811371Y-869137D01*
X-3810406Y-883259D01*
X-3807714Y-897178D01*
X-3803091Y-910590D01*
X-3796842Y-923290D01*
X-3788968Y-935075D01*
X-3779621Y-945743D01*
X-3768953Y-955090D01*
X-3757168Y-962964D01*
X-3744468Y-969264D01*
X-3731056Y-973785D01*
X-3717137Y-976579D01*
X-3702964Y-977493D01*
X-3688842Y-976579D01*
X-3674922Y-973785D01*
X-3661511Y-969264D01*
X-3648760Y-962964D01*
X-3636975Y-955090D01*
X-3626307Y-945743D01*
X-3616960Y-935075D01*
X-3609086Y-923290D01*
X-3602837Y-910590D01*
X-3598265Y-897178D01*
X-3595522Y-883259D01*
X-3594557Y-869137D01*
X-3595522Y-854964D01*
X-3598265Y-841044D01*
X-3602837Y-827633D01*
X-3609086Y-814933D01*
X-3616960Y-803148D01*
X-3626307Y-792480D01*
X-3636975Y-783132D01*
X-3648760Y-775258D01*
X-3661511Y-768959D01*
X-3674922Y-764438D01*
X-3688842Y-761644D01*
X-3702964Y-760730D01*
X-3717137Y-761644D01*
X-3731056Y-764438D01*
X-3741470Y-767994D01*
X-3745229Y-768502D01*
X-3748836Y-767638D01*
X-3751935Y-765556D01*
X-3825392Y-692150D01*
X-3831844Y-686816D01*
X-3834434Y-683615D01*
X-3835552Y-679653D01*
X-3834942Y-675538D01*
X-3832809Y-672033D01*
X-3829405Y-669645D01*
X-3825392Y-668782D01*
X-3708146Y-668782D01*
X-3704234Y-669594D01*
X-3700881Y-671779D01*
X-3552545Y-820115D01*
X-3550412Y-823214D01*
X-3549599Y-826871D01*
X-3550107Y-830580D01*
X-3553714Y-841044D01*
X-3556406Y-854964D01*
X-3557371Y-869137D01*
X-3556406Y-883259D01*
X-3553714Y-897178D01*
X-3549091Y-910590D01*
X-3542842Y-923290D01*
X-3534968Y-935075D01*
X-3525621Y-945743D01*
X-3514953Y-955090D01*
X-3503168Y-962964D01*
X-3490468Y-969264D01*
X-3477056Y-973785D01*
X-3463137Y-976579D01*
X-3448964Y-977493D01*
X-3434842Y-976579D01*
X-3420922Y-973785D01*
X-3407511Y-969264D01*
X-3394760Y-962964D01*
X-3382975Y-955090D01*
X-3372307Y-945743D01*
X-3362960Y-935075D01*
X-3355086Y-923290D01*
X-3348837Y-910590D01*
X-3344265Y-897178D01*
X-3341522Y-883259D01*
X-3340557Y-869137D01*
X-3341522Y-854964D01*
X-3344265Y-841044D01*
X-3348837Y-827633D01*
X-3355086Y-814933D01*
X-3362960Y-803148D01*
X-3372307Y-792480D01*
X-3382975Y-783132D01*
X-3394760Y-775258D01*
X-3407511Y-768959D01*
X-3420922Y-764438D01*
X-3434842Y-761644D01*
X-3448964Y-760730D01*
X-3463137Y-761644D01*
X-3477056Y-764438D01*
X-3487470Y-767994D01*
X-3491229Y-768502D01*
X-3494836Y-767638D01*
X-3497935Y-765556D01*
X-3660292Y-603250D01*
X-3666744Y-597916D01*
X-3669334Y-594715D01*
X-3670452Y-590753D01*
X-3669842Y-586638D01*
X-3667709Y-583133D01*
X-3664305Y-580745D01*
X-3660292Y-579882D01*
X-3543046Y-579882D01*
X-3539134Y-580694D01*
X-3535781Y-582879D01*
X-3298545Y-820115D01*
X-3296412Y-823214D01*
X-3295599Y-826871D01*
X-3296107Y-830580D01*
X-3299714Y-841044D01*
X-3302406Y-854964D01*
X-3303371Y-869137D01*
X-3302406Y-883259D01*
X-3299714Y-897178D01*
X-3295091Y-910590D01*
X-3288842Y-923290D01*
X-3280968Y-935075D01*
X-3271621Y-945743D01*
X-3260953Y-955090D01*
X-3249168Y-962964D01*
X-3236468Y-969264D01*
X-3223056Y-973785D01*
X-3209137Y-976579D01*
X-3194964Y-977493D01*
X-3180842Y-976579D01*
X-3166922Y-973785D01*
X-3153511Y-969264D01*
X-3140760Y-962964D01*
X-3128975Y-955090D01*
X-3118307Y-945743D01*
X-3108960Y-935075D01*
X-3101086Y-923290D01*
X-3094837Y-910590D01*
X-3090265Y-897178D01*
X-3087522Y-883259D01*
X-3086557Y-869137D01*
X-3087522Y-854964D01*
X-3090265Y-841044D01*
X-3094837Y-827633D01*
X-3101086Y-814933D01*
X-3108960Y-803148D01*
X-3118307Y-792480D01*
X-3128975Y-783132D01*
X-3140760Y-775258D01*
X-3153511Y-768959D01*
X-3166922Y-764438D01*
X-3180842Y-761644D01*
X-3194964Y-760730D01*
X-3209137Y-761644D01*
X-3223056Y-764438D01*
X-3233470Y-767994D01*
X-3237230Y-768502D01*
X-3240836Y-767638D01*
X-3243935Y-765556D01*
X-3488436Y-521055D01*
X-3490671Y-517753D01*
X-3491382Y-513842D01*
X-3490671Y-509981D01*
X-3488436Y-506679D01*
X-3485134Y-504494D01*
X-3481222Y-503682D01*
X-3278733Y-503682D01*
X-3274822Y-504494D01*
X-3271469Y-506679D01*
X-3008274Y-769874D01*
X-3005988Y-773328D01*
X-3005328Y-777392D01*
X-3006293Y-781405D01*
X-3008782Y-784707D01*
X-3017621Y-792480D01*
X-3026968Y-803148D01*
X-3034842Y-814933D01*
X-3041091Y-827633D01*
X-3045714Y-841044D01*
X-3048406Y-854964D01*
X-3049371Y-869137D01*
X-3048406Y-883259D01*
X-3045714Y-897178D01*
X-3041091Y-910590D01*
X-3034842Y-923290D01*
X-3026968Y-935075D01*
X-3017621Y-945743D01*
X-3006953Y-955090D01*
X-2995168Y-962964D01*
X-2982468Y-969264D01*
X-2969056Y-973785D01*
X-2955137Y-976579D01*
X-2940964Y-977493D01*
X-2926842Y-976579D01*
X-2912922Y-973785D01*
X-2899511Y-969264D01*
X-2886760Y-962964D01*
X-2874975Y-955090D01*
X-2864307Y-945743D01*
X-2854960Y-935075D01*
X-2847086Y-923290D01*
X-2840837Y-910590D01*
X-2836265Y-897178D01*
X-2833522Y-883259D01*
X-2832557Y-869137D01*
X-2833522Y-854964D01*
X-2836265Y-841044D01*
X-2840837Y-827633D01*
X-2847086Y-814933D01*
X-2854960Y-803148D01*
X-2864307Y-792480D01*
X-2874975Y-783132D01*
X-2886760Y-775258D01*
X-2899511Y-768959D01*
X-2902153Y-768096D01*
X-2905404Y-766216D01*
X-2907792Y-763270D01*
X-2908960Y-761187D01*
X-2914040Y-754938D01*
X-3230880Y-438150D01*
X-3237026Y-433019D01*
X-3243732Y-429463D01*
X-3250946Y-427278D01*
X-3258972Y-426466D01*
X-4152646Y-426466D01*
X-4156557Y-425704D01*
X-4159910Y-423519D01*
X-4239310Y-344068D01*
X-4241546Y-340817D01*
X-4242308Y-337058D01*
X-4241596Y-333197D01*
X-4240530Y-330250D01*
X-4237278Y-316992D01*
X-4235958Y-303428D01*
X-4236415Y-289763D01*
X-4238650Y-276352D01*
X-4242714Y-263296D01*
X-4248454Y-250952D01*
X-4255770Y-239420D01*
X-4264609Y-229006D01*
X-4274769Y-219862D01*
X-4285996Y-212140D01*
X-4298188Y-205994D01*
X-4310989Y-201523D01*
X-4324350Y-198831D01*
X-4337964Y-197916D01*
X-4351578Y-198831D01*
X-4364939Y-201523D01*
X-4377842Y-205994D01*
X-4390034Y-212140D01*
X-4401261Y-219862D01*
X-4411421Y-229006D01*
X-4420209Y-239420D01*
X-4427474Y-250952D01*
X-4433214Y-263296D01*
X-4437329Y-276352D01*
X-4439564Y-289763D01*
X-4439970Y-303428D01*
X-4438650Y-316992D01*
X-4435449Y-330250D01*
X-4430572Y-342950D01*
X-4424019Y-354939D01*
X-4415942Y-365912D01*
X-4406442Y-375716D01*
X-4395724Y-384149D01*
X-4383989Y-391109D01*
X-4371492Y-396443D01*
X-4358284Y-400050D01*
X-4344771Y-401878D01*
X-4331157Y-401878D01*
X-4317695Y-400050D01*
X-4303674Y-396189D01*
X-4300169Y-395833D01*
X-4296714Y-396748D01*
X-4293819Y-398780D01*
X-4207256Y-485343D01*
X-4205020Y-488645D01*
X-4204309Y-492506D01*
X-4205020Y-496417D01*
X-4207256Y-499719D01*
X-4210507Y-501904D01*
X-4214418Y-502666D01*
X-4495546Y-502666D01*
X-4499457Y-501904D01*
X-4502810Y-499719D01*
X-4550359Y-452069D01*
X-4552645Y-448767D01*
X-4553356Y-444906D01*
X-4553356Y-401015D01*
X-4552645Y-397154D01*
X-4550410Y-393852D01*
X-4534204Y-384149D01*
X-4523486Y-375716D01*
X-4514037Y-365912D01*
X-4505909Y-354939D01*
X-4499406Y-342950D01*
X-4494530Y-330250D01*
X-4491278Y-316992D01*
X-4489958Y-303428D01*
X-4490415Y-289763D01*
X-4492650Y-276352D01*
X-4496714Y-263296D01*
X-4502454Y-250952D01*
X-4509770Y-239420D01*
X-4518558Y-229006D01*
X-4528769Y-219862D01*
X-4539996Y-212140D01*
X-4552137Y-205994D01*
X-4564989Y-201523D01*
X-4578350Y-198831D01*
X-4591964Y-197916D01*
X-4605578Y-198831D01*
X-4618939Y-201523D01*
X-4631842Y-205994D01*
X-4644034Y-212140D01*
X-4655261Y-219862D01*
X-4665421Y-229006D01*
X-4674209Y-239420D01*
X-4681474Y-250952D01*
X-4687214Y-263296D01*
X-4691329Y-276352D01*
X-4693513Y-289763D01*
X-4693970Y-303428D01*
X-4692650Y-316992D01*
X-4689449Y-330250D01*
X-4684572Y-342950D01*
X-4678019Y-354939D01*
X-4669942Y-365912D01*
X-4660442Y-375716D01*
X-4649724Y-384149D01*
X-4633518Y-393852D01*
X-4631334Y-397154D01*
X-4630572Y-401015D01*
X-4630572Y-464616D01*
X-4629810Y-472643D01*
X-4627575Y-479856D01*
X-4624019Y-486511D01*
X-4618939Y-492759D01*
X-4543399Y-568248D01*
X-4536998Y-573582D01*
X-4534306Y-576783D01*
X-4533239Y-580745D01*
X-4533798Y-584860D01*
X-4535982Y-588365D01*
X-4539335Y-590753D01*
X-4543399Y-591566D01*
X-4736846Y-591566D01*
X-4740757Y-590804D01*
X-4744110Y-588619D01*
X-4804359Y-528269D01*
X-4806645Y-524967D01*
X-4807356Y-521106D01*
X-4807356Y-401015D01*
X-4806645Y-397154D01*
X-4804410Y-393852D01*
X-4788204Y-384149D01*
X-4777486Y-375716D01*
X-4768037Y-365912D01*
X-4759909Y-354939D01*
X-4753406Y-342950D01*
X-4748530Y-330250D01*
X-4745278Y-316992D01*
X-4743958Y-303428D01*
X-4744415Y-289763D01*
X-4746650Y-276352D01*
X-4750714Y-263296D01*
X-4756454Y-250952D01*
X-4763770Y-239420D01*
X-4772558Y-229006D01*
X-4782769Y-219862D01*
X-4793996Y-212140D01*
X-4806137Y-205994D01*
X-4818989Y-201523D01*
X-4832350Y-198831D01*
X-4845964Y-197916D01*
X-4859578Y-198831D01*
X-4872939Y-201523D01*
X-4885842Y-205994D01*
X-4898034Y-212140D01*
X-4909261Y-219862D01*
X-4919421Y-229006D01*
X-4928209Y-239420D01*
X-4935474Y-250952D01*
X-4941214Y-263296D01*
X-4945329Y-276352D01*
X-4947513Y-289763D01*
X-4947970Y-303428D01*
X-4946650Y-316992D01*
X-4943449Y-330250D01*
X-4938572Y-342950D01*
X-4932019Y-354939D01*
X-4923942Y-365912D01*
X-4914442Y-375716D01*
X-4903724Y-384149D01*
X-4887518Y-393852D01*
X-4885334Y-397154D01*
X-4884572Y-401015D01*
X-4884572Y-540816D01*
X-4883810Y-548843D01*
X-4881575Y-556056D01*
X-4878019Y-562711D01*
X-4872939Y-568960D01*
X-4784699Y-657148D01*
X-4778298Y-662482D01*
X-4775606Y-665683D01*
X-4774539Y-669645D01*
X-4775098Y-673760D01*
X-4777282Y-677265D01*
X-4780635Y-679653D01*
X-4784699Y-680466D01*
X-4952746Y-680466D01*
X-4956657Y-679704D01*
X-4960010Y-677519D01*
X-5058359Y-579069D01*
X-5060645Y-575767D01*
X-5061356Y-571906D01*
X-5061356Y-412292D01*
X-5060645Y-408381D01*
X-5058359Y-405079D01*
X-5055108Y-402894D01*
X-5051196Y-402132D01*
X-5024323Y-402132D01*
X-5018024Y-401370D01*
X-5012537Y-399491D01*
X-5007660Y-396392D01*
X-5003546Y-392328D01*
X-5000548Y-387400D01*
X-4998618Y-381965D01*
X-4997856Y-375615D01*
X-4997856Y-224383D01*
X-4998618Y-218033D01*
X-5000548Y-212598D01*
X-5003546Y-207670D01*
X-5007660Y-203606D01*
X-5012537Y-200507D01*
X-5018024Y-198628D01*
X-5024323Y-197916D01*
X-5175605Y-197916D01*
X-5181904Y-198628D01*
X-5187391Y-200507D01*
X-5192268Y-203606D01*
X-5196433Y-207670D01*
X-5199430Y-212598D01*
X-5201361Y-218033D01*
X-5202072Y-224383D01*
X-5202072Y-375615D01*
X-5201361Y-381965D01*
X-5199430Y-387400D01*
X-5196433Y-392328D01*
X-5192268Y-396392D01*
X-5187391Y-399491D01*
X-5181904Y-401370D01*
X-5175605Y-402132D01*
X-5148732Y-402132D01*
X-5144871Y-402894D01*
X-5141569Y-405079D01*
X-5139334Y-408381D01*
X-5138572Y-412292D01*
X-5138572Y-591616D01*
X-5137810Y-599643D01*
X-5135575Y-606856D01*
X-5132019Y-613511D01*
X-5126939Y-619760D01*
X-5000599Y-746048D01*
X-4994402Y-751179D01*
X-4987798Y-754735D01*
X-4980533Y-756920D01*
X-4972456Y-757682D01*
X-4780381Y-757682D01*
X-4776216Y-758596D01*
X-4772761Y-761187D01*
X-4770678Y-764895D01*
X-4770323Y-769213D01*
X-4771745Y-773226D01*
X-4774742Y-776325D01*
X-4784953Y-783132D01*
X-4795621Y-792480D01*
X-4804968Y-803148D01*
X-4812842Y-814933D01*
X-4816094Y-821537D01*
X-4766614Y-821537D01*
X-4766614Y-767842D01*
X-4765802Y-763981D01*
X-4763617Y-760679D01*
X-4760315Y-758494D01*
X-4756404Y-757682D01*
X-4681575Y-757682D01*
X-4677714Y-758494D01*
X-4674362Y-760679D01*
X-4672126Y-763981D01*
X-4671364Y-767842D01*
X-4671364Y-821537D01*
X-4621834Y-821537D01*
X-4625086Y-814933D01*
X-4632960Y-803148D01*
X-4642307Y-792480D01*
X-4652975Y-783132D01*
X-4663186Y-776325D01*
X-4666183Y-773226D01*
X-4667605Y-769213D01*
X-4667250Y-764895D01*
X-4665167Y-761187D01*
X-4661712Y-758596D01*
X-4657598Y-757682D01*
X-4526381Y-757682D01*
X-4522216Y-758596D01*
X-4518761Y-761187D01*
X-4516678Y-764895D01*
X-4516323Y-769213D01*
X-4517745Y-773226D01*
X-4520742Y-776325D01*
X-4530953Y-783132D01*
X-4541621Y-792480D01*
X-4550968Y-803148D01*
X-4558842Y-814933D01*
X-4565091Y-827633D01*
X-4569714Y-841044D01*
X-4572406Y-854964D01*
X-4573371Y-869137D01*
X-4572406Y-883259D01*
X-4569714Y-897178D01*
X-4565091Y-910590D01*
X-4558842Y-923290D01*
X-4550968Y-935075D01*
X-4541621Y-945743D01*
X-4530953Y-955090D01*
X-4519168Y-962964D01*
X-4506468Y-969264D01*
X-4493056Y-973785D01*
X-4479137Y-976579D01*
G37*
G36*
X-4766614Y-966216D02*
G01*
X-4766614Y-916736D01*
X-4816094Y-916736D01*
X-4812842Y-923290D01*
X-4804968Y-935075D01*
X-4795621Y-945743D01*
X-4784953Y-955090D01*
X-4773168Y-962964D01*
G37*
G36*
X-4671364Y-966216D02*
G01*
X-4664760Y-962964D01*
X-4652975Y-955090D01*
X-4642307Y-945743D01*
X-4632960Y-935075D01*
X-4625086Y-923290D01*
X-4621834Y-916736D01*
X-4671364Y-916736D01*
G37*
G36*
X-1042771Y-401878D02*
G01*
X-1029157Y-401878D01*
X-1015695Y-400050D01*
X-1002537Y-396443D01*
X-989939Y-391109D01*
X-978204Y-384149D01*
X-967486Y-375716D01*
X-958087Y-365912D01*
X-949909Y-354939D01*
X-943406Y-342950D01*
X-938530Y-330250D01*
X-935329Y-316992D01*
X-933958Y-303428D01*
X-934415Y-289763D01*
X-936650Y-276352D01*
X-940714Y-263296D01*
X-946454Y-250952D01*
X-953769Y-239420D01*
X-962609Y-229006D01*
X-972769Y-219862D01*
X-983996Y-212140D01*
X-996187Y-205994D01*
X-1008989Y-201523D01*
X-1022350Y-198831D01*
X-1035964Y-197916D01*
X-1049578Y-198831D01*
X-1062939Y-201523D01*
X-1075842Y-205994D01*
X-1088034Y-212140D01*
X-1099261Y-219862D01*
X-1109421Y-229006D01*
X-1118209Y-239420D01*
X-1125474Y-250952D01*
X-1131214Y-263296D01*
X-1135329Y-276352D01*
X-1137564Y-289763D01*
X-1138021Y-303428D01*
X-1136650Y-316992D01*
X-1133449Y-330250D01*
X-1128572Y-342950D01*
X-1122019Y-354939D01*
X-1113942Y-365912D01*
X-1104442Y-375716D01*
X-1093724Y-384149D01*
X-1081989Y-391109D01*
X-1069492Y-396443D01*
X-1056284Y-400050D01*
G37*
G36*
X-3836771Y-401878D02*
G01*
X-3823157Y-401878D01*
X-3809695Y-400050D01*
X-3796537Y-396443D01*
X-3783939Y-391109D01*
X-3772204Y-384149D01*
X-3761486Y-375716D01*
X-3752037Y-365912D01*
X-3743909Y-354939D01*
X-3737406Y-342950D01*
X-3732529Y-330250D01*
X-3729278Y-316992D01*
X-3727958Y-303428D01*
X-3728415Y-289763D01*
X-3730650Y-276352D01*
X-3734714Y-263296D01*
X-3740454Y-250952D01*
X-3747770Y-239420D01*
X-3756609Y-229006D01*
X-3766769Y-219862D01*
X-3777996Y-212140D01*
X-3790187Y-205994D01*
X-3802989Y-201523D01*
X-3816350Y-198831D01*
X-3829964Y-197916D01*
X-3843578Y-198831D01*
X-3856939Y-201523D01*
X-3869842Y-205994D01*
X-3882034Y-212140D01*
X-3893261Y-219862D01*
X-3903421Y-229006D01*
X-3912209Y-239420D01*
X-3919474Y-250952D01*
X-3925214Y-263296D01*
X-3929329Y-276352D01*
X-3931564Y-289763D01*
X-3931970Y-303428D01*
X-3930650Y-316992D01*
X-3927449Y-330250D01*
X-3922572Y-342950D01*
X-3916019Y-354939D01*
X-3907942Y-365912D01*
X-3898442Y-375716D01*
X-3887724Y-384149D01*
X-3875989Y-391109D01*
X-3863492Y-396443D01*
X-3850284Y-400050D01*
G37*
G36*
X-3582771Y-401878D02*
G01*
X-3569157Y-401878D01*
X-3555695Y-400050D01*
X-3542537Y-396443D01*
X-3529939Y-391109D01*
X-3518204Y-384149D01*
X-3507486Y-375716D01*
X-3498037Y-365912D01*
X-3489909Y-354939D01*
X-3483406Y-342950D01*
X-3478529Y-330250D01*
X-3475278Y-316992D01*
X-3473958Y-303428D01*
X-3474415Y-289763D01*
X-3476650Y-276352D01*
X-3480714Y-263296D01*
X-3486454Y-250952D01*
X-3493770Y-239420D01*
X-3502609Y-229006D01*
X-3512769Y-219862D01*
X-3523996Y-212140D01*
X-3536187Y-205994D01*
X-3548989Y-201523D01*
X-3562350Y-198831D01*
X-3575964Y-197916D01*
X-3589578Y-198831D01*
X-3602939Y-201523D01*
X-3615842Y-205994D01*
X-3628034Y-212140D01*
X-3639261Y-219862D01*
X-3649421Y-229006D01*
X-3658209Y-239420D01*
X-3665474Y-250952D01*
X-3671214Y-263296D01*
X-3675329Y-276352D01*
X-3677564Y-289763D01*
X-3677970Y-303428D01*
X-3676650Y-316992D01*
X-3673449Y-330250D01*
X-3668572Y-342950D01*
X-3662019Y-354939D01*
X-3653942Y-365912D01*
X-3644442Y-375716D01*
X-3633724Y-384149D01*
X-3621989Y-391109D01*
X-3609492Y-396443D01*
X-3596284Y-400050D01*
G37*
G36*
X-1296771Y-401878D02*
G01*
X-1283157Y-401878D01*
X-1269695Y-400050D01*
X-1256538Y-396443D01*
X-1243939Y-391109D01*
X-1232204Y-384149D01*
X-1221486Y-375716D01*
X-1212088Y-365912D01*
X-1203909Y-354939D01*
X-1197406Y-342950D01*
X-1192530Y-330250D01*
X-1189329Y-316992D01*
X-1187958Y-303428D01*
X-1188415Y-289763D01*
X-1190650Y-276352D01*
X-1194714Y-263296D01*
X-1200454Y-250952D01*
X-1207770Y-239420D01*
X-1216609Y-229006D01*
X-1226769Y-219862D01*
X-1237996Y-212140D01*
X-1250188Y-205994D01*
X-1262989Y-201523D01*
X-1276350Y-198831D01*
X-1289964Y-197916D01*
X-1303578Y-198831D01*
X-1316939Y-201523D01*
X-1329842Y-205994D01*
X-1342034Y-212140D01*
X-1353261Y-219862D01*
X-1363421Y-229006D01*
X-1372209Y-239420D01*
X-1379474Y-250952D01*
X-1385214Y-263296D01*
X-1389329Y-276352D01*
X-1391564Y-289763D01*
X-1392021Y-303428D01*
X-1390650Y-316992D01*
X-1387449Y-330250D01*
X-1382572Y-342950D01*
X-1376019Y-354939D01*
X-1367942Y-365912D01*
X-1358442Y-375716D01*
X-1347724Y-384149D01*
X-1335989Y-391109D01*
X-1323492Y-396443D01*
X-1310284Y-400050D01*
G37*
G36*
X-4090771Y-401878D02*
G01*
X-4077157Y-401878D01*
X-4063695Y-400050D01*
X-4050537Y-396443D01*
X-4037939Y-391109D01*
X-4026204Y-384149D01*
X-4015486Y-375716D01*
X-4006037Y-365912D01*
X-3997909Y-354939D01*
X-3991406Y-342950D01*
X-3986529Y-330250D01*
X-3983278Y-316992D01*
X-3981958Y-303428D01*
X-3982415Y-289763D01*
X-3984650Y-276352D01*
X-3988714Y-263296D01*
X-3994454Y-250952D01*
X-4001770Y-239420D01*
X-4010609Y-229006D01*
X-4020769Y-219862D01*
X-4031996Y-212140D01*
X-4044187Y-205994D01*
X-4056989Y-201523D01*
X-4070350Y-198831D01*
X-4083964Y-197916D01*
X-4097578Y-198831D01*
X-4110939Y-201523D01*
X-4123842Y-205994D01*
X-4136034Y-212140D01*
X-4147261Y-219862D01*
X-4157421Y-229006D01*
X-4166209Y-239420D01*
X-4173474Y-250952D01*
X-4179214Y-263296D01*
X-4183329Y-276352D01*
X-4185564Y-289763D01*
X-4185970Y-303428D01*
X-4184650Y-316992D01*
X-4181449Y-330250D01*
X-4176572Y-342950D01*
X-4170019Y-354939D01*
X-4161942Y-365912D01*
X-4152442Y-375716D01*
X-4141724Y-384149D01*
X-4129989Y-391109D01*
X-4117492Y-396443D01*
X-4104284Y-400050D01*
G37*
G36*
X-1804771Y-401878D02*
G01*
X-1791157Y-401878D01*
X-1777695Y-400050D01*
X-1764538Y-396443D01*
X-1751939Y-391109D01*
X-1740204Y-384149D01*
X-1729486Y-375716D01*
X-1720088Y-365912D01*
X-1711909Y-354939D01*
X-1705406Y-342950D01*
X-1700530Y-330250D01*
X-1697329Y-316992D01*
X-1695957Y-303428D01*
X-1696415Y-289763D01*
X-1698650Y-276352D01*
X-1702714Y-263296D01*
X-1708454Y-250952D01*
X-1715770Y-239420D01*
X-1724609Y-229006D01*
X-1734769Y-219862D01*
X-1745996Y-212140D01*
X-1758188Y-205994D01*
X-1770989Y-201523D01*
X-1784350Y-198831D01*
X-1797964Y-197916D01*
X-1811578Y-198831D01*
X-1824939Y-201523D01*
X-1837842Y-205994D01*
X-1850034Y-212140D01*
X-1861261Y-219862D01*
X-1871421Y-229006D01*
X-1880209Y-239420D01*
X-1887474Y-250952D01*
X-1893214Y-263296D01*
X-1897329Y-276352D01*
X-1899564Y-289763D01*
X-1900021Y-303428D01*
X-1898650Y-316992D01*
X-1895449Y-330250D01*
X-1890572Y-342950D01*
X-1884019Y-354939D01*
X-1875942Y-365912D01*
X-1866442Y-375716D01*
X-1855724Y-384149D01*
X-1843989Y-391109D01*
X-1831492Y-396443D01*
X-1818284Y-400050D01*
G37*
G36*
X-3328771Y-401878D02*
G01*
X-3315157Y-401878D01*
X-3301695Y-400050D01*
X-3288537Y-396443D01*
X-3275939Y-391109D01*
X-3264204Y-384149D01*
X-3253486Y-375716D01*
X-3244037Y-365912D01*
X-3235909Y-354939D01*
X-3229406Y-342950D01*
X-3224530Y-330250D01*
X-3221278Y-316992D01*
X-3219958Y-303428D01*
X-3220415Y-289763D01*
X-3222650Y-276352D01*
X-3226714Y-263296D01*
X-3232454Y-250952D01*
X-3239770Y-239420D01*
X-3248609Y-229006D01*
X-3258769Y-219862D01*
X-3269996Y-212140D01*
X-3282187Y-205994D01*
X-3294989Y-201523D01*
X-3308350Y-198831D01*
X-3321964Y-197916D01*
X-3335578Y-198831D01*
X-3348939Y-201523D01*
X-3361842Y-205994D01*
X-3374034Y-212140D01*
X-3385261Y-219862D01*
X-3395421Y-229006D01*
X-3404209Y-239420D01*
X-3411474Y-250952D01*
X-3417214Y-263296D01*
X-3421329Y-276352D01*
X-3423564Y-289763D01*
X-3423970Y-303428D01*
X-3422650Y-316992D01*
X-3419449Y-330250D01*
X-3414572Y-342950D01*
X-3408019Y-354939D01*
X-3399942Y-365912D01*
X-3390442Y-375716D01*
X-3379724Y-384149D01*
X-3367989Y-391109D01*
X-3355492Y-396443D01*
X-3342284Y-400050D01*
G37*
G36*
X-788771Y-401878D02*
G01*
X-775157Y-401878D01*
X-761695Y-400050D01*
X-748538Y-396443D01*
X-735939Y-391109D01*
X-724204Y-384149D01*
X-713486Y-375716D01*
X-704088Y-365912D01*
X-695909Y-354939D01*
X-689406Y-342950D01*
X-684530Y-330250D01*
X-681329Y-316992D01*
X-679958Y-303428D01*
X-680415Y-289763D01*
X-682650Y-276352D01*
X-686714Y-263296D01*
X-692454Y-250952D01*
X-699770Y-239420D01*
X-708609Y-229006D01*
X-718769Y-219862D01*
X-729996Y-212140D01*
X-742188Y-205994D01*
X-754989Y-201523D01*
X-768350Y-198831D01*
X-781964Y-197916D01*
X-795578Y-198831D01*
X-808939Y-201523D01*
X-821842Y-205994D01*
X-834034Y-212140D01*
X-845261Y-219862D01*
X-855421Y-229006D01*
X-864209Y-239420D01*
X-871474Y-250952D01*
X-877214Y-263296D01*
X-881329Y-276352D01*
X-883564Y-289763D01*
X-884021Y-303428D01*
X-882650Y-316992D01*
X-879449Y-330250D01*
X-874572Y-342950D01*
X-868019Y-354939D01*
X-859942Y-365912D01*
X-850442Y-375716D01*
X-839724Y-384149D01*
X-827989Y-391109D01*
X-815492Y-396443D01*
X-802284Y-400050D01*
G37*
G36*
X-1550771Y-401878D02*
G01*
X-1537157Y-401878D01*
X-1523695Y-400050D01*
X-1510538Y-396443D01*
X-1497939Y-391109D01*
X-1486204Y-384149D01*
X-1475486Y-375716D01*
X-1466088Y-365912D01*
X-1457909Y-354939D01*
X-1451406Y-342950D01*
X-1446530Y-330250D01*
X-1443329Y-316992D01*
X-1441958Y-303428D01*
X-1442415Y-289763D01*
X-1444650Y-276352D01*
X-1448714Y-263296D01*
X-1454454Y-250952D01*
X-1461770Y-239420D01*
X-1470609Y-229006D01*
X-1480769Y-219862D01*
X-1491996Y-212140D01*
X-1504188Y-205994D01*
X-1516989Y-201523D01*
X-1530350Y-198831D01*
X-1543964Y-197916D01*
X-1557578Y-198831D01*
X-1570939Y-201523D01*
X-1583842Y-205994D01*
X-1596034Y-212140D01*
X-1607261Y-219862D01*
X-1617421Y-229006D01*
X-1626209Y-239420D01*
X-1633474Y-250952D01*
X-1639214Y-263296D01*
X-1643329Y-276352D01*
X-1645564Y-289763D01*
X-1646021Y-303428D01*
X-1644650Y-316992D01*
X-1641449Y-330250D01*
X-1636572Y-342950D01*
X-1630019Y-354939D01*
X-1621942Y-365912D01*
X-1612442Y-375716D01*
X-1601724Y-384149D01*
X-1589989Y-391109D01*
X-1577492Y-396443D01*
X-1564284Y-400050D01*
G37*
G36*
X-2261514Y-391769D02*
G01*
X-2259939Y-391109D01*
X-2248204Y-384149D01*
X-2237486Y-375716D01*
X-2228037Y-365912D01*
X-2219909Y-354939D01*
X-2214168Y-344474D01*
X-2261514Y-344474D01*
G37*
G36*
X-2858414Y-391769D02*
G01*
X-2858414Y-344474D01*
X-2905760Y-344474D01*
X-2900019Y-354939D01*
X-2891942Y-365912D01*
X-2882442Y-375716D01*
X-2871724Y-384149D01*
X-2859989Y-391109D01*
G37*
G36*
X-2769514Y-391769D02*
G01*
X-2767939Y-391109D01*
X-2756204Y-384149D01*
X-2745486Y-375716D01*
X-2736037Y-365912D01*
X-2727909Y-354939D01*
X-2722168Y-344474D01*
X-2769514Y-344474D01*
G37*
G36*
X-2096414Y-391769D02*
G01*
X-2096414Y-344474D01*
X-2143760Y-344474D01*
X-2138019Y-354939D01*
X-2129942Y-365912D01*
X-2120442Y-375716D01*
X-2109724Y-384149D01*
X-2097989Y-391109D01*
G37*
G36*
X-2350414Y-391769D02*
G01*
X-2350414Y-344474D01*
X-2397760Y-344474D01*
X-2392019Y-354939D01*
X-2383942Y-365912D01*
X-2374442Y-375716D01*
X-2363724Y-384149D01*
X-2351989Y-391109D01*
G37*
G36*
X-3023514Y-391769D02*
G01*
X-3021939Y-391109D01*
X-3010204Y-384149D01*
X-2999486Y-375716D01*
X-2990037Y-365912D01*
X-2981909Y-354939D01*
X-2976168Y-344474D01*
X-3023514Y-344474D01*
G37*
G36*
X-3112414Y-391769D02*
G01*
X-3112414Y-344474D01*
X-3159760Y-344474D01*
X-3154019Y-354939D01*
X-3145942Y-365912D01*
X-3136442Y-375716D01*
X-3125724Y-384149D01*
X-3113989Y-391109D01*
G37*
G36*
X-2604414Y-391769D02*
G01*
X-2604414Y-344474D01*
X-2651760Y-344474D01*
X-2646019Y-354939D01*
X-2637942Y-365912D01*
X-2628442Y-375716D01*
X-2617724Y-384149D01*
X-2605989Y-391109D01*
G37*
G36*
X-2007514Y-391769D02*
G01*
X-2005939Y-391109D01*
X-1994204Y-384149D01*
X-1983486Y-375716D01*
X-1974037Y-365912D01*
X-1965909Y-354939D01*
X-1960168Y-344474D01*
X-2007514Y-344474D01*
G37*
G36*
X-2515514Y-391769D02*
G01*
X-2513939Y-391109D01*
X-2502204Y-384149D01*
X-2491486Y-375716D01*
X-2482037Y-365912D01*
X-2473909Y-354939D01*
X-2468168Y-344474D01*
X-2515514Y-344474D01*
G37*
G36*
X-2515514Y-255574D02*
G01*
X-2468372Y-255574D01*
X-2470454Y-250952D01*
X-2477770Y-239420D01*
X-2486609Y-229006D01*
X-2496769Y-219862D01*
X-2507996Y-212140D01*
X-2515514Y-208330D01*
G37*
G36*
X-3159607Y-255574D02*
G01*
X-3112414Y-255574D01*
X-3112414Y-208330D01*
X-3120034Y-212140D01*
X-3131261Y-219862D01*
X-3141421Y-229006D01*
X-3150209Y-239420D01*
X-3157474Y-250952D01*
G37*
G36*
X-2651607Y-255574D02*
G01*
X-2604414Y-255574D01*
X-2604414Y-208330D01*
X-2612034Y-212140D01*
X-2623261Y-219862D01*
X-2633421Y-229006D01*
X-2642209Y-239420D01*
X-2649474Y-250952D01*
G37*
G36*
X-2007514Y-255574D02*
G01*
X-1960372Y-255574D01*
X-1962454Y-250952D01*
X-1969770Y-239420D01*
X-1978609Y-229006D01*
X-1988769Y-219862D01*
X-1999996Y-212140D01*
X-2007514Y-208330D01*
G37*
G36*
X-2397607Y-255574D02*
G01*
X-2350414Y-255574D01*
X-2350414Y-208330D01*
X-2358034Y-212140D01*
X-2369261Y-219862D01*
X-2379421Y-229006D01*
X-2388209Y-239420D01*
X-2395474Y-250952D01*
G37*
G36*
X-3023514Y-255574D02*
G01*
X-2976372Y-255574D01*
X-2978454Y-250952D01*
X-2985770Y-239420D01*
X-2994609Y-229006D01*
X-3004769Y-219862D01*
X-3015996Y-212140D01*
X-3023514Y-208330D01*
G37*
G36*
X-2769514Y-255574D02*
G01*
X-2722372Y-255574D01*
X-2724454Y-250952D01*
X-2731770Y-239420D01*
X-2740609Y-229006D01*
X-2750769Y-219862D01*
X-2761996Y-212140D01*
X-2769514Y-208330D01*
G37*
G36*
X-2143607Y-255574D02*
G01*
X-2096414Y-255574D01*
X-2096414Y-208330D01*
X-2104034Y-212140D01*
X-2115261Y-219862D01*
X-2125421Y-229006D01*
X-2134209Y-239420D01*
X-2141474Y-250952D01*
G37*
G36*
X-2261514Y-255574D02*
G01*
X-2214372Y-255574D01*
X-2216454Y-250952D01*
X-2223770Y-239420D01*
X-2232609Y-229006D01*
X-2242769Y-219862D01*
X-2253996Y-212140D01*
X-2261514Y-208330D01*
G37*
G36*
X-2905607Y-255574D02*
G01*
X-2858414Y-255574D01*
X-2858414Y-208330D01*
X-2866034Y-212140D01*
X-2877261Y-219862D01*
X-2887421Y-229006D01*
X-2896209Y-239420D01*
X-2903474Y-250952D01*
G37*

%LPD*%
D10*
X-4845992Y-1925596D02*
G01*
X-4845992Y-1735096D01*
X-4464992Y-1354096D01*
X-4591992Y-1925596D02*
G01*
X-4591992Y-1735096D01*
X-4210992Y-1354096D01*
X-4337992Y-1925596D02*
G01*
X-4337992Y-1735096D01*
X-3956992Y-1354096D01*
X-4083992Y-1925596D02*
G01*
X-4083992Y-1735096D01*
X-3702992Y-1354096D01*
X-3829992Y-1925596D02*
G01*
X-3829992Y-1735096D01*
X-3448992Y-1354096D01*
X-3575992Y-1925596D02*
G01*
X-3575992Y-1735096D01*
X-3194992Y-1354096D01*
X-3321992Y-1925596D02*
G01*
X-3321992Y-1735096D01*
X-2940992Y-1354096D01*
X-3067992Y-1925596D02*
G01*
X-3067992Y-1735096D01*
X-2686992Y-1354096D01*
X-2813992Y-1925596D02*
G01*
X-2813992Y-1735096D01*
X-2432992Y-1354096D01*
X-2305992Y-1925596D02*
G01*
X-2305992Y-1735096D01*
X-1924992Y-1354096D01*
X-2559992Y-1925596D02*
G01*
X-2559992Y-1735096D01*
X-2178992Y-1354096D01*
X-2051992Y-1925596D02*
G01*
X-2051992Y-1735096D01*
X-1670992Y-1354096D01*
X-1797992Y-1925596D02*
G01*
X-1797992Y-1735096D01*
X-1416992Y-1354096D01*
X-3702992Y-869109D02*
G01*
X-3853007Y-719096D01*
X-4972992Y-719096D01*
X-5099992Y-592096D01*
X-5099992Y-299996D01*
X-3448992Y-869109D02*
G01*
X-3687907Y-630196D01*
X-4757092Y-630196D01*
X-4845992Y-541296D01*
X-4845992Y-299996D01*
X-3194992Y-869109D02*
G01*
X-3522807Y-541296D01*
X-4515792Y-541296D01*
X-4591992Y-465096D01*
X-4591992Y-299996D01*
X-2940992Y-869109D02*
G01*
X-2940992Y-782596D01*
X-3258492Y-465096D01*
X-4172892Y-465096D01*
X-4337992Y-299996D01*
G36*
X-5990348Y229692D02*
G01*
X-5990348Y154691D01*
X-5990348Y154691D01*
X-5984623Y154226D01*
X-5978918Y153548D01*
X-5973241Y152659D01*
X-5967602Y151561D01*
X-5962007Y150253D01*
X-5956467Y148742D01*
X-5950983Y147025D01*
X-5945568Y145105D01*
X-5940229Y142986D01*
X-5934971Y140672D01*
X-5929802Y138163D01*
X-5924730Y135465D01*
X-5919762Y132582D01*
X-5914903Y129517D01*
X-5910163Y126271D01*
X-5905545Y122854D01*
X-5901057Y119268D01*
X-5896703Y115516D01*
X-5892495Y111607D01*
X-5888433Y107546D01*
X-5884524Y103337D01*
X-5880773Y98983D01*
X-5877186Y94495D01*
X-5873770Y89877D01*
X-5870524Y85138D01*
X-5867458Y80279D01*
X-5864575Y75311D01*
X-5861878Y70238D01*
X-5859368Y65069D01*
X-5857054Y59811D01*
X-5854936Y54472D01*
X-5853015Y49057D01*
X-5851298Y43573D01*
X-5849787Y38033D01*
X-5848479Y32438D01*
X-5847382Y26799D01*
X-5846493Y21122D01*
X-5845815Y15417D01*
X-5845350Y9692D01*
X-5770349Y9692D01*
X-5770349Y9692D01*
X-5770750Y16654D01*
X-5771365Y23599D01*
X-5772188Y30523D01*
X-5773221Y37419D01*
X-5774463Y44282D01*
X-5775911Y51102D01*
X-5777567Y57876D01*
X-5779427Y64597D01*
X-5781489Y71257D01*
X-5783752Y77853D01*
X-5786216Y84376D01*
X-5788875Y90822D01*
X-5791728Y97185D01*
X-5794773Y103459D01*
X-5798007Y109636D01*
X-5801426Y115714D01*
X-5805027Y121683D01*
X-5808809Y127543D01*
X-5812767Y133283D01*
X-5816897Y138904D01*
X-5821194Y144393D01*
X-5825657Y149753D01*
X-5830280Y154973D01*
X-5835058Y160050D01*
X-5839990Y164983D01*
X-5845068Y169760D01*
X-5850288Y174383D01*
X-5855647Y178846D01*
X-5861136Y183144D01*
X-5866757Y187274D01*
X-5872497Y191231D01*
X-5878357Y195013D01*
X-5884326Y198615D01*
X-5890404Y202034D01*
X-5896582Y205267D01*
X-5902855Y208313D01*
X-5909218Y211165D01*
X-5915665Y213824D01*
X-5922187Y216288D01*
X-5928784Y218551D01*
X-5935444Y220614D01*
X-5942164Y222473D01*
X-5948939Y224129D01*
X-5955758Y225577D01*
X-5962622Y226819D01*
X-5969518Y227853D01*
X-5976442Y228676D01*
X-5983386Y229290D01*
X-5990348Y229692D01*
G37*
G36*
X-6009645Y-229692D02*
G01*
X-6009645Y-154691D01*
X-6009645Y-154691D01*
X-6015370Y-154226D01*
X-6021075Y-153548D01*
X-6026751Y-152659D01*
X-6032390Y-151561D01*
X-6037986Y-150253D01*
X-6043526Y-148742D01*
X-6049010Y-147025D01*
X-6054425Y-145105D01*
X-6059764Y-142986D01*
X-6065022Y-140672D01*
X-6070191Y-138163D01*
X-6075263Y-135465D01*
X-6080231Y-132582D01*
X-6085090Y-129517D01*
X-6089830Y-126271D01*
X-6094448Y-122854D01*
X-6098936Y-119268D01*
X-6103289Y-115516D01*
X-6107498Y-111607D01*
X-6111560Y-107546D01*
X-6115469Y-103337D01*
X-6119220Y-98983D01*
X-6122807Y-94495D01*
X-6126223Y-89877D01*
X-6129469Y-85138D01*
X-6132535Y-80279D01*
X-6135418Y-75310D01*
X-6138115Y-70238D01*
X-6140625Y-65069D01*
X-6142939Y-59811D01*
X-6145057Y-54472D01*
X-6146977Y-49057D01*
X-6148694Y-43573D01*
X-6150206Y-38033D01*
X-6151514Y-32438D01*
X-6152611Y-26799D01*
X-6153500Y-21122D01*
X-6154178Y-15417D01*
X-6154643Y-9692D01*
X-6229644Y-9692D01*
X-6229644Y-9692D01*
X-6229243Y-16654D01*
X-6228628Y-23599D01*
X-6227805Y-30523D01*
X-6226771Y-37419D01*
X-6225529Y-44282D01*
X-6224082Y-51102D01*
X-6222425Y-57876D01*
X-6220566Y-64597D01*
X-6218504Y-71257D01*
X-6216241Y-77853D01*
X-6213777Y-84376D01*
X-6211117Y-90822D01*
X-6208265Y-97185D01*
X-6205219Y-103459D01*
X-6201986Y-109636D01*
X-6198567Y-115714D01*
X-6194966Y-121683D01*
X-6191183Y-127543D01*
X-6187226Y-133283D01*
X-6183096Y-138904D01*
X-6178798Y-144393D01*
X-6174336Y-149753D01*
X-6169713Y-154973D01*
X-6164935Y-160050D01*
X-6160002Y-164983D01*
X-6154925Y-169760D01*
X-6149705Y-174383D01*
X-6144346Y-178846D01*
X-6138857Y-183144D01*
X-6133236Y-187274D01*
X-6127495Y-191231D01*
X-6121636Y-195013D01*
X-6115667Y-198615D01*
X-6109588Y-202034D01*
X-6103411Y-205267D01*
X-6097137Y-208313D01*
X-6090775Y-211165D01*
X-6084328Y-213824D01*
X-6077805Y-216288D01*
X-6071209Y-218551D01*
X-6064549Y-220614D01*
X-6057828Y-222473D01*
X-6051054Y-224129D01*
X-6044234Y-225577D01*
X-6037371Y-226819D01*
X-6030475Y-227853D01*
X-6023551Y-228676D01*
X-6016607Y-229290D01*
X-6009645Y-229692D01*
G37*
G36*
X-6229685Y9649D02*
G01*
X-6154684Y9649D01*
X-6154684Y9649D01*
X-6154216Y15374D01*
X-6153536Y21079D01*
X-6152652Y26756D01*
X-6151554Y32392D01*
X-6150241Y37990D01*
X-6148735Y43527D01*
X-6147015Y49014D01*
X-6145093Y54429D01*
X-6142974Y59768D01*
X-6140665Y65026D01*
X-6138153Y70195D01*
X-6135453Y75267D01*
X-6132573Y80236D01*
X-6129507Y85095D01*
X-6126264Y89834D01*
X-6122842Y94452D01*
X-6119256Y98940D01*
X-6115504Y103294D01*
X-6111595Y107502D01*
X-6107539Y111561D01*
X-6103330Y115473D01*
X-6098974Y119225D01*
X-6094486Y122811D01*
X-6089870Y126227D01*
X-6085131Y129473D01*
X-6080272Y132537D01*
X-6075304Y135420D01*
X-6070226Y138120D01*
X-6065060Y140629D01*
X-6059799Y142941D01*
X-6054460Y145059D01*
X-6049048Y146982D01*
X-6043561Y148699D01*
X-6038027Y150210D01*
X-6032426Y151518D01*
X-6026787Y152615D01*
X-6021110Y153504D01*
X-6015408Y154183D01*
X-6009685Y154647D01*
X-6009685Y229649D01*
X-6009685Y229649D01*
X-6016642Y229247D01*
X-6023587Y228633D01*
X-6030511Y227810D01*
X-6037409Y226776D01*
X-6044272Y225531D01*
X-6051092Y224086D01*
X-6057869Y222430D01*
X-6064585Y220568D01*
X-6071250Y218508D01*
X-6077841Y216245D01*
X-6084366Y213779D01*
X-6090813Y211122D01*
X-6097176Y208269D01*
X-6103447Y205224D01*
X-6109629Y201990D01*
X-6115705Y198572D01*
X-6121671Y194970D01*
X-6127531Y191188D01*
X-6133277Y187231D01*
X-6138895Y183100D01*
X-6144381Y178803D01*
X-6149741Y174340D01*
X-6154961Y169717D01*
X-6160041Y164937D01*
X-6164971Y160007D01*
X-6169753Y154927D01*
X-6174374Y149707D01*
X-6178839Y144350D01*
X-6183134Y138861D01*
X-6187262Y133240D01*
X-6191219Y127500D01*
X-6195006Y121640D01*
X-6198603Y115671D01*
X-6202024Y109593D01*
X-6205255Y103413D01*
X-6208306Y97142D01*
X-6211155Y90777D01*
X-6213812Y84333D01*
X-6216276Y77807D01*
X-6218544Y71213D01*
X-6220602Y64554D01*
X-6222461Y57833D01*
X-6224117Y51059D01*
X-6225567Y44236D01*
X-6226807Y37376D01*
X-6227846Y30480D01*
X-6228669Y23553D01*
X-6229278Y16609D01*
X-6229685Y9649D01*
G37*
G36*
X-5770298Y-9646D02*
G01*
X-5845299Y-9646D01*
X-5845299Y-9646D01*
X-5845761Y-15374D01*
X-5846439Y-21079D01*
X-5847328Y-26753D01*
X-5848428Y-32392D01*
X-5849736Y-37988D01*
X-5851245Y-43527D01*
X-5852962Y-49014D01*
X-5854887Y-54427D01*
X-5857006Y-59766D01*
X-5859315Y-65026D01*
X-5861824Y-70195D01*
X-5864527Y-75265D01*
X-5867410Y-80233D01*
X-5870475Y-85092D01*
X-5873719Y-89832D01*
X-5877135Y-94452D01*
X-5880719Y-98940D01*
X-5884473Y-103291D01*
X-5888385Y-107500D01*
X-5892444Y-111561D01*
X-5896653Y-115473D01*
X-5901004Y-119225D01*
X-5905492Y-122809D01*
X-5910112Y-126225D01*
X-5914852Y-129471D01*
X-5919711Y-132537D01*
X-5924679Y-135420D01*
X-5929749Y-138120D01*
X-5934918Y-140627D01*
X-5940178Y-142941D01*
X-5945517Y-145059D01*
X-5950930Y-146979D01*
X-5956419Y-148696D01*
X-5961954Y-150207D01*
X-5967554Y-151516D01*
X-5973190Y-152613D01*
X-5978865Y-153504D01*
X-5984570Y-154180D01*
X-5990297Y-154645D01*
X-5990297Y-229646D01*
X-5990297Y-229646D01*
X-5983338Y-229247D01*
X-5976393Y-228630D01*
X-5969467Y-227807D01*
X-5962573Y-226773D01*
X-5955710Y-225531D01*
X-5948885Y-224083D01*
X-5942114Y-222427D01*
X-5935393Y-220568D01*
X-5928730Y-218506D01*
X-5922139Y-216245D01*
X-5915611Y-213779D01*
X-5909170Y-211122D01*
X-5902802Y-208267D01*
X-5896533Y-205221D01*
X-5890353Y-201988D01*
X-5884278Y-198569D01*
X-5878304Y-194967D01*
X-5872446Y-191185D01*
X-5866704Y-187228D01*
X-5861088Y-183100D01*
X-5855594Y-178800D01*
X-5850239Y-174337D01*
X-5845020Y-169715D01*
X-5839942Y-164937D01*
X-5835009Y-160004D01*
X-5830229Y-154927D01*
X-5825609Y-149707D01*
X-5821144Y-144350D01*
X-5816843Y-138859D01*
X-5812716Y-133238D01*
X-5808759Y-127497D01*
X-5804974Y-121640D01*
X-5801375Y-115669D01*
X-5797953Y-109590D01*
X-5794722Y-103413D01*
X-5791674Y-97142D01*
X-5788822Y-90777D01*
X-5786168Y-84330D01*
X-5783699Y-77807D01*
X-5781436Y-71211D01*
X-5779378Y-64551D01*
X-5777517Y-57830D01*
X-5775860Y-51059D01*
X-5774415Y-44236D01*
X-5773171Y-37373D01*
X-5772137Y-30477D01*
X-5771314Y-23553D01*
X-5770697Y-16609D01*
X-5770298Y-9646D01*
G37*
G36*
X-5990348Y-2770301D02*
G01*
X-5990348Y-2845302D01*
X-5990348Y-2845302D01*
X-5984623Y-2845767D01*
X-5978918Y-2846445D01*
X-5973241Y-2847334D01*
X-5967602Y-2848432D01*
X-5962007Y-2849740D01*
X-5956467Y-2851251D01*
X-5950983Y-2852968D01*
X-5945568Y-2854888D01*
X-5940229Y-2857007D01*
X-5934971Y-2859321D01*
X-5929802Y-2861830D01*
X-5924730Y-2864528D01*
X-5919762Y-2867411D01*
X-5914903Y-2870476D01*
X-5910163Y-2873722D01*
X-5905545Y-2877139D01*
X-5901057Y-2880725D01*
X-5896703Y-2884477D01*
X-5892495Y-2888386D01*
X-5888433Y-2892447D01*
X-5884524Y-2896656D01*
X-5880773Y-2901010D01*
X-5877186Y-2905498D01*
X-5873770Y-2910116D01*
X-5870524Y-2914855D01*
X-5867458Y-2919714D01*
X-5864575Y-2924682D01*
X-5861878Y-2929755D01*
X-5859368Y-2934924D01*
X-5857054Y-2940182D01*
X-5854936Y-2945521D01*
X-5853015Y-2950936D01*
X-5851298Y-2956420D01*
X-5849787Y-2961960D01*
X-5848479Y-2967555D01*
X-5847382Y-2973194D01*
X-5846493Y-2978871D01*
X-5845815Y-2984576D01*
X-5845350Y-2990301D01*
X-5770349Y-2990301D01*
X-5770349Y-2990301D01*
X-5770750Y-2983339D01*
X-5771365Y-2976394D01*
X-5772188Y-2969470D01*
X-5773221Y-2962574D01*
X-5774463Y-2955711D01*
X-5775911Y-2948891D01*
X-5777567Y-2942117D01*
X-5779427Y-2935396D01*
X-5781489Y-2928736D01*
X-5783752Y-2922140D01*
X-5786216Y-2915617D01*
X-5788875Y-2909171D01*
X-5791728Y-2902808D01*
X-5794773Y-2896534D01*
X-5798007Y-2890357D01*
X-5801426Y-2884279D01*
X-5805027Y-2878310D01*
X-5808809Y-2872450D01*
X-5812767Y-2866710D01*
X-5816897Y-2861089D01*
X-5821194Y-2855600D01*
X-5825657Y-2850240D01*
X-5830280Y-2845020D01*
X-5835058Y-2839943D01*
X-5839990Y-2835010D01*
X-5845068Y-2830233D01*
X-5850288Y-2825610D01*
X-5855647Y-2821147D01*
X-5861136Y-2816849D01*
X-5866757Y-2812719D01*
X-5872497Y-2808762D01*
X-5878357Y-2804980D01*
X-5884326Y-2801378D01*
X-5890404Y-2797959D01*
X-5896582Y-2794726D01*
X-5902855Y-2791680D01*
X-5909218Y-2788828D01*
X-5915665Y-2786169D01*
X-5922187Y-2783705D01*
X-5928784Y-2781442D01*
X-5935444Y-2779379D01*
X-5942164Y-2777520D01*
X-5948939Y-2775864D01*
X-5955758Y-2774416D01*
X-5962622Y-2773174D01*
X-5969518Y-2772140D01*
X-5976442Y-2771317D01*
X-5983386Y-2770703D01*
X-5990348Y-2770301D01*
G37*
G36*
X-6009645Y-3229686D02*
G01*
X-6009645Y-3154685D01*
X-6009645Y-3154685D01*
X-6015370Y-3154220D01*
X-6021075Y-3153542D01*
X-6026751Y-3152653D01*
X-6032390Y-3151555D01*
X-6037986Y-3150247D01*
X-6043526Y-3148736D01*
X-6049010Y-3147019D01*
X-6054425Y-3145099D01*
X-6059764Y-3142980D01*
X-6065022Y-3140666D01*
X-6070191Y-3138157D01*
X-6075263Y-3135459D01*
X-6080231Y-3132576D01*
X-6085090Y-3129511D01*
X-6089830Y-3126265D01*
X-6094448Y-3122848D01*
X-6098936Y-3119262D01*
X-6103289Y-3115510D01*
X-6107498Y-3111601D01*
X-6111560Y-3107540D01*
X-6115469Y-3103331D01*
X-6119220Y-3098977D01*
X-6122807Y-3094489D01*
X-6126223Y-3089871D01*
X-6129469Y-3085132D01*
X-6132535Y-3080273D01*
X-6135418Y-3075304D01*
X-6138115Y-3070232D01*
X-6140625Y-3065063D01*
X-6142939Y-3059805D01*
X-6145057Y-3054466D01*
X-6146977Y-3049051D01*
X-6148694Y-3043567D01*
X-6150206Y-3038027D01*
X-6151514Y-3032432D01*
X-6152611Y-3026793D01*
X-6153500Y-3021116D01*
X-6154178Y-3015411D01*
X-6154643Y-3009686D01*
X-6229644Y-3009686D01*
X-6229644Y-3009686D01*
X-6229243Y-3016648D01*
X-6228628Y-3023593D01*
X-6227805Y-3030517D01*
X-6226771Y-3037413D01*
X-6225529Y-3044276D01*
X-6224082Y-3051096D01*
X-6222425Y-3057870D01*
X-6220566Y-3064591D01*
X-6218504Y-3071251D01*
X-6216241Y-3077847D01*
X-6213777Y-3084370D01*
X-6211117Y-3090816D01*
X-6208265Y-3097179D01*
X-6205219Y-3103453D01*
X-6201986Y-3109630D01*
X-6198567Y-3115708D01*
X-6194966Y-3121677D01*
X-6191183Y-3127537D01*
X-6187226Y-3133277D01*
X-6183096Y-3138898D01*
X-6178798Y-3144387D01*
X-6174336Y-3149747D01*
X-6169713Y-3154967D01*
X-6164935Y-3160044D01*
X-6160002Y-3164977D01*
X-6154925Y-3169754D01*
X-6149705Y-3174377D01*
X-6144346Y-3178840D01*
X-6138857Y-3183138D01*
X-6133236Y-3187268D01*
X-6127495Y-3191225D01*
X-6121636Y-3195007D01*
X-6115667Y-3198609D01*
X-6109588Y-3202028D01*
X-6103411Y-3205261D01*
X-6097137Y-3208307D01*
X-6090775Y-3211159D01*
X-6084328Y-3213818D01*
X-6077805Y-3216282D01*
X-6071209Y-3218545D01*
X-6064549Y-3220608D01*
X-6057828Y-3222467D01*
X-6051054Y-3224123D01*
X-6044234Y-3225571D01*
X-6037371Y-3226813D01*
X-6030475Y-3227847D01*
X-6023551Y-3228670D01*
X-6016607Y-3229284D01*
X-6009645Y-3229686D01*
G37*
G36*
X-6229685Y-2990344D02*
G01*
X-6154684Y-2990344D01*
X-6154684Y-2990344D01*
X-6154216Y-2984619D01*
X-6153536Y-2978914D01*
X-6152652Y-2973237D01*
X-6151554Y-2967601D01*
X-6150241Y-2962003D01*
X-6148735Y-2956466D01*
X-6147015Y-2950979D01*
X-6145093Y-2945564D01*
X-6142974Y-2940225D01*
X-6140665Y-2934967D01*
X-6138153Y-2929798D01*
X-6135453Y-2924726D01*
X-6132573Y-2919757D01*
X-6129507Y-2914898D01*
X-6126264Y-2910159D01*
X-6122842Y-2905541D01*
X-6119256Y-2901053D01*
X-6115504Y-2896699D01*
X-6111595Y-2892491D01*
X-6107539Y-2888432D01*
X-6103330Y-2884520D01*
X-6098974Y-2880768D01*
X-6094486Y-2877182D01*
X-6089870Y-2873766D01*
X-6085131Y-2870520D01*
X-6080272Y-2867456D01*
X-6075304Y-2864573D01*
X-6070226Y-2861873D01*
X-6065060Y-2859364D01*
X-6059799Y-2857052D01*
X-6054460Y-2854934D01*
X-6049048Y-2853011D01*
X-6043561Y-2851294D01*
X-6038027Y-2849783D01*
X-6032426Y-2848475D01*
X-6026787Y-2847378D01*
X-6021110Y-2846489D01*
X-6015408Y-2845810D01*
X-6009685Y-2845346D01*
X-6009685Y-2770344D01*
X-6009685Y-2770344D01*
X-6016642Y-2770746D01*
X-6023587Y-2771360D01*
X-6030511Y-2772183D01*
X-6037409Y-2773217D01*
X-6044272Y-2774462D01*
X-6051092Y-2775907D01*
X-6057869Y-2777563D01*
X-6064585Y-2779425D01*
X-6071250Y-2781485D01*
X-6077841Y-2783748D01*
X-6084366Y-2786214D01*
X-6090813Y-2788871D01*
X-6097176Y-2791724D01*
X-6103447Y-2794769D01*
X-6109629Y-2798003D01*
X-6115705Y-2801421D01*
X-6121671Y-2805023D01*
X-6127531Y-2808805D01*
X-6133277Y-2812762D01*
X-6138895Y-2816893D01*
X-6144381Y-2821190D01*
X-6149741Y-2825653D01*
X-6154961Y-2830276D01*
X-6160041Y-2835056D01*
X-6164971Y-2839986D01*
X-6169753Y-2845066D01*
X-6174374Y-2850286D01*
X-6178839Y-2855643D01*
X-6183134Y-2861132D01*
X-6187262Y-2866753D01*
X-6191219Y-2872493D01*
X-6195006Y-2878353D01*
X-6198603Y-2884322D01*
X-6202024Y-2890400D01*
X-6205255Y-2896580D01*
X-6208306Y-2902851D01*
X-6211155Y-2909216D01*
X-6213812Y-2915660D01*
X-6216276Y-2922186D01*
X-6218544Y-2928780D01*
X-6220602Y-2935439D01*
X-6222461Y-2942160D01*
X-6224117Y-2948934D01*
X-6225567Y-2955757D01*
X-6226807Y-2962617D01*
X-6227846Y-2969513D01*
X-6228669Y-2976440D01*
X-6229278Y-2983384D01*
X-6229685Y-2990344D01*
G37*
G36*
X-5770298Y-3009640D02*
G01*
X-5845299Y-3009640D01*
X-5845299Y-3009640D01*
X-5845761Y-3015368D01*
X-5846439Y-3021073D01*
X-5847328Y-3026747D01*
X-5848428Y-3032386D01*
X-5849736Y-3037982D01*
X-5851245Y-3043521D01*
X-5852962Y-3049008D01*
X-5854887Y-3054421D01*
X-5857006Y-3059760D01*
X-5859315Y-3065020D01*
X-5861824Y-3070189D01*
X-5864527Y-3075259D01*
X-5867410Y-3080227D01*
X-5870475Y-3085086D01*
X-5873719Y-3089826D01*
X-5877135Y-3094446D01*
X-5880719Y-3098934D01*
X-5884473Y-3103285D01*
X-5888385Y-3107494D01*
X-5892444Y-3111555D01*
X-5896653Y-3115467D01*
X-5901004Y-3119219D01*
X-5905492Y-3122802D01*
X-5910112Y-3126219D01*
X-5914852Y-3129465D01*
X-5919711Y-3132531D01*
X-5924679Y-3135414D01*
X-5929749Y-3138114D01*
X-5934918Y-3140621D01*
X-5940178Y-3142935D01*
X-5945517Y-3145053D01*
X-5950930Y-3146973D01*
X-5956419Y-3148690D01*
X-5961954Y-3150201D01*
X-5967554Y-3151510D01*
X-5973190Y-3152607D01*
X-5978865Y-3153498D01*
X-5984570Y-3154174D01*
X-5990297Y-3154639D01*
X-5990297Y-3229640D01*
X-5990297Y-3229640D01*
X-5983338Y-3229241D01*
X-5976393Y-3228624D01*
X-5969467Y-3227801D01*
X-5962573Y-3226767D01*
X-5955710Y-3225525D01*
X-5948885Y-3224077D01*
X-5942114Y-3222421D01*
X-5935393Y-3220562D01*
X-5928730Y-3218500D01*
X-5922139Y-3216239D01*
X-5915611Y-3213773D01*
X-5909170Y-3211116D01*
X-5902802Y-3208261D01*
X-5896533Y-3205215D01*
X-5890353Y-3201982D01*
X-5884278Y-3198563D01*
X-5878304Y-3194961D01*
X-5872446Y-3191179D01*
X-5866704Y-3187222D01*
X-5861088Y-3183094D01*
X-5855594Y-3178794D01*
X-5850239Y-3174331D01*
X-5845020Y-3169709D01*
X-5839942Y-3164931D01*
X-5835009Y-3159998D01*
X-5830229Y-3154921D01*
X-5825609Y-3149701D01*
X-5821144Y-3144344D01*
X-5816843Y-3138853D01*
X-5812716Y-3133232D01*
X-5808759Y-3127491D01*
X-5804974Y-3121634D01*
X-5801375Y-3115663D01*
X-5797953Y-3109584D01*
X-5794722Y-3103407D01*
X-5791674Y-3097136D01*
X-5788822Y-3090771D01*
X-5786168Y-3084324D01*
X-5783699Y-3077801D01*
X-5781436Y-3071205D01*
X-5779378Y-3064545D01*
X-5777517Y-3057824D01*
X-5775860Y-3051053D01*
X-5774415Y-3044230D01*
X-5773171Y-3037367D01*
X-5772137Y-3030471D01*
X-5771314Y-3023547D01*
X-5770697Y-3016603D01*
X-5770298Y-3009640D01*
G37*
G36*
X9639Y-2770301D02*
G01*
X9639Y-2845302D01*
X9639Y-2845302D01*
X15364Y-2845767D01*
X21069Y-2846445D01*
X26746Y-2847334D01*
X32385Y-2848432D01*
X37980Y-2849740D01*
X43520Y-2851251D01*
X49004Y-2852968D01*
X54419Y-2854888D01*
X59758Y-2857007D01*
X65016Y-2859321D01*
X70185Y-2861830D01*
X75257Y-2864528D01*
X80225Y-2867411D01*
X85084Y-2870476D01*
X89824Y-2873722D01*
X94442Y-2877139D01*
X98930Y-2880725D01*
X103284Y-2884477D01*
X107492Y-2888386D01*
X111554Y-2892447D01*
X115463Y-2896656D01*
X119214Y-2901010D01*
X122801Y-2905498D01*
X126217Y-2910116D01*
X129463Y-2914855D01*
X132529Y-2919714D01*
X135412Y-2924682D01*
X138109Y-2929755D01*
X140619Y-2934924D01*
X142933Y-2940182D01*
X145051Y-2945521D01*
X146972Y-2950936D01*
X148689Y-2956420D01*
X150200Y-2961960D01*
X151508Y-2967555D01*
X152605Y-2973194D01*
X153494Y-2978871D01*
X154172Y-2984576D01*
X154637Y-2990301D01*
X229638Y-2990301D01*
X229638Y-2990301D01*
X229237Y-2983339D01*
X228622Y-2976394D01*
X227799Y-2969470D01*
X226766Y-2962574D01*
X225524Y-2955711D01*
X224076Y-2948891D01*
X222420Y-2942117D01*
X220560Y-2935396D01*
X218498Y-2928736D01*
X216235Y-2922140D01*
X213771Y-2915617D01*
X211112Y-2909171D01*
X208259Y-2902808D01*
X205214Y-2896534D01*
X201980Y-2890357D01*
X198561Y-2884279D01*
X194960Y-2878310D01*
X191178Y-2872450D01*
X187220Y-2866710D01*
X183090Y-2861089D01*
X178793Y-2855600D01*
X174330Y-2850240D01*
X169707Y-2845020D01*
X164929Y-2839943D01*
X159997Y-2835010D01*
X154919Y-2830233D01*
X149699Y-2825610D01*
X144340Y-2821147D01*
X138851Y-2816849D01*
X133230Y-2812719D01*
X127490Y-2808762D01*
X121630Y-2804980D01*
X115661Y-2801378D01*
X109583Y-2797959D01*
X103405Y-2794726D01*
X97132Y-2791680D01*
X90769Y-2788828D01*
X84322Y-2786169D01*
X77800Y-2783705D01*
X71203Y-2781442D01*
X64543Y-2779379D01*
X57823Y-2777520D01*
X51048Y-2775864D01*
X44229Y-2774416D01*
X37365Y-2773174D01*
X30469Y-2772140D01*
X23545Y-2771317D01*
X16601Y-2770703D01*
X9639Y-2770301D01*
G37*
G36*
X-9657Y-3229686D02*
G01*
X-9657Y-3154685D01*
X-9657Y-3154685D01*
X-15382Y-3154220D01*
X-21087Y-3153542D01*
X-26763Y-3152653D01*
X-32402Y-3151555D01*
X-37998Y-3150247D01*
X-43538Y-3148736D01*
X-49021Y-3147019D01*
X-54437Y-3145099D01*
X-59776Y-3142980D01*
X-65034Y-3140666D01*
X-70203Y-3138157D01*
X-75275Y-3135459D01*
X-80243Y-3132576D01*
X-85102Y-3129511D01*
X-89842Y-3126265D01*
X-94460Y-3122848D01*
X-98948Y-3119262D01*
X-103301Y-3115510D01*
X-107510Y-3111601D01*
X-111572Y-3107540D01*
X-115481Y-3103331D01*
X-119232Y-3098977D01*
X-122819Y-3094489D01*
X-126235Y-3089871D01*
X-129481Y-3085132D01*
X-132547Y-3080273D01*
X-135430Y-3075304D01*
X-138127Y-3070232D01*
X-140637Y-3065063D01*
X-142951Y-3059805D01*
X-145069Y-3054466D01*
X-146989Y-3049051D01*
X-148706Y-3043567D01*
X-150218Y-3038027D01*
X-151526Y-3032432D01*
X-152623Y-3026793D01*
X-153512Y-3021116D01*
X-154190Y-3015411D01*
X-154655Y-3009686D01*
X-229656Y-3009686D01*
X-229656Y-3009686D01*
X-229255Y-3016648D01*
X-228640Y-3023593D01*
X-227817Y-3030517D01*
X-226783Y-3037413D01*
X-225541Y-3044276D01*
X-224094Y-3051096D01*
X-222437Y-3057870D01*
X-220578Y-3064591D01*
X-218516Y-3071251D01*
X-216253Y-3077847D01*
X-213789Y-3084370D01*
X-211129Y-3090816D01*
X-208277Y-3097179D01*
X-205231Y-3103453D01*
X-201998Y-3109630D01*
X-198579Y-3115708D01*
X-194978Y-3121677D01*
X-191195Y-3127537D01*
X-187238Y-3133277D01*
X-183108Y-3138898D01*
X-178810Y-3144387D01*
X-174348Y-3149747D01*
X-169725Y-3154967D01*
X-164947Y-3160044D01*
X-160014Y-3164977D01*
X-154937Y-3169754D01*
X-149717Y-3174377D01*
X-144358Y-3178840D01*
X-138869Y-3183138D01*
X-133248Y-3187268D01*
X-127507Y-3191225D01*
X-121648Y-3195007D01*
X-115679Y-3198609D01*
X-109601Y-3202028D01*
X-103423Y-3205261D01*
X-97149Y-3208307D01*
X-90787Y-3211159D01*
X-84340Y-3213818D01*
X-77817Y-3216282D01*
X-71221Y-3218545D01*
X-64561Y-3220608D01*
X-57840Y-3222467D01*
X-51066Y-3224123D01*
X-44246Y-3225571D01*
X-37383Y-3226813D01*
X-30487Y-3227847D01*
X-23563Y-3228670D01*
X-16619Y-3229284D01*
X-9657Y-3229686D01*
G37*
G36*
X-229697Y-2990344D02*
G01*
X-154696Y-2990344D01*
X-154696Y-2990344D01*
X-154228Y-2984619D01*
X-153548Y-2978914D01*
X-152664Y-2973237D01*
X-151566Y-2967601D01*
X-150253Y-2962003D01*
X-148747Y-2956466D01*
X-147027Y-2950979D01*
X-145105Y-2945564D01*
X-142986Y-2940225D01*
X-140677Y-2934967D01*
X-138165Y-2929798D01*
X-135465Y-2924726D01*
X-132585Y-2919757D01*
X-129519Y-2914898D01*
X-126276Y-2910159D01*
X-122854Y-2905541D01*
X-119268Y-2901053D01*
X-115516Y-2896699D01*
X-111607Y-2892491D01*
X-107551Y-2888432D01*
X-103342Y-2884520D01*
X-98986Y-2880768D01*
X-94498Y-2877182D01*
X-89882Y-2873766D01*
X-85143Y-2870520D01*
X-80284Y-2867456D01*
X-75316Y-2864573D01*
X-70238Y-2861873D01*
X-65072Y-2859364D01*
X-59811Y-2857052D01*
X-54472Y-2854934D01*
X-49060Y-2853011D01*
X-43573Y-2851294D01*
X-38039Y-2849783D01*
X-32438Y-2848475D01*
X-26799Y-2847378D01*
X-21122Y-2846489D01*
X-15420Y-2845810D01*
X-9697Y-2845346D01*
X-9697Y-2770344D01*
X-9697Y-2770344D01*
X-16654Y-2770746D01*
X-23599Y-2771360D01*
X-30523Y-2772183D01*
X-37421Y-2773217D01*
X-44284Y-2774462D01*
X-51104Y-2775907D01*
X-57881Y-2777563D01*
X-64597Y-2779425D01*
X-71262Y-2781485D01*
X-77853Y-2783748D01*
X-84378Y-2786214D01*
X-90825Y-2788871D01*
X-97188Y-2791724D01*
X-103459Y-2794769D01*
X-109641Y-2798003D01*
X-115717Y-2801421D01*
X-121683Y-2805023D01*
X-127543Y-2808805D01*
X-133289Y-2812762D01*
X-138907Y-2816893D01*
X-144393Y-2821190D01*
X-149753Y-2825653D01*
X-154973Y-2830276D01*
X-160053Y-2835056D01*
X-164983Y-2839986D01*
X-169765Y-2845066D01*
X-174386Y-2850286D01*
X-178851Y-2855643D01*
X-183146Y-2861132D01*
X-187274Y-2866753D01*
X-191231Y-2872493D01*
X-195018Y-2878353D01*
X-198615Y-2884322D01*
X-202036Y-2890400D01*
X-205267Y-2896580D01*
X-208318Y-2902851D01*
X-211167Y-2909216D01*
X-213824Y-2915660D01*
X-216288Y-2922186D01*
X-218556Y-2928780D01*
X-220614Y-2935439D01*
X-222473Y-2942160D01*
X-224129Y-2948934D01*
X-225579Y-2955757D01*
X-226819Y-2962617D01*
X-227858Y-2969513D01*
X-228681Y-2976440D01*
X-229290Y-2983384D01*
X-229697Y-2990344D01*
G37*
G36*
X229689Y-3009640D02*
G01*
X154688Y-3009640D01*
X154688Y-3009640D01*
X154226Y-3015368D01*
X153548Y-3021073D01*
X152659Y-3026747D01*
X151559Y-3032386D01*
X150251Y-3037982D01*
X148742Y-3043521D01*
X147025Y-3049008D01*
X145100Y-3054421D01*
X142981Y-3059760D01*
X140672Y-3065020D01*
X138163Y-3070189D01*
X135460Y-3075259D01*
X132577Y-3080227D01*
X129512Y-3085086D01*
X126268Y-3089826D01*
X122852Y-3094446D01*
X119268Y-3098934D01*
X115514Y-3103285D01*
X111602Y-3107494D01*
X107543Y-3111555D01*
X103334Y-3115467D01*
X98983Y-3119219D01*
X94495Y-3122802D01*
X89875Y-3126219D01*
X85135Y-3129465D01*
X80276Y-3132531D01*
X75308Y-3135414D01*
X70238Y-3138114D01*
X65069Y-3140621D01*
X59809Y-3142935D01*
X54470Y-3145053D01*
X49057Y-3146973D01*
X43568Y-3148690D01*
X38033Y-3150201D01*
X32433Y-3151510D01*
X26797Y-3152607D01*
X21122Y-3153498D01*
X15417Y-3154174D01*
X9690Y-3154639D01*
X9690Y-3229640D01*
X9690Y-3229640D01*
X16649Y-3229241D01*
X23594Y-3228624D01*
X30520Y-3227801D01*
X37414Y-3226767D01*
X44277Y-3225525D01*
X51102Y-3224077D01*
X57873Y-3222421D01*
X64594Y-3220562D01*
X71257Y-3218500D01*
X77848Y-3216239D01*
X84376Y-3213773D01*
X90817Y-3211116D01*
X97185Y-3208261D01*
X103454Y-3205215D01*
X109634Y-3201982D01*
X115709Y-3198563D01*
X121683Y-3194961D01*
X127541Y-3191179D01*
X133283Y-3187222D01*
X138899Y-3183094D01*
X144393Y-3178794D01*
X149748Y-3174331D01*
X154967Y-3169709D01*
X160045Y-3164931D01*
X164978Y-3159998D01*
X169758Y-3154921D01*
X174378Y-3149701D01*
X178843Y-3144344D01*
X183144Y-3138853D01*
X187271Y-3133232D01*
X191228Y-3127491D01*
X195013Y-3121634D01*
X198612Y-3115663D01*
X202034Y-3109584D01*
X205265Y-3103407D01*
X208313Y-3097136D01*
X211165Y-3090771D01*
X213819Y-3084324D01*
X216288Y-3077801D01*
X218551Y-3071205D01*
X220609Y-3064545D01*
X222470Y-3057824D01*
X224127Y-3051053D01*
X225572Y-3044230D01*
X226816Y-3037367D01*
X227850Y-3030471D01*
X228673Y-3023547D01*
X229290Y-3016603D01*
X229689Y-3009640D01*
G37*
G36*
X9639Y229689D02*
G01*
X9639Y154688D01*
X9639Y154688D01*
X15364Y154223D01*
X21069Y153545D01*
X26746Y152656D01*
X32385Y151559D01*
X37980Y150251D01*
X43520Y148739D01*
X49004Y147022D01*
X54419Y145102D01*
X59758Y142984D01*
X65016Y140670D01*
X70185Y138160D01*
X75257Y135463D01*
X80225Y132580D01*
X85084Y129514D01*
X89824Y126268D01*
X94442Y122852D01*
X98930Y119265D01*
X103284Y115514D01*
X107492Y111605D01*
X111554Y107543D01*
X115463Y103334D01*
X119214Y98981D01*
X122801Y94493D01*
X126217Y89875D01*
X129463Y85135D01*
X132529Y80276D01*
X135412Y75308D01*
X138109Y70236D01*
X140619Y65067D01*
X142933Y59809D01*
X145051Y54470D01*
X146972Y49055D01*
X148689Y43571D01*
X150200Y38031D01*
X151508Y32435D01*
X152605Y26797D01*
X153494Y21120D01*
X154172Y15415D01*
X154637Y9690D01*
X229638Y9690D01*
X229638Y9690D01*
X229237Y16652D01*
X228622Y23596D01*
X227799Y30520D01*
X226766Y37416D01*
X225524Y44279D01*
X224076Y51099D01*
X222420Y57873D01*
X220560Y64594D01*
X218498Y71254D01*
X216235Y77851D01*
X213771Y84373D01*
X211112Y90820D01*
X208259Y97182D01*
X205214Y103456D01*
X201980Y109634D01*
X198561Y115712D01*
X194960Y121681D01*
X191178Y127541D01*
X187220Y133281D01*
X183090Y138902D01*
X178793Y144391D01*
X174330Y149750D01*
X169707Y154970D01*
X164929Y160047D01*
X159997Y164980D01*
X154919Y169758D01*
X149699Y174381D01*
X144340Y178843D01*
X138851Y183141D01*
X133230Y187271D01*
X127490Y191228D01*
X121630Y195011D01*
X115661Y198612D01*
X109583Y202031D01*
X103405Y205265D01*
X97132Y208310D01*
X90769Y211162D01*
X84322Y213822D01*
X77800Y216286D01*
X71203Y218549D01*
X64543Y220611D01*
X57823Y222470D01*
X51048Y224127D01*
X44229Y225574D01*
X37365Y226816D01*
X30469Y227850D01*
X23545Y228673D01*
X16601Y229288D01*
X9639Y229689D01*
G37*
G36*
X-9657Y-229694D02*
G01*
X-9657Y-154693D01*
X-9657Y-154693D01*
X-15382Y-154228D01*
X-21087Y-153550D01*
X-26763Y-152661D01*
X-32402Y-151564D01*
X-37998Y-150256D01*
X-43538Y-148744D01*
X-49021Y-147027D01*
X-54437Y-145107D01*
X-59776Y-142989D01*
X-65034Y-140675D01*
X-70203Y-138165D01*
X-75275Y-135468D01*
X-80243Y-132585D01*
X-85102Y-129519D01*
X-89842Y-126273D01*
X-94460Y-122857D01*
X-98948Y-119270D01*
X-103301Y-115519D01*
X-107510Y-111610D01*
X-111572Y-107548D01*
X-115481Y-103339D01*
X-119232Y-98986D01*
X-122819Y-94498D01*
X-126235Y-89880D01*
X-129481Y-85140D01*
X-132547Y-80281D01*
X-135430Y-75313D01*
X-138127Y-70241D01*
X-140637Y-65072D01*
X-142951Y-59814D01*
X-145069Y-54475D01*
X-146989Y-49060D01*
X-148706Y-43576D01*
X-150218Y-38036D01*
X-151526Y-32440D01*
X-152623Y-26802D01*
X-153512Y-21125D01*
X-154190Y-15420D01*
X-154655Y-9695D01*
X-229656Y-9695D01*
X-229656Y-9695D01*
X-229255Y-16657D01*
X-228640Y-23601D01*
X-227817Y-30525D01*
X-226783Y-37421D01*
X-225541Y-44284D01*
X-224094Y-51104D01*
X-222437Y-57878D01*
X-220578Y-64599D01*
X-218516Y-71259D01*
X-216253Y-77856D01*
X-213789Y-84378D01*
X-211129Y-90825D01*
X-208277Y-97188D01*
X-205231Y-103461D01*
X-201998Y-109639D01*
X-198579Y-115717D01*
X-194978Y-121686D01*
X-191195Y-127546D01*
X-187238Y-133286D01*
X-183108Y-138907D01*
X-178810Y-144396D01*
X-174348Y-149755D01*
X-169725Y-154975D01*
X-164947Y-160053D01*
X-160014Y-164985D01*
X-154937Y-169763D01*
X-149717Y-174386D01*
X-144358Y-178849D01*
X-138869Y-183146D01*
X-133248Y-187276D01*
X-127507Y-191234D01*
X-121648Y-195016D01*
X-115679Y-198617D01*
X-109601Y-202036D01*
X-103423Y-205270D01*
X-97149Y-208315D01*
X-90787Y-211167D01*
X-84340Y-213827D01*
X-77817Y-216291D01*
X-71221Y-218554D01*
X-64561Y-220616D01*
X-57840Y-222476D01*
X-51066Y-224132D01*
X-44246Y-225579D01*
X-37383Y-226821D01*
X-30487Y-227855D01*
X-23563Y-228678D01*
X-16619Y-229293D01*
X-9657Y-229694D01*
G37*
G36*
X-229697Y9646D02*
G01*
X-154696Y9646D01*
X-154696Y9646D01*
X-154228Y15372D01*
X-153548Y21076D01*
X-152664Y26753D01*
X-151566Y32390D01*
X-150253Y37988D01*
X-148747Y43525D01*
X-147027Y49011D01*
X-145105Y54427D01*
X-142986Y59766D01*
X-140677Y65023D01*
X-138165Y70192D01*
X-135465Y75265D01*
X-132585Y80233D01*
X-129519Y85092D01*
X-126276Y89832D01*
X-122854Y94449D01*
X-119268Y98938D01*
X-115516Y103291D01*
X-111607Y107500D01*
X-107551Y111559D01*
X-103342Y115470D01*
X-98986Y119222D01*
X-94498Y122809D01*
X-89882Y126225D01*
X-85143Y129471D01*
X-80284Y132534D01*
X-75316Y135417D01*
X-70238Y138117D01*
X-65072Y140627D01*
X-59811Y142938D01*
X-54472Y145056D01*
X-49060Y146979D01*
X-43573Y148696D01*
X-38039Y150207D01*
X-32438Y151516D01*
X-26799Y152613D01*
X-21122Y153502D01*
X-15420Y154180D01*
X-9697Y154645D01*
X-9697Y229646D01*
X-9697Y229646D01*
X-16654Y229245D01*
X-23599Y228630D01*
X-30523Y227807D01*
X-37421Y226773D01*
X-44284Y225529D01*
X-51104Y224083D01*
X-57881Y222427D01*
X-64597Y220565D01*
X-71262Y218506D01*
X-77853Y216242D01*
X-84378Y213776D01*
X-90825Y211119D01*
X-97188Y208267D01*
X-103459Y205221D01*
X-109641Y201988D01*
X-115717Y198569D01*
X-121683Y194967D01*
X-127543Y191185D01*
X-133289Y187228D01*
X-138907Y183098D01*
X-144393Y178800D01*
X-149753Y174337D01*
X-154973Y169715D01*
X-160053Y164934D01*
X-164983Y160004D01*
X-169765Y154924D01*
X-174386Y149705D01*
X-178851Y144348D01*
X-183146Y138859D01*
X-187274Y133238D01*
X-191231Y127497D01*
X-195018Y121638D01*
X-198615Y115669D01*
X-202036Y109590D01*
X-205267Y103411D01*
X-208318Y97139D01*
X-211167Y90774D01*
X-213824Y84330D01*
X-216288Y77805D01*
X-218556Y71211D01*
X-220614Y64551D01*
X-222473Y57830D01*
X-224129Y51056D01*
X-225579Y44234D01*
X-226819Y37373D01*
X-227858Y30477D01*
X-228681Y23550D01*
X-229290Y16606D01*
X-229697Y9646D01*
G37*
G36*
X229689Y-9649D02*
G01*
X154688Y-9649D01*
X154688Y-9649D01*
X154226Y-15377D01*
X153548Y-21081D01*
X152659Y-26756D01*
X151559Y-32395D01*
X150251Y-37990D01*
X148742Y-43530D01*
X147025Y-49016D01*
X145100Y-54429D01*
X142981Y-59768D01*
X140672Y-65029D01*
X138163Y-70197D01*
X135460Y-75267D01*
X132577Y-80236D01*
X129512Y-85095D01*
X126268Y-89834D01*
X122852Y-94454D01*
X119268Y-98943D01*
X115514Y-103294D01*
X111602Y-107502D01*
X107543Y-111564D01*
X103334Y-115476D01*
X98983Y-119227D01*
X94495Y-122811D01*
X89875Y-126227D01*
X85135Y-129473D01*
X80276Y-132539D01*
X75308Y-135422D01*
X70238Y-138122D01*
X65069Y-140629D01*
X59809Y-142943D01*
X54470Y-145061D01*
X49057Y-146982D01*
X43568Y-148699D01*
X38033Y-150210D01*
X32433Y-151518D01*
X26797Y-152615D01*
X21122Y-153507D01*
X15417Y-154183D01*
X9690Y-154647D01*
X9690Y-229649D01*
X9690Y-229649D01*
X16649Y-229250D01*
X23594Y-228633D01*
X30520Y-227810D01*
X37414Y-226776D01*
X44277Y-225534D01*
X51102Y-224086D01*
X57873Y-222430D01*
X64594Y-220571D01*
X71257Y-218508D01*
X77848Y-216247D01*
X84376Y-213781D01*
X90817Y-211124D01*
X97185Y-208269D01*
X103454Y-205224D01*
X109634Y-201990D01*
X115709Y-198572D01*
X121683Y-194970D01*
X127541Y-191188D01*
X133283Y-187231D01*
X138899Y-183103D01*
X144393Y-178803D01*
X149748Y-174340D01*
X154967Y-169717D01*
X160045Y-164939D01*
X164978Y-160007D01*
X169758Y-154929D01*
X174378Y-149710D01*
X178843Y-144353D01*
X183144Y-138861D01*
X187271Y-133240D01*
X191228Y-127500D01*
X195013Y-121643D01*
X198612Y-115671D01*
X202034Y-109593D01*
X205265Y-103416D01*
X208313Y-97144D01*
X211165Y-90779D01*
X213819Y-84333D01*
X216288Y-77810D01*
X218551Y-71213D01*
X220609Y-64554D01*
X222470Y-57833D01*
X224127Y-51061D01*
X225572Y-44239D01*
X226816Y-37376D01*
X227850Y-30479D01*
X228673Y-23555D01*
X229290Y-16611D01*
X229689Y-9649D01*
G37*
D11*
G01*
X-5099989Y-1925599D03*
D12*
G01*
X-4845989Y-1925599D03*
G01*
X-4591989Y-1925599D03*
G01*
X-4337989Y-1925599D03*
G01*
X-4083989Y-1925599D03*
G01*
X-3829989Y-1925599D03*
G01*
X-3575989Y-1925599D03*
G01*
X-3321989Y-1925599D03*
G01*
X-3067989Y-1925599D03*
G01*
X-2813989Y-1925599D03*
G01*
X-2559989Y-1925599D03*
G01*
X-2305989Y-1925599D03*
G01*
X-2051989Y-1925599D03*
G01*
X-1797989Y-1925599D03*
G01*
X-1543989Y-1925599D03*
G01*
X-1289989Y-1925599D03*
G01*
X-1035989Y-1925599D03*
G01*
X-781989Y-1925599D03*
D11*
G01*
X-5099989Y-299999D03*
D12*
G01*
X-4845989Y-299999D03*
G01*
X-4591989Y-299999D03*
G01*
X-4337989Y-299999D03*
G01*
X-4083989Y-299999D03*
G01*
X-3829989Y-299999D03*
G01*
X-3575989Y-299999D03*
G01*
X-3321989Y-299999D03*
G01*
X-3067989Y-299999D03*
G01*
X-2813989Y-299999D03*
G01*
X-2559989Y-299999D03*
G01*
X-2305989Y-299999D03*
G01*
X-2051989Y-299999D03*
G01*
X-1797989Y-299999D03*
G01*
X-1543989Y-299999D03*
G01*
X-1289989Y-299999D03*
G01*
X-1035989Y-299999D03*
G01*
X-781989Y-299999D03*
D13*
G01*
X-4718989Y-1354099D03*
G01*
X-4718989Y-869111D03*
G01*
X-4464989Y-1354099D03*
G01*
X-4464989Y-869111D03*
G01*
X-4210989Y-1354099D03*
G01*
X-4210989Y-869111D03*
G01*
X-3956989Y-1354099D03*
G01*
X-3956989Y-869111D03*
G01*
X-3702989Y-1354099D03*
G01*
X-3702989Y-869111D03*
G01*
X-3448989Y-1354099D03*
G01*
X-3448989Y-869111D03*
G01*
X-3194989Y-1354099D03*
G01*
X-3194989Y-869111D03*
G01*
X-2940989Y-1354099D03*
G01*
X-2940989Y-869111D03*
G01*
X-2686989Y-1354099D03*
G01*
X-2686989Y-869111D03*
G01*
X-2432989Y-1354099D03*
G01*
X-2432989Y-869111D03*
G01*
X-2178989Y-1354099D03*
G01*
X-2178989Y-869111D03*
G01*
X-1924989Y-1354099D03*
G01*
X-1924989Y-869111D03*
G01*
X-1670989Y-1354099D03*
G01*
X-1670989Y-869111D03*
G01*
X-1416989Y-1354099D03*
G01*
X-1416989Y-869111D03*
G01*
X-1162989Y-1354099D03*
G01*
X-1162989Y-869111D03*
D14*
G01*
X-5575985Y-1111605D03*
G01*
X-305993Y-1111605D03*
M02*
