M48
METRIC,LZ,000.000
;FILE_FORMAT=3:3
;TYPE=PLATED
;Layer: PTH_Through
;EasyEDA v6.5.22, 2023-04-21 14:11:52
;6639ec0bfd30429d8febbb54714beaf6,0d2cea57a9a8422ebbcee2df73fbc454,10
;Gerber Generator version 0.2
;Holesize 1 = 0.915 mm
T01C0.915
%
G05
G90
T01
X047498Y018542
X032258Y018542
X047498Y021082
X047498Y023622
X047498Y026162
X047498Y028702
X047498Y031242
X047498Y033782
X047498Y036322
X047498Y038862
X047498Y041402
X047498Y043942
X047498Y046482
X047498Y049022
X047498Y051562
X032258Y021082
X032258Y023622
X032258Y026162
X032258Y028702
X032258Y031242
X032258Y033782
X032258Y036322
X032258Y038862
X032258Y041402
X032258Y043942
X032258Y046482
X032258Y049022
X032258Y051562
M30
