M48
METRIC,LZ,000.000
;FILE_FORMAT=3:3
;TYPE=PLATED
;Layer: PTH_Through_Via
;EasyEDA v6.5.22, 2023-04-21 14:11:52
;6639ec0bfd30429d8febbb54714beaf6,0d2cea57a9a8422ebbcee2df73fbc454,10
;Gerber Generator version 0.2
;Holesize 1 = 0.305 mm
T01C0.305
;Holesize 2 = 0.306 mm
T02C0.306
%
G05
G90
T01
X019431Y050292
X028067Y035560
X018288Y030861
X017526Y033147
X016637Y035179
X016002Y036957
X022098Y025146
X023114Y024130
X022733Y025908
X023749Y024892
X023622Y026797
X024638Y025781
X052070Y021082
X013970Y045466
X017272Y045466
X024511Y027686
X037211Y030480
X054483Y053340
X050419Y051562
X016637Y012954
X038100Y023749
X037084Y032639
X022098Y052832
T02
X026035Y017399
M30
