G04 Layer: TopLayer*
G04 EasyEDA v6.5.22, 2023-04-21 14:11:52*
G04 6639ec0bfd30429d8febbb54714beaf6,0d2cea57a9a8422ebbcee2df73fbc454,10*
G04 Gerber Generator version 0.2*
G04 Scale: 100 percent, Rotated: No, Reflected: No *
G04 Dimensions in millimeters *
G04 leading zeros omitted , absolute positions ,4 integer and 5 decimal *
%FSLAX45Y45*%
%MOMM*%

%ADD10C,0.2540*%
%ADD11R,0.8000X0.9000*%
%ADD12R,9.0000X1.5240*%
%ADD13C,1.5240*%
%ADD14C,0.6096*%
%ADD15C,0.6000*%
%ADD16C,0.0157*%

%LPD*%
G36*
X4853482Y4934559D02*
G01*
X4849622Y4935321D01*
X4846320Y4937506D01*
X4844084Y4940757D01*
X4840935Y4948224D01*
X4833975Y4959959D01*
X4825492Y4970678D01*
X4815687Y4980178D01*
X4804714Y4988255D01*
X4792776Y4994808D01*
X4780026Y4999685D01*
X4766767Y5002885D01*
X4753203Y5004206D01*
X4739589Y5003749D01*
X4726127Y5001514D01*
X4713122Y4997450D01*
X4700727Y4991709D01*
X4689246Y4984394D01*
X4678832Y4975606D01*
X4669688Y4965446D01*
X4667250Y4961890D01*
X4664151Y4958994D01*
X4660087Y4957572D01*
X4655870Y4957978D01*
X4652162Y4960061D01*
X4649622Y4963464D01*
X4648708Y4967681D01*
X4648708Y5090718D01*
X4649622Y5094884D01*
X4652162Y5098338D01*
X4655870Y5100421D01*
X4660087Y5100828D01*
X4664151Y5099405D01*
X4667250Y5096510D01*
X4669688Y5092954D01*
X4678832Y5082794D01*
X4689246Y5074005D01*
X4700727Y5066690D01*
X4705350Y5064556D01*
X4705350Y5111750D01*
X4658868Y5111750D01*
X4654956Y5112512D01*
X4651705Y5114747D01*
X4649470Y5117998D01*
X4648708Y5121910D01*
X4648708Y5190490D01*
X4649470Y5194401D01*
X4651705Y5197652D01*
X4654956Y5199888D01*
X4658868Y5200650D01*
X4705350Y5200650D01*
X4705350Y5247843D01*
X4700727Y5245709D01*
X4689246Y5238394D01*
X4678832Y5229606D01*
X4669688Y5219446D01*
X4667250Y5215890D01*
X4664151Y5212994D01*
X4660087Y5211572D01*
X4655870Y5211978D01*
X4652162Y5214061D01*
X4649622Y5217464D01*
X4648708Y5221681D01*
X4648708Y5308092D01*
X4647895Y5316118D01*
X4645710Y5323332D01*
X4642154Y5330037D01*
X4637024Y5336235D01*
X4409135Y5564124D01*
X4402632Y5569458D01*
X4400042Y5572709D01*
X4398975Y5576671D01*
X4399534Y5580735D01*
X4401667Y5584291D01*
X4405071Y5586628D01*
X4409084Y5587492D01*
X4437481Y5587492D01*
X4441393Y5586730D01*
X4444695Y5584494D01*
X4658664Y5370576D01*
X4664862Y5365445D01*
X4671568Y5361889D01*
X4678781Y5359704D01*
X4686808Y5358892D01*
X4767681Y5358892D01*
X4771593Y5358130D01*
X4774895Y5355894D01*
X4860594Y5270195D01*
X4862830Y5266893D01*
X4863592Y5262981D01*
X4863592Y5198719D01*
X4862830Y5194401D01*
X4863592Y5190490D01*
X4863592Y5121910D01*
X4862830Y5117541D01*
X4863592Y5113680D01*
X4863592Y4944719D01*
X4862830Y4940858D01*
X4860645Y4937556D01*
X4857343Y4935372D01*
G37*

%LPC*%
G36*
X4794250Y5064404D02*
G01*
X4804714Y5070144D01*
X4815687Y5078222D01*
X4825492Y5087721D01*
X4833975Y5098440D01*
X4840935Y5110175D01*
X4841595Y5111750D01*
X4794250Y5111750D01*
G37*
G36*
X4794250Y5200650D02*
G01*
X4841595Y5200650D01*
X4840935Y5202224D01*
X4833975Y5213959D01*
X4825492Y5224678D01*
X4815687Y5234178D01*
X4804714Y5242255D01*
X4794250Y5247995D01*
G37*

%LPD*%
G36*
X733958Y584708D02*
G01*
X730097Y585470D01*
X726795Y587705D01*
X724560Y590956D01*
X723798Y594868D01*
X723798Y891438D01*
X724560Y895299D01*
X726795Y898601D01*
X730097Y900836D01*
X733958Y901598D01*
X977646Y901598D01*
X998931Y902665D01*
X1021080Y905865D01*
X1042873Y911250D01*
X1064006Y918718D01*
X1086866Y929589D01*
X1105966Y941273D01*
X1123848Y954786D01*
X1140307Y969975D01*
X1155242Y986688D01*
X1168450Y1004824D01*
X1178458Y1021537D01*
X1188161Y1041755D01*
X1189278Y1044448D01*
X1195832Y1062837D01*
X1201978Y1087374D01*
X1204823Y1106678D01*
X1206042Y1129030D01*
X1204823Y1154328D01*
X1201978Y1173632D01*
X1196695Y1195273D01*
X1194308Y1202385D01*
X1193800Y1205585D01*
X1193800Y1491792D01*
X1194206Y1494586D01*
X1195374Y1497177D01*
X1197203Y1500073D01*
X1199083Y1505559D01*
X1199794Y1511858D01*
X1199794Y1543913D01*
X1196644Y1546148D01*
X1194562Y1549400D01*
X1193800Y1553210D01*
X1193800Y1621790D01*
X1194562Y1625600D01*
X1196644Y1628851D01*
X1199794Y1631086D01*
X1199794Y1663141D01*
X1199083Y1669440D01*
X1197203Y1674926D01*
X1195374Y1677822D01*
X1194206Y1680413D01*
X1193800Y1683207D01*
X1193800Y1745792D01*
X1194206Y1748586D01*
X1195374Y1751177D01*
X1197203Y1754073D01*
X1199083Y1759559D01*
X1199794Y1765858D01*
X1199794Y1792732D01*
X1200607Y1796643D01*
X1202791Y1799894D01*
X1206093Y1802130D01*
X1209954Y1802892D01*
X2844292Y1802892D01*
X2852318Y1803704D01*
X2859532Y1805889D01*
X2866237Y1809445D01*
X2872435Y1814575D01*
X2997504Y1939594D01*
X3000806Y1941830D01*
X3004718Y1942592D01*
X3145536Y1942592D01*
X3149346Y1941830D01*
X3152597Y1939747D01*
X3154781Y1936546D01*
X3155696Y1932787D01*
X3155035Y1928926D01*
X3153054Y1925624D01*
X3145688Y1917446D01*
X3137966Y1906219D01*
X3131820Y1894078D01*
X3127349Y1881174D01*
X3124606Y1867814D01*
X3123692Y1854200D01*
X3124606Y1840585D01*
X3127349Y1827225D01*
X3129584Y1820722D01*
X3130143Y1816963D01*
X3129330Y1813306D01*
X3127197Y1810207D01*
X2958795Y1641805D01*
X2955493Y1639570D01*
X2951581Y1638807D01*
X2406243Y1638807D01*
X2402586Y1639468D01*
X2399487Y1641398D01*
X2397201Y1644294D01*
X2396134Y1647850D01*
X2395778Y1650949D01*
X2393899Y1656435D01*
X2390800Y1661312D01*
X2386685Y1665427D01*
X2381808Y1668475D01*
X2376322Y1670405D01*
X2370023Y1671116D01*
X2291181Y1671116D01*
X2284831Y1670405D01*
X2279396Y1668475D01*
X2274468Y1665427D01*
X2270404Y1661312D01*
X2269185Y1659432D01*
X2266391Y1656486D01*
X2262632Y1654860D01*
X2258568Y1654860D01*
X2254808Y1656486D01*
X2252014Y1659432D01*
X2250795Y1661312D01*
X2246731Y1665427D01*
X2241804Y1668475D01*
X2236368Y1670405D01*
X2230018Y1671116D01*
X2216962Y1671116D01*
X2216962Y1629054D01*
X2254504Y1629054D01*
X2258415Y1628292D01*
X2261717Y1626057D01*
X2263902Y1622755D01*
X2264664Y1618894D01*
X2264664Y1581505D01*
X2263902Y1577644D01*
X2261717Y1574342D01*
X2258415Y1572107D01*
X2254504Y1571345D01*
X2216962Y1571345D01*
X2216962Y1529283D01*
X2230018Y1529283D01*
X2236368Y1529994D01*
X2241804Y1531924D01*
X2246731Y1534972D01*
X2250795Y1539087D01*
X2252014Y1540967D01*
X2254808Y1543913D01*
X2258568Y1545539D01*
X2262632Y1545539D01*
X2266391Y1543913D01*
X2269185Y1540967D01*
X2270404Y1539087D01*
X2274468Y1534972D01*
X2279396Y1531924D01*
X2285187Y1529892D01*
X2288743Y1527759D01*
X2291130Y1524355D01*
X2291994Y1520291D01*
X2291994Y1398320D01*
X2291232Y1394409D01*
X2288997Y1391107D01*
X2234895Y1337005D01*
X2231593Y1334770D01*
X2227681Y1334008D01*
X1708708Y1334008D01*
X1704797Y1334770D01*
X1701495Y1337005D01*
X1699920Y1338580D01*
X1691893Y1344218D01*
X1682953Y1348333D01*
X1673504Y1350873D01*
X1663700Y1351737D01*
X1653895Y1350873D01*
X1644446Y1348333D01*
X1635506Y1344218D01*
X1627479Y1338580D01*
X1620520Y1331620D01*
X1614881Y1323594D01*
X1610766Y1314653D01*
X1608226Y1305204D01*
X1607362Y1295400D01*
X1608226Y1285595D01*
X1610766Y1276146D01*
X1614881Y1267206D01*
X1620520Y1259179D01*
X1627479Y1252220D01*
X1635506Y1246581D01*
X1644446Y1242466D01*
X1653895Y1239926D01*
X1663700Y1239062D01*
X1673504Y1239926D01*
X1682953Y1242466D01*
X1691893Y1246581D01*
X1699920Y1252220D01*
X1701495Y1253794D01*
X1704797Y1256030D01*
X1708708Y1256792D01*
X2247392Y1256792D01*
X2255418Y1257604D01*
X2262632Y1259789D01*
X2269337Y1263345D01*
X2275535Y1268476D01*
X2357526Y1350467D01*
X2362657Y1356664D01*
X2366213Y1363370D01*
X2368397Y1370584D01*
X2369210Y1378610D01*
X2369210Y1520291D01*
X2370074Y1524355D01*
X2372461Y1527759D01*
X2376017Y1529892D01*
X2381808Y1531924D01*
X2386685Y1534972D01*
X2390800Y1539087D01*
X2393899Y1543964D01*
X2395778Y1549450D01*
X2396134Y1552549D01*
X2397201Y1556105D01*
X2399487Y1559001D01*
X2402586Y1560931D01*
X2406243Y1561592D01*
X2971292Y1561592D01*
X2979318Y1562404D01*
X2986532Y1564589D01*
X2993237Y1568145D01*
X2999435Y1573276D01*
X3181756Y1755546D01*
X3184753Y1757629D01*
X3188309Y1758492D01*
X3191916Y1758035D01*
X3202127Y1754886D01*
X3215589Y1752650D01*
X3229203Y1752193D01*
X3242767Y1753514D01*
X3256026Y1756714D01*
X3268776Y1761591D01*
X3280714Y1768144D01*
X3291687Y1776222D01*
X3301492Y1785721D01*
X3309975Y1796440D01*
X3316935Y1808175D01*
X3322218Y1820722D01*
X3325825Y1833880D01*
X3327654Y1847392D01*
X3327654Y1861007D01*
X3325825Y1874520D01*
X3322218Y1887677D01*
X3316935Y1900224D01*
X3309975Y1911959D01*
X3301492Y1922678D01*
X3298951Y1925116D01*
X3296716Y1928418D01*
X3295904Y1932330D01*
X3296615Y1936242D01*
X3298799Y1939594D01*
X3302101Y1941830D01*
X3306064Y1942592D01*
X3555492Y1942592D01*
X3563518Y1943404D01*
X3570732Y1945589D01*
X3577437Y1949145D01*
X3583635Y1954275D01*
X3748024Y2118664D01*
X3753154Y2124862D01*
X3756710Y2131568D01*
X3758895Y2138781D01*
X3759708Y2146808D01*
X3759708Y2322068D01*
X3760673Y2326386D01*
X3763314Y2329840D01*
X3767226Y2331872D01*
X3771646Y2332075D01*
X3775710Y2330399D01*
X3781806Y2326081D01*
X3790746Y2321966D01*
X3800195Y2319426D01*
X3810000Y2318562D01*
X3819804Y2319426D01*
X3829253Y2321966D01*
X3838194Y2326081D01*
X3846220Y2331720D01*
X3853179Y2338679D01*
X3858818Y2346706D01*
X3862933Y2355646D01*
X3865473Y2365095D01*
X3866337Y2374900D01*
X3865473Y2384704D01*
X3862933Y2394153D01*
X3858818Y2403094D01*
X3853179Y2411120D01*
X3851605Y2412695D01*
X3849370Y2415997D01*
X3848608Y2419908D01*
X3848608Y3161792D01*
X3847795Y3169818D01*
X3845610Y3177032D01*
X3842054Y3183737D01*
X3836924Y3189935D01*
X3767531Y3259378D01*
X3765499Y3262274D01*
X3764584Y3265678D01*
X3763873Y3273704D01*
X3761333Y3283153D01*
X3757218Y3292094D01*
X3751579Y3300120D01*
X3744620Y3307079D01*
X3736594Y3312718D01*
X3727653Y3316833D01*
X3718204Y3319373D01*
X3708400Y3320237D01*
X3698595Y3319373D01*
X3689146Y3316833D01*
X3680206Y3312718D01*
X3672179Y3307079D01*
X3665220Y3300120D01*
X3663899Y3298190D01*
X3660800Y3295294D01*
X3656736Y3293922D01*
X3652520Y3294329D01*
X3648811Y3296462D01*
X3646322Y3299866D01*
X3645408Y3304032D01*
X3645408Y3860292D01*
X3644595Y3868318D01*
X3642410Y3875532D01*
X3638854Y3882237D01*
X3633724Y3888435D01*
X3469335Y4052824D01*
X3463137Y4057954D01*
X3456432Y4061510D01*
X3449218Y4063695D01*
X3441192Y4064508D01*
X3316782Y4064508D01*
X3312363Y4065524D01*
X3308858Y4068318D01*
X3306876Y4072382D01*
X3306876Y4076903D01*
X3308807Y4080967D01*
X3309975Y4082440D01*
X3316935Y4094175D01*
X3322218Y4106722D01*
X3325825Y4119879D01*
X3327654Y4133392D01*
X3327654Y4147007D01*
X3325825Y4160520D01*
X3322218Y4173677D01*
X3316935Y4186224D01*
X3309975Y4197959D01*
X3308807Y4199432D01*
X3306876Y4203496D01*
X3306876Y4208018D01*
X3308858Y4212082D01*
X3312363Y4214876D01*
X3316782Y4215892D01*
X3662781Y4215892D01*
X3666693Y4215130D01*
X3669995Y4212894D01*
X3819194Y4063695D01*
X3821429Y4060393D01*
X3822192Y4056481D01*
X3822192Y3251708D01*
X3823004Y3243681D01*
X3825189Y3236468D01*
X3828745Y3229762D01*
X3833876Y3223564D01*
X4651197Y2406192D01*
X4653330Y2403094D01*
X4654143Y2399436D01*
X4653584Y2395677D01*
X4651349Y2389174D01*
X4648606Y2375814D01*
X4647692Y2362200D01*
X4648606Y2348585D01*
X4651349Y2335225D01*
X4655820Y2322322D01*
X4661966Y2310180D01*
X4669688Y2298954D01*
X4678832Y2288794D01*
X4689246Y2280005D01*
X4700727Y2272690D01*
X4713122Y2266950D01*
X4726127Y2262886D01*
X4739589Y2260650D01*
X4753203Y2260193D01*
X4766767Y2261514D01*
X4780026Y2264714D01*
X4792776Y2269591D01*
X4804714Y2276144D01*
X4815687Y2284222D01*
X4825492Y2293721D01*
X4833975Y2304440D01*
X4840935Y2316175D01*
X4846218Y2328722D01*
X4849825Y2341880D01*
X4851654Y2355392D01*
X4851654Y2369007D01*
X4849825Y2382520D01*
X4846218Y2395677D01*
X4840935Y2408224D01*
X4833975Y2419959D01*
X4825492Y2430678D01*
X4815687Y2440178D01*
X4804714Y2448255D01*
X4792776Y2454808D01*
X4780026Y2459685D01*
X4766767Y2462885D01*
X4753203Y2464206D01*
X4739589Y2463749D01*
X4726127Y2461514D01*
X4715916Y2458364D01*
X4712309Y2457907D01*
X4708753Y2458770D01*
X4705756Y2460853D01*
X3902405Y3264204D01*
X3900170Y3267506D01*
X3899408Y3271418D01*
X3899408Y4076192D01*
X3898595Y4084218D01*
X3896410Y4091432D01*
X3892854Y4098137D01*
X3887724Y4104335D01*
X3710635Y4281424D01*
X3704437Y4286554D01*
X3697732Y4290110D01*
X3690518Y4292295D01*
X3682492Y4293108D01*
X3291230Y4293108D01*
X3287115Y4293971D01*
X3283712Y4296460D01*
X3281578Y4300118D01*
X3281121Y4304284D01*
X3282391Y4308297D01*
X3285185Y4311446D01*
X3291687Y4316222D01*
X3301492Y4325721D01*
X3309975Y4336440D01*
X3316935Y4348175D01*
X3322218Y4360722D01*
X3325825Y4373880D01*
X3327654Y4387392D01*
X3327654Y4401007D01*
X3325825Y4414520D01*
X3322218Y4427677D01*
X3316935Y4440224D01*
X3309975Y4451959D01*
X3301492Y4462678D01*
X3298951Y4465116D01*
X3296716Y4468418D01*
X3295904Y4472330D01*
X3296615Y4476242D01*
X3298799Y4479594D01*
X3302101Y4481830D01*
X3306064Y4482592D01*
X3954881Y4482592D01*
X3958793Y4481830D01*
X3962095Y4479594D01*
X4047794Y4393895D01*
X4050029Y4390593D01*
X4050792Y4386681D01*
X4050792Y3277108D01*
X4051604Y3269081D01*
X4053789Y3261867D01*
X4057345Y3255162D01*
X4062476Y3248964D01*
X4651197Y2660192D01*
X4653330Y2657094D01*
X4654143Y2653436D01*
X4653584Y2649677D01*
X4651349Y2643174D01*
X4648606Y2629814D01*
X4647692Y2616200D01*
X4648606Y2602585D01*
X4651349Y2589225D01*
X4655820Y2576322D01*
X4661966Y2564180D01*
X4669688Y2552954D01*
X4678832Y2542794D01*
X4689246Y2534005D01*
X4700727Y2526690D01*
X4713122Y2520950D01*
X4726127Y2516886D01*
X4739589Y2514650D01*
X4753203Y2514193D01*
X4766767Y2515514D01*
X4780026Y2518714D01*
X4792776Y2523591D01*
X4804714Y2530144D01*
X4815687Y2538222D01*
X4825492Y2547721D01*
X4833975Y2558440D01*
X4840935Y2570175D01*
X4846218Y2582722D01*
X4849825Y2595880D01*
X4851654Y2609392D01*
X4851654Y2623007D01*
X4849825Y2636520D01*
X4846218Y2649677D01*
X4840935Y2662224D01*
X4833975Y2673959D01*
X4825492Y2684678D01*
X4815687Y2694178D01*
X4804714Y2702255D01*
X4792776Y2708808D01*
X4780026Y2713685D01*
X4766767Y2716885D01*
X4753203Y2718206D01*
X4739589Y2717749D01*
X4726127Y2715514D01*
X4715916Y2712364D01*
X4712309Y2711907D01*
X4708753Y2712770D01*
X4705756Y2714853D01*
X4131005Y3289604D01*
X4128770Y3292906D01*
X4128008Y3296818D01*
X4128008Y4406392D01*
X4127195Y4414418D01*
X4125010Y4421632D01*
X4121454Y4428337D01*
X4116324Y4434535D01*
X4002735Y4548124D01*
X3996537Y4553254D01*
X3989832Y4556810D01*
X3982618Y4558995D01*
X3974592Y4559808D01*
X3306064Y4559808D01*
X3302101Y4560570D01*
X3298799Y4562805D01*
X3296615Y4566158D01*
X3295904Y4570069D01*
X3296716Y4573981D01*
X3298951Y4577283D01*
X3301492Y4579721D01*
X3309975Y4590440D01*
X3316935Y4602175D01*
X3322218Y4614722D01*
X3325825Y4627880D01*
X3327654Y4641392D01*
X3327654Y4655007D01*
X3325825Y4668520D01*
X3322218Y4681677D01*
X3316935Y4694224D01*
X3309975Y4705959D01*
X3308807Y4707432D01*
X3306876Y4711496D01*
X3306876Y4716018D01*
X3308858Y4720082D01*
X3312363Y4722876D01*
X3316782Y4723892D01*
X4069181Y4723892D01*
X4073093Y4723130D01*
X4076395Y4720894D01*
X4187494Y4609795D01*
X4189729Y4606493D01*
X4190492Y4602581D01*
X4190492Y3391408D01*
X4191304Y3383381D01*
X4193489Y3376168D01*
X4197045Y3369462D01*
X4202176Y3363264D01*
X4651197Y2914192D01*
X4653330Y2911094D01*
X4654143Y2907436D01*
X4653584Y2903677D01*
X4651349Y2897174D01*
X4648606Y2883814D01*
X4647692Y2870200D01*
X4648606Y2856585D01*
X4651349Y2843225D01*
X4655820Y2830322D01*
X4661966Y2818180D01*
X4669688Y2806954D01*
X4678832Y2796794D01*
X4689246Y2788005D01*
X4700727Y2780690D01*
X4713122Y2774950D01*
X4726127Y2770886D01*
X4739589Y2768650D01*
X4753203Y2768193D01*
X4766767Y2769514D01*
X4780026Y2772714D01*
X4792776Y2777591D01*
X4804714Y2784144D01*
X4815687Y2792222D01*
X4825492Y2801721D01*
X4833975Y2812440D01*
X4840935Y2824175D01*
X4846218Y2836722D01*
X4849825Y2849880D01*
X4851654Y2863392D01*
X4851654Y2877007D01*
X4849825Y2890520D01*
X4846218Y2903677D01*
X4840935Y2916224D01*
X4833975Y2927959D01*
X4825492Y2938678D01*
X4815687Y2948178D01*
X4804714Y2956255D01*
X4792776Y2962808D01*
X4780026Y2967685D01*
X4766767Y2970885D01*
X4753203Y2972206D01*
X4739589Y2971749D01*
X4726127Y2969514D01*
X4715916Y2966364D01*
X4712309Y2965907D01*
X4708753Y2966770D01*
X4705756Y2968853D01*
X4270705Y3403904D01*
X4268470Y3407206D01*
X4267708Y3411118D01*
X4267708Y4622292D01*
X4266895Y4630318D01*
X4264710Y4637532D01*
X4261154Y4644237D01*
X4256024Y4650435D01*
X4117035Y4789424D01*
X4110837Y4794554D01*
X4104132Y4798110D01*
X4096918Y4800295D01*
X4088892Y4801108D01*
X3291230Y4801108D01*
X3287115Y4801971D01*
X3283712Y4804460D01*
X3281578Y4808118D01*
X3281121Y4812284D01*
X3282391Y4816297D01*
X3285185Y4819446D01*
X3291687Y4824222D01*
X3301492Y4833721D01*
X3309975Y4844440D01*
X3316935Y4856175D01*
X3322218Y4868722D01*
X3325825Y4881880D01*
X3327654Y4895392D01*
X3327654Y4909007D01*
X3325825Y4922520D01*
X3322218Y4935677D01*
X3316935Y4948224D01*
X3309975Y4959959D01*
X3301492Y4970678D01*
X3298951Y4973116D01*
X3296716Y4976418D01*
X3295904Y4980330D01*
X3296615Y4984242D01*
X3298799Y4987594D01*
X3302101Y4989830D01*
X3306064Y4990592D01*
X4119981Y4990592D01*
X4123893Y4989830D01*
X4127195Y4987594D01*
X4314494Y4800295D01*
X4316730Y4796993D01*
X4317492Y4793081D01*
X4317492Y3518408D01*
X4318304Y3510381D01*
X4320489Y3503168D01*
X4324045Y3496462D01*
X4329176Y3490264D01*
X4651197Y3168192D01*
X4653330Y3165094D01*
X4654143Y3161436D01*
X4653584Y3157677D01*
X4651349Y3151174D01*
X4648606Y3137814D01*
X4647692Y3124200D01*
X4648606Y3110585D01*
X4651349Y3097225D01*
X4655820Y3084322D01*
X4661966Y3072180D01*
X4669688Y3060954D01*
X4678832Y3050794D01*
X4689246Y3042005D01*
X4700727Y3034690D01*
X4713122Y3028950D01*
X4726127Y3024886D01*
X4739589Y3022650D01*
X4753203Y3022193D01*
X4766767Y3023514D01*
X4780026Y3026714D01*
X4792776Y3031591D01*
X4804714Y3038144D01*
X4815687Y3046222D01*
X4825492Y3055721D01*
X4833975Y3066440D01*
X4840935Y3078175D01*
X4846218Y3090722D01*
X4849825Y3103880D01*
X4851654Y3117392D01*
X4851654Y3131007D01*
X4849825Y3144520D01*
X4846218Y3157677D01*
X4840935Y3170224D01*
X4833975Y3181959D01*
X4825492Y3192678D01*
X4815687Y3202178D01*
X4804714Y3210255D01*
X4792776Y3216808D01*
X4780026Y3221685D01*
X4766767Y3224885D01*
X4753203Y3226206D01*
X4739589Y3225749D01*
X4726127Y3223514D01*
X4715916Y3220364D01*
X4712309Y3219907D01*
X4708753Y3220770D01*
X4705756Y3222853D01*
X4397705Y3530904D01*
X4395470Y3534206D01*
X4394708Y3538118D01*
X4394708Y3654145D01*
X4395470Y3658057D01*
X4397705Y3661359D01*
X4400956Y3663543D01*
X4404868Y3664305D01*
X4408779Y3663543D01*
X4412030Y3661359D01*
X4651197Y3422192D01*
X4653330Y3419094D01*
X4654143Y3415436D01*
X4653584Y3411677D01*
X4651349Y3405174D01*
X4648606Y3391814D01*
X4647692Y3378200D01*
X4648606Y3364585D01*
X4651349Y3351225D01*
X4655820Y3338322D01*
X4661966Y3326180D01*
X4669688Y3314954D01*
X4678832Y3304794D01*
X4689246Y3296005D01*
X4700727Y3288690D01*
X4713122Y3282950D01*
X4726127Y3278886D01*
X4739589Y3276650D01*
X4753203Y3276193D01*
X4766767Y3277514D01*
X4780026Y3280714D01*
X4792776Y3285591D01*
X4804714Y3292144D01*
X4815687Y3300222D01*
X4825492Y3309721D01*
X4833975Y3320440D01*
X4840935Y3332175D01*
X4846218Y3344722D01*
X4849825Y3357879D01*
X4851654Y3371392D01*
X4851654Y3385007D01*
X4849825Y3398520D01*
X4846218Y3411677D01*
X4840935Y3424224D01*
X4833975Y3435959D01*
X4825492Y3446678D01*
X4815687Y3456178D01*
X4804714Y3464255D01*
X4792776Y3470808D01*
X4780026Y3475685D01*
X4766767Y3478885D01*
X4753203Y3480206D01*
X4739589Y3479749D01*
X4726127Y3477514D01*
X4715916Y3474364D01*
X4712309Y3473907D01*
X4708753Y3474770D01*
X4705756Y3476853D01*
X4473905Y3708704D01*
X4471670Y3712006D01*
X4470908Y3715918D01*
X4470908Y3833215D01*
X4471771Y3837228D01*
X4474108Y3840632D01*
X4477664Y3842765D01*
X4481728Y3843324D01*
X4485690Y3842258D01*
X4488942Y3839667D01*
X4494276Y3833164D01*
X4651197Y3676192D01*
X4653330Y3673094D01*
X4654143Y3669436D01*
X4653584Y3665677D01*
X4651349Y3659174D01*
X4648606Y3645814D01*
X4647692Y3632200D01*
X4648606Y3618585D01*
X4651349Y3605225D01*
X4655820Y3592322D01*
X4661966Y3580180D01*
X4669688Y3568954D01*
X4678832Y3558794D01*
X4689246Y3550005D01*
X4700727Y3542690D01*
X4713122Y3536950D01*
X4726127Y3532886D01*
X4739589Y3530650D01*
X4753203Y3530193D01*
X4766767Y3531514D01*
X4780026Y3534714D01*
X4792776Y3539591D01*
X4804714Y3546144D01*
X4815687Y3554222D01*
X4825492Y3563721D01*
X4833975Y3574440D01*
X4840935Y3586175D01*
X4846218Y3598722D01*
X4849825Y3611879D01*
X4851654Y3625392D01*
X4851654Y3639007D01*
X4849825Y3652520D01*
X4846218Y3665677D01*
X4840935Y3678224D01*
X4833975Y3689959D01*
X4825492Y3700678D01*
X4815687Y3710178D01*
X4804714Y3718255D01*
X4792776Y3724808D01*
X4780026Y3729685D01*
X4766767Y3732885D01*
X4753203Y3734206D01*
X4739589Y3733749D01*
X4726127Y3731514D01*
X4715916Y3728364D01*
X4712309Y3727907D01*
X4708753Y3728770D01*
X4705756Y3730853D01*
X4562805Y3873804D01*
X4560570Y3877106D01*
X4559808Y3881018D01*
X4559808Y3998315D01*
X4560671Y4002328D01*
X4563008Y4005732D01*
X4566564Y4007865D01*
X4570628Y4008424D01*
X4574590Y4007358D01*
X4577842Y4004767D01*
X4583176Y3998264D01*
X4651197Y3930192D01*
X4653330Y3927094D01*
X4654143Y3923436D01*
X4653584Y3919677D01*
X4651349Y3913174D01*
X4648606Y3899814D01*
X4647692Y3886200D01*
X4648606Y3872585D01*
X4651349Y3859225D01*
X4655820Y3846322D01*
X4661966Y3834180D01*
X4669688Y3822954D01*
X4678832Y3812794D01*
X4689246Y3804005D01*
X4700727Y3796690D01*
X4713122Y3790950D01*
X4726127Y3786886D01*
X4739589Y3784650D01*
X4753203Y3784193D01*
X4766767Y3785514D01*
X4780026Y3788714D01*
X4792776Y3793591D01*
X4804714Y3800144D01*
X4815687Y3808222D01*
X4825492Y3817721D01*
X4833975Y3828440D01*
X4840935Y3840175D01*
X4846218Y3852722D01*
X4849825Y3865879D01*
X4851654Y3879392D01*
X4851654Y3893007D01*
X4849825Y3906520D01*
X4846218Y3919677D01*
X4840935Y3932224D01*
X4833975Y3943959D01*
X4825492Y3954678D01*
X4815687Y3964178D01*
X4804714Y3972255D01*
X4792776Y3978808D01*
X4780026Y3983685D01*
X4766767Y3986885D01*
X4753203Y3988206D01*
X4739589Y3987749D01*
X4726127Y3985514D01*
X4715916Y3982364D01*
X4712309Y3981907D01*
X4708753Y3982770D01*
X4705756Y3984853D01*
X4651705Y4038904D01*
X4649470Y4042206D01*
X4648708Y4046118D01*
X4648708Y4074718D01*
X4649622Y4078884D01*
X4652162Y4082338D01*
X4655870Y4084421D01*
X4660087Y4084828D01*
X4664151Y4083405D01*
X4667250Y4080510D01*
X4669688Y4076954D01*
X4678832Y4066794D01*
X4689246Y4058005D01*
X4700727Y4050690D01*
X4713122Y4044950D01*
X4726127Y4040886D01*
X4739589Y4038650D01*
X4753203Y4038193D01*
X4766767Y4039514D01*
X4780026Y4042714D01*
X4792776Y4047591D01*
X4804714Y4054144D01*
X4815687Y4062222D01*
X4825492Y4071721D01*
X4833975Y4082440D01*
X4840935Y4094175D01*
X4846218Y4106722D01*
X4849825Y4119879D01*
X4851654Y4133392D01*
X4851654Y4147007D01*
X4849825Y4160520D01*
X4845964Y4174490D01*
X4845659Y4178046D01*
X4846574Y4181500D01*
X4848606Y4184396D01*
X4929124Y4264964D01*
X4934254Y4271162D01*
X4937810Y4277868D01*
X4939995Y4285081D01*
X4940808Y4293108D01*
X4940808Y5282692D01*
X4939995Y5290718D01*
X4937810Y5297932D01*
X4934254Y5304637D01*
X4929124Y5310835D01*
X4815535Y5424424D01*
X4809337Y5429554D01*
X4802632Y5433110D01*
X4795418Y5435295D01*
X4787392Y5436108D01*
X4706518Y5436108D01*
X4702606Y5436870D01*
X4699304Y5439105D01*
X4485335Y5653024D01*
X4479137Y5658154D01*
X4472432Y5661710D01*
X4465218Y5663895D01*
X4457192Y5664708D01*
X2781808Y5664708D01*
X2773781Y5663895D01*
X2766568Y5661710D01*
X2759862Y5658154D01*
X2753664Y5653024D01*
X1777695Y4677105D01*
X1774393Y4674870D01*
X1770481Y4674108D01*
X1209954Y4674108D01*
X1206093Y4674870D01*
X1202791Y4677105D01*
X1200607Y4680356D01*
X1199794Y4684268D01*
X1199794Y4711141D01*
X1199083Y4717440D01*
X1197203Y4722926D01*
X1195374Y4725822D01*
X1194206Y4728413D01*
X1193800Y4731207D01*
X1193800Y4793792D01*
X1194206Y4796586D01*
X1195374Y4799177D01*
X1197203Y4802073D01*
X1199083Y4807559D01*
X1199794Y4813858D01*
X1199794Y4840732D01*
X1200607Y4844643D01*
X1202791Y4847894D01*
X1206093Y4850130D01*
X1209954Y4850892D01*
X1802892Y4850892D01*
X1810918Y4851704D01*
X1818132Y4853889D01*
X1824837Y4857445D01*
X1831035Y4862576D01*
X1938578Y4970068D01*
X1941474Y4972100D01*
X1944878Y4973015D01*
X1952904Y4973726D01*
X1962353Y4976266D01*
X1971293Y4980381D01*
X1979320Y4986020D01*
X1986280Y4992979D01*
X1991918Y5001006D01*
X1996033Y5009946D01*
X1998573Y5019395D01*
X1999437Y5029200D01*
X1998573Y5039004D01*
X1996033Y5048453D01*
X1991918Y5057394D01*
X1986280Y5065420D01*
X1979320Y5072380D01*
X1971293Y5078018D01*
X1962353Y5082133D01*
X1952904Y5084673D01*
X1943100Y5085537D01*
X1933295Y5084673D01*
X1923846Y5082133D01*
X1914906Y5078018D01*
X1906879Y5072380D01*
X1899920Y5065420D01*
X1894281Y5057394D01*
X1890166Y5048453D01*
X1887626Y5039004D01*
X1886915Y5030978D01*
X1886000Y5027574D01*
X1883968Y5024678D01*
X1790395Y4931105D01*
X1787093Y4928870D01*
X1783181Y4928108D01*
X1209954Y4928108D01*
X1206093Y4928870D01*
X1202791Y4931105D01*
X1200607Y4934356D01*
X1199794Y4938268D01*
X1199794Y4965141D01*
X1199083Y4971440D01*
X1197203Y4976926D01*
X1195374Y4979822D01*
X1194206Y4982413D01*
X1193800Y4985207D01*
X1193800Y5047792D01*
X1194206Y5050586D01*
X1195374Y5053177D01*
X1197203Y5056073D01*
X1199083Y5061559D01*
X1199794Y5067858D01*
X1199794Y5094732D01*
X1200607Y5098643D01*
X1202791Y5101894D01*
X1206093Y5104130D01*
X1209954Y5104892D01*
X1459992Y5104892D01*
X1468018Y5105704D01*
X1475232Y5107889D01*
X1481937Y5111445D01*
X1488135Y5116576D01*
X1613204Y5241594D01*
X1616506Y5243830D01*
X1620418Y5244592D01*
X2164791Y5244592D01*
X2168702Y5243830D01*
X2172004Y5241594D01*
X2173579Y5240020D01*
X2181606Y5234381D01*
X2190546Y5230266D01*
X2199995Y5227726D01*
X2209800Y5226862D01*
X2219604Y5227726D01*
X2229053Y5230266D01*
X2237994Y5234381D01*
X2246020Y5240020D01*
X2252980Y5246979D01*
X2258618Y5255006D01*
X2262733Y5263946D01*
X2265273Y5273395D01*
X2266137Y5283200D01*
X2265273Y5293004D01*
X2262733Y5302453D01*
X2258618Y5311394D01*
X2252980Y5319420D01*
X2246020Y5326380D01*
X2237994Y5332018D01*
X2229053Y5336133D01*
X2219604Y5338673D01*
X2209800Y5339537D01*
X2199995Y5338673D01*
X2190546Y5336133D01*
X2181606Y5332018D01*
X2173579Y5326380D01*
X2172004Y5324805D01*
X2168702Y5322570D01*
X2164791Y5321808D01*
X1600708Y5321808D01*
X1592681Y5320995D01*
X1585468Y5318810D01*
X1578762Y5315254D01*
X1572564Y5310124D01*
X1447495Y5185105D01*
X1444193Y5182870D01*
X1440281Y5182108D01*
X1209954Y5182108D01*
X1206093Y5182870D01*
X1202791Y5185105D01*
X1200607Y5188356D01*
X1199794Y5192268D01*
X1199794Y5219141D01*
X1199083Y5225440D01*
X1197203Y5230926D01*
X1195374Y5233822D01*
X1194206Y5236413D01*
X1193800Y5239207D01*
X1193800Y5525414D01*
X1194308Y5528614D01*
X1196695Y5535726D01*
X1201978Y5557367D01*
X1204823Y5576671D01*
X1206042Y5599023D01*
X1204823Y5624322D01*
X1201978Y5643626D01*
X1195832Y5668162D01*
X1189278Y5686552D01*
X1179830Y5706872D01*
X1178458Y5709462D01*
X1166825Y5728614D01*
X1153414Y5746546D01*
X1138275Y5763056D01*
X1123848Y5776214D01*
X1105966Y5789726D01*
X1086866Y5801410D01*
X1064006Y5812282D01*
X1042873Y5819749D01*
X1021080Y5825134D01*
X998931Y5828334D01*
X977646Y5829401D01*
X733958Y5829401D01*
X730097Y5830163D01*
X726795Y5832398D01*
X724560Y5835700D01*
X723798Y5839561D01*
X723798Y6129528D01*
X724560Y6133439D01*
X726795Y6136690D01*
X730097Y6138926D01*
X733958Y6139688D01*
X6326530Y6139688D01*
X6330442Y6138926D01*
X6333744Y6136690D01*
X6335928Y6133388D01*
X6336690Y6129528D01*
X6324193Y594868D01*
X6323380Y590956D01*
X6321196Y587654D01*
X6317894Y585470D01*
X6314033Y584708D01*
G37*

%LPC*%
G36*
X2151176Y1529283D02*
G01*
X2164283Y1529283D01*
X2164283Y1571345D01*
X2124710Y1571345D01*
X2124710Y1555750D01*
X2125421Y1549450D01*
X2127300Y1543964D01*
X2130399Y1539087D01*
X2134514Y1534972D01*
X2139391Y1531924D01*
X2144877Y1529994D01*
G37*
G36*
X2124710Y1629054D02*
G01*
X2164283Y1629054D01*
X2164283Y1671116D01*
X2151176Y1671116D01*
X2144877Y1670405D01*
X2139391Y1668475D01*
X2134514Y1665427D01*
X2130399Y1661312D01*
X2127300Y1656435D01*
X2125421Y1650949D01*
X2124710Y1644650D01*
G37*
G36*
X4753203Y1752193D02*
G01*
X4766767Y1753514D01*
X4780026Y1756714D01*
X4792776Y1761591D01*
X4804714Y1768144D01*
X4815687Y1776222D01*
X4825492Y1785721D01*
X4833975Y1796440D01*
X4840935Y1808175D01*
X4846218Y1820722D01*
X4849825Y1833880D01*
X4851654Y1847392D01*
X4851654Y1861007D01*
X4849825Y1874520D01*
X4846218Y1887677D01*
X4840935Y1900224D01*
X4833975Y1911959D01*
X4825492Y1922678D01*
X4815687Y1932178D01*
X4804714Y1940255D01*
X4792776Y1946808D01*
X4780026Y1951685D01*
X4766767Y1954885D01*
X4753203Y1956206D01*
X4739589Y1955749D01*
X4726127Y1953514D01*
X4713122Y1949450D01*
X4700727Y1943709D01*
X4689246Y1936394D01*
X4678832Y1927606D01*
X4669688Y1917446D01*
X4661966Y1906219D01*
X4655820Y1894078D01*
X4651349Y1881174D01*
X4648606Y1867814D01*
X4647692Y1854200D01*
X4648606Y1840585D01*
X4651349Y1827225D01*
X4655820Y1814322D01*
X4661966Y1802180D01*
X4669688Y1790954D01*
X4678832Y1780793D01*
X4689246Y1772005D01*
X4700727Y1764690D01*
X4713122Y1758950D01*
X4726127Y1754886D01*
X4739589Y1752650D01*
G37*
G36*
X4753203Y2006193D02*
G01*
X4766767Y2007514D01*
X4780026Y2010714D01*
X4792776Y2015591D01*
X4804714Y2022144D01*
X4815687Y2030222D01*
X4825492Y2039721D01*
X4833975Y2050440D01*
X4843627Y2066645D01*
X4846929Y2068830D01*
X4850790Y2069592D01*
X5161991Y2069592D01*
X5165902Y2068830D01*
X5169204Y2066594D01*
X5170779Y2065020D01*
X5178806Y2059381D01*
X5187746Y2055266D01*
X5197195Y2052726D01*
X5207000Y2051862D01*
X5216804Y2052726D01*
X5226253Y2055266D01*
X5235194Y2059381D01*
X5243220Y2065020D01*
X5250180Y2071979D01*
X5255818Y2080006D01*
X5259933Y2088946D01*
X5262473Y2098395D01*
X5263337Y2108200D01*
X5262473Y2118004D01*
X5259933Y2127453D01*
X5255818Y2136394D01*
X5250180Y2144420D01*
X5243220Y2151380D01*
X5235194Y2157018D01*
X5226253Y2161133D01*
X5216804Y2163673D01*
X5207000Y2164537D01*
X5197195Y2163673D01*
X5187746Y2161133D01*
X5178806Y2157018D01*
X5170779Y2151380D01*
X5169204Y2149805D01*
X5165902Y2147570D01*
X5161991Y2146808D01*
X4850790Y2146808D01*
X4846929Y2147570D01*
X4843627Y2149754D01*
X4833975Y2165959D01*
X4825492Y2176678D01*
X4815687Y2186178D01*
X4804714Y2194255D01*
X4792776Y2200808D01*
X4780026Y2205685D01*
X4766767Y2208885D01*
X4753203Y2210206D01*
X4739589Y2209749D01*
X4726127Y2207514D01*
X4713122Y2203450D01*
X4700727Y2197709D01*
X4689246Y2190394D01*
X4678832Y2181606D01*
X4669688Y2171446D01*
X4661966Y2160219D01*
X4655820Y2148078D01*
X4651349Y2135174D01*
X4648606Y2121814D01*
X4647692Y2108200D01*
X4648606Y2094585D01*
X4651349Y2081225D01*
X4655820Y2068322D01*
X4661966Y2056180D01*
X4669688Y2044954D01*
X4678832Y2034793D01*
X4689246Y2026005D01*
X4700727Y2018690D01*
X4713122Y2012950D01*
X4726127Y2008886D01*
X4739589Y2006650D01*
G37*

%LPD*%
D10*
X2603500Y1739900D02*
G01*
X2298700Y1739900D01*
X2190597Y1631797D01*
X2190597Y1600200D01*
X723900Y3619500D02*
G01*
X1651000Y3619500D01*
X3060700Y5029200D01*
X4140200Y5029200D01*
X4356100Y4813300D01*
X4356100Y3517900D01*
X4749800Y3124200D01*
X723900Y2095500D02*
G01*
X1689100Y2095500D01*
X3225800Y3632200D01*
X723900Y2603500D02*
G01*
X1739900Y2603500D01*
X3162300Y4025900D01*
X3441700Y4025900D01*
X3606800Y3860800D01*
X3606800Y2984500D01*
X3238500Y2616200D01*
X3225800Y2616200D01*
X723900Y2857500D02*
G01*
X1739900Y2857500D01*
X3136900Y4254500D01*
X3683000Y4254500D01*
X3860800Y4076700D01*
X3860800Y3251200D01*
X4749800Y2362200D01*
X723900Y3365500D02*
G01*
X1663700Y3365500D01*
X3060700Y4762500D01*
X4089400Y4762500D01*
X4229100Y4622800D01*
X4229100Y3390900D01*
X4749800Y2870200D01*
X723900Y3873500D02*
G01*
X1625600Y3873500D01*
X3035300Y5283200D01*
X4216400Y5283200D01*
X4432300Y5067300D01*
X4432300Y3695700D01*
X4749800Y3378200D01*
X723900Y4381500D02*
G01*
X1714500Y4381500D01*
X2870200Y5537200D01*
X4381500Y5537200D01*
X4610100Y5308600D01*
X4610100Y4025900D01*
X4749800Y3886200D01*
X723900Y3111500D02*
G01*
X1689100Y3111500D01*
X3098800Y4521200D01*
X3975100Y4521200D01*
X4089400Y4406900D01*
X4089400Y3276600D01*
X4749800Y2616200D01*
X723900Y4635500D02*
G01*
X1790700Y4635500D01*
X2781300Y5626100D01*
X4457700Y5626100D01*
X4686300Y5397500D01*
X4787900Y5397500D01*
X4902200Y5283200D01*
X4902200Y4292600D01*
X4749800Y4140200D01*
X2806700Y3556000D02*
G01*
X3111500Y3860800D01*
X3200400Y3860800D01*
X3225800Y3886200D01*
X1828800Y3086100D02*
G01*
X3136900Y4394200D01*
X3225800Y4394200D01*
X1752600Y3314700D02*
G01*
X3086100Y4648200D01*
X3225800Y4648200D01*
X1663700Y3517900D02*
G01*
X3048000Y4902200D01*
X3086100Y4902200D01*
X3225800Y4902200D01*
X723900Y2349500D02*
G01*
X1765300Y2349500D01*
X3162300Y3746500D01*
X3416300Y3746500D01*
X3530600Y3632200D01*
X3530600Y3175000D01*
X3225800Y2870200D01*
X2209800Y2514600D02*
G01*
X2311400Y2413000D01*
X2273300Y2590800D02*
G01*
X2374900Y2489200D01*
X2362200Y2679700D02*
G01*
X2463800Y2578100D01*
X5207000Y2108200D02*
G01*
X4749800Y2108200D01*
X1397000Y4546600D02*
G01*
X1727200Y4546600D01*
X723900Y1841500D02*
G01*
X2844800Y1841500D01*
X2984500Y1981200D01*
X3556000Y1981200D01*
X3721100Y2146300D01*
X3721100Y3048000D01*
X2451100Y2768600D02*
G01*
X2641600Y2768600D01*
X3048000Y2362200D01*
X3225800Y2362200D01*
X2330602Y1600200D02*
G01*
X2971800Y1600200D01*
X3225800Y1854200D01*
X5448300Y5334000D02*
G01*
X5448300Y5219700D01*
X5384800Y5156200D01*
X5041900Y5156200D01*
X723900Y4127500D02*
G01*
X1701800Y4127500D01*
X2984500Y5410200D01*
X4330700Y5410200D01*
X4521200Y5219700D01*
X4521200Y3860800D01*
X4749800Y3632200D01*
X1600200Y3695700D02*
G01*
X3060700Y5156200D01*
X3225800Y5156200D01*
X723900Y4889500D02*
G01*
X1803400Y4889500D01*
X1943100Y5029200D01*
X723900Y1587500D02*
G01*
X736600Y1600200D01*
X2190495Y1600200D01*
X2330602Y1600200D02*
G01*
X2330602Y1378102D01*
X2247900Y1295400D01*
X1663700Y1295400D01*
X3810000Y2374900D02*
G01*
X3810000Y3162300D01*
X3708400Y3263900D01*
X2209800Y5283200D02*
G01*
X1600200Y5283200D01*
X1460500Y5143500D01*
X723900Y5143500D01*
D11*
G01*
X2190597Y1600200D03*
G01*
X2330602Y1600200D03*
D12*
G01*
X723900Y5143500D03*
G01*
X723900Y4889500D03*
G01*
X723900Y4635500D03*
G01*
X723900Y4381500D03*
G01*
X723900Y4127500D03*
G01*
X723900Y3873500D03*
G01*
X723900Y3619500D03*
G01*
X723900Y3365500D03*
G01*
X723900Y3111500D03*
G01*
X723900Y2857500D03*
G01*
X723900Y2603500D03*
G01*
X723900Y2349500D03*
G01*
X723900Y2095500D03*
G01*
X723900Y1841500D03*
G01*
X723900Y1587500D03*
D13*
G01*
X4749800Y1854200D03*
G01*
X3225800Y1854200D03*
G01*
X4749800Y2108200D03*
G01*
X4749800Y2362200D03*
G01*
X4749800Y2616200D03*
G01*
X4749800Y2870200D03*
G01*
X4749800Y3124200D03*
G01*
X4749800Y3378200D03*
G01*
X4749800Y3632200D03*
G01*
X4749800Y3886200D03*
G01*
X4749800Y4140200D03*
G01*
X4749800Y4394200D03*
G01*
X4749800Y4648200D03*
G01*
X4749800Y4902200D03*
G01*
X4749800Y5156200D03*
G01*
X3225800Y2108200D03*
G01*
X3225800Y2362200D03*
G01*
X3225800Y2616200D03*
G01*
X3225800Y2870200D03*
G01*
X3225800Y3124200D03*
G01*
X3225800Y3378200D03*
G01*
X3225800Y3632200D03*
G01*
X3225800Y3886200D03*
G01*
X3225800Y4140200D03*
G01*
X3225800Y4394200D03*
G01*
X3225800Y4648200D03*
G01*
X3225800Y4902200D03*
G01*
X3225800Y5156200D03*
D14*
G01*
X1943100Y5029200D03*
G01*
X2806700Y3556000D03*
G01*
X1828800Y3086100D03*
G01*
X1752600Y3314700D03*
G01*
X1663700Y3517900D03*
G01*
X1600200Y3695700D03*
G01*
X2209800Y2514600D03*
G01*
X2311400Y2413000D03*
G01*
X2273300Y2590800D03*
G01*
X2374900Y2489200D03*
G01*
X2362200Y2679700D03*
G01*
X2463800Y2578100D03*
G01*
X5207000Y2108200D03*
G01*
X1397000Y4546600D03*
G01*
X1727200Y4546600D03*
G01*
X2451100Y2768600D03*
G01*
X3721100Y3048000D03*
G01*
X5448300Y5334000D03*
G01*
X5041900Y5156200D03*
G01*
X1663700Y1295400D03*
G01*
X3810000Y2374900D03*
G01*
X3708400Y3263900D03*
G01*
X2209800Y5283200D03*
D15*
G01*
X2603500Y1739900D03*
M02*
