M48
METRIC,LZ,000.000
;FILE_FORMAT=3:3
;TYPE=PLATED
;Layer: PTH_Through
;EasyEDA v6.5.22, 2023-04-21 14:11:52
;02b723c2ecb045abbe3cd18361d6b951,0d2cea57a9a8422ebbcee2df73fbc454,10
;Gerber Generator version 0.2
;Holesize 1 = 0.915 mm
T01C0.915
%
G05
G90
T01
X067818Y004953
X067818Y007493
X067818Y010033
X067818Y012573
X067818Y015113
X067818Y017526
X067818Y020320
X067818Y022733
X067818Y025273
X067818Y027940
X067818Y030353
X067818Y032893
X067818Y035433
X067818Y037973
X060198Y037973
X060198Y035433
X060198Y032893
X060198Y030353
X060198Y027813
X060198Y025273
X060198Y022733
X060198Y020193
X060198Y017653
X060198Y015113
X060198Y012573
X060198Y010033
X060198Y007493
X060198Y004953
X071628Y037973
X071628Y035433
X071628Y032893
X071628Y030353
X071628Y027813
X071628Y025273
X071628Y022733
X071628Y020193
X071628Y017653
X071628Y015113
X071628Y012573
X071628Y010033
X071628Y007493
X071628Y004953
X056388Y037973
X056388Y035433
X056388Y032893
X056388Y030353
X056388Y027813
X056388Y025273
X056388Y022733
X056388Y020193
X056388Y017653
X056388Y015113
X056388Y012573
X056388Y010033
X056388Y007493
X056388Y004953
M30
