G04 Layer: BottomLayer*
G04 EasyEDA v6.5.22, 2023-04-21 14:11:52*
G04 02b723c2ecb045abbe3cd18361d6b951,0d2cea57a9a8422ebbcee2df73fbc454,10*
G04 Gerber Generator version 0.2*
G04 Scale: 100 percent, Rotated: No, Reflected: No *
G04 Dimensions in millimeters *
G04 leading zeros omitted , absolute positions ,4 integer and 5 decimal *
%FSLAX45Y45*%
%MOMM*%

%ADD10C,0.2540*%
%ADD11R,9.0000X1.5240*%
%ADD12C,1.5240*%
%ADD13C,0.6096*%

%LPD*%
G36*
X1209954Y2908808D02*
G01*
X1206093Y2909570D01*
X1202791Y2911805D01*
X1200607Y2915056D01*
X1199794Y2918968D01*
X1199794Y2945841D01*
X1199083Y2952140D01*
X1197203Y2957626D01*
X1195374Y2960522D01*
X1194206Y2963113D01*
X1193800Y2965907D01*
X1193800Y3028492D01*
X1194206Y3031286D01*
X1195374Y3033877D01*
X1197203Y3036773D01*
X1199083Y3042259D01*
X1199794Y3048558D01*
X1199794Y3075432D01*
X1200607Y3079343D01*
X1202791Y3082594D01*
X1206093Y3084830D01*
X1209954Y3085592D01*
X3276092Y3085592D01*
X3284118Y3086404D01*
X3291332Y3088589D01*
X3298037Y3092145D01*
X3304235Y3097276D01*
X4229404Y4022394D01*
X4232706Y4024629D01*
X4236618Y4025392D01*
X7104481Y4025392D01*
X7108393Y4024629D01*
X7111695Y4022394D01*
X7273594Y3860495D01*
X7275830Y3857193D01*
X7276592Y3853281D01*
X7276592Y3839819D01*
X7275830Y3835958D01*
X7273645Y3832656D01*
X7270343Y3830472D01*
X7266482Y3829659D01*
X7262622Y3830421D01*
X7259320Y3832606D01*
X7257084Y3835857D01*
X7253935Y3843324D01*
X7246975Y3855059D01*
X7238492Y3865778D01*
X7228687Y3875278D01*
X7217714Y3883355D01*
X7205776Y3889908D01*
X7193025Y3894785D01*
X7187793Y3896055D01*
X7187793Y3822293D01*
X7266431Y3822293D01*
X7270343Y3821531D01*
X7273594Y3819296D01*
X7275830Y3816045D01*
X7276592Y3812133D01*
X7276592Y3782466D01*
X7275830Y3778554D01*
X7273594Y3775303D01*
X7270343Y3773068D01*
X7266431Y3772306D01*
X7187793Y3772306D01*
X7187793Y3698544D01*
X7193025Y3699814D01*
X7205776Y3704691D01*
X7217714Y3711244D01*
X7228687Y3719322D01*
X7238492Y3728821D01*
X7246975Y3739540D01*
X7253935Y3751275D01*
X7257084Y3758742D01*
X7259320Y3761994D01*
X7262622Y3764178D01*
X7266482Y3764940D01*
X7270343Y3764127D01*
X7273645Y3761943D01*
X7275830Y3758641D01*
X7276592Y3754780D01*
X7276592Y3585819D01*
X7275830Y3581958D01*
X7273645Y3578656D01*
X7270343Y3576472D01*
X7266482Y3575659D01*
X7262622Y3576421D01*
X7259320Y3578606D01*
X7257084Y3581857D01*
X7253935Y3589324D01*
X7246975Y3601059D01*
X7238492Y3611778D01*
X7228687Y3621278D01*
X7217714Y3629355D01*
X7205776Y3635908D01*
X7193025Y3640785D01*
X7179767Y3643985D01*
X7166203Y3645306D01*
X7152589Y3644849D01*
X7139127Y3642614D01*
X7126122Y3638550D01*
X7113727Y3632809D01*
X7102246Y3625494D01*
X7091832Y3616706D01*
X7082485Y3606292D01*
X7079284Y3603294D01*
X7075068Y3601923D01*
X7070648Y3602482D01*
X7066940Y3604869D01*
X7026605Y3645204D01*
X7024370Y3648506D01*
X7023608Y3652418D01*
X7023608Y3847592D01*
X7022795Y3855618D01*
X7020610Y3862832D01*
X7017054Y3869537D01*
X7011924Y3875735D01*
X6923735Y3963924D01*
X6917537Y3969054D01*
X6910831Y3972610D01*
X6903618Y3974795D01*
X6895592Y3975608D01*
X4280408Y3975608D01*
X4272381Y3974795D01*
X4265168Y3972610D01*
X4258462Y3969054D01*
X4252264Y3963924D01*
X3200095Y2911805D01*
X3196793Y2909570D01*
X3192881Y2908808D01*
G37*

%LPC*%
G36*
X7137806Y3698392D02*
G01*
X7137806Y3772306D01*
X7063943Y3772306D01*
X7064349Y3770325D01*
X7068820Y3757422D01*
X7074966Y3745280D01*
X7082688Y3734054D01*
X7091832Y3723894D01*
X7102246Y3715105D01*
X7113727Y3707790D01*
X7126122Y3702050D01*
G37*
G36*
X7063943Y3822293D02*
G01*
X7137806Y3822293D01*
X7137806Y3896207D01*
X7126122Y3892550D01*
X7113727Y3886809D01*
X7102246Y3879494D01*
X7091832Y3870706D01*
X7082688Y3860546D01*
X7074966Y3849319D01*
X7068820Y3837178D01*
X7064349Y3824274D01*
G37*

%LPD*%
G36*
X733958Y-570992D02*
G01*
X730097Y-570230D01*
X726795Y-567994D01*
X724560Y-564743D01*
X723798Y-560832D01*
X723798Y142138D01*
X724560Y145999D01*
X726795Y149301D01*
X730097Y151536D01*
X733958Y152298D01*
X977646Y152298D01*
X998931Y153365D01*
X1021080Y156565D01*
X1042873Y161950D01*
X1064006Y169418D01*
X1086866Y180289D01*
X1105966Y191973D01*
X1123848Y205486D01*
X1140307Y220675D01*
X1155242Y237388D01*
X1168450Y255524D01*
X1178458Y272237D01*
X1188161Y292455D01*
X1189278Y295148D01*
X1195832Y313537D01*
X1201978Y338074D01*
X1204823Y357378D01*
X1206042Y379730D01*
X1204823Y405028D01*
X1201978Y424332D01*
X1196695Y445973D01*
X1194308Y453085D01*
X1193800Y456285D01*
X1193800Y742492D01*
X1194206Y745286D01*
X1195374Y747877D01*
X1197203Y750773D01*
X1199083Y756259D01*
X1199794Y762558D01*
X1199794Y789432D01*
X1200607Y793343D01*
X1202791Y796594D01*
X1206093Y798830D01*
X1209954Y799592D01*
X1681581Y799592D01*
X1685493Y798830D01*
X1688795Y796594D01*
X1871268Y614121D01*
X1873300Y611225D01*
X1874215Y607822D01*
X1874926Y599795D01*
X1877466Y590346D01*
X1881581Y581406D01*
X1887220Y573379D01*
X1894179Y566420D01*
X1902206Y560781D01*
X1911146Y556666D01*
X1920595Y554126D01*
X1930400Y553262D01*
X1940204Y554126D01*
X1949653Y556666D01*
X1958593Y560781D01*
X1966620Y566420D01*
X1973580Y573379D01*
X1979218Y581406D01*
X1983333Y590346D01*
X1985873Y599795D01*
X1986737Y609600D01*
X1985873Y619404D01*
X1983333Y628853D01*
X1979218Y637794D01*
X1973580Y645820D01*
X1966620Y652780D01*
X1958593Y658418D01*
X1949653Y662533D01*
X1940204Y665073D01*
X1932178Y665784D01*
X1928774Y666699D01*
X1925878Y668731D01*
X1729435Y865124D01*
X1723237Y870254D01*
X1716532Y873810D01*
X1709318Y875995D01*
X1701292Y876808D01*
X1209954Y876808D01*
X1206093Y877569D01*
X1202791Y879805D01*
X1200607Y883056D01*
X1199794Y886968D01*
X1199794Y913841D01*
X1199083Y920140D01*
X1197203Y925626D01*
X1195374Y928522D01*
X1194206Y931113D01*
X1193800Y933907D01*
X1193800Y996492D01*
X1194206Y999286D01*
X1195374Y1001877D01*
X1197203Y1004773D01*
X1199083Y1010259D01*
X1199794Y1016558D01*
X1199794Y1167841D01*
X1199083Y1174140D01*
X1197203Y1179626D01*
X1195374Y1182522D01*
X1194206Y1185113D01*
X1193800Y1187907D01*
X1193800Y1250492D01*
X1194206Y1253286D01*
X1195374Y1255877D01*
X1197203Y1258773D01*
X1199083Y1264259D01*
X1199794Y1270558D01*
X1199794Y1421841D01*
X1199083Y1428140D01*
X1197203Y1433626D01*
X1195374Y1436522D01*
X1194206Y1439113D01*
X1193800Y1441907D01*
X1193800Y1504492D01*
X1194206Y1507286D01*
X1195374Y1509877D01*
X1197203Y1512773D01*
X1199083Y1518259D01*
X1199794Y1524558D01*
X1199794Y1551432D01*
X1200607Y1555343D01*
X1202791Y1558594D01*
X1206093Y1560830D01*
X1209954Y1561592D01*
X3047492Y1561592D01*
X3055518Y1562404D01*
X3062732Y1564589D01*
X3069437Y1568145D01*
X3075635Y1573276D01*
X4242104Y2739694D01*
X4245406Y2741930D01*
X4249318Y2742692D01*
X5537962Y2742692D01*
X5541568Y2742031D01*
X5544769Y2740050D01*
X5547004Y2737104D01*
X5550966Y2729280D01*
X5558688Y2718054D01*
X5567832Y2707894D01*
X5578246Y2699105D01*
X5589727Y2691790D01*
X5602122Y2686050D01*
X5615127Y2681986D01*
X5628589Y2679750D01*
X5642203Y2679293D01*
X5655767Y2680614D01*
X5669026Y2683814D01*
X5681776Y2688691D01*
X5693714Y2695244D01*
X5704687Y2703322D01*
X5714492Y2712821D01*
X5722975Y2723540D01*
X5729935Y2735275D01*
X5735218Y2747822D01*
X5738825Y2760980D01*
X5740654Y2774492D01*
X5740654Y2788107D01*
X5738825Y2801620D01*
X5735218Y2814777D01*
X5729935Y2827324D01*
X5722975Y2839059D01*
X5714492Y2849778D01*
X5704687Y2859278D01*
X5693714Y2867355D01*
X5681776Y2873908D01*
X5669026Y2878785D01*
X5655767Y2881985D01*
X5642203Y2883306D01*
X5628589Y2882849D01*
X5615127Y2880614D01*
X5602122Y2876550D01*
X5589727Y2870809D01*
X5578246Y2863494D01*
X5567832Y2854706D01*
X5558688Y2844546D01*
X5550966Y2833319D01*
X5547004Y2825496D01*
X5544769Y2822549D01*
X5541568Y2820568D01*
X5537962Y2819908D01*
X4229608Y2819908D01*
X4221581Y2819095D01*
X4214368Y2816910D01*
X4207662Y2813354D01*
X4201464Y2808224D01*
X3034995Y1641805D01*
X3031693Y1639570D01*
X3027781Y1638807D01*
X1209954Y1638807D01*
X1206093Y1639570D01*
X1202791Y1641805D01*
X1200607Y1645056D01*
X1199794Y1648968D01*
X1199794Y1675841D01*
X1199083Y1682140D01*
X1197203Y1687626D01*
X1195374Y1690522D01*
X1194206Y1693113D01*
X1193800Y1695907D01*
X1193800Y1758492D01*
X1194206Y1761286D01*
X1195374Y1763877D01*
X1197203Y1766773D01*
X1199083Y1772259D01*
X1199794Y1778558D01*
X1199794Y1805432D01*
X1200607Y1809343D01*
X1202791Y1812594D01*
X1206093Y1814830D01*
X1209954Y1815592D01*
X3085592Y1815592D01*
X3093618Y1816404D01*
X3100832Y1818589D01*
X3107537Y1822145D01*
X3113735Y1827275D01*
X4280204Y2993694D01*
X4283506Y2995930D01*
X4287418Y2996692D01*
X5537962Y2996692D01*
X5541568Y2996031D01*
X5544769Y2994050D01*
X5547004Y2991104D01*
X5550966Y2983280D01*
X5558688Y2972054D01*
X5567832Y2961894D01*
X5578246Y2953105D01*
X5589727Y2945790D01*
X5602122Y2940050D01*
X5615127Y2935986D01*
X5628589Y2933750D01*
X5642203Y2933293D01*
X5655767Y2934614D01*
X5669026Y2937814D01*
X5681776Y2942691D01*
X5693714Y2949244D01*
X5704687Y2957322D01*
X5714492Y2966821D01*
X5722975Y2977540D01*
X5729935Y2989275D01*
X5735218Y3001822D01*
X5738825Y3014980D01*
X5740654Y3028492D01*
X5740654Y3042107D01*
X5738825Y3055620D01*
X5735218Y3068777D01*
X5729935Y3081324D01*
X5722975Y3093059D01*
X5714492Y3103778D01*
X5704687Y3113278D01*
X5693714Y3121355D01*
X5681776Y3127908D01*
X5669026Y3132785D01*
X5655767Y3135985D01*
X5642203Y3137306D01*
X5628589Y3136849D01*
X5615127Y3134614D01*
X5602122Y3130550D01*
X5589727Y3124809D01*
X5578246Y3117494D01*
X5567832Y3108706D01*
X5558688Y3098546D01*
X5550966Y3087319D01*
X5547004Y3079496D01*
X5544769Y3076549D01*
X5541568Y3074568D01*
X5537962Y3073908D01*
X4267708Y3073908D01*
X4259681Y3073095D01*
X4252468Y3070910D01*
X4245762Y3067354D01*
X4239564Y3062224D01*
X3073095Y1895805D01*
X3069793Y1893570D01*
X3065881Y1892807D01*
X1209954Y1892807D01*
X1206093Y1893570D01*
X1202791Y1895805D01*
X1200607Y1899056D01*
X1199794Y1902968D01*
X1199794Y1929841D01*
X1199083Y1936140D01*
X1197203Y1941626D01*
X1195374Y1944522D01*
X1194206Y1947113D01*
X1193800Y1949907D01*
X1193800Y2012492D01*
X1194206Y2015286D01*
X1195374Y2017877D01*
X1197203Y2020773D01*
X1199083Y2026259D01*
X1199794Y2032558D01*
X1199794Y2059432D01*
X1200607Y2063343D01*
X1202791Y2066594D01*
X1206093Y2068830D01*
X1209954Y2069592D01*
X3110992Y2069592D01*
X3119018Y2070404D01*
X3126232Y2072589D01*
X3132937Y2076145D01*
X3139135Y2081275D01*
X4305604Y3247694D01*
X4308906Y3249930D01*
X4312818Y3250692D01*
X5537962Y3250692D01*
X5541568Y3250031D01*
X5544769Y3248050D01*
X5547004Y3245104D01*
X5550966Y3237280D01*
X5558688Y3226054D01*
X5567832Y3215894D01*
X5578246Y3207105D01*
X5589727Y3199790D01*
X5602122Y3194050D01*
X5615127Y3189986D01*
X5628589Y3187750D01*
X5642203Y3187293D01*
X5655767Y3188614D01*
X5669026Y3191814D01*
X5681776Y3196691D01*
X5693714Y3203244D01*
X5704687Y3211322D01*
X5714492Y3220821D01*
X5722975Y3231540D01*
X5729935Y3243275D01*
X5735218Y3255822D01*
X5738825Y3268979D01*
X5740654Y3282492D01*
X5740654Y3296107D01*
X5738825Y3309620D01*
X5735218Y3322777D01*
X5729935Y3335324D01*
X5722975Y3347059D01*
X5714492Y3357778D01*
X5704687Y3367278D01*
X5693714Y3375355D01*
X5681776Y3381908D01*
X5669026Y3386785D01*
X5655767Y3389985D01*
X5642203Y3391306D01*
X5628589Y3390849D01*
X5615127Y3388614D01*
X5602122Y3384550D01*
X5589727Y3378809D01*
X5578246Y3371494D01*
X5567832Y3362706D01*
X5558688Y3352546D01*
X5550966Y3341319D01*
X5547004Y3333496D01*
X5544769Y3330549D01*
X5541568Y3328568D01*
X5537962Y3327908D01*
X4293108Y3327908D01*
X4285081Y3327095D01*
X4277868Y3324910D01*
X4271162Y3321354D01*
X4264964Y3316224D01*
X3098495Y2149805D01*
X3095193Y2147570D01*
X3091281Y2146808D01*
X1209954Y2146808D01*
X1206093Y2147570D01*
X1202791Y2149805D01*
X1200607Y2153056D01*
X1199794Y2156968D01*
X1199794Y2183841D01*
X1199083Y2190140D01*
X1197203Y2195626D01*
X1195374Y2198522D01*
X1194206Y2201113D01*
X1193800Y2203907D01*
X1193800Y2266492D01*
X1194206Y2269286D01*
X1195374Y2271877D01*
X1197203Y2274773D01*
X1199083Y2280259D01*
X1199794Y2286558D01*
X1199794Y2313432D01*
X1200607Y2317343D01*
X1202791Y2320594D01*
X1206093Y2322830D01*
X1209954Y2323592D01*
X3110992Y2323592D01*
X3119018Y2324404D01*
X3126232Y2326589D01*
X3132937Y2330145D01*
X3139135Y2335276D01*
X4305604Y3501694D01*
X4308906Y3503929D01*
X4312818Y3504692D01*
X5537962Y3504692D01*
X5541568Y3504031D01*
X5544769Y3502050D01*
X5547004Y3499104D01*
X5550966Y3491280D01*
X5558688Y3480054D01*
X5567832Y3469894D01*
X5578246Y3461105D01*
X5589727Y3453790D01*
X5602122Y3448050D01*
X5615127Y3443986D01*
X5628589Y3441750D01*
X5642203Y3441293D01*
X5655767Y3442614D01*
X5669026Y3445814D01*
X5681776Y3450691D01*
X5693714Y3457244D01*
X5704687Y3465322D01*
X5714492Y3474821D01*
X5722975Y3485540D01*
X5729935Y3497275D01*
X5735218Y3509822D01*
X5738825Y3522979D01*
X5740654Y3536492D01*
X5740654Y3550107D01*
X5738825Y3563620D01*
X5735218Y3576777D01*
X5729935Y3589324D01*
X5722975Y3601059D01*
X5714492Y3611778D01*
X5704687Y3621278D01*
X5693714Y3629355D01*
X5681776Y3635908D01*
X5669026Y3640785D01*
X5655767Y3643985D01*
X5642203Y3645306D01*
X5628589Y3644849D01*
X5615127Y3642614D01*
X5602122Y3638550D01*
X5589727Y3632809D01*
X5578246Y3625494D01*
X5567832Y3616706D01*
X5558688Y3606546D01*
X5550966Y3595319D01*
X5547004Y3587496D01*
X5544769Y3584549D01*
X5541568Y3582568D01*
X5537962Y3581908D01*
X4293108Y3581908D01*
X4285081Y3581095D01*
X4277868Y3578910D01*
X4271162Y3575354D01*
X4264964Y3570224D01*
X3098495Y2403805D01*
X3095193Y2401570D01*
X3091281Y2400808D01*
X1209954Y2400808D01*
X1206093Y2401570D01*
X1202791Y2403805D01*
X1200607Y2407056D01*
X1199794Y2410968D01*
X1199794Y2437841D01*
X1199083Y2444140D01*
X1197203Y2449626D01*
X1195374Y2452522D01*
X1194206Y2455113D01*
X1193800Y2457907D01*
X1193800Y2520492D01*
X1194206Y2523286D01*
X1195374Y2525877D01*
X1197203Y2528773D01*
X1199083Y2534259D01*
X1199794Y2540558D01*
X1199794Y2567432D01*
X1200607Y2571343D01*
X1202791Y2574594D01*
X1206093Y2576830D01*
X1209954Y2577592D01*
X3149092Y2577592D01*
X3157118Y2578404D01*
X3164332Y2580589D01*
X3171037Y2584145D01*
X3177235Y2589276D01*
X4343704Y3755694D01*
X4347006Y3757929D01*
X4350918Y3758692D01*
X5537962Y3758692D01*
X5541568Y3758031D01*
X5544769Y3756050D01*
X5547004Y3753104D01*
X5550966Y3745280D01*
X5558688Y3734054D01*
X5567832Y3723894D01*
X5578246Y3715105D01*
X5589727Y3707790D01*
X5602122Y3702050D01*
X5615127Y3697986D01*
X5628589Y3695750D01*
X5642203Y3695293D01*
X5655767Y3696614D01*
X5669026Y3699814D01*
X5681776Y3704691D01*
X5693714Y3711244D01*
X5704687Y3719322D01*
X5714492Y3728821D01*
X5722975Y3739540D01*
X5729935Y3751275D01*
X5735218Y3763822D01*
X5738825Y3776979D01*
X5740654Y3790492D01*
X5740654Y3804107D01*
X5738825Y3817620D01*
X5735218Y3830777D01*
X5729935Y3843324D01*
X5722975Y3855059D01*
X5714492Y3865778D01*
X5704687Y3875278D01*
X5698185Y3880053D01*
X5695391Y3883202D01*
X5694121Y3887215D01*
X5694578Y3891381D01*
X5696712Y3895039D01*
X5700115Y3897528D01*
X5704230Y3898392D01*
X5954064Y3898392D01*
X5958281Y3897477D01*
X5961735Y3894886D01*
X5963818Y3891076D01*
X5964123Y3886758D01*
X5962599Y3882694D01*
X5959246Y3879494D01*
X5948832Y3870706D01*
X5939688Y3860546D01*
X5931966Y3849319D01*
X5925820Y3837178D01*
X5921349Y3824274D01*
X5918606Y3810914D01*
X5917692Y3797300D01*
X5918606Y3783685D01*
X5921349Y3770325D01*
X5925820Y3757422D01*
X5931966Y3745280D01*
X5939688Y3734054D01*
X5948832Y3723894D01*
X5959246Y3715105D01*
X5970727Y3707790D01*
X5983122Y3702050D01*
X5996127Y3697986D01*
X6009589Y3695750D01*
X6023203Y3695293D01*
X6036767Y3696614D01*
X6050026Y3699814D01*
X6062776Y3704691D01*
X6074714Y3711244D01*
X6085687Y3719322D01*
X6095492Y3728821D01*
X6103975Y3739540D01*
X6110935Y3751275D01*
X6116218Y3763822D01*
X6119825Y3776979D01*
X6121654Y3790492D01*
X6121654Y3804107D01*
X6119825Y3817620D01*
X6116218Y3830777D01*
X6110935Y3843324D01*
X6103975Y3855059D01*
X6095492Y3865778D01*
X6085687Y3875278D01*
X6079185Y3880053D01*
X6076391Y3883202D01*
X6075121Y3887215D01*
X6075578Y3891381D01*
X6077712Y3895039D01*
X6081115Y3897528D01*
X6085230Y3898392D01*
X6716064Y3898392D01*
X6720281Y3897477D01*
X6723735Y3894886D01*
X6725818Y3891076D01*
X6726123Y3886758D01*
X6724599Y3882694D01*
X6721246Y3879494D01*
X6710832Y3870706D01*
X6701688Y3860546D01*
X6693966Y3849319D01*
X6687820Y3837178D01*
X6683349Y3824274D01*
X6680606Y3810914D01*
X6679692Y3797300D01*
X6680606Y3783685D01*
X6683349Y3770325D01*
X6687820Y3757422D01*
X6693966Y3745280D01*
X6701688Y3734054D01*
X6710832Y3723894D01*
X6721246Y3715105D01*
X6732727Y3707790D01*
X6745122Y3702050D01*
X6758127Y3697986D01*
X6771589Y3695750D01*
X6785203Y3695293D01*
X6798767Y3696614D01*
X6812025Y3699814D01*
X6824776Y3704691D01*
X6836714Y3711244D01*
X6847687Y3719322D01*
X6857492Y3728821D01*
X6865975Y3739540D01*
X6872935Y3751275D01*
X6878218Y3763822D01*
X6881825Y3776979D01*
X6883653Y3790492D01*
X6883653Y3804107D01*
X6881825Y3817620D01*
X6878218Y3830777D01*
X6872935Y3843324D01*
X6865975Y3855059D01*
X6857492Y3865778D01*
X6847687Y3875278D01*
X6841185Y3880053D01*
X6838391Y3883202D01*
X6837121Y3887215D01*
X6837578Y3891381D01*
X6839712Y3895039D01*
X6843115Y3897528D01*
X6847230Y3898392D01*
X6875881Y3898392D01*
X6879793Y3897629D01*
X6883095Y3895394D01*
X6943394Y3835095D01*
X6945630Y3831793D01*
X6946392Y3827881D01*
X6946392Y3632708D01*
X6947204Y3624681D01*
X6949389Y3617468D01*
X6952945Y3610762D01*
X6958075Y3604564D01*
X7046264Y3516376D01*
X7052462Y3511245D01*
X7059168Y3507689D01*
X7063892Y3506215D01*
X7067448Y3504285D01*
X7069988Y3501085D01*
X7074966Y3491280D01*
X7082688Y3480054D01*
X7091832Y3469894D01*
X7102246Y3461105D01*
X7113727Y3453790D01*
X7126122Y3448050D01*
X7139127Y3443986D01*
X7152589Y3441750D01*
X7166203Y3441293D01*
X7179767Y3442614D01*
X7193025Y3445814D01*
X7205776Y3450691D01*
X7217714Y3457244D01*
X7228687Y3465322D01*
X7238492Y3474821D01*
X7246975Y3485540D01*
X7253935Y3497275D01*
X7257084Y3504742D01*
X7259320Y3507994D01*
X7262622Y3510178D01*
X7266482Y3510940D01*
X7270343Y3510127D01*
X7273645Y3507943D01*
X7275830Y3504641D01*
X7276592Y3500780D01*
X7276592Y3449218D01*
X7275830Y3445306D01*
X7273594Y3442004D01*
X7216038Y3384397D01*
X7212787Y3382264D01*
X7209028Y3381451D01*
X7205167Y3382111D01*
X7193025Y3386785D01*
X7179767Y3389985D01*
X7166203Y3391306D01*
X7152589Y3390849D01*
X7139127Y3388614D01*
X7126122Y3384550D01*
X7113727Y3378809D01*
X7102246Y3371494D01*
X7091832Y3362706D01*
X7082688Y3352546D01*
X7074966Y3341319D01*
X7068820Y3329178D01*
X7064349Y3316274D01*
X7061606Y3302914D01*
X7060692Y3289300D01*
X7061606Y3275685D01*
X7064349Y3262325D01*
X7068820Y3249422D01*
X7074966Y3237280D01*
X7082688Y3226054D01*
X7091832Y3215894D01*
X7102246Y3207105D01*
X7113727Y3199790D01*
X7126122Y3194050D01*
X7139127Y3189986D01*
X7152589Y3187750D01*
X7166203Y3187293D01*
X7179767Y3188614D01*
X7193025Y3191814D01*
X7205776Y3196691D01*
X7217714Y3203244D01*
X7228687Y3211322D01*
X7238492Y3220821D01*
X7246975Y3231540D01*
X7253935Y3243275D01*
X7259218Y3255822D01*
X7262825Y3268979D01*
X7264653Y3282492D01*
X7264653Y3296107D01*
X7262825Y3309620D01*
X7261707Y3313684D01*
X7261402Y3317189D01*
X7262317Y3320643D01*
X7264349Y3323539D01*
X7342124Y3401364D01*
X7347458Y3407867D01*
X7350709Y3410458D01*
X7354671Y3411524D01*
X7358735Y3410965D01*
X7362291Y3408832D01*
X7364679Y3405428D01*
X7365492Y3401415D01*
X7365492Y3220618D01*
X7364730Y3216706D01*
X7362494Y3213404D01*
X7252868Y3103778D01*
X7249617Y3101594D01*
X7245756Y3100781D01*
X7241946Y3101543D01*
X7238644Y3103676D01*
X7228687Y3113278D01*
X7217714Y3121355D01*
X7205776Y3127908D01*
X7193025Y3132785D01*
X7179767Y3135985D01*
X7166203Y3137306D01*
X7152589Y3136849D01*
X7139127Y3134614D01*
X7126122Y3130550D01*
X7113727Y3124809D01*
X7102246Y3117494D01*
X7091832Y3108706D01*
X7082688Y3098546D01*
X7074966Y3087319D01*
X7068820Y3075178D01*
X7064349Y3062274D01*
X7061606Y3048914D01*
X7060692Y3035300D01*
X7061606Y3021685D01*
X7064349Y3008325D01*
X7068820Y2995422D01*
X7074966Y2983280D01*
X7082688Y2972054D01*
X7091832Y2961894D01*
X7102246Y2953105D01*
X7113727Y2945790D01*
X7126122Y2940050D01*
X7139127Y2935986D01*
X7152589Y2933750D01*
X7166203Y2933293D01*
X7179767Y2934614D01*
X7193025Y2937814D01*
X7205776Y2942691D01*
X7217714Y2949244D01*
X7228687Y2957322D01*
X7238492Y2966821D01*
X7246975Y2977540D01*
X7253935Y2989275D01*
X7258558Y3000197D01*
X7259777Y3002330D01*
X7261453Y3004108D01*
X7266635Y3008376D01*
X7431024Y3172764D01*
X7436154Y3178962D01*
X7439710Y3185668D01*
X7441895Y3192881D01*
X7442708Y3200908D01*
X7442708Y3936492D01*
X7441895Y3944518D01*
X7439710Y3951732D01*
X7436154Y3958437D01*
X7431024Y3964635D01*
X7139635Y4256024D01*
X7133437Y4261154D01*
X7126731Y4264710D01*
X7119518Y4266895D01*
X7111492Y4267708D01*
X4216908Y4267708D01*
X4208881Y4266895D01*
X4201668Y4264710D01*
X4194962Y4261154D01*
X4188764Y4256024D01*
X3352495Y3419805D01*
X3349193Y3417570D01*
X3345281Y3416808D01*
X1209954Y3416808D01*
X1206093Y3417570D01*
X1202791Y3419805D01*
X1200607Y3423056D01*
X1199794Y3426968D01*
X1199794Y3453841D01*
X1199083Y3460140D01*
X1197203Y3465626D01*
X1195374Y3468522D01*
X1194206Y3471113D01*
X1193800Y3473907D01*
X1193800Y3536492D01*
X1194206Y3539286D01*
X1195374Y3541877D01*
X1197203Y3544773D01*
X1199083Y3550259D01*
X1199794Y3556558D01*
X1199794Y3583432D01*
X1200607Y3587343D01*
X1202791Y3590594D01*
X1206093Y3592829D01*
X1209954Y3593592D01*
X3428492Y3593592D01*
X3436518Y3594404D01*
X3443732Y3596589D01*
X3450437Y3600145D01*
X3456635Y3605276D01*
X4140504Y4289094D01*
X4143806Y4291330D01*
X4147718Y4292092D01*
X7218781Y4292092D01*
X7222693Y4291330D01*
X7225995Y4289094D01*
X7464094Y4050995D01*
X7466330Y4047693D01*
X7467092Y4043781D01*
X7467092Y936650D01*
X7466279Y932687D01*
X7463993Y929335D01*
X7460589Y927150D01*
X7456576Y926490D01*
X7452614Y927455D01*
X7448753Y929233D01*
X7439304Y931773D01*
X7429500Y932637D01*
X7419695Y931773D01*
X7410246Y929233D01*
X7401306Y925118D01*
X7393279Y919480D01*
X7391704Y917905D01*
X7388402Y915669D01*
X7384491Y914908D01*
X7243064Y914908D01*
X7239101Y915669D01*
X7235799Y917905D01*
X7233615Y921258D01*
X7232903Y925169D01*
X7233716Y929081D01*
X7235952Y932383D01*
X7238492Y934821D01*
X7246975Y945540D01*
X7253935Y957275D01*
X7259218Y969822D01*
X7262825Y982980D01*
X7264653Y996492D01*
X7264653Y1010107D01*
X7262825Y1023619D01*
X7259218Y1036777D01*
X7253935Y1049324D01*
X7246975Y1061059D01*
X7238492Y1071778D01*
X7228687Y1081278D01*
X7217714Y1089355D01*
X7205776Y1095908D01*
X7193025Y1100785D01*
X7179767Y1103985D01*
X7166203Y1105306D01*
X7152589Y1104849D01*
X7139127Y1102614D01*
X7126122Y1098550D01*
X7113727Y1092809D01*
X7102246Y1085494D01*
X7091832Y1076706D01*
X7082688Y1066546D01*
X7074966Y1055319D01*
X7068820Y1043178D01*
X7064349Y1030274D01*
X7061606Y1016914D01*
X7060692Y1003300D01*
X7061606Y989685D01*
X7064349Y976325D01*
X7068820Y963421D01*
X7074966Y951280D01*
X7082688Y940053D01*
X7090054Y931875D01*
X7092035Y928573D01*
X7092696Y924712D01*
X7091781Y920953D01*
X7089597Y917752D01*
X7086346Y915669D01*
X7082536Y914908D01*
X6862064Y914908D01*
X6858101Y915669D01*
X6854799Y917905D01*
X6852615Y921258D01*
X6851903Y925169D01*
X6852716Y929081D01*
X6854952Y932383D01*
X6857492Y934821D01*
X6865975Y945540D01*
X6872935Y957275D01*
X6878218Y969822D01*
X6881825Y982980D01*
X6883653Y996492D01*
X6883653Y1010107D01*
X6881825Y1023619D01*
X6878218Y1036777D01*
X6872935Y1049324D01*
X6865975Y1061059D01*
X6857492Y1071778D01*
X6847687Y1081278D01*
X6836714Y1089355D01*
X6824776Y1095908D01*
X6812025Y1100785D01*
X6798767Y1103985D01*
X6785203Y1105306D01*
X6771589Y1104849D01*
X6758127Y1102614D01*
X6745122Y1098550D01*
X6732727Y1092809D01*
X6721246Y1085494D01*
X6710832Y1076706D01*
X6701688Y1066546D01*
X6693966Y1055319D01*
X6687820Y1043178D01*
X6683349Y1030274D01*
X6680606Y1016914D01*
X6679692Y1003300D01*
X6680606Y989685D01*
X6683349Y976325D01*
X6687820Y963421D01*
X6693966Y951280D01*
X6701688Y940053D01*
X6709054Y931875D01*
X6711035Y928573D01*
X6711696Y924712D01*
X6710781Y920953D01*
X6708597Y917752D01*
X6705346Y915669D01*
X6701536Y914908D01*
X6100064Y914908D01*
X6096101Y915669D01*
X6092799Y917905D01*
X6090615Y921258D01*
X6089904Y925169D01*
X6090716Y929081D01*
X6092952Y932383D01*
X6095492Y934821D01*
X6103975Y945540D01*
X6110935Y957275D01*
X6116218Y969822D01*
X6119825Y982980D01*
X6121654Y996492D01*
X6121654Y1010107D01*
X6119825Y1023619D01*
X6116218Y1036777D01*
X6110935Y1049324D01*
X6103975Y1061059D01*
X6095492Y1071778D01*
X6090513Y1076604D01*
X6088176Y1080109D01*
X6087414Y1084224D01*
X6088430Y1088288D01*
X6090970Y1091641D01*
X6094628Y1093622D01*
X6098032Y1094689D01*
X6104737Y1098245D01*
X6110935Y1103376D01*
X6211824Y1204264D01*
X6216954Y1210462D01*
X6220510Y1217168D01*
X6222695Y1224381D01*
X6223508Y1232408D01*
X6223508Y1777492D01*
X6222695Y1785518D01*
X6220510Y1792732D01*
X6216954Y1799437D01*
X6211824Y1805635D01*
X6088176Y1929333D01*
X6085941Y1932686D01*
X6085179Y1936597D01*
X6085992Y1940509D01*
X6088278Y1943811D01*
X6095492Y1950821D01*
X6103975Y1961540D01*
X6110935Y1973275D01*
X6116218Y1985822D01*
X6119825Y1998980D01*
X6121654Y2012492D01*
X6121654Y2026107D01*
X6119825Y2039620D01*
X6116218Y2052777D01*
X6110935Y2065324D01*
X6103975Y2077059D01*
X6095492Y2087778D01*
X6085687Y2097278D01*
X6074714Y2105355D01*
X6062776Y2111908D01*
X6050026Y2116785D01*
X6036767Y2119985D01*
X6023203Y2121306D01*
X6009589Y2120849D01*
X5996127Y2118614D01*
X5983122Y2114550D01*
X5970727Y2108809D01*
X5959246Y2101494D01*
X5948832Y2092706D01*
X5939688Y2082546D01*
X5931966Y2071319D01*
X5925820Y2059178D01*
X5921349Y2046274D01*
X5918606Y2032914D01*
X5917692Y2019300D01*
X5918606Y2005685D01*
X5921349Y1992325D01*
X5925820Y1979422D01*
X5931966Y1967280D01*
X5937300Y1959508D01*
X5938926Y1955444D01*
X5938723Y1951075D01*
X5936691Y1947214D01*
X5933186Y1944573D01*
X5928918Y1943607D01*
X5862218Y1943607D01*
X5858306Y1944370D01*
X5855004Y1946605D01*
X5755335Y2046224D01*
X5749137Y2051354D01*
X5742432Y2054910D01*
X5737656Y2056384D01*
X5733846Y2058517D01*
X5731256Y2062124D01*
X5729935Y2065324D01*
X5722975Y2077059D01*
X5714492Y2087778D01*
X5704687Y2097278D01*
X5693714Y2105355D01*
X5681776Y2111908D01*
X5669026Y2116785D01*
X5655767Y2119985D01*
X5642203Y2121306D01*
X5628589Y2120849D01*
X5615127Y2118614D01*
X5602122Y2114550D01*
X5589727Y2108809D01*
X5578246Y2101494D01*
X5567832Y2092706D01*
X5558688Y2082546D01*
X5550966Y2071319D01*
X5544820Y2059178D01*
X5540349Y2046274D01*
X5537606Y2032914D01*
X5536692Y2019300D01*
X5537606Y2005685D01*
X5540349Y1992325D01*
X5544820Y1979422D01*
X5550966Y1967280D01*
X5558688Y1956054D01*
X5567832Y1945893D01*
X5578246Y1937105D01*
X5589727Y1929790D01*
X5602122Y1924050D01*
X5615127Y1919986D01*
X5628589Y1917750D01*
X5642203Y1917293D01*
X5655767Y1918614D01*
X5669026Y1921814D01*
X5681776Y1926691D01*
X5693714Y1933244D01*
X5704687Y1941322D01*
X5714492Y1950821D01*
X5719368Y1956968D01*
X5722670Y1959711D01*
X5726734Y1960829D01*
X5730951Y1960168D01*
X5734507Y1957882D01*
X5814364Y1878075D01*
X5820562Y1872945D01*
X5827268Y1869389D01*
X5834481Y1867204D01*
X5842508Y1866392D01*
X5954064Y1866392D01*
X5958281Y1865477D01*
X5961735Y1862886D01*
X5963818Y1859076D01*
X5964123Y1854758D01*
X5962599Y1850694D01*
X5959246Y1847494D01*
X5948832Y1838706D01*
X5939688Y1828546D01*
X5931966Y1817319D01*
X5925820Y1805178D01*
X5921349Y1792274D01*
X5918606Y1778914D01*
X5917692Y1765300D01*
X5918606Y1751685D01*
X5921349Y1738325D01*
X5925820Y1725422D01*
X5931966Y1713280D01*
X5939688Y1702054D01*
X5948832Y1691893D01*
X5959246Y1683105D01*
X5970727Y1675790D01*
X5983122Y1670050D01*
X5996127Y1665986D01*
X6009589Y1663750D01*
X6023203Y1663293D01*
X6036767Y1664614D01*
X6050026Y1667814D01*
X6062776Y1672691D01*
X6074714Y1679244D01*
X6085687Y1687322D01*
X6095492Y1696821D01*
X6103975Y1707540D01*
X6110935Y1719275D01*
X6116218Y1731822D01*
X6119825Y1744980D01*
X6121654Y1758492D01*
X6121654Y1762099D01*
X6122416Y1766011D01*
X6124651Y1769313D01*
X6127953Y1771497D01*
X6131814Y1772259D01*
X6135725Y1771497D01*
X6138976Y1769313D01*
X6143294Y1764995D01*
X6145530Y1761693D01*
X6146292Y1757781D01*
X6146292Y1252118D01*
X6145530Y1248206D01*
X6143294Y1244904D01*
X6138672Y1240282D01*
X6135166Y1237996D01*
X6131052Y1237335D01*
X6126988Y1238351D01*
X6123686Y1240942D01*
X6121755Y1244650D01*
X6121450Y1248816D01*
X6121654Y1250492D01*
X6121654Y1264107D01*
X6119825Y1277620D01*
X6116218Y1290777D01*
X6110935Y1303324D01*
X6103975Y1315059D01*
X6095492Y1325778D01*
X6085687Y1335278D01*
X6074714Y1343355D01*
X6062776Y1349908D01*
X6050026Y1354785D01*
X6036767Y1357985D01*
X6023203Y1359306D01*
X6009589Y1358849D01*
X5996127Y1356614D01*
X5983122Y1352550D01*
X5970727Y1346809D01*
X5959246Y1339494D01*
X5948832Y1330706D01*
X5939688Y1320546D01*
X5931966Y1309319D01*
X5925820Y1297178D01*
X5921349Y1284274D01*
X5918606Y1270914D01*
X5917692Y1257300D01*
X5918606Y1243685D01*
X5921349Y1230325D01*
X5925820Y1217422D01*
X5931966Y1205280D01*
X5939688Y1194054D01*
X5947054Y1185875D01*
X5949035Y1182573D01*
X5949696Y1178712D01*
X5948781Y1174953D01*
X5946597Y1171752D01*
X5943346Y1169670D01*
X5939536Y1168908D01*
X5719064Y1168908D01*
X5715101Y1169670D01*
X5711799Y1171905D01*
X5709615Y1175258D01*
X5708904Y1179169D01*
X5709716Y1183081D01*
X5711952Y1186383D01*
X5714492Y1188821D01*
X5722975Y1199540D01*
X5729935Y1211275D01*
X5735218Y1223822D01*
X5738825Y1236980D01*
X5740654Y1250492D01*
X5740654Y1264107D01*
X5738825Y1277620D01*
X5735218Y1290777D01*
X5729935Y1303324D01*
X5722975Y1315059D01*
X5714492Y1325778D01*
X5704687Y1335278D01*
X5698185Y1340053D01*
X5695391Y1343202D01*
X5694121Y1347216D01*
X5694578Y1351381D01*
X5696712Y1355039D01*
X5700115Y1357528D01*
X5704230Y1358392D01*
X5816092Y1358392D01*
X5824118Y1359204D01*
X5831332Y1361389D01*
X5838037Y1364945D01*
X5844235Y1370076D01*
X5894324Y1420164D01*
X5899454Y1426362D01*
X5903010Y1433068D01*
X5905195Y1440281D01*
X5906008Y1448308D01*
X5906008Y1468272D01*
X5906820Y1472234D01*
X5909106Y1475536D01*
X5912510Y1477721D01*
X5916523Y1478432D01*
X5920435Y1477467D01*
X5923686Y1475079D01*
X5925820Y1471422D01*
X5931966Y1459280D01*
X5939688Y1448054D01*
X5948832Y1437894D01*
X5959246Y1429105D01*
X5970727Y1421790D01*
X5983122Y1416050D01*
X5996127Y1411986D01*
X6009589Y1409750D01*
X6023203Y1409293D01*
X6036767Y1410614D01*
X6050026Y1413814D01*
X6062776Y1418691D01*
X6074714Y1425244D01*
X6085687Y1433322D01*
X6095492Y1442821D01*
X6103975Y1453540D01*
X6110935Y1465275D01*
X6116218Y1477822D01*
X6119825Y1490980D01*
X6121654Y1504492D01*
X6121654Y1518107D01*
X6119825Y1531620D01*
X6116218Y1544777D01*
X6110935Y1557324D01*
X6103975Y1569059D01*
X6095492Y1579778D01*
X6085687Y1589278D01*
X6074714Y1597355D01*
X6062776Y1603908D01*
X6050026Y1608785D01*
X6036767Y1611985D01*
X6023203Y1613306D01*
X6009589Y1612849D01*
X5996127Y1610614D01*
X5983122Y1606550D01*
X5970727Y1600809D01*
X5959246Y1593494D01*
X5948832Y1584706D01*
X5939688Y1574546D01*
X5931966Y1563319D01*
X5925769Y1551025D01*
X5923686Y1547520D01*
X5920435Y1545132D01*
X5916523Y1544167D01*
X5912510Y1544878D01*
X5909106Y1547063D01*
X5906820Y1550365D01*
X5906008Y1554327D01*
X5906008Y1663192D01*
X5905195Y1671218D01*
X5903010Y1678432D01*
X5899454Y1685137D01*
X5894324Y1691335D01*
X5793435Y1792224D01*
X5787237Y1797354D01*
X5780532Y1800910D01*
X5773318Y1803095D01*
X5765292Y1803907D01*
X5739790Y1803907D01*
X5735929Y1804670D01*
X5732627Y1806854D01*
X5722975Y1823059D01*
X5714492Y1833778D01*
X5704687Y1843278D01*
X5693714Y1851355D01*
X5681776Y1857908D01*
X5669026Y1862785D01*
X5655767Y1865985D01*
X5642203Y1867306D01*
X5628589Y1866849D01*
X5615127Y1864614D01*
X5602122Y1860550D01*
X5589727Y1854809D01*
X5578246Y1847494D01*
X5567832Y1838706D01*
X5558688Y1828546D01*
X5550966Y1817319D01*
X5544820Y1805178D01*
X5540349Y1792274D01*
X5537606Y1778914D01*
X5536692Y1765300D01*
X5537606Y1751685D01*
X5540349Y1738325D01*
X5544820Y1725422D01*
X5550966Y1713280D01*
X5558688Y1702054D01*
X5567832Y1691893D01*
X5578246Y1683105D01*
X5589727Y1675790D01*
X5602122Y1670050D01*
X5615127Y1665986D01*
X5628589Y1663750D01*
X5642203Y1663293D01*
X5655767Y1664614D01*
X5669026Y1667814D01*
X5681776Y1672691D01*
X5693714Y1679244D01*
X5704687Y1687322D01*
X5714492Y1696821D01*
X5722975Y1707540D01*
X5732627Y1723745D01*
X5735929Y1725930D01*
X5739790Y1726692D01*
X5745581Y1726692D01*
X5749493Y1725930D01*
X5752795Y1723694D01*
X5825794Y1650695D01*
X5828030Y1647393D01*
X5828792Y1643481D01*
X5828792Y1468018D01*
X5828030Y1464106D01*
X5825794Y1460804D01*
X5803595Y1438605D01*
X5800293Y1436370D01*
X5796381Y1435608D01*
X5729782Y1435608D01*
X5725363Y1436624D01*
X5721858Y1439418D01*
X5719876Y1443482D01*
X5719876Y1448003D01*
X5721807Y1452067D01*
X5722975Y1453540D01*
X5729935Y1465275D01*
X5735218Y1477822D01*
X5738825Y1490980D01*
X5740654Y1504492D01*
X5740654Y1518107D01*
X5738825Y1531620D01*
X5735218Y1544777D01*
X5729935Y1557324D01*
X5722975Y1569059D01*
X5714492Y1579778D01*
X5704687Y1589278D01*
X5693714Y1597355D01*
X5681776Y1603908D01*
X5669026Y1608785D01*
X5655767Y1611985D01*
X5642203Y1613306D01*
X5628589Y1612849D01*
X5615127Y1610614D01*
X5602122Y1606550D01*
X5589727Y1600809D01*
X5578246Y1593494D01*
X5567832Y1584706D01*
X5558688Y1574546D01*
X5550966Y1563319D01*
X5547004Y1555496D01*
X5544769Y1552549D01*
X5541568Y1550568D01*
X5537962Y1549908D01*
X3454044Y1549908D01*
X3449777Y1550873D01*
X3448253Y1551533D01*
X3438804Y1554073D01*
X3429000Y1554937D01*
X3419195Y1554073D01*
X3409746Y1551533D01*
X3400806Y1547418D01*
X3392779Y1541780D01*
X3385820Y1534820D01*
X3380181Y1526794D01*
X3376066Y1517853D01*
X3373526Y1508404D01*
X3372662Y1498600D01*
X3373526Y1488795D01*
X3376066Y1479346D01*
X3380181Y1470406D01*
X3385820Y1462379D01*
X3392779Y1455420D01*
X3394710Y1454099D01*
X3397605Y1451000D01*
X3398977Y1446936D01*
X3398570Y1442720D01*
X3396437Y1439011D01*
X3393033Y1436522D01*
X3388868Y1435608D01*
X3353308Y1435608D01*
X3349091Y1435201D01*
X3345179Y1435608D01*
X3341674Y1437436D01*
X3339134Y1440535D01*
X3338017Y1444294D01*
X3338372Y1448257D01*
X3339795Y1452981D01*
X3340608Y1461008D01*
X3340608Y1681581D01*
X3341370Y1685493D01*
X3343605Y1688795D01*
X3886504Y2231694D01*
X3889806Y2233930D01*
X3893718Y2234692D01*
X5537962Y2234692D01*
X5541568Y2234031D01*
X5544769Y2232050D01*
X5547004Y2229104D01*
X5550966Y2221280D01*
X5558688Y2210054D01*
X5567832Y2199894D01*
X5578246Y2191105D01*
X5589727Y2183790D01*
X5602122Y2178050D01*
X5615127Y2173986D01*
X5628589Y2171750D01*
X5642203Y2171293D01*
X5655767Y2172614D01*
X5669026Y2175814D01*
X5681776Y2180691D01*
X5693714Y2187244D01*
X5704687Y2195322D01*
X5714492Y2204821D01*
X5722975Y2215540D01*
X5729935Y2227275D01*
X5735218Y2239822D01*
X5738825Y2252980D01*
X5740654Y2266492D01*
X5740654Y2280107D01*
X5738825Y2293620D01*
X5735218Y2306777D01*
X5729935Y2319324D01*
X5722975Y2331059D01*
X5714492Y2341778D01*
X5704687Y2351278D01*
X5693714Y2359355D01*
X5681776Y2365908D01*
X5669026Y2370785D01*
X5655767Y2373985D01*
X5642203Y2375306D01*
X5628589Y2374849D01*
X5615127Y2372614D01*
X5602122Y2368550D01*
X5589727Y2362809D01*
X5578246Y2355494D01*
X5567832Y2346706D01*
X5558688Y2336546D01*
X5550966Y2325319D01*
X5547004Y2317496D01*
X5544769Y2314549D01*
X5541568Y2312568D01*
X5537962Y2311908D01*
X3874008Y2311908D01*
X3865981Y2311095D01*
X3858768Y2308910D01*
X3852062Y2305354D01*
X3845864Y2300224D01*
X3275076Y1729435D01*
X3269945Y1723237D01*
X3266389Y1716532D01*
X3264204Y1709318D01*
X3263392Y1701292D01*
X3263392Y1480718D01*
X3262629Y1476806D01*
X3260394Y1473504D01*
X3192221Y1405331D01*
X3189325Y1403299D01*
X3185922Y1402384D01*
X3177895Y1401673D01*
X3168446Y1399133D01*
X3159506Y1395018D01*
X3151479Y1389380D01*
X3144520Y1382420D01*
X3138881Y1374394D01*
X3134766Y1365453D01*
X3132226Y1356004D01*
X3131362Y1346200D01*
X3132226Y1336395D01*
X3134766Y1326946D01*
X3138881Y1318006D01*
X3144520Y1309979D01*
X3151479Y1303020D01*
X3159506Y1297381D01*
X3168446Y1293266D01*
X3171952Y1292301D01*
X3175711Y1290370D01*
X3178352Y1287119D01*
X3179470Y1283004D01*
X3178810Y1278839D01*
X3176524Y1275283D01*
X3052521Y1151331D01*
X3049625Y1149299D01*
X3046222Y1148384D01*
X3038195Y1147673D01*
X3028746Y1145133D01*
X3019806Y1141018D01*
X3011779Y1135380D01*
X3004820Y1128420D01*
X2999181Y1120394D01*
X2995066Y1111453D01*
X2992526Y1102004D01*
X2991662Y1092200D01*
X2992526Y1082395D01*
X2995066Y1072946D01*
X2999181Y1064006D01*
X3004820Y1055979D01*
X3011779Y1049020D01*
X3019806Y1043381D01*
X3028746Y1039266D01*
X3038195Y1036726D01*
X3048000Y1035862D01*
X3057804Y1036726D01*
X3067253Y1039266D01*
X3076194Y1043381D01*
X3084220Y1049020D01*
X3091180Y1055979D01*
X3096818Y1064006D01*
X3100933Y1072946D01*
X3103473Y1082395D01*
X3104184Y1090422D01*
X3105099Y1093825D01*
X3107131Y1096721D01*
X3365804Y1355394D01*
X3369106Y1357630D01*
X3373018Y1358392D01*
X5573064Y1358392D01*
X5577281Y1357477D01*
X5580735Y1354886D01*
X5582818Y1351076D01*
X5583123Y1346758D01*
X5581599Y1342694D01*
X5578246Y1339494D01*
X5567832Y1330706D01*
X5558688Y1320546D01*
X5550966Y1309319D01*
X5547004Y1301496D01*
X5544769Y1298549D01*
X5541568Y1296568D01*
X5537962Y1295908D01*
X3842308Y1295908D01*
X3838397Y1296670D01*
X3835095Y1298905D01*
X3833520Y1300480D01*
X3825494Y1306118D01*
X3816553Y1310233D01*
X3807104Y1312773D01*
X3797300Y1313637D01*
X3787495Y1312773D01*
X3778046Y1310233D01*
X3769106Y1306118D01*
X3761079Y1300480D01*
X3754120Y1293520D01*
X3748481Y1285494D01*
X3744366Y1276553D01*
X3741826Y1267104D01*
X3740962Y1257300D01*
X3741826Y1247495D01*
X3744366Y1238046D01*
X3748481Y1229106D01*
X3754120Y1221079D01*
X3761079Y1214120D01*
X3769106Y1208481D01*
X3778046Y1204366D01*
X3787495Y1201826D01*
X3797300Y1200962D01*
X3807104Y1201826D01*
X3816553Y1204366D01*
X3825494Y1208481D01*
X3833520Y1214120D01*
X3835095Y1215694D01*
X3838397Y1217930D01*
X3842308Y1218692D01*
X5537962Y1218692D01*
X5541568Y1218031D01*
X5544769Y1216050D01*
X5547004Y1213104D01*
X5550966Y1205280D01*
X5558688Y1194054D01*
X5567832Y1183894D01*
X5577078Y1176070D01*
X5579770Y1172565D01*
X5580684Y1168247D01*
X5579719Y1163929D01*
X5576976Y1160475D01*
X5573064Y1157224D01*
X5459476Y1043635D01*
X5454345Y1037437D01*
X5450789Y1030732D01*
X5448604Y1023518D01*
X5447792Y1015492D01*
X5447792Y902208D01*
X5448604Y894181D01*
X5450789Y886968D01*
X5454345Y880262D01*
X5459476Y874064D01*
X5540197Y793292D01*
X5542330Y790194D01*
X5543143Y786536D01*
X5542584Y782777D01*
X5540349Y776274D01*
X5537606Y762914D01*
X5536692Y749300D01*
X5537606Y735685D01*
X5540349Y722325D01*
X5544820Y709422D01*
X5550966Y697280D01*
X5558688Y686054D01*
X5567832Y675894D01*
X5578246Y667105D01*
X5589727Y659790D01*
X5594299Y657656D01*
X5597398Y655421D01*
X5599480Y652221D01*
X5600192Y648462D01*
X5600192Y596138D01*
X5599480Y592378D01*
X5597398Y589178D01*
X5594299Y586943D01*
X5589727Y584809D01*
X5578246Y577494D01*
X5567832Y568706D01*
X5558688Y558546D01*
X5550966Y547319D01*
X5544820Y535178D01*
X5540349Y522274D01*
X5537606Y508914D01*
X5536692Y495300D01*
X5537606Y481685D01*
X5540349Y468325D01*
X5544820Y455422D01*
X5550966Y443280D01*
X5558688Y432054D01*
X5567832Y421893D01*
X5578246Y413105D01*
X5589727Y405790D01*
X5594299Y403656D01*
X5597398Y401421D01*
X5599480Y398221D01*
X5600192Y394462D01*
X5600192Y133908D01*
X5599430Y129997D01*
X5597194Y126695D01*
X5595620Y125120D01*
X5589981Y117094D01*
X5585866Y108153D01*
X5583326Y98704D01*
X5582462Y88900D01*
X5583326Y79095D01*
X5585866Y69646D01*
X5589981Y60706D01*
X5595620Y52679D01*
X5602579Y45720D01*
X5610606Y40081D01*
X5619546Y35966D01*
X5628995Y33426D01*
X5638800Y32562D01*
X5648604Y33426D01*
X5658053Y35966D01*
X5666994Y40081D01*
X5675020Y45720D01*
X5681980Y52679D01*
X5687618Y60706D01*
X5691733Y69646D01*
X5694273Y79095D01*
X5695137Y88900D01*
X5694273Y98704D01*
X5691733Y108153D01*
X5687618Y117094D01*
X5681980Y125120D01*
X5680405Y126695D01*
X5678170Y129997D01*
X5677408Y133908D01*
X5677408Y394309D01*
X5678068Y397814D01*
X5679897Y400913D01*
X5682691Y403199D01*
X5693714Y409244D01*
X5704687Y417322D01*
X5714492Y426821D01*
X5722975Y437540D01*
X5729935Y449275D01*
X5735218Y461822D01*
X5738825Y474980D01*
X5740654Y488492D01*
X5740654Y502107D01*
X5738825Y515620D01*
X5735218Y528777D01*
X5729935Y541324D01*
X5722975Y553059D01*
X5714492Y563778D01*
X5704687Y573278D01*
X5693714Y581355D01*
X5682691Y587400D01*
X5679897Y589686D01*
X5678068Y592785D01*
X5677408Y596290D01*
X5677408Y648309D01*
X5678068Y651814D01*
X5679897Y654913D01*
X5682691Y657199D01*
X5693714Y663244D01*
X5704687Y671322D01*
X5714492Y680821D01*
X5722975Y691540D01*
X5729935Y703275D01*
X5735218Y715822D01*
X5738825Y728980D01*
X5740654Y742492D01*
X5740654Y756107D01*
X5738825Y769620D01*
X5735218Y782777D01*
X5729935Y795324D01*
X5722975Y807059D01*
X5714492Y817778D01*
X5704687Y827278D01*
X5693714Y835355D01*
X5681776Y841908D01*
X5669026Y846785D01*
X5655767Y849985D01*
X5642203Y851306D01*
X5628589Y850849D01*
X5615127Y848614D01*
X5604916Y845464D01*
X5601309Y845007D01*
X5597753Y845870D01*
X5594756Y847953D01*
X5528005Y914704D01*
X5525770Y918006D01*
X5525008Y921918D01*
X5525008Y960272D01*
X5525820Y964234D01*
X5528106Y967536D01*
X5531510Y969721D01*
X5535523Y970432D01*
X5539435Y969467D01*
X5542686Y967079D01*
X5544820Y963421D01*
X5550966Y951280D01*
X5558688Y940053D01*
X5567832Y929894D01*
X5578246Y921105D01*
X5589727Y913790D01*
X5602122Y908050D01*
X5615127Y903986D01*
X5628589Y901750D01*
X5642203Y901293D01*
X5655767Y902614D01*
X5669026Y905814D01*
X5681776Y910691D01*
X5693714Y917244D01*
X5704687Y925321D01*
X5714492Y934821D01*
X5722975Y945540D01*
X5732627Y961745D01*
X5735929Y963930D01*
X5739790Y964692D01*
X5809081Y964692D01*
X5812993Y963930D01*
X5816295Y961694D01*
X5928664Y849376D01*
X5934862Y844245D01*
X5941568Y840689D01*
X5944717Y839724D01*
X5948273Y837793D01*
X5950813Y834593D01*
X5951880Y830681D01*
X5951372Y826668D01*
X5949289Y823163D01*
X5939688Y812546D01*
X5931966Y801319D01*
X5925820Y789178D01*
X5921349Y776274D01*
X5918606Y762914D01*
X5917692Y749300D01*
X5918606Y735685D01*
X5921349Y722325D01*
X5925820Y709422D01*
X5931966Y697280D01*
X5939688Y686054D01*
X5948832Y675894D01*
X5959246Y667105D01*
X5970727Y659790D01*
X5983122Y654050D01*
X5996127Y649986D01*
X6009589Y647750D01*
X6023203Y647293D01*
X6036767Y648614D01*
X6050026Y651814D01*
X6062776Y656691D01*
X6074714Y663244D01*
X6085687Y671322D01*
X6095492Y680821D01*
X6103975Y691540D01*
X6110935Y703275D01*
X6116218Y715822D01*
X6119825Y728980D01*
X6121654Y742492D01*
X6121654Y756107D01*
X6119825Y769620D01*
X6116218Y782777D01*
X6110935Y795324D01*
X6103975Y807059D01*
X6095492Y817778D01*
X6092952Y820216D01*
X6090716Y823518D01*
X6089904Y827430D01*
X6090615Y831342D01*
X6092799Y834694D01*
X6096101Y836930D01*
X6100064Y837692D01*
X6701536Y837692D01*
X6705346Y836930D01*
X6708597Y834847D01*
X6710781Y831646D01*
X6711696Y827887D01*
X6711035Y824026D01*
X6709054Y820724D01*
X6701688Y812546D01*
X6693966Y801319D01*
X6687820Y789178D01*
X6683349Y776274D01*
X6680606Y762914D01*
X6679692Y749300D01*
X6680606Y735685D01*
X6683349Y722325D01*
X6687820Y709422D01*
X6693966Y697280D01*
X6701688Y686054D01*
X6710832Y675894D01*
X6721246Y667105D01*
X6732727Y659790D01*
X6745122Y654050D01*
X6758127Y649986D01*
X6771589Y647750D01*
X6785203Y647293D01*
X6798767Y648614D01*
X6812025Y651814D01*
X6824776Y656691D01*
X6836714Y663244D01*
X6847687Y671322D01*
X6857492Y680821D01*
X6865975Y691540D01*
X6872935Y703275D01*
X6878218Y715822D01*
X6881825Y728980D01*
X6883653Y742492D01*
X6883653Y756107D01*
X6881825Y769620D01*
X6878218Y782777D01*
X6872935Y795324D01*
X6865975Y807059D01*
X6857492Y817778D01*
X6854952Y820216D01*
X6852716Y823518D01*
X6851903Y827430D01*
X6852615Y831342D01*
X6854799Y834694D01*
X6858101Y836930D01*
X6862064Y837692D01*
X7082536Y837692D01*
X7086346Y836930D01*
X7089597Y834847D01*
X7091781Y831646D01*
X7092696Y827887D01*
X7092035Y824026D01*
X7090054Y820724D01*
X7082688Y812546D01*
X7074966Y801319D01*
X7068820Y789178D01*
X7064349Y776274D01*
X7061606Y762914D01*
X7060692Y749300D01*
X7061606Y735685D01*
X7064349Y722325D01*
X7068820Y709422D01*
X7074966Y697280D01*
X7082688Y686054D01*
X7091832Y675894D01*
X7102246Y667105D01*
X7113727Y659790D01*
X7126122Y654050D01*
X7139127Y649986D01*
X7152589Y647750D01*
X7166203Y647293D01*
X7179767Y648614D01*
X7193025Y651814D01*
X7205776Y656691D01*
X7217714Y663244D01*
X7228687Y671322D01*
X7238492Y680821D01*
X7246975Y691540D01*
X7253935Y703275D01*
X7259218Y715822D01*
X7262825Y728980D01*
X7264653Y742492D01*
X7264653Y756107D01*
X7262825Y769620D01*
X7259218Y782777D01*
X7253935Y795324D01*
X7246975Y807059D01*
X7238492Y817778D01*
X7235952Y820216D01*
X7233716Y823518D01*
X7232903Y827430D01*
X7233615Y831342D01*
X7235799Y834694D01*
X7239101Y836930D01*
X7243064Y837692D01*
X7384491Y837692D01*
X7388402Y836930D01*
X7391704Y834694D01*
X7393279Y833119D01*
X7401306Y827481D01*
X7410246Y823366D01*
X7419695Y820826D01*
X7429500Y819962D01*
X7439304Y820826D01*
X7448753Y823366D01*
X7452614Y825144D01*
X7456576Y826109D01*
X7460589Y825449D01*
X7463993Y823264D01*
X7466279Y819912D01*
X7467092Y815949D01*
X7467092Y706018D01*
X7466330Y702106D01*
X7464094Y698804D01*
X7302195Y536905D01*
X7298893Y534670D01*
X7294981Y533908D01*
X7263790Y533908D01*
X7259929Y534670D01*
X7256627Y536854D01*
X7246975Y553059D01*
X7238492Y563778D01*
X7228687Y573278D01*
X7217714Y581355D01*
X7205776Y587908D01*
X7193025Y592785D01*
X7179767Y595985D01*
X7166203Y597306D01*
X7152589Y596849D01*
X7139127Y594614D01*
X7126122Y590550D01*
X7113727Y584809D01*
X7102246Y577494D01*
X7091832Y568706D01*
X7082688Y558546D01*
X7074966Y547319D01*
X7068820Y535178D01*
X7064349Y522274D01*
X7061606Y508914D01*
X7060692Y495300D01*
X7061606Y481685D01*
X7064349Y468325D01*
X7068820Y455422D01*
X7074966Y443280D01*
X7082688Y432054D01*
X7091832Y421893D01*
X7102246Y413105D01*
X7113727Y405790D01*
X7126122Y400050D01*
X7139127Y395986D01*
X7152589Y393750D01*
X7166203Y393293D01*
X7179767Y394614D01*
X7193025Y397814D01*
X7205776Y402691D01*
X7217714Y409244D01*
X7228687Y417322D01*
X7238492Y426821D01*
X7246975Y437540D01*
X7256627Y453745D01*
X7259929Y455930D01*
X7263790Y456692D01*
X7314692Y456692D01*
X7322718Y457504D01*
X7329931Y459689D01*
X7336637Y463245D01*
X7342835Y468376D01*
X7532624Y658164D01*
X7537754Y664362D01*
X7541310Y671068D01*
X7543495Y678281D01*
X7544308Y686308D01*
X7544308Y836168D01*
X7545222Y840333D01*
X7547711Y843737D01*
X7551420Y845870D01*
X7555636Y846277D01*
X7559700Y844905D01*
X7562799Y842010D01*
X7564120Y840079D01*
X7571079Y833119D01*
X7579106Y827481D01*
X7588046Y823366D01*
X7597495Y820826D01*
X7607300Y819962D01*
X7617104Y820826D01*
X7626553Y823366D01*
X7635494Y827481D01*
X7643520Y833119D01*
X7650480Y840079D01*
X7656118Y848106D01*
X7660233Y857046D01*
X7662773Y866495D01*
X7663637Y876300D01*
X7662773Y886104D01*
X7660233Y895553D01*
X7656118Y904494D01*
X7650480Y912520D01*
X7648905Y914095D01*
X7646670Y917397D01*
X7645908Y921308D01*
X7645908Y4165092D01*
X7645095Y4173118D01*
X7642910Y4180332D01*
X7639354Y4187037D01*
X7634224Y4193235D01*
X7355535Y4471924D01*
X7349337Y4477054D01*
X7342631Y4480610D01*
X7335418Y4482795D01*
X7327392Y4483608D01*
X4051808Y4483608D01*
X4043781Y4482795D01*
X4036568Y4480610D01*
X4029862Y4477054D01*
X4023664Y4471924D01*
X3479495Y3927805D01*
X3476193Y3925570D01*
X3472281Y3924808D01*
X1209954Y3924808D01*
X1206093Y3925570D01*
X1202791Y3927805D01*
X1200607Y3931056D01*
X1199794Y3934968D01*
X1199794Y3961841D01*
X1199083Y3968140D01*
X1197203Y3973626D01*
X1195374Y3976522D01*
X1194206Y3979113D01*
X1193800Y3981907D01*
X1193800Y4044492D01*
X1194206Y4047286D01*
X1195374Y4049877D01*
X1197203Y4052773D01*
X1199083Y4058259D01*
X1199794Y4064558D01*
X1199794Y4091432D01*
X1200607Y4095343D01*
X1202791Y4098594D01*
X1206093Y4100829D01*
X1209954Y4101592D01*
X3517392Y4101592D01*
X3525418Y4102404D01*
X3532632Y4104589D01*
X3539337Y4108145D01*
X3545535Y4113276D01*
X3962704Y4530394D01*
X3966006Y4532630D01*
X3969918Y4533392D01*
X7421981Y4533392D01*
X7425893Y4532630D01*
X7429195Y4530394D01*
X7743494Y4216095D01*
X7745730Y4212793D01*
X7746492Y4208881D01*
X7746492Y921308D01*
X7745730Y917397D01*
X7743494Y914095D01*
X7741920Y912520D01*
X7736281Y904494D01*
X7732166Y895553D01*
X7729626Y886104D01*
X7728762Y876300D01*
X7729626Y866495D01*
X7732166Y857046D01*
X7736281Y848106D01*
X7741920Y840079D01*
X7748879Y833119D01*
X7756906Y827481D01*
X7765846Y823366D01*
X7775295Y820826D01*
X7785100Y819962D01*
X7794904Y820826D01*
X7804353Y823366D01*
X7813294Y827481D01*
X7821320Y833119D01*
X7828280Y840079D01*
X7833918Y848106D01*
X7838033Y857046D01*
X7840573Y866495D01*
X7841437Y876300D01*
X7840573Y886104D01*
X7838033Y895553D01*
X7833918Y904494D01*
X7828280Y912520D01*
X7826705Y914095D01*
X7824470Y917397D01*
X7823708Y921308D01*
X7823708Y4228592D01*
X7822895Y4236618D01*
X7820710Y4243832D01*
X7817154Y4250537D01*
X7812024Y4256735D01*
X7469835Y4598924D01*
X7463637Y4604054D01*
X7456931Y4607610D01*
X7449718Y4609795D01*
X7441692Y4610608D01*
X3950208Y4610608D01*
X3942181Y4609795D01*
X3934968Y4607610D01*
X3928262Y4604054D01*
X3922064Y4598924D01*
X3504895Y4181805D01*
X3501593Y4179570D01*
X3497681Y4178808D01*
X1209954Y4178808D01*
X1206093Y4179570D01*
X1202791Y4181805D01*
X1200607Y4185056D01*
X1199794Y4188968D01*
X1199794Y4215841D01*
X1199083Y4222140D01*
X1197203Y4227626D01*
X1195374Y4230522D01*
X1194206Y4233113D01*
X1193800Y4235907D01*
X1193800Y4298492D01*
X1194206Y4301286D01*
X1195374Y4303877D01*
X1197203Y4306773D01*
X1199083Y4312259D01*
X1199794Y4318558D01*
X1199794Y4370070D01*
X1196644Y4372305D01*
X1194562Y4375556D01*
X1193800Y4379366D01*
X1193800Y4409033D01*
X1194562Y4412843D01*
X1196644Y4416094D01*
X1199794Y4418330D01*
X1199794Y4469841D01*
X1199083Y4476140D01*
X1197203Y4481626D01*
X1195374Y4484522D01*
X1194206Y4487113D01*
X1193800Y4489907D01*
X1193800Y4776114D01*
X1194308Y4779314D01*
X1196695Y4786426D01*
X1201978Y4808067D01*
X1204823Y4827371D01*
X1206042Y4849723D01*
X1204823Y4875022D01*
X1201978Y4894326D01*
X1195832Y4918862D01*
X1189278Y4937252D01*
X1179830Y4957572D01*
X1178458Y4960162D01*
X1166825Y4979314D01*
X1153414Y4997246D01*
X1138275Y5013756D01*
X1123848Y5026914D01*
X1105966Y5040426D01*
X1086866Y5052110D01*
X1064006Y5062982D01*
X1042873Y5070449D01*
X1021080Y5075834D01*
X998931Y5079034D01*
X977646Y5080101D01*
X733958Y5080101D01*
X730097Y5080863D01*
X726795Y5083098D01*
X724560Y5086400D01*
X723798Y5090261D01*
X723798Y5405272D01*
X724408Y5410809D01*
X724408Y5780532D01*
X725170Y5784443D01*
X727405Y5787694D01*
X730656Y5789930D01*
X734568Y5790692D01*
X8663432Y5790692D01*
X8667343Y5789930D01*
X8670594Y5787694D01*
X8672830Y5784443D01*
X8673592Y5780532D01*
X8673592Y-560832D01*
X8672830Y-564743D01*
X8670594Y-567994D01*
X8667343Y-570230D01*
X8663432Y-570992D01*
G37*

%LPC*%
G36*
X6785203Y393293D02*
G01*
X6798767Y394614D01*
X6812025Y397814D01*
X6824776Y402691D01*
X6836714Y409244D01*
X6847687Y417322D01*
X6857492Y426821D01*
X6865975Y437540D01*
X6872935Y449275D01*
X6878218Y461822D01*
X6881825Y474980D01*
X6883653Y488492D01*
X6883653Y502107D01*
X6881825Y515620D01*
X6878218Y528777D01*
X6872935Y541324D01*
X6865975Y553059D01*
X6857492Y563778D01*
X6847687Y573278D01*
X6836714Y581355D01*
X6824776Y587908D01*
X6812025Y592785D01*
X6798767Y595985D01*
X6785203Y597306D01*
X6771589Y596849D01*
X6758127Y594614D01*
X6745122Y590550D01*
X6732727Y584809D01*
X6721246Y577494D01*
X6710832Y568706D01*
X6701688Y558546D01*
X6693966Y547319D01*
X6687820Y535178D01*
X6683349Y522274D01*
X6680606Y508914D01*
X6679692Y495300D01*
X6680606Y481685D01*
X6683349Y468325D01*
X6687820Y455422D01*
X6693966Y443280D01*
X6701688Y432054D01*
X6710832Y421893D01*
X6721246Y413105D01*
X6732727Y405790D01*
X6745122Y400050D01*
X6758127Y395986D01*
X6771589Y393750D01*
G37*
G36*
X6023203Y393293D02*
G01*
X6036767Y394614D01*
X6050026Y397814D01*
X6062776Y402691D01*
X6074714Y409244D01*
X6085687Y417322D01*
X6095492Y426821D01*
X6103975Y437540D01*
X6110935Y449275D01*
X6116218Y461822D01*
X6119825Y474980D01*
X6121654Y488492D01*
X6121654Y502107D01*
X6119825Y515620D01*
X6116218Y528777D01*
X6110935Y541324D01*
X6103975Y553059D01*
X6095492Y563778D01*
X6085687Y573278D01*
X6074714Y581355D01*
X6062776Y587908D01*
X6050026Y592785D01*
X6036767Y595985D01*
X6023203Y597306D01*
X6009589Y596849D01*
X5996127Y594614D01*
X5983122Y590550D01*
X5970727Y584809D01*
X5959246Y577494D01*
X5948832Y568706D01*
X5939688Y558546D01*
X5931966Y547319D01*
X5925820Y535178D01*
X5921349Y522274D01*
X5918606Y508914D01*
X5917692Y495300D01*
X5918606Y481685D01*
X5921349Y468325D01*
X5925820Y455422D01*
X5931966Y443280D01*
X5939688Y432054D01*
X5948832Y421893D01*
X5959246Y413105D01*
X5970727Y405790D01*
X5983122Y400050D01*
X5996127Y395986D01*
X6009589Y393750D01*
G37*
G36*
X7166203Y1155293D02*
G01*
X7179767Y1156614D01*
X7193025Y1159814D01*
X7205776Y1164691D01*
X7217714Y1171244D01*
X7228687Y1179322D01*
X7238492Y1188821D01*
X7246975Y1199540D01*
X7253935Y1211275D01*
X7259218Y1223822D01*
X7262825Y1236980D01*
X7264653Y1250492D01*
X7264653Y1264107D01*
X7262825Y1277620D01*
X7259218Y1290777D01*
X7253935Y1303324D01*
X7246975Y1315059D01*
X7238492Y1325778D01*
X7228687Y1335278D01*
X7217714Y1343355D01*
X7205776Y1349908D01*
X7193025Y1354785D01*
X7179767Y1357985D01*
X7166203Y1359306D01*
X7152589Y1358849D01*
X7139127Y1356614D01*
X7126122Y1352550D01*
X7113727Y1346809D01*
X7102246Y1339494D01*
X7091832Y1330706D01*
X7082688Y1320546D01*
X7074966Y1309319D01*
X7068820Y1297178D01*
X7064349Y1284274D01*
X7061606Y1270914D01*
X7060692Y1257300D01*
X7061606Y1243685D01*
X7064349Y1230325D01*
X7068820Y1217422D01*
X7074966Y1205280D01*
X7082688Y1194054D01*
X7091832Y1183894D01*
X7102246Y1175105D01*
X7113727Y1167790D01*
X7126122Y1162050D01*
X7139127Y1157986D01*
X7152589Y1155750D01*
G37*
G36*
X6785203Y1155293D02*
G01*
X6798767Y1156614D01*
X6812025Y1159814D01*
X6824776Y1164691D01*
X6836714Y1171244D01*
X6847687Y1179322D01*
X6857492Y1188821D01*
X6865975Y1199540D01*
X6872935Y1211275D01*
X6878218Y1223822D01*
X6881825Y1236980D01*
X6883653Y1250492D01*
X6883653Y1264107D01*
X6881825Y1277620D01*
X6878218Y1290777D01*
X6872935Y1303324D01*
X6865975Y1315059D01*
X6857492Y1325778D01*
X6847687Y1335278D01*
X6836714Y1343355D01*
X6824776Y1349908D01*
X6812025Y1354785D01*
X6798767Y1357985D01*
X6785203Y1359306D01*
X6771589Y1358849D01*
X6758127Y1356614D01*
X6745122Y1352550D01*
X6732727Y1346809D01*
X6721246Y1339494D01*
X6710832Y1330706D01*
X6701688Y1320546D01*
X6693966Y1309319D01*
X6687820Y1297178D01*
X6683349Y1284274D01*
X6680606Y1270914D01*
X6679692Y1257300D01*
X6680606Y1243685D01*
X6683349Y1230325D01*
X6687820Y1217422D01*
X6693966Y1205280D01*
X6701688Y1194054D01*
X6710832Y1183894D01*
X6721246Y1175105D01*
X6732727Y1167790D01*
X6745122Y1162050D01*
X6758127Y1157986D01*
X6771589Y1155750D01*
G37*
G36*
X7166203Y1409293D02*
G01*
X7179767Y1410614D01*
X7193025Y1413814D01*
X7205776Y1418691D01*
X7217714Y1425244D01*
X7228687Y1433322D01*
X7238492Y1442821D01*
X7246975Y1453540D01*
X7253935Y1465275D01*
X7259218Y1477822D01*
X7262825Y1490980D01*
X7264653Y1504492D01*
X7264653Y1518107D01*
X7262825Y1531620D01*
X7259218Y1544777D01*
X7253935Y1557324D01*
X7246975Y1569059D01*
X7238492Y1579778D01*
X7228687Y1589278D01*
X7217714Y1597355D01*
X7205776Y1603908D01*
X7193025Y1608785D01*
X7179767Y1611985D01*
X7166203Y1613306D01*
X7152589Y1612849D01*
X7139127Y1610614D01*
X7126122Y1606550D01*
X7113727Y1600809D01*
X7102246Y1593494D01*
X7091832Y1584706D01*
X7082688Y1574546D01*
X7074966Y1563319D01*
X7068820Y1551178D01*
X7064349Y1538274D01*
X7061606Y1524914D01*
X7060692Y1511300D01*
X7061606Y1497685D01*
X7064349Y1484325D01*
X7068820Y1471422D01*
X7074966Y1459280D01*
X7082688Y1448054D01*
X7091832Y1437894D01*
X7102246Y1429105D01*
X7113727Y1421790D01*
X7126122Y1416050D01*
X7139127Y1411986D01*
X7152589Y1409750D01*
G37*
G36*
X6785203Y1409293D02*
G01*
X6798767Y1410614D01*
X6812025Y1413814D01*
X6824776Y1418691D01*
X6836714Y1425244D01*
X6847687Y1433322D01*
X6857492Y1442821D01*
X6865975Y1453540D01*
X6872935Y1465275D01*
X6878218Y1477822D01*
X6881825Y1490980D01*
X6883653Y1504492D01*
X6883653Y1518107D01*
X6881825Y1531620D01*
X6878218Y1544777D01*
X6872935Y1557324D01*
X6865975Y1569059D01*
X6857492Y1579778D01*
X6847687Y1589278D01*
X6836714Y1597355D01*
X6824776Y1603908D01*
X6812025Y1608785D01*
X6798767Y1611985D01*
X6785203Y1613306D01*
X6771589Y1612849D01*
X6758127Y1610614D01*
X6745122Y1606550D01*
X6732727Y1600809D01*
X6721246Y1593494D01*
X6710832Y1584706D01*
X6701688Y1574546D01*
X6693966Y1563319D01*
X6687820Y1551178D01*
X6683349Y1538274D01*
X6680606Y1524914D01*
X6679692Y1511300D01*
X6680606Y1497685D01*
X6683349Y1484325D01*
X6687820Y1471422D01*
X6693966Y1459280D01*
X6701688Y1448054D01*
X6710832Y1437894D01*
X6721246Y1429105D01*
X6732727Y1421790D01*
X6745122Y1416050D01*
X6758127Y1411986D01*
X6771589Y1409750D01*
G37*
G36*
X6785203Y1650593D02*
G01*
X6798767Y1651914D01*
X6812025Y1655114D01*
X6824776Y1659991D01*
X6836714Y1666544D01*
X6847687Y1674622D01*
X6857492Y1684121D01*
X6865975Y1694840D01*
X6872935Y1706575D01*
X6878218Y1719122D01*
X6881825Y1732280D01*
X6883653Y1745792D01*
X6883653Y1759407D01*
X6881825Y1772920D01*
X6878218Y1786077D01*
X6872935Y1798624D01*
X6865975Y1810359D01*
X6857492Y1821078D01*
X6847687Y1830578D01*
X6836714Y1838655D01*
X6824776Y1845208D01*
X6812025Y1850085D01*
X6798767Y1853285D01*
X6785203Y1854606D01*
X6771589Y1854149D01*
X6758127Y1851914D01*
X6745122Y1847850D01*
X6732727Y1842109D01*
X6721246Y1834794D01*
X6710832Y1826006D01*
X6701688Y1815846D01*
X6693966Y1804619D01*
X6687820Y1792478D01*
X6683349Y1779574D01*
X6680606Y1766214D01*
X6679692Y1752600D01*
X6680606Y1738985D01*
X6683349Y1725625D01*
X6687820Y1712722D01*
X6693966Y1700580D01*
X6701688Y1689354D01*
X6710832Y1679193D01*
X6721246Y1670405D01*
X6732727Y1663090D01*
X6745122Y1657350D01*
X6758127Y1653286D01*
X6771589Y1651050D01*
G37*
G36*
X7166203Y1663293D02*
G01*
X7179767Y1664614D01*
X7193025Y1667814D01*
X7205776Y1672691D01*
X7217714Y1679244D01*
X7228687Y1687322D01*
X7238492Y1696821D01*
X7246975Y1707540D01*
X7253935Y1719275D01*
X7259218Y1731822D01*
X7262825Y1744980D01*
X7264653Y1758492D01*
X7264653Y1772107D01*
X7262825Y1785620D01*
X7259218Y1798777D01*
X7253935Y1811324D01*
X7246975Y1823059D01*
X7238492Y1833778D01*
X7228687Y1843278D01*
X7217714Y1851355D01*
X7205776Y1857908D01*
X7193025Y1862785D01*
X7179767Y1865985D01*
X7166203Y1867306D01*
X7152589Y1866849D01*
X7139127Y1864614D01*
X7126122Y1860550D01*
X7113727Y1854809D01*
X7102246Y1847494D01*
X7091832Y1838706D01*
X7082688Y1828546D01*
X7074966Y1817319D01*
X7068820Y1805178D01*
X7064349Y1792274D01*
X7061606Y1778914D01*
X7060692Y1765300D01*
X7061606Y1751685D01*
X7064349Y1738325D01*
X7068820Y1725422D01*
X7074966Y1713280D01*
X7082688Y1702054D01*
X7091832Y1691893D01*
X7102246Y1683105D01*
X7113727Y1675790D01*
X7126122Y1670050D01*
X7139127Y1665986D01*
X7152589Y1663750D01*
G37*
G36*
X7166203Y1917293D02*
G01*
X7179767Y1918614D01*
X7193025Y1921814D01*
X7205776Y1926691D01*
X7217714Y1933244D01*
X7228687Y1941322D01*
X7238492Y1950821D01*
X7246975Y1961540D01*
X7253935Y1973275D01*
X7259218Y1985822D01*
X7262825Y1998980D01*
X7264653Y2012492D01*
X7264653Y2026107D01*
X7262825Y2039620D01*
X7259218Y2052777D01*
X7253935Y2065324D01*
X7246975Y2077059D01*
X7238492Y2087778D01*
X7228687Y2097278D01*
X7217714Y2105355D01*
X7205776Y2111908D01*
X7193025Y2116785D01*
X7179767Y2119985D01*
X7166203Y2121306D01*
X7152589Y2120849D01*
X7139127Y2118614D01*
X7126122Y2114550D01*
X7113727Y2108809D01*
X7102246Y2101494D01*
X7091832Y2092706D01*
X7082688Y2082546D01*
X7074966Y2071319D01*
X7068820Y2059178D01*
X7064349Y2046274D01*
X7061606Y2032914D01*
X7060692Y2019300D01*
X7061606Y2005685D01*
X7064349Y1992325D01*
X7068820Y1979422D01*
X7074966Y1967280D01*
X7082688Y1956054D01*
X7091832Y1945893D01*
X7102246Y1937105D01*
X7113727Y1929790D01*
X7126122Y1924050D01*
X7139127Y1919986D01*
X7152589Y1917750D01*
G37*
G36*
X6785203Y1929993D02*
G01*
X6798767Y1931314D01*
X6812025Y1934514D01*
X6824776Y1939391D01*
X6836714Y1945944D01*
X6847687Y1954022D01*
X6857492Y1963521D01*
X6865975Y1974240D01*
X6872935Y1985975D01*
X6878218Y1998522D01*
X6881825Y2011680D01*
X6883653Y2025192D01*
X6883653Y2038807D01*
X6881825Y2052320D01*
X6878218Y2065477D01*
X6872935Y2078024D01*
X6865975Y2089759D01*
X6857492Y2100478D01*
X6847687Y2109978D01*
X6836714Y2118055D01*
X6824776Y2124608D01*
X6812025Y2129485D01*
X6798767Y2132685D01*
X6785203Y2134006D01*
X6771589Y2133549D01*
X6758127Y2131314D01*
X6745122Y2127250D01*
X6732727Y2121509D01*
X6721246Y2114194D01*
X6710832Y2105406D01*
X6701688Y2095246D01*
X6693966Y2084019D01*
X6687820Y2071878D01*
X6683349Y2058974D01*
X6680606Y2045614D01*
X6679692Y2032000D01*
X6680606Y2018385D01*
X6683349Y2005025D01*
X6687820Y1992122D01*
X6693966Y1979980D01*
X6701688Y1968754D01*
X6710832Y1958593D01*
X6721246Y1949805D01*
X6732727Y1942490D01*
X6745122Y1936750D01*
X6758127Y1932686D01*
X6771589Y1930450D01*
G37*
G36*
X6785203Y2171293D02*
G01*
X6798767Y2172614D01*
X6812025Y2175814D01*
X6824776Y2180691D01*
X6836714Y2187244D01*
X6847687Y2195322D01*
X6857492Y2204821D01*
X6865975Y2215540D01*
X6872935Y2227275D01*
X6878218Y2239822D01*
X6881825Y2252980D01*
X6883653Y2266492D01*
X6883653Y2280107D01*
X6881825Y2293620D01*
X6878218Y2306777D01*
X6872935Y2319324D01*
X6865975Y2331059D01*
X6857492Y2341778D01*
X6847687Y2351278D01*
X6836714Y2359355D01*
X6824776Y2365908D01*
X6812025Y2370785D01*
X6798767Y2373985D01*
X6785203Y2375306D01*
X6771589Y2374849D01*
X6758127Y2372614D01*
X6745122Y2368550D01*
X6732727Y2362809D01*
X6721246Y2355494D01*
X6710832Y2346706D01*
X6701688Y2336546D01*
X6693966Y2325319D01*
X6687820Y2313178D01*
X6683349Y2300274D01*
X6680606Y2286914D01*
X6679692Y2273300D01*
X6680606Y2259685D01*
X6683349Y2246325D01*
X6687820Y2233422D01*
X6693966Y2221280D01*
X6701688Y2210054D01*
X6710832Y2199894D01*
X6721246Y2191105D01*
X6732727Y2183790D01*
X6745122Y2178050D01*
X6758127Y2173986D01*
X6771589Y2171750D01*
G37*
G36*
X7166203Y2171293D02*
G01*
X7179767Y2172614D01*
X7193025Y2175814D01*
X7205776Y2180691D01*
X7217714Y2187244D01*
X7228687Y2195322D01*
X7238492Y2204821D01*
X7246975Y2215540D01*
X7253935Y2227275D01*
X7259218Y2239822D01*
X7262825Y2252980D01*
X7264653Y2266492D01*
X7264653Y2280107D01*
X7262825Y2293620D01*
X7259218Y2306777D01*
X7253935Y2319324D01*
X7246975Y2331059D01*
X7238492Y2341778D01*
X7228687Y2351278D01*
X7217714Y2359355D01*
X7205776Y2365908D01*
X7193025Y2370785D01*
X7179767Y2373985D01*
X7166203Y2375306D01*
X7152589Y2374849D01*
X7139127Y2372614D01*
X7126122Y2368550D01*
X7113727Y2362809D01*
X7102246Y2355494D01*
X7091832Y2346706D01*
X7082688Y2336546D01*
X7074966Y2325319D01*
X7068820Y2313178D01*
X7064349Y2300274D01*
X7061606Y2286914D01*
X7060692Y2273300D01*
X7061606Y2259685D01*
X7064349Y2246325D01*
X7068820Y2233422D01*
X7074966Y2221280D01*
X7082688Y2210054D01*
X7091832Y2199894D01*
X7102246Y2191105D01*
X7113727Y2183790D01*
X7126122Y2178050D01*
X7139127Y2173986D01*
X7152589Y2171750D01*
G37*
G36*
X6023203Y2171293D02*
G01*
X6036767Y2172614D01*
X6050026Y2175814D01*
X6062776Y2180691D01*
X6074714Y2187244D01*
X6085687Y2195322D01*
X6095492Y2204821D01*
X6103975Y2215540D01*
X6110935Y2227275D01*
X6116218Y2239822D01*
X6119825Y2252980D01*
X6121654Y2266492D01*
X6121654Y2280107D01*
X6119825Y2293620D01*
X6116218Y2306777D01*
X6110935Y2319324D01*
X6103975Y2331059D01*
X6095492Y2341778D01*
X6085687Y2351278D01*
X6074714Y2359355D01*
X6062776Y2365908D01*
X6050026Y2370785D01*
X6036767Y2373985D01*
X6023203Y2375306D01*
X6009589Y2374849D01*
X5996127Y2372614D01*
X5983122Y2368550D01*
X5970727Y2362809D01*
X5959246Y2355494D01*
X5948832Y2346706D01*
X5939688Y2336546D01*
X5931966Y2325319D01*
X5925820Y2313178D01*
X5921349Y2300274D01*
X5918606Y2286914D01*
X5917692Y2273300D01*
X5918606Y2259685D01*
X5921349Y2246325D01*
X5925820Y2233422D01*
X5931966Y2221280D01*
X5939688Y2210054D01*
X5948832Y2199894D01*
X5959246Y2191105D01*
X5970727Y2183790D01*
X5983122Y2178050D01*
X5996127Y2173986D01*
X6009589Y2171750D01*
G37*
G36*
X6785203Y2425293D02*
G01*
X6798767Y2426614D01*
X6812025Y2429814D01*
X6824776Y2434691D01*
X6836714Y2441244D01*
X6847687Y2449322D01*
X6857492Y2458821D01*
X6865975Y2469540D01*
X6872935Y2481275D01*
X6878218Y2493822D01*
X6881825Y2506980D01*
X6883653Y2520492D01*
X6883653Y2534107D01*
X6881825Y2547620D01*
X6878218Y2560777D01*
X6872935Y2573324D01*
X6865975Y2585059D01*
X6857492Y2595778D01*
X6847687Y2605278D01*
X6836714Y2613355D01*
X6824776Y2619908D01*
X6812025Y2624785D01*
X6798767Y2627985D01*
X6785203Y2629306D01*
X6771589Y2628849D01*
X6758127Y2626614D01*
X6745122Y2622550D01*
X6732727Y2616809D01*
X6721246Y2609494D01*
X6710832Y2600706D01*
X6701688Y2590546D01*
X6693966Y2579319D01*
X6687820Y2567178D01*
X6683349Y2554274D01*
X6680606Y2540914D01*
X6679692Y2527300D01*
X6680606Y2513685D01*
X6683349Y2500325D01*
X6687820Y2487422D01*
X6693966Y2475280D01*
X6701688Y2464054D01*
X6710832Y2453894D01*
X6721246Y2445105D01*
X6732727Y2437790D01*
X6745122Y2432050D01*
X6758127Y2427986D01*
X6771589Y2425750D01*
G37*
G36*
X6023203Y2425293D02*
G01*
X6036767Y2426614D01*
X6050026Y2429814D01*
X6062776Y2434691D01*
X6074714Y2441244D01*
X6085687Y2449322D01*
X6095492Y2458821D01*
X6103975Y2469540D01*
X6110935Y2481275D01*
X6116218Y2493822D01*
X6119825Y2506980D01*
X6121654Y2520492D01*
X6121654Y2534107D01*
X6119825Y2547620D01*
X6116218Y2560777D01*
X6110935Y2573324D01*
X6103975Y2585059D01*
X6095492Y2595778D01*
X6085687Y2605278D01*
X6074714Y2613355D01*
X6062776Y2619908D01*
X6050026Y2624785D01*
X6036767Y2627985D01*
X6023203Y2629306D01*
X6009589Y2628849D01*
X5996127Y2626614D01*
X5983122Y2622550D01*
X5970727Y2616809D01*
X5959246Y2609494D01*
X5948832Y2600706D01*
X5939688Y2590546D01*
X5931966Y2579319D01*
X5925820Y2567178D01*
X5921349Y2554274D01*
X5918606Y2540914D01*
X5917692Y2527300D01*
X5918606Y2513685D01*
X5921349Y2500325D01*
X5925820Y2487422D01*
X5931966Y2475280D01*
X5939688Y2464054D01*
X5948832Y2453894D01*
X5959246Y2445105D01*
X5970727Y2437790D01*
X5983122Y2432050D01*
X5996127Y2427986D01*
X6009589Y2425750D01*
G37*
G36*
X7166203Y2425293D02*
G01*
X7179767Y2426614D01*
X7193025Y2429814D01*
X7205776Y2434691D01*
X7217714Y2441244D01*
X7228687Y2449322D01*
X7238492Y2458821D01*
X7246975Y2469540D01*
X7253935Y2481275D01*
X7259218Y2493822D01*
X7262825Y2506980D01*
X7264653Y2520492D01*
X7264653Y2534107D01*
X7262825Y2547620D01*
X7259218Y2560777D01*
X7253935Y2573324D01*
X7246975Y2585059D01*
X7238492Y2595778D01*
X7228687Y2605278D01*
X7217714Y2613355D01*
X7205776Y2619908D01*
X7193025Y2624785D01*
X7179767Y2627985D01*
X7166203Y2629306D01*
X7152589Y2628849D01*
X7139127Y2626614D01*
X7126122Y2622550D01*
X7113727Y2616809D01*
X7102246Y2609494D01*
X7091832Y2600706D01*
X7082688Y2590546D01*
X7074966Y2579319D01*
X7068820Y2567178D01*
X7064349Y2554274D01*
X7061606Y2540914D01*
X7060692Y2527300D01*
X7061606Y2513685D01*
X7064349Y2500325D01*
X7068820Y2487422D01*
X7074966Y2475280D01*
X7082688Y2464054D01*
X7091832Y2453894D01*
X7102246Y2445105D01*
X7113727Y2437790D01*
X7126122Y2432050D01*
X7139127Y2427986D01*
X7152589Y2425750D01*
G37*
G36*
X5642203Y2425293D02*
G01*
X5655767Y2426614D01*
X5669026Y2429814D01*
X5681776Y2434691D01*
X5693714Y2441244D01*
X5704687Y2449322D01*
X5714492Y2458821D01*
X5722975Y2469540D01*
X5729935Y2481275D01*
X5735218Y2493822D01*
X5738825Y2506980D01*
X5740654Y2520492D01*
X5740654Y2534107D01*
X5738825Y2547620D01*
X5735218Y2560777D01*
X5729935Y2573324D01*
X5722975Y2585059D01*
X5714492Y2595778D01*
X5704687Y2605278D01*
X5693714Y2613355D01*
X5681776Y2619908D01*
X5669026Y2624785D01*
X5655767Y2627985D01*
X5642203Y2629306D01*
X5628589Y2628849D01*
X5615127Y2626614D01*
X5602122Y2622550D01*
X5589727Y2616809D01*
X5578246Y2609494D01*
X5567832Y2600706D01*
X5558688Y2590546D01*
X5550966Y2579319D01*
X5544820Y2567178D01*
X5540349Y2554274D01*
X5537606Y2540914D01*
X5536692Y2527300D01*
X5537606Y2513685D01*
X5540349Y2500325D01*
X5544820Y2487422D01*
X5550966Y2475280D01*
X5558688Y2464054D01*
X5567832Y2453894D01*
X5578246Y2445105D01*
X5589727Y2437790D01*
X5602122Y2432050D01*
X5615127Y2427986D01*
X5628589Y2425750D01*
G37*
G36*
X7166203Y2679293D02*
G01*
X7179767Y2680614D01*
X7193025Y2683814D01*
X7205776Y2688691D01*
X7217714Y2695244D01*
X7228687Y2703322D01*
X7238492Y2712821D01*
X7246975Y2723540D01*
X7253935Y2735275D01*
X7259218Y2747822D01*
X7262825Y2760980D01*
X7264653Y2774492D01*
X7264653Y2788107D01*
X7262825Y2801620D01*
X7259218Y2814777D01*
X7253935Y2827324D01*
X7246975Y2839059D01*
X7238492Y2849778D01*
X7228687Y2859278D01*
X7217714Y2867355D01*
X7205776Y2873908D01*
X7193025Y2878785D01*
X7179767Y2881985D01*
X7166203Y2883306D01*
X7152589Y2882849D01*
X7139127Y2880614D01*
X7126122Y2876550D01*
X7113727Y2870809D01*
X7102246Y2863494D01*
X7091832Y2854706D01*
X7082688Y2844546D01*
X7074966Y2833319D01*
X7068820Y2821178D01*
X7064349Y2808274D01*
X7061606Y2794914D01*
X7060692Y2781300D01*
X7061606Y2767685D01*
X7064349Y2754325D01*
X7068820Y2741422D01*
X7074966Y2729280D01*
X7082688Y2718054D01*
X7091832Y2707894D01*
X7102246Y2699105D01*
X7113727Y2691790D01*
X7126122Y2686050D01*
X7139127Y2681986D01*
X7152589Y2679750D01*
G37*
G36*
X6023203Y2679293D02*
G01*
X6036767Y2680614D01*
X6050026Y2683814D01*
X6062776Y2688691D01*
X6074714Y2695244D01*
X6085687Y2703322D01*
X6095492Y2712821D01*
X6103975Y2723540D01*
X6110935Y2735275D01*
X6116218Y2747822D01*
X6119825Y2760980D01*
X6121654Y2774492D01*
X6121654Y2788107D01*
X6119825Y2801620D01*
X6116218Y2814777D01*
X6110935Y2827324D01*
X6103975Y2839059D01*
X6095492Y2849778D01*
X6085687Y2859278D01*
X6074714Y2867355D01*
X6062776Y2873908D01*
X6050026Y2878785D01*
X6036767Y2881985D01*
X6023203Y2883306D01*
X6009589Y2882849D01*
X5996127Y2880614D01*
X5983122Y2876550D01*
X5970727Y2870809D01*
X5959246Y2863494D01*
X5948832Y2854706D01*
X5939688Y2844546D01*
X5931966Y2833319D01*
X5925820Y2821178D01*
X5921349Y2808274D01*
X5918606Y2794914D01*
X5917692Y2781300D01*
X5918606Y2767685D01*
X5921349Y2754325D01*
X5925820Y2741422D01*
X5931966Y2729280D01*
X5939688Y2718054D01*
X5948832Y2707894D01*
X5959246Y2699105D01*
X5970727Y2691790D01*
X5983122Y2686050D01*
X5996127Y2681986D01*
X6009589Y2679750D01*
G37*
G36*
X6785203Y2691993D02*
G01*
X6798767Y2693314D01*
X6812025Y2696514D01*
X6824776Y2701391D01*
X6836714Y2707944D01*
X6847687Y2716022D01*
X6857492Y2725521D01*
X6865975Y2736240D01*
X6872935Y2747975D01*
X6878218Y2760522D01*
X6881825Y2773680D01*
X6883653Y2787192D01*
X6883653Y2800807D01*
X6881825Y2814320D01*
X6878218Y2827477D01*
X6872935Y2840024D01*
X6865975Y2851759D01*
X6857492Y2862478D01*
X6847687Y2871978D01*
X6836714Y2880055D01*
X6824776Y2886608D01*
X6812025Y2891485D01*
X6798767Y2894685D01*
X6785203Y2896006D01*
X6771589Y2895549D01*
X6758127Y2893314D01*
X6745122Y2889250D01*
X6732727Y2883509D01*
X6721246Y2876194D01*
X6710832Y2867406D01*
X6701688Y2857246D01*
X6693966Y2846019D01*
X6687820Y2833878D01*
X6683349Y2820974D01*
X6680606Y2807614D01*
X6679692Y2794000D01*
X6680606Y2780385D01*
X6683349Y2767025D01*
X6687820Y2754122D01*
X6693966Y2741980D01*
X6701688Y2730754D01*
X6710832Y2720594D01*
X6721246Y2711805D01*
X6732727Y2704490D01*
X6745122Y2698750D01*
X6758127Y2694686D01*
X6771589Y2692450D01*
G37*
G36*
X6785203Y2933293D02*
G01*
X6798767Y2934614D01*
X6812025Y2937814D01*
X6824776Y2942691D01*
X6836714Y2949244D01*
X6847687Y2957322D01*
X6857492Y2966821D01*
X6865975Y2977540D01*
X6872935Y2989275D01*
X6878218Y3001822D01*
X6881825Y3014980D01*
X6883653Y3028492D01*
X6883653Y3042107D01*
X6881825Y3055620D01*
X6878218Y3068777D01*
X6872935Y3081324D01*
X6865975Y3093059D01*
X6857492Y3103778D01*
X6847687Y3113278D01*
X6836714Y3121355D01*
X6824776Y3127908D01*
X6812025Y3132785D01*
X6798767Y3135985D01*
X6785203Y3137306D01*
X6771589Y3136849D01*
X6758127Y3134614D01*
X6745122Y3130550D01*
X6732727Y3124809D01*
X6721246Y3117494D01*
X6710832Y3108706D01*
X6701688Y3098546D01*
X6693966Y3087319D01*
X6687820Y3075178D01*
X6683349Y3062274D01*
X6680606Y3048914D01*
X6679692Y3035300D01*
X6680606Y3021685D01*
X6683349Y3008325D01*
X6687820Y2995422D01*
X6693966Y2983280D01*
X6701688Y2972054D01*
X6710832Y2961894D01*
X6721246Y2953105D01*
X6732727Y2945790D01*
X6745122Y2940050D01*
X6758127Y2935986D01*
X6771589Y2933750D01*
G37*
G36*
X6023203Y2933293D02*
G01*
X6036767Y2934614D01*
X6050026Y2937814D01*
X6062776Y2942691D01*
X6074714Y2949244D01*
X6085687Y2957322D01*
X6095492Y2966821D01*
X6103975Y2977540D01*
X6110935Y2989275D01*
X6116218Y3001822D01*
X6119825Y3014980D01*
X6121654Y3028492D01*
X6121654Y3042107D01*
X6119825Y3055620D01*
X6116218Y3068777D01*
X6110935Y3081324D01*
X6103975Y3093059D01*
X6095492Y3103778D01*
X6085687Y3113278D01*
X6074714Y3121355D01*
X6062776Y3127908D01*
X6050026Y3132785D01*
X6036767Y3135985D01*
X6023203Y3137306D01*
X6009589Y3136849D01*
X5996127Y3134614D01*
X5983122Y3130550D01*
X5970727Y3124809D01*
X5959246Y3117494D01*
X5948832Y3108706D01*
X5939688Y3098546D01*
X5931966Y3087319D01*
X5925820Y3075178D01*
X5921349Y3062274D01*
X5918606Y3048914D01*
X5917692Y3035300D01*
X5918606Y3021685D01*
X5921349Y3008325D01*
X5925820Y2995422D01*
X5931966Y2983280D01*
X5939688Y2972054D01*
X5948832Y2961894D01*
X5959246Y2953105D01*
X5970727Y2945790D01*
X5983122Y2940050D01*
X5996127Y2935986D01*
X6009589Y2933750D01*
G37*
G36*
X6023203Y3187293D02*
G01*
X6036767Y3188614D01*
X6050026Y3191814D01*
X6062776Y3196691D01*
X6074714Y3203244D01*
X6085687Y3211322D01*
X6095492Y3220821D01*
X6103975Y3231540D01*
X6110935Y3243275D01*
X6116218Y3255822D01*
X6119825Y3268979D01*
X6121654Y3282492D01*
X6121654Y3296107D01*
X6119825Y3309620D01*
X6116218Y3322777D01*
X6110935Y3335324D01*
X6103975Y3347059D01*
X6095492Y3357778D01*
X6085687Y3367278D01*
X6074714Y3375355D01*
X6062776Y3381908D01*
X6050026Y3386785D01*
X6036767Y3389985D01*
X6023203Y3391306D01*
X6009589Y3390849D01*
X5996127Y3388614D01*
X5983122Y3384550D01*
X5970727Y3378809D01*
X5959246Y3371494D01*
X5948832Y3362706D01*
X5939688Y3352546D01*
X5931966Y3341319D01*
X5925820Y3329178D01*
X5921349Y3316274D01*
X5918606Y3302914D01*
X5917692Y3289300D01*
X5918606Y3275685D01*
X5921349Y3262325D01*
X5925820Y3249422D01*
X5931966Y3237280D01*
X5939688Y3226054D01*
X5948832Y3215894D01*
X5959246Y3207105D01*
X5970727Y3199790D01*
X5983122Y3194050D01*
X5996127Y3189986D01*
X6009589Y3187750D01*
G37*
G36*
X6785203Y3187293D02*
G01*
X6798767Y3188614D01*
X6812025Y3191814D01*
X6824776Y3196691D01*
X6836714Y3203244D01*
X6847687Y3211322D01*
X6857492Y3220821D01*
X6865975Y3231540D01*
X6872935Y3243275D01*
X6878218Y3255822D01*
X6881825Y3268979D01*
X6883653Y3282492D01*
X6883653Y3296107D01*
X6881825Y3309620D01*
X6878218Y3322777D01*
X6872935Y3335324D01*
X6865975Y3347059D01*
X6857492Y3357778D01*
X6847687Y3367278D01*
X6836714Y3375355D01*
X6824776Y3381908D01*
X6812025Y3386785D01*
X6798767Y3389985D01*
X6785203Y3391306D01*
X6771589Y3390849D01*
X6758127Y3388614D01*
X6745122Y3384550D01*
X6732727Y3378809D01*
X6721246Y3371494D01*
X6710832Y3362706D01*
X6701688Y3352546D01*
X6693966Y3341319D01*
X6687820Y3329178D01*
X6683349Y3316274D01*
X6680606Y3302914D01*
X6679692Y3289300D01*
X6680606Y3275685D01*
X6683349Y3262325D01*
X6687820Y3249422D01*
X6693966Y3237280D01*
X6701688Y3226054D01*
X6710832Y3215894D01*
X6721246Y3207105D01*
X6732727Y3199790D01*
X6745122Y3194050D01*
X6758127Y3189986D01*
X6771589Y3187750D01*
G37*
G36*
X6785203Y3441293D02*
G01*
X6798767Y3442614D01*
X6812025Y3445814D01*
X6824776Y3450691D01*
X6836714Y3457244D01*
X6847687Y3465322D01*
X6857492Y3474821D01*
X6865975Y3485540D01*
X6872935Y3497275D01*
X6878218Y3509822D01*
X6881825Y3522979D01*
X6883653Y3536492D01*
X6883653Y3550107D01*
X6881825Y3563620D01*
X6878218Y3576777D01*
X6872935Y3589324D01*
X6865975Y3601059D01*
X6857492Y3611778D01*
X6847687Y3621278D01*
X6836714Y3629355D01*
X6824776Y3635908D01*
X6812025Y3640785D01*
X6798767Y3643985D01*
X6785203Y3645306D01*
X6771589Y3644849D01*
X6758127Y3642614D01*
X6745122Y3638550D01*
X6732727Y3632809D01*
X6721246Y3625494D01*
X6710832Y3616706D01*
X6701688Y3606546D01*
X6693966Y3595319D01*
X6687820Y3583178D01*
X6683349Y3570274D01*
X6680606Y3556914D01*
X6679692Y3543300D01*
X6680606Y3529685D01*
X6683349Y3516325D01*
X6687820Y3503422D01*
X6693966Y3491280D01*
X6701688Y3480054D01*
X6710832Y3469894D01*
X6721246Y3461105D01*
X6732727Y3453790D01*
X6745122Y3448050D01*
X6758127Y3443986D01*
X6771589Y3441750D01*
G37*
G36*
X6023203Y3441293D02*
G01*
X6036767Y3442614D01*
X6050026Y3445814D01*
X6062776Y3450691D01*
X6074714Y3457244D01*
X6085687Y3465322D01*
X6095492Y3474821D01*
X6103975Y3485540D01*
X6110935Y3497275D01*
X6116218Y3509822D01*
X6119825Y3522979D01*
X6121654Y3536492D01*
X6121654Y3550107D01*
X6119825Y3563620D01*
X6116218Y3576777D01*
X6110935Y3589324D01*
X6103975Y3601059D01*
X6095492Y3611778D01*
X6085687Y3621278D01*
X6074714Y3629355D01*
X6062776Y3635908D01*
X6050026Y3640785D01*
X6036767Y3643985D01*
X6023203Y3645306D01*
X6009589Y3644849D01*
X5996127Y3642614D01*
X5983122Y3638550D01*
X5970727Y3632809D01*
X5959246Y3625494D01*
X5948832Y3616706D01*
X5939688Y3606546D01*
X5931966Y3595319D01*
X5925820Y3583178D01*
X5921349Y3570274D01*
X5918606Y3556914D01*
X5917692Y3543300D01*
X5918606Y3529685D01*
X5921349Y3516325D01*
X5925820Y3503422D01*
X5931966Y3491280D01*
X5939688Y3480054D01*
X5948832Y3469894D01*
X5959246Y3461105D01*
X5970727Y3453790D01*
X5983122Y3448050D01*
X5996127Y3443986D01*
X6009589Y3441750D01*
G37*

%LPD*%
D10*
X5638800Y2019300D02*
G01*
X5727700Y2019300D01*
X5842000Y1905000D01*
X6057900Y1905000D01*
X6184900Y1778000D01*
X6184900Y1231900D01*
X6083300Y1130300D01*
X5600700Y1130300D01*
X5486400Y1016000D01*
X5486400Y901700D01*
X5499100Y889000D01*
X5638800Y749300D01*
X1930400Y609600D02*
G01*
X1701800Y838200D01*
X723900Y838200D01*
X5638800Y88900D02*
G01*
X5638800Y495300D01*
X3797300Y1257300D02*
G01*
X5638800Y1257300D01*
X3429000Y1498600D02*
G01*
X3441700Y1511300D01*
X5638800Y1511300D01*
X3187700Y1346200D02*
G01*
X3302000Y1460500D01*
X3302000Y1701800D01*
X3873500Y2273300D01*
X5638800Y2273300D01*
X3048000Y1092200D02*
G01*
X3352800Y1397000D01*
X5816600Y1397000D01*
X5867400Y1447800D01*
X5867400Y1663700D01*
X5765800Y1765300D01*
X5638800Y1765300D01*
X723900Y1600200D02*
G01*
X3048000Y1600200D01*
X4229100Y2781300D01*
X5638800Y2781300D01*
X723900Y1854200D02*
G01*
X3086100Y1854200D01*
X4267200Y3035300D01*
X5638800Y3035300D01*
X723900Y2108200D02*
G01*
X3111500Y2108200D01*
X4292600Y3289300D01*
X5638800Y3289300D01*
X723900Y2362200D02*
G01*
X3111500Y2362200D01*
X4292600Y3543300D01*
X5638800Y3543300D01*
X723900Y2616200D02*
G01*
X3149600Y2616200D01*
X4330700Y3797300D01*
X5638800Y3797300D01*
X723900Y2870200D02*
G01*
X3213100Y2870200D01*
X4279900Y3937000D01*
X6896100Y3937000D01*
X6985000Y3848100D01*
X6985000Y3632200D01*
X7073900Y3543300D01*
X7162800Y3543300D01*
X723900Y3124200D02*
G01*
X3276600Y3124200D01*
X4216400Y4064000D01*
X7124700Y4064000D01*
X7315200Y3873500D01*
X7315200Y3429000D01*
X7175500Y3289300D01*
X7162800Y3289300D01*
X723900Y3378200D02*
G01*
X3365500Y3378200D01*
X4216400Y4229100D01*
X7112000Y4229100D01*
X7404100Y3937000D01*
X7404100Y3200400D01*
X7239000Y3035300D01*
X7162800Y3035300D01*
X723900Y3632200D02*
G01*
X3429000Y3632200D01*
X4127500Y4330700D01*
X7239000Y4330700D01*
X7505700Y4064000D01*
X7505700Y685800D01*
X7315200Y495300D01*
X7162800Y495300D01*
X723900Y3886200D02*
G01*
X3492500Y3886200D01*
X4051300Y4445000D01*
X7327900Y4445000D01*
X7607300Y4165600D01*
X7607300Y876300D01*
X7429500Y876300D02*
G01*
X5956300Y876300D01*
X5829300Y1003300D01*
X5638800Y1003300D01*
X723900Y4140200D02*
G01*
X3517900Y4140200D01*
X3949700Y4572000D01*
X7442200Y4572000D01*
X7785100Y4229100D01*
X7785100Y876300D01*
X5638800Y495300D02*
G01*
X5638800Y749300D01*
X2527300Y4394200D02*
G01*
X723900Y4394200D01*
D11*
G01*
X723900Y4394200D03*
G01*
X723900Y4140200D03*
G01*
X723900Y3886200D03*
G01*
X723900Y3632200D03*
G01*
X723900Y3378200D03*
G01*
X723900Y3124200D03*
G01*
X723900Y2870200D03*
G01*
X723900Y2616200D03*
G01*
X723900Y2362200D03*
G01*
X723900Y2108200D03*
G01*
X723900Y1854200D03*
G01*
X723900Y1600200D03*
G01*
X723900Y1346200D03*
G01*
X723900Y1092200D03*
G01*
X723900Y838200D03*
D12*
G01*
X6781800Y495300D03*
G01*
X6781800Y749300D03*
G01*
X6781800Y1003300D03*
G01*
X6781800Y1257300D03*
G01*
X6781800Y1511300D03*
G01*
X6781800Y1752600D03*
G01*
X6781800Y2032000D03*
G01*
X6781800Y2273300D03*
G01*
X6781800Y2527300D03*
G01*
X6781800Y2794000D03*
G01*
X6781800Y3035300D03*
G01*
X6781800Y3289300D03*
G01*
X6781800Y3543300D03*
G01*
X6781800Y3797300D03*
G01*
X6019800Y3797300D03*
G01*
X6019800Y3543300D03*
G01*
X6019800Y3289300D03*
G01*
X6019800Y3035300D03*
G01*
X6019800Y2781300D03*
G01*
X6019800Y2527300D03*
G01*
X6019800Y2273300D03*
G01*
X6019800Y2019300D03*
G01*
X6019800Y1765300D03*
G01*
X6019800Y1511300D03*
G01*
X6019800Y1257300D03*
G01*
X6019800Y1003300D03*
G01*
X6019800Y749300D03*
G01*
X6019800Y495300D03*
G01*
X7162800Y3797300D03*
G01*
X7162800Y3543300D03*
G01*
X7162800Y3289300D03*
G01*
X7162800Y3035300D03*
G01*
X7162800Y2781300D03*
G01*
X7162800Y2527300D03*
G01*
X7162800Y2273300D03*
G01*
X7162800Y2019300D03*
G01*
X7162800Y1765300D03*
G01*
X7162800Y1511300D03*
G01*
X7162800Y1257300D03*
G01*
X7162800Y1003300D03*
G01*
X7162800Y749300D03*
G01*
X7162800Y495300D03*
G01*
X5638800Y3797300D03*
G01*
X5638800Y3543300D03*
G01*
X5638800Y3289300D03*
G01*
X5638800Y3035300D03*
G01*
X5638800Y2781300D03*
G01*
X5638800Y2527300D03*
G01*
X5638800Y2273300D03*
G01*
X5638800Y2019300D03*
G01*
X5638800Y1765300D03*
G01*
X5638800Y1511300D03*
G01*
X5638800Y1257300D03*
G01*
X5638800Y1003300D03*
G01*
X5638800Y749300D03*
G01*
X5638800Y495300D03*
D13*
G01*
X3797300Y1257300D03*
G01*
X3429000Y1498600D03*
G01*
X3187700Y1346200D03*
G01*
X3048000Y1092200D03*
G01*
X7607300Y876300D03*
G01*
X7429500Y876300D03*
G01*
X7785100Y876300D03*
G01*
X1930400Y609600D03*
G01*
X5638800Y88900D03*
G01*
X2527300Y4394200D03*
M02*
