G04 Layer: TopLayer*
G04 EasyEDA v6.5.22, 2023-04-21 14:11:52*
G04 02b723c2ecb045abbe3cd18361d6b951,0d2cea57a9a8422ebbcee2df73fbc454,10*
G04 Gerber Generator version 0.2*
G04 Scale: 100 percent, Rotated: No, Reflected: No *
G04 Dimensions in millimeters *
G04 leading zeros omitted , absolute positions ,4 integer and 5 decimal *
%FSLAX45Y45*%
%MOMM*%

%ADD10C,0.2540*%
%ADD11R,0.8000X0.9000*%
%ADD12R,9.0000X1.5240*%
%ADD13C,1.5240*%
%ADD14C,0.6096*%
%ADD15C,0.0119*%

%LPD*%
G36*
X733958Y-570992D02*
G01*
X730097Y-570230D01*
X726795Y-567994D01*
X724560Y-564743D01*
X723798Y-560832D01*
X723798Y142138D01*
X724560Y145999D01*
X726795Y149301D01*
X730097Y151536D01*
X733958Y152298D01*
X977646Y152298D01*
X998931Y153365D01*
X1021080Y156565D01*
X1042873Y161950D01*
X1064006Y169418D01*
X1086866Y180289D01*
X1105966Y191973D01*
X1123848Y205486D01*
X1140307Y220675D01*
X1155242Y237388D01*
X1168450Y255524D01*
X1178458Y272237D01*
X1188161Y292455D01*
X1189278Y295148D01*
X1195832Y313537D01*
X1201978Y338074D01*
X1204823Y357378D01*
X1206042Y379730D01*
X1204823Y405028D01*
X1201978Y424332D01*
X1196695Y445973D01*
X1194308Y453085D01*
X1193800Y456285D01*
X1193800Y742492D01*
X1194206Y745286D01*
X1195374Y747877D01*
X1197203Y750773D01*
X1199083Y756259D01*
X1199794Y762558D01*
X1199794Y814069D01*
X1196644Y816305D01*
X1194562Y819556D01*
X1193800Y823366D01*
X1193800Y853033D01*
X1194562Y856843D01*
X1196644Y860094D01*
X1199794Y862330D01*
X1199794Y913841D01*
X1199083Y920140D01*
X1197203Y925626D01*
X1195374Y928522D01*
X1194206Y931113D01*
X1193800Y933907D01*
X1193800Y996492D01*
X1194206Y999286D01*
X1195374Y1001877D01*
X1197203Y1004773D01*
X1199083Y1010259D01*
X1199794Y1016558D01*
X1199794Y1043432D01*
X1200607Y1047343D01*
X1202791Y1050594D01*
X1206093Y1052830D01*
X1209954Y1053592D01*
X3002991Y1053592D01*
X3006902Y1052830D01*
X3010204Y1050594D01*
X3011779Y1049020D01*
X3019806Y1043381D01*
X3028746Y1039266D01*
X3038195Y1036726D01*
X3048000Y1035862D01*
X3057804Y1036726D01*
X3067253Y1039266D01*
X3076194Y1043381D01*
X3084220Y1049020D01*
X3091180Y1055979D01*
X3096818Y1064006D01*
X3100933Y1072946D01*
X3103473Y1082395D01*
X3104337Y1092200D01*
X3103473Y1102004D01*
X3100933Y1111453D01*
X3096818Y1120394D01*
X3091180Y1128420D01*
X3084220Y1135380D01*
X3076194Y1141018D01*
X3067253Y1145133D01*
X3057804Y1147673D01*
X3048000Y1148537D01*
X3038195Y1147673D01*
X3028746Y1145133D01*
X3019806Y1141018D01*
X3011779Y1135380D01*
X3010204Y1133805D01*
X3006902Y1131570D01*
X3002991Y1130808D01*
X1209954Y1130808D01*
X1206093Y1131570D01*
X1202791Y1133805D01*
X1200607Y1137056D01*
X1199794Y1140968D01*
X1199794Y1167841D01*
X1199083Y1174140D01*
X1197203Y1179626D01*
X1195374Y1182522D01*
X1194206Y1185113D01*
X1193800Y1187907D01*
X1193800Y1250492D01*
X1194206Y1253286D01*
X1195374Y1255877D01*
X1197203Y1258773D01*
X1199083Y1264259D01*
X1199794Y1270558D01*
X1199794Y1297432D01*
X1200607Y1301343D01*
X1202791Y1304594D01*
X1206093Y1306830D01*
X1209954Y1307592D01*
X3142691Y1307592D01*
X3146602Y1306830D01*
X3149904Y1304594D01*
X3151479Y1303020D01*
X3159506Y1297381D01*
X3168446Y1293266D01*
X3177895Y1290726D01*
X3187700Y1289862D01*
X3197504Y1290726D01*
X3206953Y1293266D01*
X3215894Y1297381D01*
X3223920Y1303020D01*
X3230880Y1309979D01*
X3236518Y1318006D01*
X3240633Y1326946D01*
X3243173Y1336395D01*
X3244037Y1346200D01*
X3243173Y1356004D01*
X3240633Y1365453D01*
X3236518Y1374394D01*
X3230880Y1382420D01*
X3223920Y1389380D01*
X3215894Y1395018D01*
X3206953Y1399133D01*
X3197504Y1401673D01*
X3187700Y1402537D01*
X3177895Y1401673D01*
X3168446Y1399133D01*
X3159506Y1395018D01*
X3151479Y1389380D01*
X3149904Y1387805D01*
X3146602Y1385570D01*
X3142691Y1384808D01*
X1209954Y1384808D01*
X1206093Y1385570D01*
X1202791Y1387805D01*
X1200607Y1391056D01*
X1199794Y1394968D01*
X1199794Y1421841D01*
X1199083Y1428140D01*
X1197203Y1433626D01*
X1195374Y1436522D01*
X1194206Y1439113D01*
X1193800Y1441907D01*
X1193800Y1504492D01*
X1194206Y1507286D01*
X1195374Y1509877D01*
X1197203Y1512773D01*
X1199083Y1518259D01*
X1199794Y1524558D01*
X1199794Y1551432D01*
X1200607Y1555343D01*
X1202791Y1558594D01*
X1206093Y1560830D01*
X1209954Y1561592D01*
X3307181Y1561592D01*
X3311093Y1560830D01*
X3314395Y1558594D01*
X3369868Y1503121D01*
X3371900Y1500225D01*
X3372815Y1496822D01*
X3373526Y1488795D01*
X3376066Y1479346D01*
X3380181Y1470406D01*
X3385820Y1462379D01*
X3392779Y1455420D01*
X3400806Y1449781D01*
X3409746Y1445666D01*
X3419195Y1443126D01*
X3429000Y1442262D01*
X3438804Y1443126D01*
X3448253Y1445666D01*
X3457194Y1449781D01*
X3465220Y1455420D01*
X3472179Y1462379D01*
X3477818Y1470406D01*
X3481933Y1479346D01*
X3484473Y1488795D01*
X3484727Y1491640D01*
X3485794Y1495348D01*
X3488131Y1498346D01*
X3491382Y1500327D01*
X3495141Y1500936D01*
X3498900Y1500073D01*
X3502050Y1497939D01*
X3738168Y1261821D01*
X3740200Y1258925D01*
X3741115Y1255522D01*
X3741826Y1247495D01*
X3744366Y1238046D01*
X3748481Y1229106D01*
X3754120Y1221079D01*
X3761079Y1214120D01*
X3769106Y1208481D01*
X3778046Y1204366D01*
X3787495Y1201826D01*
X3797300Y1200962D01*
X3807104Y1201826D01*
X3816553Y1204366D01*
X3825494Y1208481D01*
X3833520Y1214120D01*
X3840479Y1221079D01*
X3846118Y1229106D01*
X3850233Y1238046D01*
X3852773Y1247495D01*
X3853637Y1257300D01*
X3852773Y1267104D01*
X3850233Y1276553D01*
X3846118Y1285494D01*
X3840479Y1293520D01*
X3833520Y1300480D01*
X3825494Y1306118D01*
X3816553Y1310233D01*
X3807104Y1312773D01*
X3799078Y1313484D01*
X3795674Y1314399D01*
X3792778Y1316431D01*
X3228035Y1881124D01*
X3221837Y1886254D01*
X3215132Y1889810D01*
X3207918Y1891995D01*
X3199892Y1892807D01*
X1209954Y1892807D01*
X1206093Y1893570D01*
X1202791Y1895805D01*
X1200607Y1899056D01*
X1199794Y1902968D01*
X1199794Y1929841D01*
X1199083Y1936140D01*
X1197203Y1941626D01*
X1195374Y1944522D01*
X1194206Y1947113D01*
X1193800Y1949907D01*
X1193800Y2012492D01*
X1194206Y2015286D01*
X1195374Y2017877D01*
X1197203Y2020773D01*
X1199083Y2026259D01*
X1199794Y2032558D01*
X1199794Y2059432D01*
X1200607Y2063343D01*
X1202791Y2066594D01*
X1206093Y2068830D01*
X1209954Y2069592D01*
X3269081Y2069592D01*
X3272993Y2068830D01*
X3276295Y2066594D01*
X4747564Y595376D01*
X4753762Y590245D01*
X4760468Y586689D01*
X4767681Y584504D01*
X4775708Y583692D01*
X5558536Y583692D01*
X5562346Y582930D01*
X5565597Y580847D01*
X5567781Y577646D01*
X5568696Y573887D01*
X5568035Y570026D01*
X5566054Y566724D01*
X5558688Y558546D01*
X5550966Y547319D01*
X5544820Y535178D01*
X5540349Y522274D01*
X5537606Y508914D01*
X5536692Y495300D01*
X5537606Y481685D01*
X5540349Y468325D01*
X5544820Y455422D01*
X5550966Y443280D01*
X5558688Y432054D01*
X5567832Y421893D01*
X5578246Y413105D01*
X5589727Y405790D01*
X5602122Y400050D01*
X5615127Y395986D01*
X5628589Y393750D01*
X5642203Y393293D01*
X5655767Y394614D01*
X5669026Y397814D01*
X5681776Y402691D01*
X5693714Y409244D01*
X5704687Y417322D01*
X5714492Y426821D01*
X5722975Y437540D01*
X5729935Y449275D01*
X5735218Y461822D01*
X5738825Y474980D01*
X5740654Y488492D01*
X5740654Y502107D01*
X5738825Y515620D01*
X5735218Y528777D01*
X5729935Y541324D01*
X5722975Y553059D01*
X5714492Y563778D01*
X5711952Y566216D01*
X5709716Y569518D01*
X5708904Y573430D01*
X5709615Y577342D01*
X5711799Y580694D01*
X5715101Y582930D01*
X5719064Y583692D01*
X5939536Y583692D01*
X5943346Y582930D01*
X5946597Y580847D01*
X5948781Y577646D01*
X5949696Y573887D01*
X5949035Y570026D01*
X5947054Y566724D01*
X5939688Y558546D01*
X5931966Y547319D01*
X5925820Y535178D01*
X5921349Y522274D01*
X5918606Y508914D01*
X5917692Y495300D01*
X5918606Y481685D01*
X5921349Y468325D01*
X5925820Y455422D01*
X5931966Y443280D01*
X5939688Y432054D01*
X5948832Y421893D01*
X5959246Y413105D01*
X5970727Y405790D01*
X5983122Y400050D01*
X5996127Y395986D01*
X6009589Y393750D01*
X6023203Y393293D01*
X6036767Y394614D01*
X6050026Y397814D01*
X6062776Y402691D01*
X6074714Y409244D01*
X6085687Y417322D01*
X6095492Y426821D01*
X6103975Y437540D01*
X6110935Y449275D01*
X6116218Y461822D01*
X6119825Y474980D01*
X6121654Y488492D01*
X6121654Y502107D01*
X6119825Y515620D01*
X6116218Y528777D01*
X6110935Y541324D01*
X6103975Y553059D01*
X6095492Y563778D01*
X6092952Y566216D01*
X6090716Y569518D01*
X6089904Y573430D01*
X6090615Y577342D01*
X6092799Y580694D01*
X6096101Y582930D01*
X6100064Y583692D01*
X6412992Y583692D01*
X6421018Y584504D01*
X6428232Y586689D01*
X6434937Y590245D01*
X6441135Y595376D01*
X6680504Y834694D01*
X6683806Y836930D01*
X6687718Y837692D01*
X6701536Y837692D01*
X6705346Y836930D01*
X6708597Y834847D01*
X6710781Y831646D01*
X6711696Y827887D01*
X6711035Y824026D01*
X6709054Y820724D01*
X6701688Y812546D01*
X6693966Y801319D01*
X6687820Y789178D01*
X6683349Y776274D01*
X6680606Y762914D01*
X6679692Y749300D01*
X6680606Y735685D01*
X6683349Y722325D01*
X6687820Y709422D01*
X6693966Y697280D01*
X6701688Y686054D01*
X6710832Y675894D01*
X6721246Y667105D01*
X6732727Y659790D01*
X6745122Y654050D01*
X6758127Y649986D01*
X6771589Y647750D01*
X6785203Y647293D01*
X6798767Y648614D01*
X6812025Y651814D01*
X6824776Y656691D01*
X6836714Y663244D01*
X6847687Y671322D01*
X6857492Y680821D01*
X6865975Y691540D01*
X6872935Y703275D01*
X6878218Y715822D01*
X6881825Y728980D01*
X6883653Y742492D01*
X6883653Y756107D01*
X6881825Y769620D01*
X6878218Y782777D01*
X6872935Y795324D01*
X6865975Y807059D01*
X6857492Y817778D01*
X6854952Y820216D01*
X6852716Y823518D01*
X6851903Y827430D01*
X6852615Y831342D01*
X6854799Y834694D01*
X6858101Y836930D01*
X6862064Y837692D01*
X7035292Y837692D01*
X7043318Y838504D01*
X7050531Y840689D01*
X7057237Y844245D01*
X7063435Y849376D01*
X7118756Y904646D01*
X7121753Y906729D01*
X7125309Y907592D01*
X7128916Y907135D01*
X7139127Y903986D01*
X7152589Y901750D01*
X7166203Y901293D01*
X7179767Y902614D01*
X7193025Y905814D01*
X7205776Y910691D01*
X7217714Y917244D01*
X7228687Y925321D01*
X7238492Y934821D01*
X7246975Y945540D01*
X7253935Y957275D01*
X7259218Y969822D01*
X7262825Y982980D01*
X7264653Y996492D01*
X7264653Y1010107D01*
X7262825Y1023619D01*
X7259218Y1036777D01*
X7253935Y1049324D01*
X7246975Y1061059D01*
X7238492Y1071778D01*
X7228687Y1081278D01*
X7217714Y1089355D01*
X7205776Y1095908D01*
X7193025Y1100785D01*
X7179767Y1103985D01*
X7166203Y1105306D01*
X7152589Y1104849D01*
X7139127Y1102614D01*
X7126122Y1098550D01*
X7113727Y1092809D01*
X7102246Y1085494D01*
X7091832Y1076706D01*
X7082688Y1066546D01*
X7074966Y1055319D01*
X7068820Y1043178D01*
X7064349Y1030274D01*
X7061606Y1016914D01*
X7060692Y1003300D01*
X7061606Y989685D01*
X7064349Y976325D01*
X7066584Y969822D01*
X7067143Y966063D01*
X7066330Y962406D01*
X7064197Y959307D01*
X7022795Y917905D01*
X7019493Y915669D01*
X7015581Y914908D01*
X6862064Y914908D01*
X6858101Y915669D01*
X6854799Y917905D01*
X6852615Y921258D01*
X6851903Y925169D01*
X6852716Y929081D01*
X6854952Y932383D01*
X6857492Y934821D01*
X6865975Y945540D01*
X6872935Y957275D01*
X6878218Y969822D01*
X6881825Y982980D01*
X6883653Y996492D01*
X6883653Y1010107D01*
X6881825Y1023619D01*
X6878218Y1036777D01*
X6872935Y1049324D01*
X6865975Y1061059D01*
X6857492Y1071778D01*
X6854952Y1074216D01*
X6852716Y1077518D01*
X6851903Y1081430D01*
X6852615Y1085342D01*
X6854799Y1088694D01*
X6858101Y1090930D01*
X6862064Y1091692D01*
X7035292Y1091692D01*
X7043318Y1092504D01*
X7050531Y1094689D01*
X7057237Y1098245D01*
X7063435Y1103376D01*
X7118756Y1158646D01*
X7121753Y1160729D01*
X7125309Y1161592D01*
X7128916Y1161135D01*
X7139127Y1157986D01*
X7152589Y1155750D01*
X7166203Y1155293D01*
X7179767Y1156614D01*
X7193025Y1159814D01*
X7205776Y1164691D01*
X7217714Y1171244D01*
X7228687Y1179322D01*
X7238492Y1188821D01*
X7246975Y1199540D01*
X7253935Y1211275D01*
X7259218Y1223822D01*
X7262825Y1236980D01*
X7264653Y1250492D01*
X7264653Y1264107D01*
X7262825Y1277620D01*
X7259218Y1290777D01*
X7253935Y1303324D01*
X7246975Y1315059D01*
X7238492Y1325778D01*
X7228687Y1335278D01*
X7217714Y1343355D01*
X7205776Y1349908D01*
X7193025Y1354785D01*
X7179767Y1357985D01*
X7166203Y1359306D01*
X7152589Y1358849D01*
X7139127Y1356614D01*
X7126122Y1352550D01*
X7113727Y1346809D01*
X7102246Y1339494D01*
X7091832Y1330706D01*
X7082688Y1320546D01*
X7074966Y1309319D01*
X7068820Y1297178D01*
X7064349Y1284274D01*
X7061606Y1270914D01*
X7060692Y1257300D01*
X7061606Y1243685D01*
X7064349Y1230325D01*
X7066584Y1223822D01*
X7067143Y1220063D01*
X7066330Y1216406D01*
X7064197Y1213307D01*
X7022795Y1171905D01*
X7019493Y1169670D01*
X7015581Y1168908D01*
X6862064Y1168908D01*
X6858101Y1169670D01*
X6854799Y1171905D01*
X6852615Y1175258D01*
X6851903Y1179169D01*
X6852716Y1183081D01*
X6854952Y1186383D01*
X6857492Y1188821D01*
X6865975Y1199540D01*
X6872935Y1211275D01*
X6878218Y1223822D01*
X6881825Y1236980D01*
X6883653Y1250492D01*
X6883653Y1264107D01*
X6881825Y1277620D01*
X6878218Y1290777D01*
X6872935Y1303324D01*
X6865975Y1315059D01*
X6857492Y1325778D01*
X6854952Y1328216D01*
X6852716Y1331518D01*
X6851903Y1335430D01*
X6852615Y1339342D01*
X6854799Y1342694D01*
X6858101Y1344930D01*
X6862064Y1345692D01*
X7035292Y1345692D01*
X7043318Y1346504D01*
X7050531Y1348689D01*
X7057237Y1352245D01*
X7063435Y1357376D01*
X7118756Y1412646D01*
X7121753Y1414729D01*
X7125309Y1415592D01*
X7128916Y1415135D01*
X7139127Y1411986D01*
X7152589Y1409750D01*
X7166203Y1409293D01*
X7179767Y1410614D01*
X7193025Y1413814D01*
X7205776Y1418691D01*
X7217714Y1425244D01*
X7228687Y1433322D01*
X7238492Y1442821D01*
X7246975Y1453540D01*
X7253935Y1465275D01*
X7259218Y1477822D01*
X7262825Y1490980D01*
X7264653Y1504492D01*
X7264653Y1518107D01*
X7262825Y1531620D01*
X7259218Y1544777D01*
X7253935Y1557324D01*
X7246975Y1569059D01*
X7238492Y1579778D01*
X7228687Y1589278D01*
X7217714Y1597355D01*
X7205776Y1603908D01*
X7193025Y1608785D01*
X7179767Y1611985D01*
X7166203Y1613306D01*
X7152589Y1612849D01*
X7139127Y1610614D01*
X7126122Y1606550D01*
X7113727Y1600809D01*
X7102246Y1593494D01*
X7091832Y1584706D01*
X7082688Y1574546D01*
X7074966Y1563319D01*
X7068820Y1551178D01*
X7064349Y1538274D01*
X7061606Y1524914D01*
X7060692Y1511300D01*
X7061606Y1497685D01*
X7064349Y1484325D01*
X7066584Y1477822D01*
X7067143Y1474063D01*
X7066330Y1470406D01*
X7064197Y1467307D01*
X7022795Y1425905D01*
X7019493Y1423670D01*
X7015581Y1422908D01*
X6862064Y1422908D01*
X6858101Y1423670D01*
X6854799Y1425905D01*
X6852615Y1429258D01*
X6851903Y1433169D01*
X6852716Y1437081D01*
X6854952Y1440383D01*
X6857492Y1442821D01*
X6865975Y1453540D01*
X6872935Y1465275D01*
X6878218Y1477822D01*
X6881825Y1490980D01*
X6883653Y1504492D01*
X6883653Y1518107D01*
X6881825Y1531620D01*
X6878218Y1544777D01*
X6872935Y1557324D01*
X6865975Y1569059D01*
X6857492Y1579778D01*
X6854952Y1582216D01*
X6852716Y1585518D01*
X6851903Y1589430D01*
X6852615Y1593342D01*
X6854799Y1596694D01*
X6858101Y1598930D01*
X6862064Y1599692D01*
X7035292Y1599692D01*
X7043318Y1600504D01*
X7050531Y1602689D01*
X7057237Y1606245D01*
X7063435Y1611376D01*
X7118756Y1666646D01*
X7121753Y1668729D01*
X7125309Y1669592D01*
X7128916Y1669135D01*
X7139127Y1665986D01*
X7152589Y1663750D01*
X7166203Y1663293D01*
X7179767Y1664614D01*
X7193025Y1667814D01*
X7205776Y1672691D01*
X7217714Y1679244D01*
X7228687Y1687322D01*
X7238492Y1696821D01*
X7246975Y1707540D01*
X7253935Y1719275D01*
X7259218Y1731822D01*
X7262825Y1744980D01*
X7264653Y1758492D01*
X7264653Y1772107D01*
X7262825Y1785620D01*
X7259218Y1798777D01*
X7253935Y1811324D01*
X7246975Y1823059D01*
X7238492Y1833778D01*
X7228687Y1843278D01*
X7217714Y1851355D01*
X7205776Y1857908D01*
X7193025Y1862785D01*
X7179767Y1865985D01*
X7166203Y1867306D01*
X7152589Y1866849D01*
X7139127Y1864614D01*
X7126122Y1860550D01*
X7113727Y1854809D01*
X7102246Y1847494D01*
X7091832Y1838706D01*
X7082688Y1828546D01*
X7074966Y1817319D01*
X7068820Y1805178D01*
X7064349Y1792274D01*
X7061606Y1778914D01*
X7060692Y1765300D01*
X7061606Y1751685D01*
X7064349Y1738325D01*
X7066584Y1731822D01*
X7067143Y1728063D01*
X7066330Y1724406D01*
X7064197Y1721307D01*
X7022795Y1679905D01*
X7019493Y1677670D01*
X7015581Y1676907D01*
X6872782Y1676907D01*
X6868363Y1677924D01*
X6864858Y1680718D01*
X6862876Y1684782D01*
X6862876Y1689303D01*
X6864807Y1693367D01*
X6865975Y1694840D01*
X6872935Y1706575D01*
X6878218Y1719122D01*
X6881825Y1732280D01*
X6883653Y1745792D01*
X6883653Y1759407D01*
X6881825Y1772920D01*
X6878218Y1786077D01*
X6872935Y1798624D01*
X6865975Y1810359D01*
X6857492Y1821078D01*
X6847687Y1830578D01*
X6841185Y1835353D01*
X6838391Y1838502D01*
X6837121Y1842516D01*
X6837578Y1846681D01*
X6839712Y1850339D01*
X6843115Y1852828D01*
X6847230Y1853692D01*
X7035292Y1853692D01*
X7043318Y1854504D01*
X7050531Y1856689D01*
X7057237Y1860245D01*
X7063435Y1865375D01*
X7118756Y1920646D01*
X7121753Y1922729D01*
X7125309Y1923592D01*
X7128916Y1923135D01*
X7139127Y1919986D01*
X7152589Y1917750D01*
X7166203Y1917293D01*
X7179767Y1918614D01*
X7193025Y1921814D01*
X7205776Y1926691D01*
X7217714Y1933244D01*
X7228687Y1941322D01*
X7238492Y1950821D01*
X7246975Y1961540D01*
X7253935Y1973275D01*
X7259218Y1985822D01*
X7262825Y1998980D01*
X7264653Y2012492D01*
X7264653Y2026107D01*
X7262825Y2039620D01*
X7259218Y2052777D01*
X7253935Y2065324D01*
X7246975Y2077059D01*
X7238492Y2087778D01*
X7228687Y2097278D01*
X7217714Y2105355D01*
X7205776Y2111908D01*
X7193025Y2116785D01*
X7179767Y2119985D01*
X7166203Y2121306D01*
X7152589Y2120849D01*
X7139127Y2118614D01*
X7126122Y2114550D01*
X7113727Y2108809D01*
X7102246Y2101494D01*
X7091832Y2092706D01*
X7082688Y2082546D01*
X7074966Y2071319D01*
X7068820Y2059178D01*
X7064349Y2046274D01*
X7061606Y2032914D01*
X7060692Y2019300D01*
X7061606Y2005685D01*
X7064349Y1992325D01*
X7066584Y1985822D01*
X7067143Y1982063D01*
X7066330Y1978406D01*
X7064197Y1975307D01*
X7022795Y1933905D01*
X7019493Y1931670D01*
X7015581Y1930907D01*
X6847230Y1930907D01*
X6843115Y1931771D01*
X6839712Y1934260D01*
X6837578Y1937918D01*
X6837121Y1942084D01*
X6838391Y1946097D01*
X6841185Y1949246D01*
X6847687Y1954022D01*
X6857492Y1963521D01*
X6865975Y1974240D01*
X6872935Y1985975D01*
X6878218Y1998522D01*
X6881825Y2011680D01*
X6883653Y2025192D01*
X6883653Y2038807D01*
X6881825Y2052320D01*
X6878218Y2065477D01*
X6872935Y2078024D01*
X6865975Y2089759D01*
X6857492Y2100478D01*
X6854952Y2102916D01*
X6852716Y2106218D01*
X6851903Y2110130D01*
X6852615Y2114042D01*
X6854799Y2117394D01*
X6858101Y2119630D01*
X6862064Y2120392D01*
X7047992Y2120392D01*
X7056018Y2121204D01*
X7063231Y2123389D01*
X7069937Y2126945D01*
X7076135Y2132076D01*
X7118756Y2174646D01*
X7121753Y2176729D01*
X7125309Y2177592D01*
X7128916Y2177135D01*
X7139127Y2173986D01*
X7152589Y2171750D01*
X7166203Y2171293D01*
X7179767Y2172614D01*
X7193025Y2175814D01*
X7205776Y2180691D01*
X7217714Y2187244D01*
X7228687Y2195322D01*
X7238492Y2204821D01*
X7246975Y2215540D01*
X7253935Y2227275D01*
X7259218Y2239822D01*
X7262825Y2252980D01*
X7264653Y2266492D01*
X7264653Y2280107D01*
X7262825Y2293620D01*
X7259218Y2306777D01*
X7253935Y2319324D01*
X7246975Y2331059D01*
X7238492Y2341778D01*
X7228687Y2351278D01*
X7217714Y2359355D01*
X7205776Y2365908D01*
X7193025Y2370785D01*
X7179767Y2373985D01*
X7166203Y2375306D01*
X7152589Y2374849D01*
X7139127Y2372614D01*
X7126122Y2368550D01*
X7113727Y2362809D01*
X7102246Y2355494D01*
X7091832Y2346706D01*
X7082688Y2336546D01*
X7074966Y2325319D01*
X7068820Y2313178D01*
X7064349Y2300274D01*
X7061606Y2286914D01*
X7060692Y2273300D01*
X7061606Y2259685D01*
X7064349Y2246325D01*
X7066584Y2239822D01*
X7067143Y2236063D01*
X7066330Y2232406D01*
X7064197Y2229307D01*
X7035495Y2200605D01*
X7032193Y2198370D01*
X7028281Y2197608D01*
X6872782Y2197608D01*
X6868363Y2198624D01*
X6864858Y2201418D01*
X6862876Y2205482D01*
X6862876Y2210003D01*
X6864807Y2214067D01*
X6865975Y2215540D01*
X6872935Y2227275D01*
X6878218Y2239822D01*
X6881825Y2252980D01*
X6883653Y2266492D01*
X6883653Y2280107D01*
X6881825Y2293620D01*
X6878218Y2306777D01*
X6872935Y2319324D01*
X6865975Y2331059D01*
X6864807Y2332532D01*
X6862876Y2336596D01*
X6862876Y2341118D01*
X6864858Y2345182D01*
X6868363Y2347976D01*
X6872782Y2348992D01*
X7022592Y2348992D01*
X7030618Y2349804D01*
X7037831Y2351989D01*
X7044537Y2355545D01*
X7050735Y2360676D01*
X7118756Y2428646D01*
X7121753Y2430729D01*
X7125309Y2431592D01*
X7128916Y2431135D01*
X7139127Y2427986D01*
X7152589Y2425750D01*
X7166203Y2425293D01*
X7179767Y2426614D01*
X7193025Y2429814D01*
X7205776Y2434691D01*
X7217714Y2441244D01*
X7228687Y2449322D01*
X7238492Y2458821D01*
X7246975Y2469540D01*
X7253935Y2481275D01*
X7259218Y2493822D01*
X7262825Y2506980D01*
X7264653Y2520492D01*
X7264653Y2534107D01*
X7262825Y2547620D01*
X7259218Y2560777D01*
X7253935Y2573324D01*
X7246975Y2585059D01*
X7238492Y2595778D01*
X7228687Y2605278D01*
X7217714Y2613355D01*
X7205776Y2619908D01*
X7193025Y2624785D01*
X7179767Y2627985D01*
X7166203Y2629306D01*
X7152589Y2628849D01*
X7139127Y2626614D01*
X7126122Y2622550D01*
X7113727Y2616809D01*
X7102246Y2609494D01*
X7091832Y2600706D01*
X7082688Y2590546D01*
X7074966Y2579319D01*
X7068820Y2567178D01*
X7064349Y2554274D01*
X7061606Y2540914D01*
X7060692Y2527300D01*
X7061606Y2513685D01*
X7064349Y2500325D01*
X7066584Y2493822D01*
X7067143Y2490063D01*
X7066330Y2486406D01*
X7064197Y2483307D01*
X7010095Y2429205D01*
X7006793Y2426970D01*
X7002881Y2426208D01*
X6847230Y2426208D01*
X6843115Y2427071D01*
X6839712Y2429560D01*
X6837578Y2433218D01*
X6837121Y2437384D01*
X6838391Y2441397D01*
X6841185Y2444546D01*
X6847687Y2449322D01*
X6857492Y2458821D01*
X6865975Y2469540D01*
X6872935Y2481275D01*
X6878218Y2493822D01*
X6881825Y2506980D01*
X6883653Y2520492D01*
X6883653Y2534107D01*
X6881825Y2547620D01*
X6878218Y2560777D01*
X6872935Y2573324D01*
X6865975Y2585059D01*
X6857492Y2595778D01*
X6854952Y2598216D01*
X6852716Y2601518D01*
X6851903Y2605430D01*
X6852615Y2609342D01*
X6854799Y2612694D01*
X6858101Y2614930D01*
X6862064Y2615692D01*
X7035292Y2615692D01*
X7043318Y2616504D01*
X7050531Y2618689D01*
X7057237Y2622245D01*
X7063435Y2627376D01*
X7118756Y2682646D01*
X7121753Y2684729D01*
X7125309Y2685592D01*
X7128916Y2685135D01*
X7139127Y2681986D01*
X7152589Y2679750D01*
X7166203Y2679293D01*
X7179767Y2680614D01*
X7193025Y2683814D01*
X7205776Y2688691D01*
X7217714Y2695244D01*
X7228687Y2703322D01*
X7238492Y2712821D01*
X7246975Y2723540D01*
X7253935Y2735275D01*
X7259218Y2747822D01*
X7262825Y2760980D01*
X7264653Y2774492D01*
X7264653Y2788107D01*
X7262825Y2801620D01*
X7259218Y2814777D01*
X7253935Y2827324D01*
X7246975Y2839059D01*
X7238492Y2849778D01*
X7228687Y2859278D01*
X7217714Y2867355D01*
X7205776Y2873908D01*
X7193025Y2878785D01*
X7179767Y2881985D01*
X7166203Y2883306D01*
X7152589Y2882849D01*
X7139127Y2880614D01*
X7126122Y2876550D01*
X7113727Y2870809D01*
X7102246Y2863494D01*
X7091832Y2854706D01*
X7082688Y2844546D01*
X7074966Y2833319D01*
X7068820Y2821178D01*
X7064349Y2808274D01*
X7061606Y2794914D01*
X7060692Y2781300D01*
X7061606Y2767685D01*
X7064349Y2754325D01*
X7066584Y2747822D01*
X7067143Y2744063D01*
X7066330Y2740406D01*
X7064197Y2737307D01*
X7022795Y2695905D01*
X7019493Y2693670D01*
X7015581Y2692908D01*
X6847230Y2692908D01*
X6843115Y2693771D01*
X6839712Y2696260D01*
X6837578Y2699918D01*
X6837121Y2704084D01*
X6838391Y2708097D01*
X6841185Y2711246D01*
X6847687Y2716022D01*
X6857492Y2725521D01*
X6865975Y2736240D01*
X6872935Y2747975D01*
X6878218Y2760522D01*
X6881825Y2773680D01*
X6883653Y2787192D01*
X6883653Y2800807D01*
X6881825Y2814320D01*
X6878218Y2827477D01*
X6872935Y2840024D01*
X6865975Y2851759D01*
X6857492Y2862478D01*
X6847687Y2871978D01*
X6836714Y2880055D01*
X6824776Y2886608D01*
X6812025Y2891485D01*
X6798767Y2894685D01*
X6785203Y2896006D01*
X6771589Y2895549D01*
X6758127Y2893314D01*
X6745122Y2889250D01*
X6732727Y2883509D01*
X6721246Y2876194D01*
X6710832Y2867406D01*
X6701688Y2857246D01*
X6693966Y2846019D01*
X6687820Y2833878D01*
X6683349Y2820974D01*
X6680606Y2807614D01*
X6679692Y2794000D01*
X6680606Y2780385D01*
X6683349Y2767025D01*
X6687820Y2754122D01*
X6693966Y2741980D01*
X6701688Y2730754D01*
X6710832Y2720594D01*
X6721551Y2711653D01*
X6724599Y2708605D01*
X6726123Y2704541D01*
X6725818Y2700223D01*
X6723735Y2696413D01*
X6720281Y2693822D01*
X6716064Y2692908D01*
X6706108Y2692908D01*
X6698081Y2692095D01*
X6690868Y2689910D01*
X6684162Y2686354D01*
X6677964Y2681224D01*
X6451295Y2454605D01*
X6447993Y2452370D01*
X6444081Y2451608D01*
X6110782Y2451608D01*
X6106363Y2452624D01*
X6102858Y2455418D01*
X6100876Y2459482D01*
X6100876Y2464003D01*
X6102807Y2468067D01*
X6103975Y2469540D01*
X6110935Y2481275D01*
X6116218Y2493822D01*
X6119825Y2506980D01*
X6121654Y2520492D01*
X6121654Y2534107D01*
X6119825Y2547620D01*
X6116218Y2560777D01*
X6110935Y2573324D01*
X6103975Y2585059D01*
X6095492Y2595778D01*
X6085687Y2605278D01*
X6074714Y2613355D01*
X6062776Y2619908D01*
X6050026Y2624785D01*
X6036767Y2627985D01*
X6023203Y2629306D01*
X6009589Y2628849D01*
X5996127Y2626614D01*
X5983122Y2622550D01*
X5970727Y2616809D01*
X5959246Y2609494D01*
X5948832Y2600706D01*
X5939688Y2590546D01*
X5931966Y2579319D01*
X5925820Y2567178D01*
X5921349Y2554274D01*
X5918606Y2540914D01*
X5917692Y2527300D01*
X5918606Y2513685D01*
X5921349Y2500325D01*
X5925820Y2487422D01*
X5931966Y2475280D01*
X5937300Y2467508D01*
X5938926Y2463444D01*
X5938723Y2459075D01*
X5936691Y2455214D01*
X5933186Y2452573D01*
X5928918Y2451608D01*
X5729782Y2451608D01*
X5725363Y2452624D01*
X5721858Y2455418D01*
X5719876Y2459482D01*
X5719876Y2464003D01*
X5721807Y2468067D01*
X5722975Y2469540D01*
X5729935Y2481275D01*
X5735218Y2493822D01*
X5738825Y2506980D01*
X5740654Y2520492D01*
X5740654Y2534107D01*
X5738825Y2547620D01*
X5735218Y2560777D01*
X5729935Y2573324D01*
X5722975Y2585059D01*
X5714492Y2595778D01*
X5704687Y2605278D01*
X5693714Y2613355D01*
X5681776Y2619908D01*
X5669026Y2624785D01*
X5655767Y2627985D01*
X5642203Y2629306D01*
X5628589Y2628849D01*
X5615127Y2626614D01*
X5602122Y2622550D01*
X5589727Y2616809D01*
X5578246Y2609494D01*
X5567832Y2600706D01*
X5558688Y2590546D01*
X5553506Y2583027D01*
X5551220Y2580640D01*
X5548376Y2579116D01*
X5545124Y2578608D01*
X4998618Y2578608D01*
X4994706Y2579370D01*
X4991404Y2581605D01*
X3405835Y4167124D01*
X3399637Y4172254D01*
X3392932Y4175810D01*
X3385718Y4177995D01*
X3377692Y4178808D01*
X1209954Y4178808D01*
X1206093Y4179570D01*
X1202791Y4181805D01*
X1200607Y4185056D01*
X1199794Y4188968D01*
X1199794Y4215841D01*
X1199083Y4222140D01*
X1197203Y4227626D01*
X1195374Y4230522D01*
X1194206Y4233113D01*
X1193800Y4235907D01*
X1193800Y4298492D01*
X1194206Y4301286D01*
X1195374Y4303877D01*
X1197203Y4306773D01*
X1199083Y4312259D01*
X1199794Y4318558D01*
X1199794Y4345432D01*
X1200607Y4349343D01*
X1202791Y4352594D01*
X1206093Y4354830D01*
X1209954Y4355592D01*
X2094992Y4355592D01*
X2103018Y4356404D01*
X2110232Y4358589D01*
X2116937Y4362145D01*
X2123135Y4367276D01*
X2641904Y4885994D01*
X2645206Y4888230D01*
X2649118Y4888992D01*
X7802981Y4888992D01*
X7806893Y4888230D01*
X7810195Y4885994D01*
X8099094Y4597095D01*
X8101330Y4593793D01*
X8102092Y4589881D01*
X8102092Y375818D01*
X8101330Y371906D01*
X8099094Y368604D01*
X7860995Y130505D01*
X7857693Y128270D01*
X7853781Y127508D01*
X5683808Y127508D01*
X5679897Y128270D01*
X5676595Y130505D01*
X5675020Y132080D01*
X5666994Y137718D01*
X5658053Y141833D01*
X5648604Y144373D01*
X5638800Y145237D01*
X5628995Y144373D01*
X5619546Y141833D01*
X5610606Y137718D01*
X5602579Y132080D01*
X5595620Y125120D01*
X5589981Y117094D01*
X5585866Y108153D01*
X5583326Y98704D01*
X5582462Y88900D01*
X5583326Y79095D01*
X5585866Y69646D01*
X5589981Y60706D01*
X5595620Y52679D01*
X5597194Y51104D01*
X5599430Y47802D01*
X5600192Y43891D01*
X5600192Y-94081D01*
X5599430Y-97993D01*
X5597194Y-101295D01*
X5308295Y-390194D01*
X5304993Y-392430D01*
X5301081Y-393192D01*
X3157118Y-393192D01*
X3153206Y-392430D01*
X3149904Y-390194D01*
X3127705Y-367995D01*
X3125470Y-364693D01*
X3124708Y-360781D01*
X3124708Y-230022D01*
X3125266Y-226618D01*
X3126994Y-223621D01*
X3129534Y-221386D01*
X3135782Y-217576D01*
X3139795Y-213512D01*
X3141014Y-211632D01*
X3143808Y-208686D01*
X3147568Y-207060D01*
X3151632Y-207060D01*
X3155391Y-208686D01*
X3158185Y-211632D01*
X3159404Y-213512D01*
X3163468Y-217627D01*
X3168396Y-220675D01*
X3173831Y-222605D01*
X3180181Y-223316D01*
X3194608Y-223316D01*
X3194608Y-177393D01*
X3155696Y-177393D01*
X3151784Y-176631D01*
X3148482Y-174396D01*
X3146298Y-171145D01*
X3145536Y-167233D01*
X3145536Y-137566D01*
X3146298Y-133654D01*
X3148482Y-130403D01*
X3151784Y-128168D01*
X3155696Y-127406D01*
X3194608Y-127406D01*
X3194608Y-81483D01*
X3180181Y-81483D01*
X3173831Y-82194D01*
X3168396Y-84124D01*
X3163468Y-87172D01*
X3159404Y-91287D01*
X3158185Y-93167D01*
X3155391Y-96113D01*
X3151632Y-97739D01*
X3147568Y-97739D01*
X3143808Y-96113D01*
X3141014Y-93167D01*
X3139795Y-91287D01*
X3135731Y-87172D01*
X3130804Y-84124D01*
X3125368Y-82194D01*
X3119018Y-81483D01*
X3062884Y-81483D01*
X3058871Y-80670D01*
X3055569Y-78384D01*
X2364892Y636066D01*
X2358745Y641299D01*
X2352141Y644956D01*
X2344978Y647293D01*
X2336241Y648208D01*
X1975408Y648208D01*
X1971497Y648970D01*
X1968195Y651205D01*
X1966620Y652780D01*
X1958593Y658418D01*
X1949653Y662533D01*
X1940204Y665073D01*
X1930400Y665937D01*
X1920595Y665073D01*
X1911146Y662533D01*
X1902206Y658418D01*
X1894179Y652780D01*
X1887220Y645820D01*
X1881581Y637794D01*
X1877466Y628853D01*
X1874926Y619404D01*
X1874062Y609600D01*
X1874926Y599795D01*
X1877466Y590346D01*
X1881581Y581406D01*
X1887220Y573379D01*
X1894179Y566420D01*
X1902206Y560781D01*
X1911146Y556666D01*
X1920595Y554126D01*
X1930400Y553262D01*
X1940204Y554126D01*
X1949653Y556666D01*
X1958593Y560781D01*
X1966620Y566420D01*
X1968195Y567994D01*
X1971497Y570230D01*
X1975408Y570992D01*
X2316124Y570992D01*
X2320086Y570179D01*
X2323439Y567893D01*
X3010865Y-143256D01*
X3012948Y-146507D01*
X3013710Y-150317D01*
X3013710Y-196850D01*
X3014421Y-203149D01*
X3016300Y-208635D01*
X3019399Y-213512D01*
X3023514Y-217627D01*
X3028391Y-220675D01*
X3033877Y-222605D01*
X3038449Y-223113D01*
X3042005Y-224180D01*
X3044901Y-226466D01*
X3046831Y-229565D01*
X3047492Y-233222D01*
X3047492Y-380492D01*
X3048304Y-388518D01*
X3050489Y-395732D01*
X3054045Y-402437D01*
X3059176Y-408635D01*
X3109264Y-458724D01*
X3115462Y-463854D01*
X3122168Y-467410D01*
X3129381Y-469595D01*
X3137408Y-470408D01*
X5320792Y-470408D01*
X5328818Y-469595D01*
X5336032Y-467410D01*
X5342737Y-463854D01*
X5348935Y-458724D01*
X5665724Y-141935D01*
X5670854Y-135737D01*
X5674410Y-129032D01*
X5676595Y-121818D01*
X5677408Y-113792D01*
X5677408Y40132D01*
X5678170Y44043D01*
X5680405Y47294D01*
X5683656Y49530D01*
X5687568Y50292D01*
X7873492Y50292D01*
X7881518Y51104D01*
X7888731Y53289D01*
X7895437Y56845D01*
X7901635Y61976D01*
X8167624Y327964D01*
X8172754Y334162D01*
X8176310Y340868D01*
X8178495Y348081D01*
X8179308Y356108D01*
X8179308Y4609592D01*
X8178495Y4617618D01*
X8176310Y4624832D01*
X8172754Y4631537D01*
X8167624Y4637735D01*
X7850835Y4954524D01*
X7844637Y4959654D01*
X7837931Y4963210D01*
X7830718Y4965395D01*
X7822692Y4966208D01*
X2629408Y4966208D01*
X2621381Y4965395D01*
X2614168Y4963210D01*
X2607462Y4959654D01*
X2601264Y4954524D01*
X2082495Y4435805D01*
X2079193Y4433570D01*
X2075281Y4432808D01*
X1209954Y4432808D01*
X1206093Y4433570D01*
X1202791Y4435805D01*
X1200607Y4439056D01*
X1199794Y4442968D01*
X1199794Y4469841D01*
X1199083Y4476140D01*
X1197203Y4481626D01*
X1195374Y4484522D01*
X1194206Y4487113D01*
X1193800Y4489907D01*
X1193800Y4776114D01*
X1194308Y4779314D01*
X1196695Y4786426D01*
X1201978Y4808067D01*
X1204823Y4827371D01*
X1206042Y4849723D01*
X1204823Y4875022D01*
X1201978Y4894326D01*
X1195832Y4918862D01*
X1189278Y4937252D01*
X1179830Y4957572D01*
X1178458Y4960162D01*
X1166825Y4979314D01*
X1153414Y4997246D01*
X1138275Y5013756D01*
X1123848Y5026914D01*
X1105966Y5040426D01*
X1086866Y5052110D01*
X1064006Y5062982D01*
X1042873Y5070449D01*
X1021080Y5075834D01*
X998931Y5079034D01*
X977646Y5080101D01*
X733958Y5080101D01*
X730097Y5080863D01*
X726795Y5083098D01*
X724560Y5086400D01*
X723798Y5090261D01*
X723798Y5405272D01*
X724408Y5410809D01*
X724408Y5780532D01*
X725170Y5784443D01*
X727405Y5787694D01*
X730656Y5789930D01*
X734568Y5790692D01*
X8663432Y5790692D01*
X8667343Y5789930D01*
X8670594Y5787694D01*
X8672830Y5784443D01*
X8673592Y5780532D01*
X8673592Y-560832D01*
X8672830Y-564743D01*
X8670594Y-567994D01*
X8667343Y-570230D01*
X8663432Y-570992D01*
G37*

%LPC*%
G36*
X3244596Y-223316D02*
G01*
X3259023Y-223316D01*
X3265322Y-222605D01*
X3270808Y-220675D01*
X3275685Y-217627D01*
X3279800Y-213512D01*
X3282899Y-208635D01*
X3284778Y-203149D01*
X3285490Y-196850D01*
X3285490Y-177393D01*
X3244596Y-177393D01*
G37*
G36*
X3244596Y-127406D02*
G01*
X3285490Y-127406D01*
X3285490Y-107950D01*
X3284778Y-101650D01*
X3282899Y-96164D01*
X3279800Y-91287D01*
X3275685Y-87172D01*
X3270808Y-84124D01*
X3265322Y-82194D01*
X3259023Y-81483D01*
X3244596Y-81483D01*
G37*
G36*
X7166203Y393293D02*
G01*
X7179767Y394614D01*
X7193025Y397814D01*
X7205776Y402691D01*
X7217714Y409244D01*
X7228687Y417322D01*
X7238492Y426821D01*
X7246975Y437540D01*
X7253935Y449275D01*
X7259218Y461822D01*
X7262825Y474980D01*
X7264653Y488492D01*
X7264653Y502107D01*
X7262825Y515620D01*
X7259218Y528777D01*
X7253935Y541324D01*
X7246975Y553059D01*
X7238492Y563778D01*
X7228687Y573278D01*
X7217714Y581355D01*
X7205776Y587908D01*
X7193025Y592785D01*
X7179767Y595985D01*
X7166203Y597306D01*
X7152589Y596849D01*
X7139127Y594614D01*
X7126122Y590550D01*
X7113727Y584809D01*
X7102246Y577494D01*
X7091832Y568706D01*
X7082688Y558546D01*
X7074966Y547319D01*
X7068820Y535178D01*
X7064349Y522274D01*
X7061606Y508914D01*
X7060692Y495300D01*
X7061606Y481685D01*
X7064349Y468325D01*
X7068820Y455422D01*
X7074966Y443280D01*
X7082688Y432054D01*
X7091832Y421893D01*
X7102246Y413105D01*
X7113727Y405790D01*
X7126122Y400050D01*
X7139127Y395986D01*
X7152589Y393750D01*
G37*
G36*
X6785203Y393293D02*
G01*
X6798767Y394614D01*
X6812025Y397814D01*
X6824776Y402691D01*
X6836714Y409244D01*
X6847687Y417322D01*
X6857492Y426821D01*
X6865975Y437540D01*
X6872935Y449275D01*
X6878218Y461822D01*
X6881825Y474980D01*
X6883653Y488492D01*
X6883653Y502107D01*
X6881825Y515620D01*
X6878218Y528777D01*
X6872935Y541324D01*
X6865975Y553059D01*
X6857492Y563778D01*
X6847687Y573278D01*
X6836714Y581355D01*
X6824776Y587908D01*
X6812025Y592785D01*
X6798767Y595985D01*
X6785203Y597306D01*
X6771589Y596849D01*
X6758127Y594614D01*
X6745122Y590550D01*
X6732727Y584809D01*
X6721246Y577494D01*
X6710832Y568706D01*
X6701688Y558546D01*
X6693966Y547319D01*
X6687820Y535178D01*
X6683349Y522274D01*
X6680606Y508914D01*
X6679692Y495300D01*
X6680606Y481685D01*
X6683349Y468325D01*
X6687820Y455422D01*
X6693966Y443280D01*
X6701688Y432054D01*
X6710832Y421893D01*
X6721246Y413105D01*
X6732727Y405790D01*
X6745122Y400050D01*
X6758127Y395986D01*
X6771589Y393750D01*
G37*
G36*
X7166203Y647293D02*
G01*
X7179767Y648614D01*
X7193025Y651814D01*
X7205776Y656691D01*
X7217714Y663244D01*
X7228687Y671322D01*
X7238492Y680821D01*
X7246975Y691540D01*
X7256627Y707745D01*
X7259929Y709930D01*
X7263790Y710692D01*
X7657592Y710692D01*
X7665618Y711504D01*
X7672831Y713689D01*
X7679537Y717245D01*
X7685735Y722376D01*
X7780578Y817168D01*
X7783474Y819200D01*
X7786878Y820115D01*
X7794904Y820826D01*
X7804353Y823366D01*
X7813294Y827481D01*
X7821320Y833119D01*
X7828280Y840079D01*
X7833918Y848106D01*
X7838033Y857046D01*
X7840573Y866495D01*
X7841437Y876300D01*
X7840573Y886104D01*
X7838033Y895553D01*
X7833918Y904494D01*
X7828280Y912520D01*
X7821320Y919480D01*
X7813294Y925118D01*
X7804353Y929233D01*
X7794904Y931773D01*
X7785100Y932637D01*
X7775295Y931773D01*
X7765846Y929233D01*
X7756906Y925118D01*
X7748879Y919480D01*
X7741920Y912520D01*
X7736281Y904494D01*
X7732166Y895553D01*
X7729626Y886104D01*
X7728915Y878078D01*
X7728000Y874674D01*
X7725968Y871778D01*
X7645095Y790905D01*
X7641793Y788670D01*
X7637881Y787908D01*
X7263790Y787908D01*
X7259929Y788670D01*
X7256627Y790854D01*
X7246975Y807059D01*
X7238492Y817778D01*
X7228687Y827278D01*
X7217714Y835355D01*
X7205776Y841908D01*
X7193025Y846785D01*
X7179767Y849985D01*
X7166203Y851306D01*
X7152589Y850849D01*
X7139127Y848614D01*
X7126122Y844550D01*
X7113727Y838809D01*
X7102246Y831494D01*
X7091832Y822706D01*
X7082688Y812546D01*
X7074966Y801319D01*
X7068820Y789178D01*
X7064349Y776274D01*
X7061606Y762914D01*
X7060692Y749300D01*
X7061606Y735685D01*
X7064349Y722325D01*
X7068820Y709422D01*
X7074966Y697280D01*
X7082688Y686054D01*
X7091832Y675894D01*
X7102246Y667105D01*
X7113727Y659790D01*
X7126122Y654050D01*
X7139127Y649986D01*
X7152589Y647750D01*
G37*
G36*
X7429500Y819962D02*
G01*
X7439304Y820826D01*
X7448753Y823366D01*
X7457694Y827481D01*
X7465720Y833119D01*
X7467295Y834694D01*
X7470597Y836930D01*
X7474508Y837692D01*
X7562291Y837692D01*
X7566202Y836930D01*
X7569504Y834694D01*
X7571079Y833119D01*
X7579106Y827481D01*
X7588046Y823366D01*
X7597495Y820826D01*
X7607300Y819962D01*
X7617104Y820826D01*
X7626553Y823366D01*
X7635494Y827481D01*
X7643520Y833119D01*
X7650480Y840079D01*
X7656118Y848106D01*
X7660233Y857046D01*
X7662773Y866495D01*
X7663637Y876300D01*
X7662773Y886104D01*
X7660233Y895553D01*
X7656118Y904494D01*
X7650480Y912520D01*
X7643520Y919480D01*
X7635494Y925118D01*
X7626553Y929233D01*
X7617104Y931773D01*
X7607300Y932637D01*
X7597495Y931773D01*
X7588046Y929233D01*
X7579106Y925118D01*
X7571079Y919480D01*
X7569504Y917905D01*
X7566202Y915669D01*
X7562291Y914908D01*
X7474508Y914908D01*
X7470597Y915669D01*
X7467295Y917905D01*
X7465720Y919480D01*
X7457694Y925118D01*
X7448753Y929233D01*
X7439304Y931773D01*
X7429500Y932637D01*
X7419695Y931773D01*
X7410246Y929233D01*
X7401306Y925118D01*
X7393279Y919480D01*
X7386320Y912520D01*
X7380681Y904494D01*
X7376566Y895553D01*
X7374026Y886104D01*
X7373162Y876300D01*
X7374026Y866495D01*
X7376566Y857046D01*
X7380681Y848106D01*
X7386320Y840079D01*
X7393279Y833119D01*
X7401306Y827481D01*
X7410246Y823366D01*
X7419695Y820826D01*
G37*
G36*
X6023203Y2679293D02*
G01*
X6036767Y2680614D01*
X6050026Y2683814D01*
X6062776Y2688691D01*
X6074714Y2695244D01*
X6085687Y2703322D01*
X6095492Y2712821D01*
X6103975Y2723540D01*
X6110935Y2735275D01*
X6116218Y2747822D01*
X6119825Y2760980D01*
X6121654Y2774492D01*
X6121654Y2788107D01*
X6119825Y2801620D01*
X6116218Y2814777D01*
X6110935Y2827324D01*
X6103975Y2839059D01*
X6095492Y2849778D01*
X6085687Y2859278D01*
X6074714Y2867355D01*
X6062776Y2873908D01*
X6050026Y2878785D01*
X6036767Y2881985D01*
X6023203Y2883306D01*
X6009589Y2882849D01*
X5996127Y2880614D01*
X5983122Y2876550D01*
X5970727Y2870809D01*
X5959246Y2863494D01*
X5948832Y2854706D01*
X5939688Y2844546D01*
X5931966Y2833319D01*
X5925820Y2821178D01*
X5921349Y2808274D01*
X5918606Y2794914D01*
X5917692Y2781300D01*
X5918606Y2767685D01*
X5921349Y2754325D01*
X5925820Y2741422D01*
X5931966Y2729280D01*
X5939688Y2718054D01*
X5948832Y2707894D01*
X5959246Y2699105D01*
X5970727Y2691790D01*
X5983122Y2686050D01*
X5996127Y2681986D01*
X6009589Y2679750D01*
G37*
G36*
X5642203Y2679293D02*
G01*
X5655767Y2680614D01*
X5669026Y2683814D01*
X5681776Y2688691D01*
X5693714Y2695244D01*
X5704687Y2703322D01*
X5714492Y2712821D01*
X5722975Y2723540D01*
X5729935Y2735275D01*
X5735218Y2747822D01*
X5738825Y2760980D01*
X5740654Y2774492D01*
X5740654Y2788107D01*
X5738825Y2801620D01*
X5735218Y2814777D01*
X5729935Y2827324D01*
X5722975Y2839059D01*
X5714492Y2849778D01*
X5704687Y2859278D01*
X5693714Y2867355D01*
X5681776Y2873908D01*
X5669026Y2878785D01*
X5655767Y2881985D01*
X5642203Y2883306D01*
X5628589Y2882849D01*
X5615127Y2880614D01*
X5602122Y2876550D01*
X5589727Y2870809D01*
X5578246Y2863494D01*
X5567832Y2854706D01*
X5558688Y2844546D01*
X5550966Y2833319D01*
X5544820Y2821178D01*
X5540349Y2808274D01*
X5537606Y2794914D01*
X5536692Y2781300D01*
X5537606Y2767685D01*
X5540349Y2754325D01*
X5544820Y2741422D01*
X5550966Y2729280D01*
X5558688Y2718054D01*
X5567832Y2707894D01*
X5578246Y2699105D01*
X5589727Y2691790D01*
X5602122Y2686050D01*
X5615127Y2681986D01*
X5628589Y2679750D01*
G37*
G36*
X6023203Y2933293D02*
G01*
X6036767Y2934614D01*
X6050026Y2937814D01*
X6062776Y2942691D01*
X6074714Y2949244D01*
X6085687Y2957322D01*
X6095492Y2966821D01*
X6103975Y2977540D01*
X6110935Y2989275D01*
X6116218Y3001822D01*
X6119825Y3014980D01*
X6121654Y3028492D01*
X6121654Y3042107D01*
X6119825Y3055620D01*
X6116218Y3068777D01*
X6110935Y3081324D01*
X6103975Y3093059D01*
X6095492Y3103778D01*
X6085687Y3113278D01*
X6074714Y3121355D01*
X6062776Y3127908D01*
X6050026Y3132785D01*
X6036767Y3135985D01*
X6023203Y3137306D01*
X6009589Y3136849D01*
X5996127Y3134614D01*
X5983122Y3130550D01*
X5970727Y3124809D01*
X5959246Y3117494D01*
X5948832Y3108706D01*
X5939688Y3098546D01*
X5931966Y3087319D01*
X5925820Y3075178D01*
X5921349Y3062274D01*
X5918606Y3048914D01*
X5917692Y3035300D01*
X5918606Y3021685D01*
X5921349Y3008325D01*
X5925820Y2995422D01*
X5931966Y2983280D01*
X5939688Y2972054D01*
X5948832Y2961894D01*
X5959246Y2953105D01*
X5970727Y2945790D01*
X5983122Y2940050D01*
X5996127Y2935986D01*
X6009589Y2933750D01*
G37*
G36*
X6785203Y2933293D02*
G01*
X6798767Y2934614D01*
X6812025Y2937814D01*
X6824776Y2942691D01*
X6836714Y2949244D01*
X6847687Y2957322D01*
X6857492Y2966821D01*
X6865975Y2977540D01*
X6872935Y2989275D01*
X6878218Y3001822D01*
X6881825Y3014980D01*
X6883653Y3028492D01*
X6883653Y3042107D01*
X6881825Y3055620D01*
X6878218Y3068777D01*
X6872935Y3081324D01*
X6865975Y3093059D01*
X6857492Y3103778D01*
X6847687Y3113278D01*
X6836714Y3121355D01*
X6824776Y3127908D01*
X6812025Y3132785D01*
X6798767Y3135985D01*
X6785203Y3137306D01*
X6771589Y3136849D01*
X6758127Y3134614D01*
X6745122Y3130550D01*
X6732727Y3124809D01*
X6721246Y3117494D01*
X6710832Y3108706D01*
X6701688Y3098546D01*
X6693966Y3087319D01*
X6687820Y3075178D01*
X6683349Y3062274D01*
X6680606Y3048914D01*
X6679692Y3035300D01*
X6680606Y3021685D01*
X6683349Y3008325D01*
X6687820Y2995422D01*
X6693966Y2983280D01*
X6701688Y2972054D01*
X6710832Y2961894D01*
X6721246Y2953105D01*
X6732727Y2945790D01*
X6745122Y2940050D01*
X6758127Y2935986D01*
X6771589Y2933750D01*
G37*
G36*
X7166203Y2933293D02*
G01*
X7179767Y2934614D01*
X7193025Y2937814D01*
X7205776Y2942691D01*
X7217714Y2949244D01*
X7228687Y2957322D01*
X7238492Y2966821D01*
X7246975Y2977540D01*
X7253935Y2989275D01*
X7259218Y3001822D01*
X7262825Y3014980D01*
X7264653Y3028492D01*
X7264653Y3042107D01*
X7262825Y3055620D01*
X7259218Y3068777D01*
X7253935Y3081324D01*
X7246975Y3093059D01*
X7238492Y3103778D01*
X7228687Y3113278D01*
X7217714Y3121355D01*
X7205776Y3127908D01*
X7193025Y3132785D01*
X7179767Y3135985D01*
X7166203Y3137306D01*
X7152589Y3136849D01*
X7139127Y3134614D01*
X7126122Y3130550D01*
X7113727Y3124809D01*
X7102246Y3117494D01*
X7091832Y3108706D01*
X7082688Y3098546D01*
X7074966Y3087319D01*
X7068820Y3075178D01*
X7064349Y3062274D01*
X7061606Y3048914D01*
X7060692Y3035300D01*
X7061606Y3021685D01*
X7064349Y3008325D01*
X7068820Y2995422D01*
X7074966Y2983280D01*
X7082688Y2972054D01*
X7091832Y2961894D01*
X7102246Y2953105D01*
X7113727Y2945790D01*
X7126122Y2940050D01*
X7139127Y2935986D01*
X7152589Y2933750D01*
G37*
G36*
X5642203Y2933293D02*
G01*
X5655767Y2934614D01*
X5669026Y2937814D01*
X5681776Y2942691D01*
X5693714Y2949244D01*
X5704687Y2957322D01*
X5714492Y2966821D01*
X5722975Y2977540D01*
X5729935Y2989275D01*
X5735218Y3001822D01*
X5738825Y3014980D01*
X5740654Y3028492D01*
X5740654Y3042107D01*
X5738825Y3055620D01*
X5735218Y3068777D01*
X5729935Y3081324D01*
X5722975Y3093059D01*
X5714492Y3103778D01*
X5704687Y3113278D01*
X5693714Y3121355D01*
X5681776Y3127908D01*
X5669026Y3132785D01*
X5655767Y3135985D01*
X5642203Y3137306D01*
X5628589Y3136849D01*
X5615127Y3134614D01*
X5602122Y3130550D01*
X5589727Y3124809D01*
X5578246Y3117494D01*
X5567832Y3108706D01*
X5558688Y3098546D01*
X5550966Y3087319D01*
X5544820Y3075178D01*
X5540349Y3062274D01*
X5537606Y3048914D01*
X5536692Y3035300D01*
X5537606Y3021685D01*
X5540349Y3008325D01*
X5544820Y2995422D01*
X5550966Y2983280D01*
X5558688Y2972054D01*
X5567832Y2961894D01*
X5578246Y2953105D01*
X5589727Y2945790D01*
X5602122Y2940050D01*
X5615127Y2935986D01*
X5628589Y2933750D01*
G37*
G36*
X6023203Y3187293D02*
G01*
X6036767Y3188614D01*
X6050026Y3191814D01*
X6062776Y3196691D01*
X6074714Y3203244D01*
X6085687Y3211322D01*
X6095492Y3220821D01*
X6103975Y3231540D01*
X6110935Y3243275D01*
X6116218Y3255822D01*
X6119825Y3268979D01*
X6121654Y3282492D01*
X6121654Y3296107D01*
X6119825Y3309620D01*
X6116218Y3322777D01*
X6110935Y3335324D01*
X6103975Y3347059D01*
X6095492Y3357778D01*
X6085687Y3367278D01*
X6074714Y3375355D01*
X6062776Y3381908D01*
X6050026Y3386785D01*
X6036767Y3389985D01*
X6023203Y3391306D01*
X6009589Y3390849D01*
X5996127Y3388614D01*
X5983122Y3384550D01*
X5970727Y3378809D01*
X5959246Y3371494D01*
X5948832Y3362706D01*
X5939688Y3352546D01*
X5931966Y3341319D01*
X5925820Y3329178D01*
X5921349Y3316274D01*
X5918606Y3302914D01*
X5917692Y3289300D01*
X5918606Y3275685D01*
X5921349Y3262325D01*
X5925820Y3249422D01*
X5931966Y3237280D01*
X5939688Y3226054D01*
X5948832Y3215894D01*
X5959246Y3207105D01*
X5970727Y3199790D01*
X5983122Y3194050D01*
X5996127Y3189986D01*
X6009589Y3187750D01*
G37*
G36*
X6785203Y3187293D02*
G01*
X6798767Y3188614D01*
X6812025Y3191814D01*
X6824776Y3196691D01*
X6836714Y3203244D01*
X6847687Y3211322D01*
X6857492Y3220821D01*
X6865975Y3231540D01*
X6872935Y3243275D01*
X6878218Y3255822D01*
X6881825Y3268979D01*
X6883653Y3282492D01*
X6883653Y3296107D01*
X6881825Y3309620D01*
X6878218Y3322777D01*
X6872935Y3335324D01*
X6865975Y3347059D01*
X6857492Y3357778D01*
X6847687Y3367278D01*
X6836714Y3375355D01*
X6824776Y3381908D01*
X6812025Y3386785D01*
X6798767Y3389985D01*
X6785203Y3391306D01*
X6771589Y3390849D01*
X6758127Y3388614D01*
X6745122Y3384550D01*
X6732727Y3378809D01*
X6721246Y3371494D01*
X6710832Y3362706D01*
X6701688Y3352546D01*
X6693966Y3341319D01*
X6687820Y3329178D01*
X6683349Y3316274D01*
X6680606Y3302914D01*
X6679692Y3289300D01*
X6680606Y3275685D01*
X6683349Y3262325D01*
X6687820Y3249422D01*
X6693966Y3237280D01*
X6701688Y3226054D01*
X6710832Y3215894D01*
X6721246Y3207105D01*
X6732727Y3199790D01*
X6745122Y3194050D01*
X6758127Y3189986D01*
X6771589Y3187750D01*
G37*
G36*
X7166203Y3187293D02*
G01*
X7179767Y3188614D01*
X7193025Y3191814D01*
X7205776Y3196691D01*
X7217714Y3203244D01*
X7228687Y3211322D01*
X7238492Y3220821D01*
X7246975Y3231540D01*
X7253935Y3243275D01*
X7259218Y3255822D01*
X7262825Y3268979D01*
X7264653Y3282492D01*
X7264653Y3296107D01*
X7262825Y3309620D01*
X7259218Y3322777D01*
X7253935Y3335324D01*
X7246975Y3347059D01*
X7238492Y3357778D01*
X7228687Y3367278D01*
X7217714Y3375355D01*
X7205776Y3381908D01*
X7193025Y3386785D01*
X7179767Y3389985D01*
X7166203Y3391306D01*
X7152589Y3390849D01*
X7139127Y3388614D01*
X7126122Y3384550D01*
X7113727Y3378809D01*
X7102246Y3371494D01*
X7091832Y3362706D01*
X7082688Y3352546D01*
X7074966Y3341319D01*
X7068820Y3329178D01*
X7064349Y3316274D01*
X7061606Y3302914D01*
X7060692Y3289300D01*
X7061606Y3275685D01*
X7064349Y3262325D01*
X7068820Y3249422D01*
X7074966Y3237280D01*
X7082688Y3226054D01*
X7091832Y3215894D01*
X7102246Y3207105D01*
X7113727Y3199790D01*
X7126122Y3194050D01*
X7139127Y3189986D01*
X7152589Y3187750D01*
G37*
G36*
X5642203Y3187293D02*
G01*
X5655767Y3188614D01*
X5669026Y3191814D01*
X5681776Y3196691D01*
X5693714Y3203244D01*
X5704687Y3211322D01*
X5714492Y3220821D01*
X5722975Y3231540D01*
X5729935Y3243275D01*
X5735218Y3255822D01*
X5738825Y3268979D01*
X5740654Y3282492D01*
X5740654Y3296107D01*
X5738825Y3309620D01*
X5735218Y3322777D01*
X5729935Y3335324D01*
X5722975Y3347059D01*
X5714492Y3357778D01*
X5704687Y3367278D01*
X5693714Y3375355D01*
X5681776Y3381908D01*
X5669026Y3386785D01*
X5655767Y3389985D01*
X5642203Y3391306D01*
X5628589Y3390849D01*
X5615127Y3388614D01*
X5602122Y3384550D01*
X5589727Y3378809D01*
X5578246Y3371494D01*
X5567832Y3362706D01*
X5558688Y3352546D01*
X5550966Y3341319D01*
X5544820Y3329178D01*
X5540349Y3316274D01*
X5537606Y3302914D01*
X5536692Y3289300D01*
X5537606Y3275685D01*
X5540349Y3262325D01*
X5544820Y3249422D01*
X5550966Y3237280D01*
X5558688Y3226054D01*
X5567832Y3215894D01*
X5578246Y3207105D01*
X5589727Y3199790D01*
X5602122Y3194050D01*
X5615127Y3189986D01*
X5628589Y3187750D01*
G37*
G36*
X7166203Y3441293D02*
G01*
X7179767Y3442614D01*
X7193025Y3445814D01*
X7205776Y3450691D01*
X7217714Y3457244D01*
X7228687Y3465322D01*
X7238492Y3474821D01*
X7246975Y3485540D01*
X7253935Y3497275D01*
X7259218Y3509822D01*
X7262825Y3522979D01*
X7264653Y3536492D01*
X7264653Y3550107D01*
X7262825Y3563620D01*
X7259218Y3576777D01*
X7253935Y3589324D01*
X7246975Y3601059D01*
X7238492Y3611778D01*
X7228687Y3621278D01*
X7217714Y3629355D01*
X7205776Y3635908D01*
X7193025Y3640785D01*
X7179767Y3643985D01*
X7166203Y3645306D01*
X7152589Y3644849D01*
X7139127Y3642614D01*
X7126122Y3638550D01*
X7113727Y3632809D01*
X7102246Y3625494D01*
X7091832Y3616706D01*
X7082688Y3606546D01*
X7074966Y3595319D01*
X7068820Y3583178D01*
X7064349Y3570274D01*
X7061606Y3556914D01*
X7060692Y3543300D01*
X7061606Y3529685D01*
X7064349Y3516325D01*
X7068820Y3503422D01*
X7074966Y3491280D01*
X7082688Y3480054D01*
X7091832Y3469894D01*
X7102246Y3461105D01*
X7113727Y3453790D01*
X7126122Y3448050D01*
X7139127Y3443986D01*
X7152589Y3441750D01*
G37*
G36*
X5642203Y3441293D02*
G01*
X5655767Y3442614D01*
X5669026Y3445814D01*
X5681776Y3450691D01*
X5693714Y3457244D01*
X5704687Y3465322D01*
X5714492Y3474821D01*
X5722975Y3485540D01*
X5729935Y3497275D01*
X5735218Y3509822D01*
X5738825Y3522979D01*
X5740654Y3536492D01*
X5740654Y3550107D01*
X5738825Y3563620D01*
X5735218Y3576777D01*
X5729935Y3589324D01*
X5722975Y3601059D01*
X5714492Y3611778D01*
X5704687Y3621278D01*
X5693714Y3629355D01*
X5681776Y3635908D01*
X5669026Y3640785D01*
X5655767Y3643985D01*
X5642203Y3645306D01*
X5628589Y3644849D01*
X5615127Y3642614D01*
X5602122Y3638550D01*
X5589727Y3632809D01*
X5578246Y3625494D01*
X5567832Y3616706D01*
X5558688Y3606546D01*
X5550966Y3595319D01*
X5544820Y3583178D01*
X5540349Y3570274D01*
X5537606Y3556914D01*
X5536692Y3543300D01*
X5537606Y3529685D01*
X5540349Y3516325D01*
X5544820Y3503422D01*
X5550966Y3491280D01*
X5558688Y3480054D01*
X5567832Y3469894D01*
X5578246Y3461105D01*
X5589727Y3453790D01*
X5602122Y3448050D01*
X5615127Y3443986D01*
X5628589Y3441750D01*
G37*
G36*
X6023203Y3441293D02*
G01*
X6036767Y3442614D01*
X6050026Y3445814D01*
X6062776Y3450691D01*
X6074714Y3457244D01*
X6085687Y3465322D01*
X6095492Y3474821D01*
X6103975Y3485540D01*
X6110935Y3497275D01*
X6116218Y3509822D01*
X6119825Y3522979D01*
X6121654Y3536492D01*
X6121654Y3550107D01*
X6119825Y3563620D01*
X6116218Y3576777D01*
X6110935Y3589324D01*
X6103975Y3601059D01*
X6095492Y3611778D01*
X6085687Y3621278D01*
X6074714Y3629355D01*
X6062776Y3635908D01*
X6050026Y3640785D01*
X6036767Y3643985D01*
X6023203Y3645306D01*
X6009589Y3644849D01*
X5996127Y3642614D01*
X5983122Y3638550D01*
X5970727Y3632809D01*
X5959246Y3625494D01*
X5948832Y3616706D01*
X5939688Y3606546D01*
X5931966Y3595319D01*
X5925820Y3583178D01*
X5921349Y3570274D01*
X5918606Y3556914D01*
X5917692Y3543300D01*
X5918606Y3529685D01*
X5921349Y3516325D01*
X5925820Y3503422D01*
X5931966Y3491280D01*
X5939688Y3480054D01*
X5948832Y3469894D01*
X5959246Y3461105D01*
X5970727Y3453790D01*
X5983122Y3448050D01*
X5996127Y3443986D01*
X6009589Y3441750D01*
G37*
G36*
X6785203Y3441293D02*
G01*
X6798767Y3442614D01*
X6812025Y3445814D01*
X6824776Y3450691D01*
X6836714Y3457244D01*
X6847687Y3465322D01*
X6857492Y3474821D01*
X6865975Y3485540D01*
X6872935Y3497275D01*
X6878218Y3509822D01*
X6881825Y3522979D01*
X6883653Y3536492D01*
X6883653Y3550107D01*
X6881825Y3563620D01*
X6878218Y3576777D01*
X6872935Y3589324D01*
X6865975Y3601059D01*
X6857492Y3611778D01*
X6847687Y3621278D01*
X6836714Y3629355D01*
X6824776Y3635908D01*
X6812025Y3640785D01*
X6798767Y3643985D01*
X6785203Y3645306D01*
X6771589Y3644849D01*
X6758127Y3642614D01*
X6745122Y3638550D01*
X6732727Y3632809D01*
X6721246Y3625494D01*
X6710832Y3616706D01*
X6701688Y3606546D01*
X6693966Y3595319D01*
X6687820Y3583178D01*
X6683349Y3570274D01*
X6680606Y3556914D01*
X6679692Y3543300D01*
X6680606Y3529685D01*
X6683349Y3516325D01*
X6687820Y3503422D01*
X6693966Y3491280D01*
X6701688Y3480054D01*
X6710832Y3469894D01*
X6721246Y3461105D01*
X6732727Y3453790D01*
X6745122Y3448050D01*
X6758127Y3443986D01*
X6771589Y3441750D01*
G37*
G36*
X6785203Y3695293D02*
G01*
X6798767Y3696614D01*
X6812025Y3699814D01*
X6824776Y3704691D01*
X6836714Y3711244D01*
X6847687Y3719322D01*
X6857492Y3728821D01*
X6865975Y3739540D01*
X6872935Y3751275D01*
X6878218Y3763822D01*
X6881825Y3776979D01*
X6883653Y3790492D01*
X6883653Y3804107D01*
X6881825Y3817620D01*
X6878218Y3830777D01*
X6872935Y3843324D01*
X6865975Y3855059D01*
X6857492Y3865778D01*
X6847687Y3875278D01*
X6836714Y3883355D01*
X6824776Y3889908D01*
X6812025Y3894785D01*
X6798767Y3897985D01*
X6785203Y3899306D01*
X6771589Y3898849D01*
X6758127Y3896614D01*
X6745122Y3892550D01*
X6732727Y3886809D01*
X6721246Y3879494D01*
X6710832Y3870706D01*
X6701688Y3860546D01*
X6693966Y3849319D01*
X6687820Y3837178D01*
X6683349Y3824274D01*
X6680606Y3810914D01*
X6679692Y3797300D01*
X6680606Y3783685D01*
X6683349Y3770325D01*
X6687820Y3757422D01*
X6693966Y3745280D01*
X6701688Y3734054D01*
X6710832Y3723894D01*
X6721246Y3715105D01*
X6732727Y3707790D01*
X6745122Y3702050D01*
X6758127Y3697986D01*
X6771589Y3695750D01*
G37*
G36*
X5642203Y3695293D02*
G01*
X5655767Y3696614D01*
X5669026Y3699814D01*
X5681776Y3704691D01*
X5693714Y3711244D01*
X5704687Y3719322D01*
X5714492Y3728821D01*
X5722975Y3739540D01*
X5729935Y3751275D01*
X5735218Y3763822D01*
X5738825Y3776979D01*
X5740654Y3790492D01*
X5740654Y3804107D01*
X5738825Y3817620D01*
X5735218Y3830777D01*
X5729935Y3843324D01*
X5722975Y3855059D01*
X5714492Y3865778D01*
X5704687Y3875278D01*
X5693714Y3883355D01*
X5681776Y3889908D01*
X5669026Y3894785D01*
X5655767Y3897985D01*
X5642203Y3899306D01*
X5628589Y3898849D01*
X5615127Y3896614D01*
X5602122Y3892550D01*
X5589727Y3886809D01*
X5578246Y3879494D01*
X5567832Y3870706D01*
X5558688Y3860546D01*
X5550966Y3849319D01*
X5544820Y3837178D01*
X5540349Y3824274D01*
X5537606Y3810914D01*
X5536692Y3797300D01*
X5537606Y3783685D01*
X5540349Y3770325D01*
X5544820Y3757422D01*
X5550966Y3745280D01*
X5558688Y3734054D01*
X5567832Y3723894D01*
X5578246Y3715105D01*
X5589727Y3707790D01*
X5602122Y3702050D01*
X5615127Y3697986D01*
X5628589Y3695750D01*
G37*
G36*
X6023203Y3695293D02*
G01*
X6036767Y3696614D01*
X6050026Y3699814D01*
X6062776Y3704691D01*
X6074714Y3711244D01*
X6085687Y3719322D01*
X6095492Y3728821D01*
X6103975Y3739540D01*
X6110935Y3751275D01*
X6116218Y3763822D01*
X6119825Y3776979D01*
X6121654Y3790492D01*
X6121654Y3804107D01*
X6119825Y3817620D01*
X6116218Y3830777D01*
X6110935Y3843324D01*
X6103975Y3855059D01*
X6095492Y3865778D01*
X6085687Y3875278D01*
X6074714Y3883355D01*
X6062776Y3889908D01*
X6050026Y3894785D01*
X6036767Y3897985D01*
X6023203Y3899306D01*
X6009589Y3898849D01*
X5996127Y3896614D01*
X5983122Y3892550D01*
X5970727Y3886809D01*
X5959246Y3879494D01*
X5948832Y3870706D01*
X5939688Y3860546D01*
X5931966Y3849319D01*
X5925820Y3837178D01*
X5921349Y3824274D01*
X5918606Y3810914D01*
X5917692Y3797300D01*
X5918606Y3783685D01*
X5921349Y3770325D01*
X5925820Y3757422D01*
X5931966Y3745280D01*
X5939688Y3734054D01*
X5948832Y3723894D01*
X5959246Y3715105D01*
X5970727Y3707790D01*
X5983122Y3702050D01*
X5996127Y3697986D01*
X6009589Y3695750D01*
G37*
G36*
X7137806Y3698392D02*
G01*
X7137806Y3772306D01*
X7063943Y3772306D01*
X7064349Y3770325D01*
X7068820Y3757422D01*
X7074966Y3745280D01*
X7082688Y3734054D01*
X7091832Y3723894D01*
X7102246Y3715105D01*
X7113727Y3707790D01*
X7126122Y3702050D01*
G37*
G36*
X7187793Y3698544D02*
G01*
X7193025Y3699814D01*
X7205776Y3704691D01*
X7217714Y3711244D01*
X7228687Y3719322D01*
X7238492Y3728821D01*
X7246975Y3739540D01*
X7253935Y3751275D01*
X7259218Y3763822D01*
X7261555Y3772306D01*
X7187793Y3772306D01*
G37*
G36*
X7187793Y3822293D02*
G01*
X7261555Y3822293D01*
X7259218Y3830777D01*
X7253935Y3843324D01*
X7246975Y3855059D01*
X7238492Y3865778D01*
X7228687Y3875278D01*
X7217714Y3883355D01*
X7205776Y3889908D01*
X7193025Y3894785D01*
X7187793Y3896055D01*
G37*
G36*
X7063943Y3822293D02*
G01*
X7137806Y3822293D01*
X7137806Y3896207D01*
X7126122Y3892550D01*
X7113727Y3886809D01*
X7102246Y3879494D01*
X7091832Y3870706D01*
X7082688Y3860546D01*
X7074966Y3849319D01*
X7068820Y3837178D01*
X7064349Y3824274D01*
G37*

%LPD*%
D10*
X723900Y838200D02*
G01*
X2438400Y838200D01*
X3060700Y215900D01*
X3588004Y215900D01*
X723900Y2362200D02*
G01*
X3314700Y2362200D01*
X4787900Y889000D01*
X6451600Y889000D01*
X6692900Y1130300D01*
X7035800Y1130300D01*
X7162800Y1257300D01*
X3219602Y-152400D02*
G01*
X3416300Y-152400D01*
X3479800Y-88900D01*
X3479800Y38100D01*
X3657600Y215900D01*
X3748346Y215900D01*
X3079597Y-152400D02*
G01*
X3086100Y-158902D01*
X3086100Y-381000D01*
X3136900Y-431800D01*
X5321300Y-431800D01*
X5638800Y-114300D01*
X5638800Y88900D01*
X723900Y3124200D02*
G01*
X3314700Y3124200D01*
X4787900Y1651000D01*
X5823965Y1651000D01*
X6451600Y1651000D01*
X6692900Y1892300D01*
X7035800Y1892300D01*
X7162800Y2019300D01*
X723900Y4394200D02*
G01*
X2095500Y4394200D01*
X2628900Y4927600D01*
X7823200Y4927600D01*
X8140700Y4610100D01*
X8140700Y355600D01*
X7874000Y88900D01*
X5638800Y88900D01*
X3588004Y215900D02*
G01*
X7810500Y215900D01*
X8039100Y444500D01*
X8039100Y3581400D01*
X7823200Y3797300D01*
X7162800Y3797300D01*
X723900Y4140200D02*
G01*
X3378200Y4140200D01*
X4978400Y2540000D01*
X5626100Y2540000D01*
X5638800Y2527300D01*
X723900Y3886200D02*
G01*
X3314700Y3886200D01*
X4787900Y2413000D01*
X6464300Y2413000D01*
X6705600Y2654300D01*
X7035800Y2654300D01*
X7162800Y2781300D01*
X723900Y3632200D02*
G01*
X3302000Y3632200D01*
X4775200Y2159000D01*
X6464300Y2159000D01*
X6692900Y2387600D01*
X7023100Y2387600D01*
X7162800Y2527300D01*
X723900Y3378200D02*
G01*
X3314700Y3378200D01*
X4787900Y1905000D01*
X6426200Y1905000D01*
X6680200Y2159000D01*
X7048500Y2159000D01*
X7162800Y2273300D01*
X723900Y2870200D02*
G01*
X3314700Y2870200D01*
X4787900Y1397000D01*
X6477000Y1397000D01*
X6718300Y1638300D01*
X7035800Y1638300D01*
X7162800Y1765300D01*
X723900Y2108200D02*
G01*
X3289300Y2108200D01*
X4775200Y622300D01*
X6413500Y622300D01*
X6667500Y876300D01*
X7035800Y876300D01*
X7162800Y1003300D01*
X723900Y1854200D02*
G01*
X3200400Y1854200D01*
X3797300Y1257300D01*
X723900Y1600200D02*
G01*
X3327400Y1600200D01*
X3429000Y1498600D01*
X723900Y1346200D02*
G01*
X3187700Y1346200D01*
X723900Y1092200D02*
G01*
X3048000Y1092200D01*
X7607300Y876300D02*
G01*
X7429500Y876300D01*
X7785100Y876300D02*
G01*
X7658100Y749300D01*
X7162800Y749300D01*
X3073400Y-152400D02*
G01*
X2336800Y609600D01*
X1930400Y609600D01*
X723900Y2616200D02*
G01*
X3327400Y2616200D01*
X4800600Y1143000D01*
X6502400Y1143000D01*
X6743700Y1384300D01*
X7035800Y1384300D01*
X7162800Y1511300D01*
X7162800Y3797300D02*
G01*
X6565900Y4394200D01*
X2514600Y4394200D01*
D11*
G01*
X3219602Y-152400D03*
G01*
X3079597Y-152400D03*
D12*
G01*
X723900Y4394200D03*
G01*
X723900Y4140200D03*
G01*
X723900Y3886200D03*
G01*
X723900Y3632200D03*
G01*
X723900Y3378200D03*
G01*
X723900Y3124200D03*
G01*
X723900Y2870200D03*
G01*
X723900Y2616200D03*
G01*
X723900Y2362200D03*
G01*
X723900Y2108200D03*
G01*
X723900Y1854200D03*
G01*
X723900Y1600200D03*
G01*
X723900Y1346200D03*
G01*
X723900Y1092200D03*
G01*
X723900Y838200D03*
D13*
G01*
X6781800Y495300D03*
G01*
X6781800Y749300D03*
G01*
X6781800Y1003300D03*
G01*
X6781800Y1257300D03*
G01*
X6781800Y1511300D03*
G01*
X6781800Y1752600D03*
G01*
X6781800Y2032000D03*
G01*
X6781800Y2273300D03*
G01*
X6781800Y2527300D03*
G01*
X6781800Y2794000D03*
G01*
X6781800Y3035300D03*
G01*
X6781800Y3289300D03*
G01*
X6781800Y3543300D03*
G01*
X6781800Y3797300D03*
G01*
X6019800Y3797300D03*
G01*
X6019800Y3543300D03*
G01*
X6019800Y3289300D03*
G01*
X6019800Y3035300D03*
G01*
X6019800Y2781300D03*
G01*
X6019800Y2527300D03*
G01*
X6019800Y2273300D03*
G01*
X6019800Y2019300D03*
G01*
X6019800Y1765300D03*
G01*
X6019800Y1511300D03*
G01*
X6019800Y1257300D03*
G01*
X6019800Y1003300D03*
G01*
X6019800Y749300D03*
G01*
X6019800Y495300D03*
G01*
X7162800Y3797300D03*
G01*
X7162800Y3543300D03*
G01*
X7162800Y3289300D03*
G01*
X7162800Y3035300D03*
G01*
X7162800Y2781300D03*
G01*
X7162800Y2527300D03*
G01*
X7162800Y2273300D03*
G01*
X7162800Y2019300D03*
G01*
X7162800Y1765300D03*
G01*
X7162800Y1511300D03*
G01*
X7162800Y1257300D03*
G01*
X7162800Y1003300D03*
G01*
X7162800Y749300D03*
G01*
X7162800Y495300D03*
G01*
X5638800Y3797300D03*
G01*
X5638800Y3543300D03*
G01*
X5638800Y3289300D03*
G01*
X5638800Y3035300D03*
G01*
X5638800Y2781300D03*
G01*
X5638800Y2527300D03*
G01*
X5638800Y2273300D03*
G01*
X5638800Y2019300D03*
G01*
X5638800Y1765300D03*
G01*
X5638800Y1511300D03*
G01*
X5638800Y1257300D03*
G01*
X5638800Y1003300D03*
G01*
X5638800Y749300D03*
G01*
X5638800Y495300D03*
D14*
G01*
X3797300Y1257300D03*
G01*
X3429000Y1498600D03*
G01*
X3187700Y1346200D03*
G01*
X3048000Y1092200D03*
G01*
X7607300Y876300D03*
G01*
X7429500Y876300D03*
G01*
X7785100Y876300D03*
G01*
X1930400Y609600D03*
G01*
X5638800Y88900D03*
G01*
X2527300Y4394200D03*
M02*
